<svg xmlns="http://www.w3.org/2000/svg" xml:space="preserve" width="150px" height="39px" version="1.1" shape-rendering="geometricPrecision" text-rendering="geometricPrecision" image-rendering="optimizeQuality" fill-rule="evenodd" clip-rule="evenodd"
viewBox="0 0 68.02 17.68"
 xmlns:xlink="http://www.w3.org/1999/xlink"
 xmlns:xodm="http://www.corel.com/coreldraw/odm/2003">
 <defs>
    <clipPath id="id0">
     <path d="M8.48 0.52l0 0c4.53,0 8.24,3.71 8.24,8.24l0 0c0,4.53 -3.71,8.24 -8.24,8.24l0 0c-4.53,0 -8.24,-3.71 -8.24,-8.24l0 0c0,-4.53 3.71,-8.24 8.24,-8.24z"/>
    </clipPath>
    <linearGradient id="id1" gradientUnits="userSpaceOnUse" x1="4.05" y1="4.34" x2="12.85" y2="13.24">
     <stop offset="0" stop-opacity="1" stop-color="#19214D"/>
     <stop offset="1" stop-opacity="1" stop-color="#273167"/>
    </linearGradient>
 </defs>
 <g id="Layer_x0020_1">
  <metadata id="CorelCorpID_0Corel-Layer"/>
  <rect fill="none" width="68.02" height="17.68"/>
  <g id="_2666699470992">
   <path fill="#273167" d="M8.48 0.52l0 0c4.53,0 8.24,3.71 8.24,8.24l0 0c0,4.53 -3.71,8.24 -8.24,8.24l0 0c-4.53,0 -8.24,-3.71 -8.24,-8.24l0 0c0,-4.53 3.71,-8.24 8.24,-8.24z"/>
   <g clip-path="url(#id0)">
    <g>
     <polygon id="_1" fill="#19214D" points="11.56,4.26 14.92,7.91 15,7.29 17.09,9.74 17.09,10.27 17.13,10.3 17.13,16.91 11.05,18.24 6.3,14.29 "/>
    </g>
   </g>
   <path fill="none" d="M8.48 0.52l0 0c4.53,0 8.24,3.71 8.24,8.24l0 0c0,4.53 -3.71,8.24 -8.24,8.24l0 0c-4.53,0 -8.24,-3.71 -8.24,-8.24l0 0c0,-4.53 3.71,-8.24 8.24,-8.24z"/>
   <path fill="url(#id1)" d="M7.77 3.35c-0.13,-0.09 -0.19,-0.19 -0.39,-0.25 -0.51,-0.13 -0.93,0.32 -0.91,0.97 -0.41,-0.12 -0.57,-0.34 -0.98,0.03 -0.4,0.34 -0.34,0.65 -0.36,0.96 -0.21,0.18 -0.32,0.21 -0.45,0.51 -0.14,0.33 -0.05,0.54 -0.11,0.89 -0.35,0.21 -0.31,0.02 -0.53,0.4 -0.56,0.04 -0.86,-0.01 -1.42,0.13 -0.44,0.11 -0.88,0.18 -0.85,0.74 0.03,0.44 0.46,0.63 0.73,0.83 0.35,0.28 0.51,0.47 1.13,0.46 0,0.22 0.02,0.41 0.1,0.59 0.1,0.23 0.16,0.26 0.33,0.38 -0.09,0.37 -0.21,0.49 -0.09,0.93 0.09,0.31 0.29,0.57 0.53,0.66 -0.06,0.46 -0.19,0.68 0.11,1.08 0.19,0.23 0.48,0.42 0.87,0.27 0.07,0.44 -0.09,0.71 0.25,1.03 0.51,0.47 0.52,0.32 0.95,0.24 0.17,0.18 0.43,0.47 0.85,0.4 0.47,-0.08 0.33,-0.43 0.89,-0.44 0.64,0 0.4,0.33 0.89,0.43 0.5,0.1 0.73,-0.26 0.88,-0.39 0.21,0.05 0.24,0.14 0.51,0.06 0.6,-0.18 0.71,-0.72 0.68,-1.34 0.23,0.06 0.26,0.14 0.52,0.03 0.17,-0.08 0.29,-0.19 0.37,-0.3 0.29,-0.39 0.18,-0.59 0.11,-1.07 0.42,-0.18 0.6,-0.71 0.56,-1.14 -0.01,-0.19 -0.1,-0.3 -0.11,-0.46 0.33,-0.25 0.41,-0.41 0.42,-0.96 0.75,-0.06 0.4,0.09 1.12,-0.42 0.32,-0.23 0.71,-0.46 0.75,-0.84 0.07,-0.6 -0.46,-0.68 -0.81,-0.77 -0.61,-0.16 -0.85,-0.08 -1.45,-0.12 -0.02,-0.01 -0.11,-0.17 -0.21,-0.25 -0.1,-0.09 -0.2,-0.09 -0.33,-0.15 -0.08,-0.31 0.07,-0.5 -0.09,-0.88 -0.14,-0.35 -0.22,-0.33 -0.46,-0.53 -0.02,-0.24 0.02,-0.37 -0.07,-0.58 -0.13,-0.28 -0.41,-0.56 -0.74,-0.57 -0.27,-0.01 -0.33,0.1 -0.53,0.17 0.03,-0.68 -0.41,-1.1 -0.89,-0.99 -0.19,0.04 -0.28,0.18 -0.39,0.25 -0.14,-0.14 -0.33,-0.36 -0.67,-0.37 -0.39,-0.02 -0.54,0.21 -0.71,0.38z"/>
   <path fill="#FFFEFE" d="M8.33 3.54c-0.32,0.1 -0.24,0.29 -0.47,0.35 -0.29,0.07 -0.29,-0.21 -0.52,-0.27 -0.23,-0.07 -0.44,0.12 -0.48,0.3 -0.04,0.14 0.22,1.24 -0.53,0.62 -0.23,-0.19 -0.78,-0.25 -0.76,0.61 0,0.33 -0.2,0.33 -0.35,0.47 -0.35,0.32 -0.2,0.92 0.15,1.1 0.28,0.15 0.42,0.01 0.62,-0.1 0.23,-0.12 0.5,-0.02 0.61,0.12 0.06,0.08 0.38,0.97 0.87,0.46 0.12,-0.12 0.21,-0.38 0.49,-0.24 0.18,0.09 0.2,0.35 0.52,0.33 0.28,-0.02 0.3,-0.26 0.48,-0.34 0.45,-0.2 0.49,0.77 1.04,0.27 0.2,-0.18 0.17,-0.33 0.31,-0.49 0.4,-0.49 0.74,0.23 1.22,-0.01 0.38,-0.2 0.48,-0.78 0.13,-1.11 -0.17,-0.15 -0.35,-0.14 -0.33,-0.45 0.01,-0.34 -0.01,-0.39 -0.19,-0.57 -0.18,-0.19 -0.31,-0.24 -0.53,-0.08 -0.23,0.17 -0.47,0.14 -0.54,-0.11 -0.09,-0.27 0.08,-0.39 -0.14,-0.66 -0.18,-0.21 -0.37,-0.16 -0.54,0 -0.58,0.52 -0.46,-0.38 -1.06,-0.2z"/>
   <path fill="#FFFEFE" d="M7.52 14.01c-0.01,-0.01 -0.01,-0.02 -0.02,-0.02 0,0.01 -0.28,-0.21 -0.49,-0.67 -0.12,-0.29 -0.26,-0.54 -0.38,-0.81 -0.46,-1.1 -0.93,-2.37 -1.22,-3.55 -0.04,-0.2 -0.02,-0.31 -0.2,-0.37 -0.51,-0.2 -0.65,0.06 -0.71,0.09 -0.08,0.03 -0.15,0.01 -0.23,0.05 -0.09,0.05 -0.2,0.26 -0.2,0.42 -0.02,0.46 0.39,0.4 0.44,0.75 0.04,0.32 -0.27,0.5 -0.08,0.95 0.15,0.37 0.51,0.24 0.51,0.68 0,0.18 -0.1,0.3 -0.09,0.48 0,0.17 0.09,0.33 0.2,0.41 0.33,0.24 0.64,-0.39 0.84,0.02 0.16,0.32 -0.16,0.61 0.05,1.02 0.24,0.47 0.66,0.14 0.82,0.17 0.21,0.04 0.42,0.56 0.76,0.38z"/>
   <path fill="#FFFEFE" d="M9.36 14.03c0.55,0.05 0.47,-0.37 0.77,-0.4 0.14,-0.02 0.55,0.33 0.81,-0.19 0.2,-0.39 -0.11,-0.68 0.03,-0.97 0.06,-0.14 0.21,-0.22 0.37,-0.13 0.14,0.09 0.17,0.21 0.41,0.11 0.47,-0.2 0.21,-0.74 0.19,-0.84 -0.06,-0.44 0.31,-0.41 0.47,-0.69 0.27,-0.49 -0.05,-0.58 -0.04,-0.97 0.01,-0.39 0.45,-0.33 0.44,-0.8 -0.01,-0.46 -0.39,-0.47 -0.41,-0.47 -0.16,-0.06 -0.15,-0.29 -0.7,-0.09 -0.21,0.08 -0.17,0.16 -0.22,0.4 -0.27,1.07 -0.78,2.54 -1.23,3.53l-0.59 1.22c-0.07,0.09 -0.28,0.23 -0.3,0.29z"/>
   <path fill="#FFFEFE" d="M4.16 7.57c-0.12,-0.28 -1.94,-0.48 -1.76,0.21 0.08,0.31 0.64,0.32 0.95,0.23 0.22,-0.07 0.42,-0.2 0.64,-0.3 0.12,-0.06 0.12,-0.03 0.17,-0.14z"/>
   <path fill="#FFFEFE" d="M12.75 7.54c0.02,0.17 0.17,0.17 0.33,0.26 0.15,0.07 0.27,0.14 0.44,0.2 0.36,0.13 0.86,0.07 0.98,-0.21 0.24,-0.59 -1.39,-0.57 -1.75,-0.25z"/>
   <path fill="#FFFEFE" d="M5.94 8.28c-0.05,0.31 0.18,0.7 0.32,0.83 0.13,0.13 0.71,0.36 0.95,0.15 0.19,-0.18 -0.23,-0.42 -0.46,-0.61 -0.15,-0.11 -0.56,-0.39 -0.81,-0.37z"/>
   <path fill="#FFFEFE" d="M10.96 8.28c-0.36,-0.03 -0.87,0.42 -1.12,0.62 -0.65,0.49 0.39,0.56 0.78,0.23 0.15,-0.13 0.39,-0.53 0.34,-0.85z"/>
   <path fill="#FFFEFE" d="M8.14 13.6c0.01,-0.14 -0.01,-0.21 -0.08,-0.3 -0.15,-0.17 -0.45,-0.41 -0.69,-0.34 -0.07,0.22 0.14,0.38 0.24,0.47 0.17,0.14 0.28,0.2 0.53,0.17z"/>
   <path fill="#FFFEFE" d="M8.75 13.58c0.37,0.13 0.88,-0.41 0.78,-0.59 -0.09,-0.16 -0.45,0.08 -0.52,0.13 -0.13,0.11 -0.28,0.23 -0.26,0.46z"/>
  </g>
  <polygon fill="#273167" fill-rule="nonzero" points="21.62,7.24 19.94,1.98 21.76,1.98 23.12,6.42 22.21,6.42 23.65,1.98 25.28,1.98 26.62,6.42 25.74,6.42 27.16,1.98 28.84,1.98 27.16,7.24 25.26,7.24 24.17,3.61 24.68,3.61 23.52,7.24 "/>
  <path id="_1_0" fill="#273167" fill-rule="nonzero" d="M28.48 7.24l2.29 -5.26 1.75 0 2.29 5.26 -1.83 0 -1.7 -4.41 0.69 0 -1.69 4.41 -1.8 0zm1.36 -0.91l0.45 -1.28 2.42 0 0.45 1.28 -3.32 0z"/>
  <polygon id="_2" fill="#273167" fill-rule="nonzero" points="35.1,7.24 35.1,1.98 36.87,1.98 36.87,5.87 39.24,5.87 39.24,7.24 "/>
  <polygon id="_3" fill="#273167" fill-rule="nonzero" points="40.39,7.24 40.39,3.36 38.85,3.36 38.85,1.98 43.7,1.98 43.7,3.36 42.16,3.36 42.16,7.24 "/>
  <path id="_4" fill="#273167" fill-rule="nonzero" d="M45.78 3.94l2.34 0 0 1.27 -2.34 0 0 -1.27zm0.12 1.96l2.62 0 0 1.34 -4.37 0 0 -5.26 4.28 0 0 1.34 -2.53 0 0 2.58z"/>
  <polygon id="_5" fill="#273167" fill-rule="nonzero" points="49.21,7.24 49.21,1.98 50.67,1.98 52.77,5.42 52,5.42 54.04,1.98 55.5,1.98 55.52,7.24 53.9,7.24 53.89,4.42 54.14,4.42 52.75,6.77 51.96,6.77 50.51,4.42 50.82,4.42 50.82,7.24 "/>
  <path id="_6" fill="#273167" fill-rule="nonzero" d="M55.8 7.24l2.3 -5.26 1.74 0 2.3 5.26 -1.83 0 -1.7 -4.41 0.69 0 -1.7 4.41 -1.8 0zm1.37 -0.91l0.45 -1.28 2.42 0 0.45 1.28 -3.32 0z"/>
  <path id="_7" fill="#273167" fill-rule="nonzero" d="M62.42 7.24l0 -5.26 2.53 0c0.5,0 0.92,0.08 1.28,0.25 0.36,0.16 0.63,0.38 0.83,0.68 0.19,0.3 0.29,0.65 0.29,1.06 0,0.4 -0.1,0.75 -0.29,1.04 -0.2,0.3 -0.47,0.52 -0.83,0.68 -0.36,0.15 -0.78,0.23 -1.28,0.23l-1.54 0 0.79 -0.73 0 2.05 -1.78 0zm3.15 0l-1.29 -1.91 1.88 0 1.3 1.91 -1.89 0zm-1.37 -1.85l-0.79 -0.81 1.43 0c0.25,0 0.43,-0.05 0.55,-0.16 0.11,-0.11 0.17,-0.26 0.17,-0.45 0,-0.19 -0.06,-0.34 -0.17,-0.45 -0.12,-0.11 -0.3,-0.17 -0.55,-0.17l-1.43 0 0.79 -0.8 0 2.84z"/>
  <path fill="#273167" fill-rule="nonzero" d="M22.95 15.18c-0.41,0 -0.78,-0.07 -1.13,-0.2 -0.35,-0.13 -0.65,-0.32 -0.91,-0.57 -0.25,-0.24 -0.45,-0.53 -0.59,-0.86 -0.15,-0.33 -0.22,-0.69 -0.22,-1.09 0,-0.39 0.07,-0.76 0.22,-1.09 0.14,-0.33 0.34,-0.62 0.6,-0.86 0.25,-0.25 0.56,-0.44 0.9,-0.57 0.35,-0.13 0.73,-0.2 1.14,-0.2 0.45,0 0.86,0.08 1.23,0.24 0.37,0.16 0.68,0.39 0.93,0.69l-0.78 0.72c-0.18,-0.2 -0.38,-0.35 -0.6,-0.46 -0.22,-0.1 -0.46,-0.15 -0.72,-0.15 -0.25,0 -0.47,0.04 -0.68,0.12 -0.21,0.08 -0.38,0.19 -0.53,0.34 -0.15,0.15 -0.27,0.33 -0.35,0.54 -0.08,0.2 -0.13,0.43 -0.13,0.68 0,0.25 0.05,0.48 0.13,0.68 0.08,0.21 0.2,0.39 0.35,0.54 0.15,0.15 0.32,0.26 0.53,0.34 0.21,0.08 0.43,0.12 0.68,0.12 0.26,0 0.5,-0.05 0.72,-0.15 0.22,-0.1 0.42,-0.26 0.6,-0.47l0.78 0.72c-0.25,0.31 -0.56,0.54 -0.93,0.7 -0.37,0.16 -0.78,0.24 -1.24,0.24z"/>
  <path id="_1_1" fill="#273167" fill-rule="nonzero" d="M25.99 15.09l2.34 -5.26 1.2 0 2.36 5.26 -1.28 0 -1.92 -4.64 0.48 0 -1.93 4.64 -1.25 0zm1.17 -1.13l0.32 -0.92 2.71 0 0.33 0.92 -3.36 0z"/>
  <path id="_2_2" fill="#273167" fill-rule="nonzero" d="M33.28 15.09l0 -5.26 2.28 0c0.47,0 0.87,0.08 1.21,0.23 0.35,0.15 0.61,0.37 0.79,0.66 0.19,0.28 0.28,0.62 0.28,1.02 0,0.39 -0.09,0.73 -0.28,1.01 -0.18,0.28 -0.44,0.5 -0.79,0.65 -0.34,0.15 -0.74,0.22 -1.21,0.22l-1.6 0 0.54 -0.53 0 2 -1.22 0zm3.34 0l-1.31 -1.91 1.3 0 1.33 1.91 -1.32 0zm-2.12 -1.86l-0.54 -0.57 1.53 0c0.38,0 0.66,-0.09 0.84,-0.25 0.19,-0.16 0.28,-0.39 0.28,-0.67 0,-0.29 -0.09,-0.52 -0.28,-0.68 -0.18,-0.16 -0.46,-0.24 -0.84,-0.24l-1.53 0 0.54 -0.57 0 2.98z"/>
  <polygon id="_3_3" fill="#273167" fill-rule="nonzero" points="39.65,15.09 39.65,9.83 40.66,9.83 43.76,13.62 43.27,13.62 43.27,9.83 44.47,9.83 44.47,15.09 43.47,15.09 40.37,11.3 40.85,11.3 40.85,15.09 "/>
  <path id="_4_4" fill="#273167" fill-rule="nonzero" d="M47.69 11.95l2.53 0 0 0.95 -2.53 0 0 -0.95zm0.09 2.16l2.86 0 0 0.98 -4.07 0 0 -5.26 3.97 0 0 0.98 -2.76 0 0 3.3z"/>
  <polygon id="_5_5" fill="#273167" fill-rule="nonzero" points="52.46,15.09 52.46,9.83 53.67,9.83 53.67,15.09 "/>
  <path id="_6_6" fill="#273167" fill-rule="nonzero" d="M55.77 15.09l0 -5.26 2.28 0c0.47,0 0.87,0.08 1.21,0.23 0.34,0.15 0.61,0.37 0.79,0.66 0.19,0.28 0.28,0.62 0.28,1.02 0,0.39 -0.09,0.73 -0.28,1.01 -0.18,0.28 -0.45,0.5 -0.79,0.65 -0.34,0.15 -0.74,0.22 -1.21,0.22l-1.6 0 0.54 -0.53 0 2 -1.22 0zm3.34 0l-1.31 -1.91 1.3 0 1.33 1.91 -1.32 0zm-2.12 -1.86l-0.54 -0.57 1.53 0c0.37,0 0.65,-0.09 0.84,-0.25 0.18,-0.16 0.28,-0.39 0.28,-0.67 0,-0.29 -0.1,-0.52 -0.28,-0.68 -0.19,-0.16 -0.47,-0.24 -0.84,-0.24l-1.53 0 0.54 -0.57 0 2.98z"/>
  <path id="_7_7" fill="#273167" fill-rule="nonzero" d="M64.69 15.18c-0.41,0 -0.8,-0.07 -1.15,-0.2 -0.35,-0.14 -0.66,-0.33 -0.92,-0.57 -0.25,-0.25 -0.45,-0.54 -0.6,-0.87 -0.14,-0.33 -0.21,-0.69 -0.21,-1.08 0,-0.39 0.07,-0.75 0.21,-1.08 0.15,-0.33 0.35,-0.62 0.61,-0.86 0.26,-0.25 0.56,-0.44 0.91,-0.57 0.35,-0.14 0.73,-0.21 1.15,-0.21 0.41,0 0.79,0.07 1.14,0.21 0.35,0.13 0.65,0.32 0.91,0.57 0.26,0.24 0.46,0.53 0.6,0.86 0.15,0.32 0.22,0.69 0.22,1.08 0,0.39 -0.07,0.75 -0.22,1.09 -0.14,0.33 -0.34,0.62 -0.6,0.86 -0.26,0.24 -0.56,0.43 -0.91,0.57 -0.35,0.13 -0.73,0.2 -1.14,0.2zm0 -1.04c0.23,0 0.45,-0.04 0.65,-0.12 0.19,-0.08 0.37,-0.19 0.52,-0.34 0.15,-0.15 0.26,-0.33 0.35,-0.54 0.08,-0.2 0.12,-0.43 0.12,-0.68 0,-0.25 -0.04,-0.48 -0.12,-0.68 -0.09,-0.21 -0.2,-0.39 -0.35,-0.54 -0.15,-0.15 -0.32,-0.26 -0.52,-0.34 -0.2,-0.08 -0.42,-0.12 -0.65,-0.12 -0.24,0 -0.46,0.04 -0.65,0.12 -0.2,0.08 -0.38,0.19 -0.53,0.34 -0.15,0.15 -0.26,0.33 -0.35,0.54 -0.08,0.2 -0.12,0.43 -0.12,0.68 0,0.25 0.04,0.47 0.12,0.68 0.09,0.21 0.2,0.39 0.35,0.54 0.15,0.15 0.32,0.26 0.52,0.34 0.2,0.08 0.42,0.12 0.66,0.12z"/>
 </g>
</svg>