<?xml version="1.0" encoding="UTF-8"?>
<!DOCTYPE svg PUBLIC "-//W3C//DTD SVG 1.1//EN" "http://www.w3.org/Graphics/SVG/1.1/DTD/svg11.dtd">
<!-- Creator: CorelDRAW 2021 (64-Bit) -->
<svg xmlns="http://www.w3.org/2000/svg" xml:space="preserve" width="116px" height="34px" version="1.1" style="shape-rendering:geometricPrecision; text-rendering:geometricPrecision; image-rendering:optimizeQuality; fill-rule:evenodd; clip-rule:evenodd"
viewBox="0 0 13.79 4.04"
 xmlns:xlink="http://www.w3.org/1999/xlink"
 xmlns:xodm="http://www.corel.com/coreldraw/odm/2003">
 <defs>
  <style type="text/css">
   <![CDATA[
    .fil1 {fill:#00A88F}
    .fil3 {fill:#0E2332}
    .fil0 {fill:#FCAF28}
    .fil2 {fill:#FFFFFE}
    .fnt0 {font-weight:bold;font-size:2.97px;font-family:'Montserrat'}
   ]]>
  </style>
 </defs>
 <g id="Layer_x0020_1">
  <metadata id="CorelCorpID_0Corel-Layer"/>
  <g id="_3051054537440">
   <path class="fil0" d="M3.58 2.26c-0.16,1.04 -1.34,1.77 -2.48,1.04 -0.24,-0.15 -0.47,-0.49 -0.58,-0.79 -0.15,-0.44 -0.08,-0.92 0.16,-1.3 0.46,-0.74 1.39,-0.99 2.16,-0.53 0.52,0.31 0.84,0.92 0.74,1.58zm0.45 -0.11c0.08,-1.08 -0.73,-2.05 -1.86,-2.14 -1.93,-0.16 -3,2.32 -1.37,3.62 1.18,0.95 3.12,0.19 3.23,-1.48z"/>
   <path class="fil1" d="M0.83 2.17c0.08,0.61 0.63,1.13 1.33,1.04 0.61,-0.08 1.11,-0.58 1.04,-1.33 -0.05,-0.61 -0.64,-1.14 -1.33,-1.04 -0.69,0.1 -1.12,0.71 -1.04,1.33z"/>
   <path class="fil2" d="M0.83 2.17c-0.08,-0.62 0.35,-1.23 1.04,-1.33 0.69,-0.1 1.28,0.43 1.33,1.04 0.07,0.75 -0.43,1.25 -1.04,1.33 -0.7,0.09 -1.25,-0.43 -1.33,-1.04zm2.75 0.09c0.1,-0.66 -0.22,-1.27 -0.74,-1.58 -0.77,-0.46 -1.7,-0.21 -2.16,0.53 -0.24,0.38 -0.31,0.86 -0.16,1.3 0.11,0.3 0.34,0.64 0.58,0.79 1.14,0.73 2.32,0 2.48,-1.04z"/>
  </g>
  <text x="4.68" y="3.17"  class="fil3 fnt0">Sofisa</text>
 </g>
</svg>
