<?xml version="1.0" encoding="UTF-8"?>
<!DOCTYPE svg PUBLIC "-//W3C//DTD SVG 1.1//EN" "http://www.w3.org/Graphics/SVG/1.1/DTD/svg11.dtd">
<!-- Creator: CorelDRAW 2021 (64-Bit) -->
<svg xmlns="http://www.w3.org/2000/svg" xml:space="preserve" width="116px" height="34px" version="1.1" style="shape-rendering:geometricPrecision; text-rendering:geometricPrecision; image-rendering:optimizeQuality; fill-rule:evenodd; clip-rule:evenodd"
viewBox="0 0 13.79 4.04"
 xmlns:xlink="http://www.w3.org/1999/xlink"
 xmlns:xodm="http://www.corel.com/coreldraw/odm/2003">
 <defs>
  <style type="text/css">
   <![CDATA[
    .fil1 {fill:#00A88F}
    .fil0 {fill:#FCAF28}
    .fil2 {fill:#FFFFFE}
    .fil3 {fill:#0E2332;fill-rule:nonzero}
   ]]>
  </style>
 </defs>
 <g id="Layer_x0020_1">
  <metadata id="CorelCorpID_0Corel-Layer"/>
  <g id="_3050082080240">
   <path class="fil0" d="M3.58 2.26c-0.16,1.04 -1.34,1.77 -2.48,1.04 -0.24,-0.15 -0.47,-0.49 -0.58,-0.79 -0.15,-0.44 -0.08,-0.92 0.16,-1.3 0.46,-0.74 1.39,-0.99 2.16,-0.53 0.52,0.31 0.84,0.92 0.74,1.58zm0.45 -0.11c0.08,-1.08 -0.73,-2.05 -1.86,-2.14 -1.93,-0.16 -3,2.32 -1.37,3.62 1.18,0.95 3.12,0.19 3.23,-1.48z"/>
   <path class="fil1" d="M0.83 2.17c0.08,0.61 0.63,1.13 1.33,1.04 0.61,-0.08 1.11,-0.58 1.04,-1.33 -0.05,-0.61 -0.64,-1.14 -1.33,-1.04 -0.69,0.1 -1.12,0.71 -1.04,1.33z"/>
   <path class="fil2" d="M0.83 2.17c-0.08,-0.62 0.35,-1.23 1.04,-1.33 0.69,-0.1 1.28,0.43 1.33,1.04 0.07,0.75 -0.43,1.25 -1.04,1.33 -0.7,0.09 -1.25,-0.43 -1.33,-1.04zm2.75 0.09c0.1,-0.66 -0.22,-1.27 -0.74,-1.58 -0.77,-0.46 -1.7,-0.21 -2.16,0.53 -0.24,0.38 -0.31,0.86 -0.16,1.3 0.11,0.3 0.34,0.64 0.58,0.79 1.14,0.73 2.32,0 2.48,-1.04z"/>
  </g>
  <path class="fil3" d="M5.61 3.21c-0.17,0 -0.33,-0.02 -0.48,-0.07 -0.15,-0.04 -0.27,-0.1 -0.37,-0.17l0.17 -0.36c0.09,0.06 0.19,0.11 0.31,0.15 0.12,0.04 0.25,0.06 0.37,0.06 0.1,0 0.17,-0.01 0.23,-0.03 0.06,-0.01 0.1,-0.04 0.13,-0.07 0.03,-0.04 0.04,-0.08 0.04,-0.12 0,-0.06 -0.02,-0.1 -0.06,-0.13 -0.05,-0.03 -0.1,-0.06 -0.17,-0.08 -0.08,-0.02 -0.15,-0.04 -0.24,-0.06 -0.09,-0.02 -0.17,-0.04 -0.26,-0.07 -0.09,-0.03 -0.16,-0.06 -0.23,-0.11 -0.08,-0.04 -0.13,-0.1 -0.18,-0.17 -0.04,-0.07 -0.07,-0.16 -0.07,-0.27 0,-0.12 0.04,-0.23 0.1,-0.33 0.07,-0.1 0.16,-0.17 0.29,-0.23 0.13,-0.06 0.29,-0.09 0.49,-0.09 0.13,0 0.26,0.01 0.39,0.05 0.12,0.03 0.23,0.07 0.33,0.13l-0.15 0.37c-0.09,-0.06 -0.19,-0.1 -0.29,-0.12 -0.09,-0.03 -0.19,-0.04 -0.28,-0.04 -0.1,0 -0.17,0.01 -0.23,0.03 -0.06,0.02 -0.1,0.05 -0.13,0.08 -0.02,0.04 -0.04,0.08 -0.04,0.12 0,0.06 0.02,0.1 0.07,0.13 0.04,0.03 0.1,0.06 0.17,0.08 0.07,0.02 0.15,0.04 0.24,0.06 0.08,0.02 0.17,0.04 0.25,0.07 0.09,0.02 0.17,0.06 0.24,0.1 0.07,0.05 0.13,0.1 0.17,0.17 0.05,0.08 0.07,0.17 0.07,0.27 0,0.12 -0.03,0.23 -0.1,0.32 -0.06,0.1 -0.16,0.18 -0.29,0.24 -0.13,0.06 -0.29,0.09 -0.49,0.09zm1.94 -0.01c-0.17,0 -0.32,-0.04 -0.45,-0.11 -0.14,-0.07 -0.24,-0.17 -0.32,-0.29 -0.07,-0.13 -0.11,-0.27 -0.11,-0.43 0,-0.16 0.04,-0.3 0.11,-0.42 0.08,-0.13 0.18,-0.22 0.32,-0.29 0.13,-0.07 0.28,-0.11 0.45,-0.11 0.17,0 0.32,0.04 0.45,0.11 0.13,0.07 0.24,0.16 0.31,0.29 0.08,0.12 0.11,0.26 0.11,0.42 0,0.16 -0.03,0.3 -0.11,0.43 -0.07,0.12 -0.18,0.22 -0.31,0.29 -0.13,0.07 -0.28,0.11 -0.45,0.11zm0 -0.38c0.07,0 0.14,-0.02 0.21,-0.06 0.06,-0.03 0.11,-0.08 0.14,-0.15 0.04,-0.07 0.05,-0.14 0.05,-0.24 0,-0.09 -0.01,-0.17 -0.05,-0.23 -0.03,-0.07 -0.08,-0.12 -0.14,-0.15 -0.07,-0.04 -0.14,-0.06 -0.21,-0.06 -0.08,0 -0.15,0.02 -0.21,0.06 -0.06,0.03 -0.11,0.08 -0.15,0.15 -0.03,0.06 -0.05,0.14 -0.05,0.23 0,0.1 0.02,0.17 0.05,0.24 0.04,0.07 0.09,0.12 0.15,0.15 0.06,0.04 0.13,0.06 0.21,0.06zm1.24 0.35l0 -1.63c0,-0.18 0.05,-0.32 0.16,-0.43 0.11,-0.11 0.26,-0.16 0.46,-0.16 0.06,0 0.13,0 0.19,0.02 0.06,0.01 0.12,0.03 0.16,0.06l-0.12 0.34c-0.03,-0.02 -0.06,-0.03 -0.09,-0.04 -0.03,-0.01 -0.06,-0.02 -0.1,-0.02 -0.07,0 -0.12,0.02 -0.16,0.06 -0.03,0.04 -0.05,0.1 -0.05,0.17l0 0.15 0.01 0.2 0 1.28 -0.46 0zm-0.25 -1.2l0 -0.36 1.11 0 0 0.36 -1.11 0zm1.37 1.2l0 -1.59 0.46 0 0 1.59 -0.46 0zm0.23 -1.82c-0.08,0 -0.15,-0.02 -0.21,-0.07 -0.05,-0.05 -0.08,-0.11 -0.08,-0.19 0,-0.07 0.03,-0.13 0.08,-0.18 0.06,-0.05 0.13,-0.07 0.21,-0.07 0.09,0 0.16,0.02 0.21,0.07 0.05,0.04 0.08,0.1 0.08,0.18 0,0.07 -0.03,0.14 -0.08,0.19 -0.05,0.05 -0.12,0.07 -0.21,0.07zm1.2 1.85c-0.14,0 -0.27,-0.02 -0.39,-0.05 -0.13,-0.04 -0.23,-0.08 -0.3,-0.13l0.15 -0.33c0.07,0.05 0.16,0.08 0.26,0.11 0.1,0.03 0.2,0.05 0.3,0.05 0.1,0 0.18,-0.02 0.22,-0.04 0.05,-0.03 0.07,-0.06 0.07,-0.11 0,-0.04 -0.02,-0.07 -0.05,-0.08 -0.04,-0.02 -0.08,-0.04 -0.14,-0.05 -0.06,-0.01 -0.12,-0.02 -0.19,-0.03 -0.07,-0.01 -0.14,-0.02 -0.2,-0.04 -0.07,-0.01 -0.14,-0.04 -0.19,-0.07 -0.06,-0.04 -0.11,-0.08 -0.14,-0.14 -0.04,-0.06 -0.05,-0.13 -0.05,-0.22 0,-0.1 0.02,-0.19 0.08,-0.27 0.06,-0.08 0.15,-0.14 0.26,-0.18 0.11,-0.05 0.24,-0.07 0.39,-0.07 0.11,0 0.22,0.01 0.34,0.04 0.11,0.02 0.2,0.06 0.28,0.1l-0.15 0.33c-0.08,-0.04 -0.16,-0.08 -0.24,-0.09 -0.08,-0.02 -0.15,-0.03 -0.23,-0.03 -0.1,0 -0.17,0.02 -0.22,0.04 -0.05,0.03 -0.07,0.07 -0.07,0.11 0,0.04 0.02,0.07 0.05,0.09 0.03,0.02 0.08,0.04 0.14,0.05 0.06,0.01 0.12,0.02 0.19,0.03 0.06,0.01 0.13,0.02 0.2,0.04 0.07,0.02 0.13,0.04 0.19,0.07 0.06,0.04 0.1,0.08 0.14,0.14 0.04,0.05 0.05,0.13 0.05,0.22 0,0.1 -0.03,0.19 -0.09,0.26 -0.06,0.08 -0.14,0.14 -0.25,0.18 -0.11,0.04 -0.25,0.07 -0.41,0.07zm2.02 -0.03l0 -0.31 -0.03 -0.07 0 -0.56c0,-0.09 -0.03,-0.17 -0.09,-0.23 -0.06,-0.05 -0.16,-0.08 -0.28,-0.08 -0.09,0 -0.17,0.01 -0.25,0.04 -0.08,0.03 -0.15,0.06 -0.21,0.11l-0.17 -0.33c0.09,-0.06 0.2,-0.1 0.32,-0.14 0.12,-0.03 0.25,-0.05 0.37,-0.05 0.25,0 0.43,0.06 0.57,0.17 0.13,0.12 0.2,0.3 0.2,0.54l0 0.91 -0.43 0zm-0.49 0.03c-0.12,0 -0.23,-0.02 -0.32,-0.07 -0.09,-0.04 -0.16,-0.1 -0.2,-0.17 -0.05,-0.07 -0.08,-0.16 -0.08,-0.25 0,-0.09 0.03,-0.18 0.07,-0.25 0.05,-0.07 0.12,-0.12 0.23,-0.16 0.1,-0.04 0.23,-0.07 0.39,-0.07l0.42 0 0 0.27 -0.37 0c-0.11,0 -0.18,0.02 -0.22,0.06 -0.04,0.03 -0.06,0.08 -0.06,0.13 0,0.06 0.02,0.11 0.07,0.14 0.04,0.04 0.11,0.05 0.19,0.05 0.07,0 0.14,-0.01 0.2,-0.05 0.07,-0.04 0.11,-0.09 0.14,-0.16l0.07 0.21c-0.03,0.1 -0.1,0.18 -0.18,0.24 -0.09,0.05 -0.21,0.08 -0.35,0.08z"/>
 </g>
</svg>
