<?xml version="1.0" encoding="UTF-8"?>
<!DOCTYPE svg PUBLIC "-//W3C//DTD SVG 1.1//EN" "http://www.w3.org/Graphics/SVG/1.1/DTD/svg11.dtd">
<!-- Creator: CorelDRAW 2019 (64 Bit) -->
<svg xmlns="http://www.w3.org/2000/svg" xml:space="preserve" width="700px" height="700px" version="1.1" style="shape-rendering:geometricPrecision; text-rendering:geometricPrecision; image-rendering:optimizeQuality; fill-rule:evenodd; clip-rule:evenodd"
viewBox="0 0 698.32 698.32"
 xmlns:xlink="http://www.w3.org/1999/xlink">
 <defs>
  <style type="text/css">
   <![CDATA[
    .fil0 {fill:black}
   ]]>
  </style>
 </defs>
 <g id="Camada_x0020_1">
  <metadata id="CorelCorpID_0Corel-Layer"/>
  <g id="_829682928">
   <path class="fil0" d="M0 238.64c0,9.17 5.12,14.49 13.31,14.49 6.72,0 28.36,-6.38 35.69,-8.57 5.92,-1.78 11.39,-2.81 17.31,-4.59 2.99,-0.89 5.9,-1.49 8.65,-2.3 20.93,-6.13 10.29,2.42 10.29,30.48 0,8.49 -0.4,17.36 0.63,25.73l2.9 26.46c0.88,8.62 2.75,17.62 4.32,25.5 2.75,13.92 7.33,27.4 12.2,40.49 10.37,27.85 26.94,54.88 45.6,77.38 1.06,1.27 1.28,1.84 2.47,3.1 1.21,1.28 1.83,1.83 2.84,3.22 3.11,4.28 10.89,12.29 15.5,16.33l33.58 27.37c1.3,0.91 1.95,1.36 3.31,2.21 7.66,4.75 14.17,8.31 21.42,0.57 5.61,-5.99 5.43,-14.13 0.18,-20.15 -0.93,-1.06 -1.07,-0.88 -2.16,-1.87 -2.77,-2.54 -5.45,-5.74 -8.14,-8.53 -1.59,-1.66 -2.18,-2.82 -3.68,-4.42l-11.51 -13.8c-9.58,-12.89 -18.23,-26.26 -25.5,-41.53l-7.44 -17.04c-0.91,-2.28 -1.64,-3.8 -2.44,-6.23 -1.46,-4.44 -2.82,-8.43 -4.19,-12.69 -11.58,-36.15 -15.23,-84.37 -7.17,-121.81 1.41,-6.51 2.4,-12.42 4.22,-18.35 1.76,-5.77 3.42,-11.37 5.43,-17.07 0.77,-2.19 2.05,-5.91 3.2,-8.02 2.93,-5.41 11.46,-4.05 17.06,-4.85 3.19,-0.46 7.03,-0.43 10.18,-0.71 18.99,-1.68 40.33,-2.02 60.16,-2.02l30.13 0.96c7.41,0.86 14.3,0.23 21.82,1.41 2.52,0.39 4.94,0.04 7.47,0.43 8.22,1.28 25.87,2.46 35.6,3.49 10.42,1.11 24.23,2.96 34.13,5.05l39.26 7.94c16.58,3.67 33.61,8.72 49.22,14.04l44.6 18.37c14.59,6.23 36.54,20.03 49.28,30.02 5.89,4.62 7.55,6.91 12.63,11.58l3.92 4.16c7.25,7.62 13.35,16.39 18.26,25.86 2.47,4.75 4.22,9.35 5.53,14.9 5.23,22.13 -1.95,41.47 -13.94,58.35 -4.74,6.66 -10.21,12.26 -15.75,18.14 -6.79,7.21 -14.93,13.58 -22.69,19.65 -19.32,15.15 -41.43,27.15 -63.42,37.42 -6.1,2.85 -17.26,8.33 -17.26,17.08 0,3.98 1.62,7.64 3.36,9.93 7.04,9.29 21.47,2.15 29.6,-0.68 11.57,-4.03 23,-9.05 34.13,-13.84l24.58 -11.45c8,-3.74 15.9,-8.2 23.65,-12.43 7.56,-4.12 15.04,-9.14 22.27,-13.88 8.26,-5.41 15.99,-11.81 23.62,-18.15 1.12,-0.94 2.16,-1.76 3.26,-2.79 2.19,-2.05 4.11,-3.72 6.38,-5.71l23.16 -25.37c3.61,-4.5 7.11,-9.35 9.98,-14.36 2.92,-5.1 6.02,-10.47 8.4,-16.03 16.18,-37.91 9.59,-78.92 -13.58,-111 -1.32,-1.83 -2.44,-3.17 -3.73,-4.88 -9.82,-13.08 -26.6,-28.79 -40.04,-38.17 -19.97,-13.93 -44.45,-28.17 -66.9,-36.88 -8.3,-3.22 -15.89,-6.45 -24.5,-9.47 -12.8,-4.47 -26.18,-8.1 -39.43,-11.9 -18.5,-5.29 -37.81,-8.42 -56.95,-11.61l-29.98 -4.22c-5.32,-0.7 -10.62,-0.58 -15.91,-1.41 -7.91,-1.23 -23.41,-0.76 -32.11,-1.99 -4.4,-0.62 -10.74,-0.98 -15.43,-1.39l-16.73 -0.54c-9.19,0 -64.61,2.96 -70.26,3.84 -6.52,1.02 -47.19,4.96 -53.43,4.96 1.7,-3.37 4.42,-7.01 7.02,-9.71 2.87,-2.98 5.44,-5.95 8.37,-8.8 1,-0.98 1.21,-0.96 2.2,-1.83l11.27 -10.43c4.83,-3.96 9,-7.87 14.21,-11.47 3.53,-2.45 6.3,-4.81 9.99,-7.1 7.09,-4.4 14.01,-8.92 21.35,-12.78 23.03,-12.1 49.7,-20.98 76.29,-24.94 27.33,-4.06 55.47,-2.46 81.86,3.24 23.32,5.04 45.35,14.01 66.24,25.15 10.42,5.55 20.13,12.44 29.46,19.78 6.86,5.39 11.12,10.94 20.63,10.94 8.7,0 17.74,-13.22 6.03,-27.05 -1.6,-1.89 -3.28,-3.3 -4.93,-5.17l-29.89 -30.72c-11.17,-9.16 -22.08,-18.63 -34.61,-25.76l-19.31 -10.77c-2.28,-1.18 -4.28,-2.22 -6.65,-3.38 -2.42,-1.18 -4.5,-1.89 -6.9,-3.1l-14.06 -5.93c-4.79,-1.81 -9.74,-3.4 -14.78,-5.18 -10.38,-3.67 -20.99,-6.1 -31.82,-7.99 -20.07,-3.51 -32.18,-3.84 -52.06,-3.85l-0.95 0c-27.31,0 -63.78,9.28 -89.75,19.09 -11.12,4.2 -26.99,11.17 -36.99,17.56 -12.25,7.83 -21.26,12.98 -32.92,22.36 -3.36,2.69 -6.55,5.59 -9.86,8.28 -6.42,5.21 -13.03,12.47 -18.85,18.51 -5.78,6 -11.66,13.63 -16.69,20.25 -8,10.56 -15.98,21.79 -22.11,33.72 -2.08,4.04 -4.4,7.67 -6.4,11.91l-6.25 12.59c-1.1,2.29 -1.69,4.11 -2.79,6.39 -1.08,2.26 -1.8,4.27 -2.79,6.39 -1.03,2.21 -1.68,4.06 -3.31,5.83 -4.91,5.32 -12.18,6.15 -18.79,8.73 -15.22,5.95 -30.37,11.46 -45.09,18.9 -2.23,1.12 -3.77,1.82 -6.08,2.93 -3.96,1.93 -8.36,4.18 -12.14,6.4 -7.11,4.18 -18.57,8.4 -18.57,18.8z"/>
   <path class="fil0" d="M352.34 540.43l0 115.96c0,9.24 -2.62,34.82 2.06,39.77 1.46,1.55 3.51,2.16 6.32,2.16l43.36 0c9.01,0 18.56,0.19 20.97,-8 0.67,-2.29 1.21,-6.35 1.21,-9.08l0 -214.83c0,-8.21 -2.76,-17.6 -10.35,-17.6 -7.18,0 -9.17,1.96 -15.3,5.67l-23.8 14.34c-5.28,2.82 -20.26,11.51 -22.8,15.39 -2.51,3.84 -2.16,11.08 -2.16,17.4 0,13.12 0.49,25.29 0.49,38.82z"/>
   <path class="fil0" d="M285.81 534.74l0 152.71c0,3.56 1.85,7.49 4.94,9.31 3.14,1.86 22.06,1.04 27.1,1.04 4.67,0 10.02,0.89 13.46,0.17 4.44,-0.93 5.75,-2.89 6.55,-7.61 0.79,-4.6 -0.3,-36.99 -0.3,-43.81l0.49 -135.62c0,-3.71 -0.39,-5.78 -0.49,-8.81 -0.37,-11.42 -7.43,-4.77 -17.59,1.2 -4.67,2.75 -8.97,5.33 -13.43,8.16 -9.08,5.75 -20.73,10.17 -20.73,23.26z"/>
  </g>
 </g>
</svg>
