<?xml version="1.0" encoding="UTF-8"?>
<!DOCTYPE svg PUBLIC "-//W3C//DTD SVG 1.1//EN" "http://www.w3.org/Graphics/SVG/1.1/DTD/svg11.dtd">
<!-- Creator: CorelDRAW 2021 (64-Bit) -->
<svg xmlns="http://www.w3.org/2000/svg" xml:space="preserve" width="192px" height="192px" version="1.1" shape-rendering="geometricPrecision" text-rendering="geometricPrecision" image-rendering="optimizeQuality" fill-rule="evenodd" clip-rule="evenodd"
viewBox="0 0 91.72 91.72"
 xmlns:xlink="http://www.w3.org/1999/xlink"
 xmlns:xodm="http://www.corel.com/coreldraw/odm/2003">
 <defs>
   <linearGradient id="id0" gradientUnits="userSpaceOnUse" x1="11.05" y1="16" x2="80.67" y2="75.73">
    <stop offset="0" stop-opacity="1" stop-color="orange"/>
    <stop offset="1" stop-opacity="1" stop-color="#E77000"/>
   </linearGradient>
   <linearGradient id="id1" gradientUnits="userSpaceOnUse" x1="37.91" y1="56.84" x2="53.82" y2="65.7">
    <stop offset="0" stop-opacity="1" stop-color="orange"/>
    <stop offset="1" stop-opacity="1" stop-color="#E77000"/>
   </linearGradient>
 </defs>
 <g id="Layer_x0020_1">
  <metadata id="CorelCorpID_0Corel-Layer"/>
  <rect fill="url(#id0)" width="91.72" height="91.72"/>
  <rect fill="none" x="34.38" y="19.98" width="25.94" height="48.15" rx="12.97" ry="16.56"/>
  <path fill="white" d="M22.01 41.75l0.71 0 0 -8.51c0,-12.72 10.42,-23.13 23.14,-23.13 12.73,0 23.14,10.41 23.14,23.13l0 8.51 0.72 0c3.16,0 5.74,2.58 5.74,5.74l0 28.39c0,3.16 -2.58,5.74 -5.74,5.74l-47.71 0c-3.16,0 -5.75,-2.58 -5.75,-5.74l0 -28.39c0,-3.16 2.59,-5.74 5.75,-5.74zm10.99 0l25.94 0 0 -9.11c0,-7.13 -5.84,-12.97 -12.97,-12.97l0 0c-7.14,0 -12.97,5.84 -12.97,12.97l0 9.11z"/>
  <path fill="url(#id1)" d="M45.7 48.89c3.95,0 7.16,3.21 7.16,7.16 0,2.75 -1.56,5.13 -3.83,6.33l4.65 11.26 -15.64 0 4.61 -11.13c-2.42,-1.14 -4.1,-3.61 -4.1,-6.46 0,-3.95 3.2,-7.16 7.15,-7.16z"/>
 </g>
</svg>
