<?xml version="1.0" encoding="UTF-8"?>
<!DOCTYPE svg PUBLIC "-//W3C//DTD SVG 1.1//EN" "http://www.w3.org/Graphics/SVG/1.1/DTD/svg11.dtd">
<!-- Creator: CorelDRAW 2021 (64-Bit) -->
<svg xmlns="http://www.w3.org/2000/svg" xml:space="preserve" width="192px" height="192px" version="1.1" shape-rendering="geometricPrecision" text-rendering="geometricPrecision" image-rendering="optimizeQuality" fill-rule="evenodd" clip-rule="evenodd"
viewBox="0 0 177.53 177.53"
 xmlns:xlink="http://www.w3.org/1999/xlink"
 xmlns:xodm="http://www.corel.com/coreldraw/odm/2003">
 <defs>
   <clipPath id="id0">
    <path d="M88.77 0l0 0c48.82,0 88.76,39.95 88.76,88.77l0 0c0,48.82 -39.94,88.76 -88.76,88.76l0 0c-48.82,0 -88.77,-39.94 -88.77,-88.76l0 0c0,-48.82 39.95,-88.77 88.77,-88.77z"/>
   </clipPath>
 </defs>
 <g id="Layer_x0020_1">
  <metadata id="CorelCorpID_0Corel-Layer"/>
  <path fill="#E77000" d="M88.77 0l0 0c48.82,0 88.76,39.95 88.76,88.77l0 0c0,48.82 -39.94,88.76 -88.76,88.76l0 0c-48.82,0 -88.77,-39.94 -88.77,-88.76l0 0c0,-48.82 39.95,-88.77 88.77,-88.77z"/>
  <g clip-path="url(#id0)">
  </g>
  <path id="_1" fill="none" d="M88.77 0l0 0c48.82,0 88.76,39.95 88.76,88.77l0 0c0,48.82 -39.94,88.76 -88.76,88.76l0 0c-48.82,0 -88.77,-39.94 -88.77,-88.76l0 0c0,-48.82 39.95,-88.77 88.77,-88.77z"/>
  <path fill="#FFFEFE" d="M86.86 18.97c-4.29,1.29 -3.25,3.89 -6.36,4.65 -3.84,0.95 -3.87,-2.74 -6.86,-3.61 -3.14,-0.92 -5.85,1.65 -6.49,4.01 -0.5,1.85 3.05,16.57 -7.07,8.29 -3.07,-2.51 -10.32,-3.28 -10.15,8.23 0.06,4.31 -2.63,4.38 -4.69,6.28 -4.61,4.27 -2.57,12.17 2.05,14.62 3.8,2.01 5.64,0.21 8.27,-1.27 3.04,-1.71 6.66,-0.38 8.22,1.57 0.79,0.98 5.07,12.94 11.57,6.16 1.58,-1.64 2.8,-5.17 6.57,-3.26 2.31,1.17 2.7,4.67 6.91,4.38 3.74,-0.27 4.03,-3.44 6.4,-4.48 6,-2.63 6.6,10.3 13.91,3.62 2.73,-2.5 2.28,-4.39 4.14,-6.62 5.39,-6.48 9.9,3.1 16.24,-0.1 5.19,-2.62 6.47,-10.44 1.76,-14.75 -2.25,-2.05 -4.62,-1.91 -4.41,-6.11 0.22,-4.44 -0.13,-5.21 -2.5,-7.62 -2.47,-2.51 -4.12,-3.17 -7.12,-0.99 -3.03,2.2 -6.23,1.85 -7.24,-1.45 -1.11,-3.61 1.14,-5.32 -1.82,-8.89 -2.33,-2.82 -4.92,-2.06 -7.25,0.04 -7.64,6.91 -6.13,-5.11 -14.08,-2.7z"/>
  <path fill="#FFFEFE" d="M76 158.8c-0.06,-0.08 -0.17,-0.31 -0.2,-0.24 -0.04,0.07 -3.82,-2.78 -6.55,-9 -1.66,-3.79 -3.57,-7.13 -5.09,-10.79 -6.14,-14.74 -12.41,-31.67 -16.27,-47.38 -0.65,-2.68 -0.38,-4.1 -2.73,-5.02 -6.81,-2.67 -8.66,0.84 -9.48,1.21 -1.1,0.5 -1.97,0.18 -3.11,0.77 -1.17,0.6 -2.61,3.42 -2.67,5.52 -0.19,6.21 5.29,5.33 5.92,9.99 0.57,4.29 -3.55,6.76 -1.08,12.72 2.04,4.95 6.82,3.28 6.78,9.1 -0.02,2.38 -1.28,4 -1.21,6.43 0.06,2.31 1.31,4.39 2.72,5.41 4.46,3.24 8.49,-5.1 11.27,0.34 2.15,4.2 -2.17,8.11 0.62,13.59 3.22,6.34 8.8,1.89 10.99,2.33 2.73,0.54 5.54,7.42 10.09,5.02z"/>
  <path fill="#FFFEFE" d="M100.59 159.05c7.4,0.73 6.3,-4.92 10.26,-5.33 1.92,-0.2 7.37,4.37 10.84,-2.5 2.65,-5.25 -1.45,-9.12 0.35,-12.97 0.86,-1.84 2.86,-2.96 4.96,-1.71 1.92,1.14 2.29,2.73 5.46,1.42 6.29,-2.61 2.8,-9.92 2.63,-11.16 -0.82,-5.97 4.14,-5.49 6.23,-9.27 3.6,-6.53 -0.72,-7.76 -0.55,-12.92 0.17,-5.28 6.04,-4.36 5.91,-10.75 -0.11,-6.04 -5.24,-6.18 -5.55,-6.29 -2.05,-0.74 -2,-3.87 -9.36,-1.09 -2.69,1.02 -2.14,2.14 -2.92,5.27 -3.6,14.34 -10.34,33.9 -16.43,47.19l-7.85 16.24c-0.88,1.19 -3.72,3.14 -3.98,3.87z"/>
  <path fill="#FFFEFE" d="M31.08 72.79c-1.61,-3.67 -25.9,-6.38 -23.44,2.88 1.1,4.14 8.59,4.26 12.69,3.02 2.9,-0.88 5.64,-2.72 8.48,-4.01 1.71,-0.78 1.69,-0.38 2.27,-1.89z"/>
  <path fill="#FFFEFE" d="M145.81 72.36c0.38,2.25 2.37,2.38 4.52,3.45 1.97,0.98 3.55,1.99 5.83,2.78 4.78,1.63 11.49,0.87 13.05,-2.88 3.25,-7.79 -18.55,-7.52 -23.4,-3.35z"/>
  <path fill="#FFFEFE" d="M54.89 82.27c-0.65,4.18 2.37,9.36 4.3,11.15 1.8,1.67 9.48,4.7 12.66,1.9 2.61,-2.29 -2.98,-5.57 -6.09,-8.04 -2,-1.58 -7.46,-5.31 -10.87,-5.01z"/>
  <path fill="#FFFEFE" d="M121.93 82.28c-4.73,-0.45 -11.6,5.66 -14.95,8.23 -8.61,6.61 5.18,7.52 10.42,3.1 2.04,-1.72 5.19,-7.01 4.53,-11.33z"/>
  <path fill="#FFFEFE" d="M84.27 153.28c0.09,-1.78 -0.07,-2.8 -1.05,-3.93 -1.95,-2.28 -6,-5.49 -9.22,-4.53 -0.92,2.9 1.86,5.08 3.23,6.25 2.2,1.9 3.76,2.6 7.04,2.21z"/>
  <path fill="#FFFEFE" d="M92.43 153.06c4.9,1.7 11.79,-5.42 10.43,-7.84 -1.21,-2.16 -6.02,1.03 -6.92,1.76 -1.76,1.44 -3.71,2.99 -3.51,6.08z"/>
 </g>
</svg>
