<?xml version="1.0" encoding="UTF-8"?>
<!DOCTYPE svg PUBLIC "-//W3C//DTD SVG 1.1//EN" "http://www.w3.org/Graphics/SVG/1.1/DTD/svg11.dtd">
<!-- Creator: CorelDRAW 2021 (64-Bit) -->
<svg xmlns="http://www.w3.org/2000/svg" xml:space="preserve" width="100px" height="100px" version="1.1" shape-rendering="geometricPrecision" text-rendering="geometricPrecision" image-rendering="optimizeQuality" fill-rule="evenodd" clip-rule="evenodd"
viewBox="0 0 350.97 350.97"
 xmlns:xlink="http://www.w3.org/1999/xlink"
 xmlns:xodm="http://www.corel.com/coreldraw/odm/2003">
 <defs>
   <linearGradient id="id0" gradientUnits="userSpaceOnUse" x1="43.79" y1="59.51" x2="307.18" y2="291.46">
    <stop offset="0" stop-opacity="1" stop-color="#FF6D00"/>
    <stop offset="1" stop-opacity="1" stop-color="#FF3B30"/>
   </linearGradient>
   <clipPath id="id1">
    <path d="M175.48 0l0 0c96.52,0 175.49,78.97 175.49,175.48l0 0c0,96.52 -78.97,175.49 -175.49,175.49l0 0c-96.51,0 -175.48,-78.97 -175.48,-175.49l0 0c0,-96.51 78.97,-175.48 175.48,-175.48z"/>
   </clipPath>
   <linearGradient id="id2" gradientUnits="userSpaceOnUse" x1="81.07" y1="81.32" x2="268.57" y2="270.79">
    <stop offset="0" stop-opacity="1" stop-color="#FF6D00"/>
    <stop offset="1" stop-opacity="1" stop-color="#FF4900"/>
   </linearGradient>
 </defs>
 <g id="Layer_x0020_1">
  <metadata id="CorelCorpID_0Corel-Layer"/>
  <path fill="url(#id0)" d="M175.48 0l0 0c96.52,0 175.49,78.97 175.49,175.48l0 0c0,96.52 -78.97,175.49 -175.49,175.49l0 0c-96.51,0 -175.48,-78.97 -175.48,-175.49l0 0c0,-96.51 78.97,-175.48 175.48,-175.48z"/>
  <g clip-path="url(#id1)">
   <g id="_2014664549760">
    <polygon id="_1" fill="#BD3831" points="241.08,79.66 359.52,208.35 359.52,349.04 230.19,377.23 129.06,293.09 "/>
    <polygon fill="#BD3831" points="314.19,144.17 358.85,196.38 358.85,217.96 311.93,163.5 "/>
   </g>
  </g>
  <path fill="none" d="M175.48 0l0 0c96.52,0 175.49,78.97 175.49,175.48l0 0c0,96.52 -78.97,175.49 -175.49,175.49l0 0c-96.51,0 -175.48,-78.97 -175.48,-175.49l0 0c0,-96.51 78.97,-175.48 175.48,-175.48z"/>
  <path fill="url(#id2)" d="M160.4 60.27c-2.83,-1.82 -4,-4.04 -8.42,-5.23 -10.83,-2.92 -19.7,6.71 -19.37,20.67 -8.69,-2.65 -11.96,-7.26 -20.78,0.48 -8.43,7.4 -7.15,13.92 -7.6,20.46 -4.62,3.98 -6.98,4.55 -9.7,10.89 -2.99,6.96 -0.99,11.62 -2.36,18.9 -7.4,4.5 -6.48,0.5 -11.18,8.66 -11.89,0.87 -18.37,-0.38 -30.33,2.65 -9.36,2.37 -18.67,3.91 -18.01,15.81 0.52,9.29 9.81,13.36 15.43,17.72 7.52,5.83 10.94,9.98 24.18,9.71 -0.05,4.62 0.39,8.82 2.09,12.68 2.1,4.77 3.37,5.39 6.99,7.95 -1.84,7.82 -4.43,10.55 -1.78,19.78 1.89,6.61 6.1,12.26 11.17,14.14 -1.36,9.75 -4.04,14.4 2.46,22.91 3.85,5.03 10.06,9.06 18.4,5.75 1.49,9.44 -1.99,15.15 5.36,21.93 10.89,10.05 11.16,6.75 20.15,5.22 3.58,3.71 9.14,9.87 18.1,8.39 10.02,-1.67 7.03,-9.05 18.9,-9.22 13.8,-0.19 8.53,6.88 19.14,9.08 10.49,2.16 15.43,-5.48 18.57,-8.41 4.64,1.09 5.22,3.04 10.84,1.37 12.92,-3.84 15.13,-15.29 14.65,-28.53 4.72,1.32 5.42,2.99 10.87,0.59 3.65,-1.61 6.18,-3.93 7.99,-6.4 6.06,-8.23 3.86,-12.52 2.31,-22.64 8.87,-3.85 12.86,-15.13 12.04,-24.29 -0.36,-4.08 -2.19,-6.37 -2.49,-9.76 7,-5.3 8.68,-8.89 9.06,-20.56 15.93,-1.34 8.5,1.98 23.79,-8.98 6.75,-4.83 15.2,-9.8 16.04,-17.74 1.35,-12.77 -9.86,-14.48 -17.41,-16.43 -12.94,-3.33 -18.01,-1.77 -30.79,-2.56 -0.36,-0.17 -2.42,-3.7 -4.42,-5.38 -2.27,-1.91 -4.3,-1.9 -7.15,-3.13 -1.56,-6.54 1.59,-10.74 -1.78,-18.81 -3.08,-7.4 -4.76,-6.88 -9.87,-11.29 -0.36,-4.94 0.4,-7.81 -1.57,-12.26 -2.62,-5.94 -8.72,-12.03 -15.69,-12.24 -5.69,-0.18 -6.98,2.15 -11.16,3.6 0.61,-14.45 -8.83,-23.22 -19.07,-20.96 -4.09,0.91 -5.84,3.75 -8.29,5.24 -2.97,-2.85 -7.1,-7.66 -14.23,-7.89 -8.24,-0.27 -11.48,4.61 -15.08,8.13z"/>
  <path fill="#FFFEFE" d="M172.32 64.33c-6.84,2.06 -5.17,6.2 -10.13,7.42 -6.13,1.51 -6.16,-4.38 -10.93,-5.77 -5.01,-1.45 -9.32,2.63 -10.35,6.4 -0.8,2.96 4.87,26.41 -11.27,13.21 -4.88,-4 -16.45,-5.22 -16.18,13.13 0.1,6.86 -4.19,6.97 -7.47,10.01 -7.36,6.8 -4.1,19.4 3.27,23.3 6.05,3.2 8.99,0.32 13.18,-2.04 4.85,-2.72 10.61,-0.59 13.09,2.51 1.26,1.57 8.09,20.63 18.46,9.83 2.51,-2.63 4.45,-8.25 10.47,-5.21 3.68,1.87 4.3,7.46 11.01,6.98 5.96,-0.42 6.42,-5.47 10.2,-7.13 9.56,-4.19 10.51,16.41 22.17,5.76 4.35,-3.97 3.64,-6.99 6.59,-10.54 8.6,-10.33 15.78,4.94 25.89,-0.16 8.27,-4.18 10.32,-16.65 2.81,-23.51 -3.58,-3.28 -7.36,-3.06 -7.03,-9.74 0.35,-7.07 -0.2,-8.31 -3.99,-12.15 -3.94,-3.99 -6.56,-5.05 -11.34,-1.58 -4.84,3.51 -9.93,2.95 -11.54,-2.31 -1.77,-5.76 1.81,-8.48 -2.9,-14.18 -3.72,-4.48 -7.85,-3.28 -11.56,0.08 -12.17,11.01 -9.77,-8.15 -22.45,-4.31z"/>
  <path fill="#FFFEFE" d="M155.02 287.22c-0.1,-0.14 -0.27,-0.5 -0.32,-0.39 -0.06,0.12 -6.1,-4.43 -10.44,-14.34 -2.65,-6.05 -5.7,-11.38 -8.12,-17.2 -9.78,-23.5 -19.77,-50.49 -25.92,-75.52 -1.05,-4.28 -0.61,-6.54 -4.36,-8.01 -10.85,-4.25 -13.8,1.34 -15.11,1.93 -1.76,0.8 -3.14,0.3 -4.95,1.23 -1.87,0.96 -4.17,5.45 -4.27,8.8 -0.3,9.9 8.44,8.49 9.44,15.92 0.91,6.84 -5.66,10.78 -1.73,20.27 3.27,7.89 10.88,5.23 10.82,14.5 -0.03,3.8 -2.05,6.38 -1.94,10.26 0.11,3.68 2.1,7 4.34,8.62 7.12,5.16 13.54,-8.12 17.97,0.55 3.42,6.68 -3.46,12.92 0.98,21.66 5.14,10.11 14.03,3.01 17.52,3.7 4.35,0.87 8.83,11.84 16.09,8.02z"/>
  <path fill="#FFFEFE" d="M194.21 287.61c11.79,1.17 10.05,-7.84 16.35,-8.49 3.06,-0.32 11.76,6.97 17.29,-3.98 4.22,-8.38 -2.31,-14.55 0.56,-20.69 1.36,-2.92 4.55,-4.71 7.89,-2.72 3.06,1.81 3.66,4.36 8.72,2.26 10.01,-4.15 4.46,-15.81 4.19,-17.79 -1.32,-9.5 6.6,-8.75 9.92,-14.77 5.74,-10.42 -1.14,-12.36 -0.88,-20.59 0.27,-8.42 9.64,-6.96 9.43,-17.13 -0.19,-9.64 -8.35,-9.86 -8.85,-10.03 -3.27,-1.18 -3.19,-6.18 -14.92,-1.74 -4.28,1.62 -3.4,3.41 -4.65,8.4 -5.73,22.86 -16.48,54.03 -26.18,75.22l-12.52 25.88c-1.4,1.9 -5.94,5.01 -6.35,6.17z"/>
  <path fill="#FFFEFE" d="M83.41 150.12c-2.55,-5.85 -41.28,-10.18 -37.36,4.59 1.75,6.6 13.7,6.79 20.24,4.81 4.62,-1.4 8.98,-4.33 13.51,-6.39 2.73,-1.24 2.69,-0.6 3.61,-3.01z"/>
  <path fill="#FFFEFE" d="M266.29 149.44c0.6,3.58 3.78,3.78 7.2,5.49 3.14,1.57 5.66,3.18 9.3,4.43 7.62,2.61 18.31,1.38 20.8,-4.59 5.17,-12.42 -29.57,-11.99 -37.3,-5.33z"/>
  <path fill="#FFFEFE" d="M121.36 165.23c-1.02,6.66 3.78,14.91 6.86,17.77 2.86,2.66 15.11,7.49 20.18,3.03 4.16,-3.65 -4.75,-8.88 -9.71,-12.82 -3.18,-2.52 -11.89,-8.46 -17.33,-7.98z"/>
  <path fill="#FFFEFE" d="M228.22 165.24c-7.53,-0.71 -18.48,9.03 -23.82,13.12 -13.72,10.54 8.25,11.99 16.6,4.95 3.25,-2.75 8.29,-11.18 7.22,-18.07z"/>
  <path fill="#FFFEFE" d="M168.2 278.41c0.15,-2.84 -0.12,-4.46 -1.67,-6.26 -3.12,-3.63 -9.57,-8.75 -14.71,-7.22 -1.45,4.62 2.98,8.1 5.15,9.97 3.52,3.01 6.01,4.14 11.23,3.51z"/>
  <path fill="#FFFEFE" d="M181.21 278.07c7.8,2.7 18.79,-8.64 16.62,-12.5 -1.93,-3.44 -9.6,1.64 -11.03,2.81 -2.8,2.29 -5.92,4.76 -5.59,9.69z"/>
 </g>
</svg>
