<?xml version="1.0" encoding="UTF-8"?>
<!DOCTYPE svg PUBLIC "-//W3C//DTD SVG 1.1//EN" "http://www.w3.org/Graphics/SVG/1.1/DTD/svg11.dtd">
<!-- Creator: CorelDRAW 2021 (64-Bit) -->
<svg xmlns="http://www.w3.org/2000/svg" xml:space="preserve" width="202px" height="48px" version="1.1" shape-rendering="geometricPrecision" text-rendering="geometricPrecision" image-rendering="optimizeQuality" fill-rule="evenodd" clip-rule="evenodd"
viewBox="0 0 27.67 6.57"
 xmlns:xlink="http://www.w3.org/1999/xlink"
 xmlns:xodm="http://www.corel.com/coreldraw/odm/2003">
 <g id="Layer_x0020_1">
  <metadata id="CorelCorpID_0Corel-Layer"/>
  <g id="_2014714344288">
   <path fill="white" d="M3.71 0.02c-0.2,0.06 -0.16,0.18 -0.3,0.21 -0.18,0.05 -0.18,-0.13 -0.32,-0.17 -0.15,-0.04 -0.27,0.08 -0.3,0.19 -0.03,0.09 0.14,0.77 -0.33,0.39 -0.15,-0.12 -0.49,-0.15 -0.48,0.38 0,0.2 -0.12,0.21 -0.22,0.3 -0.21,0.19 -0.12,0.56 0.1,0.68 0.18,0.09 0.26,0.01 0.39,-0.06 0.14,-0.08 0.31,-0.02 0.38,0.07 0.04,0.05 0.24,0.61 0.54,0.29 0.07,-0.08 0.13,-0.24 0.31,-0.15 0.1,0.05 0.12,0.22 0.32,0.2 0.17,-0.01 0.19,-0.16 0.3,-0.21 0.28,-0.12 0.3,0.48 0.65,0.17 0.12,-0.12 0.1,-0.2 0.19,-0.31 0.25,-0.3 0.46,0.15 0.76,0 0.24,-0.12 0.3,-0.49 0.08,-0.69 -0.11,-0.1 -0.22,-0.09 -0.21,-0.29 0.01,-0.2 0,-0.24 -0.11,-0.35 -0.12,-0.12 -0.2,-0.15 -0.34,-0.05 -0.14,0.1 -0.29,0.09 -0.33,-0.07 -0.06,-0.16 0.05,-0.24 -0.09,-0.41 -0.11,-0.13 -0.23,-0.1 -0.34,0 -0.35,0.32 -0.28,-0.24 -0.65,-0.12z"/>
   <path fill="white" d="M3.2 6.54c0,0 -0.01,-0.01 -0.01,-0.01 0,0 -0.18,-0.13 -0.31,-0.42 -0.07,-0.18 -0.16,-0.33 -0.23,-0.5 -0.29,-0.69 -0.58,-1.48 -0.76,-2.21 -0.03,-0.13 -0.02,-0.2 -0.13,-0.24 -0.32,-0.12 -0.4,0.04 -0.44,0.06 -0.05,0.02 -0.09,0.01 -0.15,0.03 -0.05,0.03 -0.12,0.16 -0.12,0.26 -0.01,0.29 0.24,0.25 0.27,0.47 0.03,0.2 -0.16,0.31 -0.05,0.59 0.1,0.23 0.32,0.15 0.32,0.43 0,0.11 -0.06,0.18 -0.06,0.3 0.01,0.1 0.06,0.2 0.13,0.25 0.21,0.15 0.4,-0.24 0.53,0.01 0.1,0.2 -0.11,0.38 0.02,0.64 0.16,0.3 0.42,0.09 0.52,0.11 0.13,0.02 0.26,0.34 0.47,0.23z"/>
   <path fill="white" d="M4.35 6.55c0.34,0.04 0.29,-0.23 0.48,-0.25 0.09,0 0.34,0.21 0.5,-0.11 0.13,-0.25 -0.07,-0.43 0.02,-0.61 0.04,-0.08 0.13,-0.14 0.23,-0.08 0.09,0.06 0.11,0.13 0.25,0.07 0.3,-0.12 0.14,-0.46 0.13,-0.52 -0.04,-0.28 0.19,-0.26 0.29,-0.43 0.17,-0.31 -0.04,-0.37 -0.03,-0.61 0.01,-0.24 0.28,-0.2 0.28,-0.5 -0.01,-0.28 -0.25,-0.29 -0.26,-0.29 -0.1,-0.04 -0.09,-0.18 -0.44,-0.05 -0.12,0.04 -0.1,0.1 -0.13,0.24 -0.17,0.67 -0.49,1.58 -0.77,2.2l-0.37 0.76c-0.04,0.06 -0.17,0.15 -0.18,0.18z"/>
   <path fill="white" d="M1.1 2.53c-0.07,-0.17 -1.21,-0.3 -1.09,0.13 0.05,0.2 0.4,0.2 0.59,0.14 0.14,-0.04 0.26,-0.12 0.4,-0.18 0.08,-0.04 0.08,-0.02 0.1,-0.09z"/>
   <path fill="white" d="M6.46 2.51c0.02,0.1 0.11,0.11 0.21,0.16 0.09,0.04 0.16,0.09 0.27,0.13 0.22,0.07 0.54,0.04 0.61,-0.14 0.15,-0.36 -0.87,-0.35 -1.09,-0.15z"/>
   <path fill="white" d="M2.21 2.97c-0.03,0.2 0.11,0.44 0.2,0.52 0.09,0.08 0.45,0.22 0.6,0.09 0.12,-0.11 -0.14,-0.26 -0.29,-0.38 -0.09,-0.07 -0.35,-0.24 -0.51,-0.23z"/>
   <path fill="white" d="M5.34 2.97c-0.22,-0.02 -0.54,0.26 -0.69,0.38 -0.41,0.31 0.24,0.36 0.48,0.15 0.1,-0.08 0.24,-0.33 0.21,-0.53z"/>
   <path fill="white" d="M3.59 6.28c0,-0.08 -0.01,-0.13 -0.05,-0.18 -0.1,-0.11 -0.28,-0.26 -0.43,-0.21 -0.05,0.13 0.08,0.24 0.15,0.29 0.1,0.09 0.17,0.12 0.33,0.1z"/>
   <path fill="white" d="M3.97 6.27c0.22,0.08 0.55,-0.25 0.48,-0.36 -0.05,-0.1 -0.28,0.05 -0.32,0.08 -0.08,0.07 -0.17,0.14 -0.16,0.28z"/>
  </g>
  <polygon fill="white" fill-rule="nonzero" points="9.51,3.18 8.81,1.02 9.33,1.02 9.94,2.93 9.68,2.93 10.32,1.02 10.78,1.02 11.4,2.93 11.15,2.93 11.78,1.02 12.26,1.02 11.55,3.18 11.01,3.18 10.47,1.5 10.61,1.5 10.05,3.18 "/>
  <path id="_1" fill="white" fill-rule="nonzero" d="M12.18 3.18l0.96 -2.16 0.49 0 0.97 2.16 -0.53 0 -0.78 -1.91 0.19 0 -0.79 1.91 -0.51 0zm0.48 -0.46l0.13 -0.38 1.11 0 0.14 0.38 -1.38 0z"/>
  <polygon id="_2" fill="white" fill-rule="nonzero" points="14.82,3.18 14.82,1.02 15.32,1.02 15.32,2.77 16.4,2.77 16.4,3.18 "/>
  <polygon id="_3" fill="white" fill-rule="nonzero" points="16.93,3.18 16.93,1.43 16.24,1.43 16.24,1.02 18.12,1.02 18.12,1.43 17.43,1.43 17.43,3.18 "/>
  <path id="_4" fill="white" fill-rule="nonzero" d="M18.85 1.89l1.04 0 0 0.39 -1.04 0 0 -0.39zm0.04 0.89l1.17 0 0 0.4 -1.67 0 0 -2.16 1.63 0 0 0.4 -1.13 0 0 1.36z"/>
  <polygon id="_5" fill="white" fill-rule="nonzero" points="20.46,3.18 20.46,1.02 20.87,1.02 21.79,2.54 21.57,2.54 22.47,1.02 22.88,1.02 22.89,3.18 22.42,3.18 22.42,1.74 22.5,1.74 21.78,2.95 21.56,2.95 20.82,1.74 20.93,1.74 20.93,3.18 "/>
  <path id="_6" fill="white" fill-rule="nonzero" d="M23.12 3.18l0.96 -2.16 0.49 0 0.97 2.16 -0.53 0 -0.79 -1.91 0.2 0 -0.79 1.91 -0.51 0zm0.48 -0.46l0.13 -0.38 1.11 0 0.14 0.38 -1.38 0z"/>
  <path id="_7" fill="white" fill-rule="nonzero" d="M25.76 3.18l0 -2.16 0.93 0c0.2,0 0.36,0.03 0.5,0.1 0.14,0.06 0.25,0.15 0.33,0.27 0.07,0.11 0.11,0.25 0.11,0.41 0,0.16 -0.04,0.3 -0.11,0.42 -0.08,0.11 -0.19,0.2 -0.33,0.27 -0.14,0.06 -0.3,0.09 -0.5,0.09l-0.65 0 0.22 -0.22 0 0.82 -0.5 0zm1.37 0l-0.54 -0.78 0.54 0 0.54 0.78 -0.54 0zm-0.87 -0.77l-0.22 -0.23 0.63 0c0.15,0 0.27,-0.03 0.34,-0.1 0.08,-0.07 0.12,-0.16 0.12,-0.28 0,-0.11 -0.04,-0.21 -0.12,-0.27 -0.07,-0.07 -0.19,-0.1 -0.34,-0.1l-0.63 0 0.22 -0.24 0 1.22z"/>
  <path fill="white" fill-rule="nonzero" d="M9.8 6.09c-0.13,0 -0.25,-0.03 -0.37,-0.07 -0.11,-0.04 -0.21,-0.1 -0.29,-0.18 -0.08,-0.08 -0.15,-0.18 -0.19,-0.28 -0.05,-0.11 -0.07,-0.23 -0.07,-0.35 0,-0.13 0.02,-0.25 0.07,-0.36 0.04,-0.1 0.11,-0.2 0.19,-0.28 0.09,-0.08 0.18,-0.14 0.3,-0.18 0.11,-0.04 0.23,-0.06 0.36,-0.06 0.15,0 0.28,0.02 0.4,0.07 0.12,0.05 0.22,0.13 0.3,0.23l-0.25 0.23c-0.06,-0.07 -0.12,-0.12 -0.19,-0.15 -0.08,-0.03 -0.15,-0.05 -0.24,-0.05 -0.08,0 -0.15,0.01 -0.22,0.04 -0.06,0.03 -0.12,0.06 -0.17,0.11 -0.05,0.05 -0.09,0.11 -0.11,0.17 -0.03,0.07 -0.04,0.14 -0.04,0.23 0,0.08 0.01,0.15 0.04,0.22 0.02,0.06 0.06,0.12 0.11,0.17 0.05,0.05 0.11,0.08 0.17,0.11 0.07,0.03 0.14,0.04 0.22,0.04 0.09,0 0.16,-0.02 0.24,-0.05 0.07,-0.03 0.13,-0.08 0.19,-0.15l0.25 0.23c-0.08,0.1 -0.18,0.18 -0.3,0.23 -0.12,0.05 -0.25,0.08 -0.4,0.08z"/>
  <path id="_1_0" fill="white" fill-rule="nonzero" d="M11.27 6.06l0.75 -1.71 0.39 0 0.76 1.71 -0.41 0 -0.62 -1.51 0.15 0 -0.62 1.51 -0.4 0zm0.38 -0.37l0.1 -0.3 0.88 0 0.1 0.3 -1.08 0z"/>
  <path id="_2_1" fill="white" fill-rule="nonzero" d="M14.11 6.06l0 -1.71 0.73 0c0.16,0 0.29,0.03 0.4,0.08 0.11,0.05 0.19,0.12 0.25,0.21 0.06,0.09 0.09,0.2 0.09,0.33 0,0.13 -0.03,0.24 -0.09,0.33 -0.06,0.09 -0.14,0.16 -0.25,0.21 -0.11,0.05 -0.24,0.07 -0.4,0.07l-0.51 0 0.17 -0.17 0 0.65 -0.39 0zm1.08 0l-0.43 -0.62 0.42 0 0.44 0.62 -0.43 0zm-0.69 -0.61l-0.17 -0.18 0.49 0c0.12,0 0.22,-0.03 0.27,-0.08 0.06,-0.05 0.09,-0.13 0.09,-0.22 0,-0.09 -0.03,-0.16 -0.09,-0.22 -0.05,-0.05 -0.15,-0.07 -0.27,-0.07l-0.49 0 0.17 -0.19 0 0.96z"/>
  <polygon id="_3_2" fill="white" fill-rule="nonzero" points="16.65,6.06 16.65,4.35 16.98,4.35 17.98,5.58 17.82,5.58 17.82,4.35 18.21,4.35 18.21,6.06 17.89,6.06 16.88,4.83 17.04,4.83 17.04,6.06 "/>
  <path id="_4_3" fill="white" fill-rule="nonzero" d="M19.73 5.04l0.82 0 0 0.31 -0.82 0 0 -0.31zm0.03 0.7l0.93 0 0 0.32 -1.32 0 0 -1.71 1.29 0 0 0.32 -0.9 0 0 1.07z"/>
  <polygon id="_5_4" fill="white" fill-rule="nonzero" points="21.76,6.06 21.76,4.35 22.15,4.35 22.15,6.06 "/>
  <path id="_6_5" fill="white" fill-rule="nonzero" d="M23.31 6.06l0 -1.71 0.74 0c0.15,0 0.28,0.03 0.39,0.08 0.11,0.05 0.2,0.12 0.26,0.21 0.06,0.09 0.09,0.2 0.09,0.33 0,0.13 -0.03,0.24 -0.09,0.33 -0.06,0.09 -0.15,0.16 -0.26,0.21 -0.11,0.05 -0.24,0.07 -0.39,0.07l-0.52 0 0.18 -0.17 0 0.65 -0.4 0zm1.08 0l-0.42 -0.62 0.42 0 0.43 0.62 -0.43 0zm-0.68 -0.61l-0.18 -0.18 0.5 0c0.12,0 0.21,-0.03 0.27,-0.08 0.06,-0.05 0.09,-0.13 0.09,-0.22 0,-0.09 -0.03,-0.16 -0.09,-0.22 -0.06,-0.05 -0.15,-0.07 -0.27,-0.07l-0.5 0 0.18 -0.19 0 0.96z"/>
  <path id="_7_6" fill="white" fill-rule="nonzero" d="M26.68 6.09c-0.13,0 -0.26,-0.03 -0.37,-0.07 -0.12,-0.04 -0.21,-0.11 -0.3,-0.19 -0.08,-0.07 -0.15,-0.17 -0.19,-0.27 -0.05,-0.11 -0.07,-0.23 -0.07,-0.35 0,-0.13 0.02,-0.25 0.07,-0.35 0.04,-0.11 0.11,-0.2 0.19,-0.28 0.09,-0.08 0.19,-0.15 0.3,-0.19 0.11,-0.04 0.24,-0.06 0.37,-0.06 0.13,0 0.26,0.02 0.37,0.06 0.11,0.04 0.21,0.11 0.29,0.19 0.09,0.08 0.15,0.17 0.2,0.27 0.05,0.11 0.07,0.23 0.07,0.36 0,0.12 -0.02,0.24 -0.07,0.35 -0.05,0.1 -0.11,0.2 -0.2,0.28 -0.08,0.07 -0.18,0.14 -0.29,0.18 -0.11,0.04 -0.24,0.07 -0.37,0.07zm0 -0.34c0.07,0 0.15,-0.01 0.21,-0.04 0.06,-0.03 0.12,-0.06 0.17,-0.11 0.05,-0.05 0.08,-0.11 0.11,-0.17 0.03,-0.07 0.04,-0.14 0.04,-0.22 0,-0.09 -0.01,-0.16 -0.04,-0.23 -0.03,-0.06 -0.06,-0.12 -0.11,-0.17 -0.05,-0.05 -0.11,-0.08 -0.17,-0.11 -0.06,-0.03 -0.14,-0.04 -0.21,-0.04 -0.08,0 -0.15,0.01 -0.21,0.04 -0.07,0.03 -0.12,0.06 -0.17,0.11 -0.05,0.05 -0.09,0.11 -0.11,0.17 -0.03,0.07 -0.04,0.14 -0.04,0.23 0,0.07 0.01,0.15 0.04,0.22 0.02,0.06 0.06,0.12 0.11,0.17 0.05,0.05 0.1,0.08 0.17,0.11 0.06,0.03 0.13,0.04 0.21,0.04z"/>
 </g>
</svg>
