<?xml version="1.0" encoding="UTF-8"?>
<!DOCTYPE svg PUBLIC "-//W3C//DTD SVG 1.1//EN" "http://www.w3.org/Graphics/SVG/1.1/DTD/svg11.dtd">
<!-- Creator: CorelDRAW 2021 (64-Bit) -->
<svg xmlns="http://www.w3.org/2000/svg" xml:space="preserve" width="192px" height="192px" version="1.1" style="shape-rendering:geometricPrecision; text-rendering:geometricPrecision; image-rendering:optimizeQuality; fill-rule:evenodd; clip-rule:evenodd"
viewBox="0 0 64.57 64.57"
 xmlns:xlink="http://www.w3.org/1999/xlink"
 xmlns:xodm="http://www.corel.com/coreldraw/odm/2003">
 <defs>
  <style type="text/css">
   <![CDATA[
    .fil2 {fill:none}
    .fil1 {fill:#D16704}
    .fil4 {fill:#FFFEFE}
    .fil3 {fill:url(#id1)}
    .fil0 {fill:url(#id2)}
   ]]>
  </style>
   <clipPath id="id0">
    <path d="M0 0l64.57 0 0 64.57 -64.57 0 0 -64.57z"/>
   </clipPath>
  <linearGradient id="id1" gradientUnits="userSpaceOnUse" x1="15.18" y1="15.23" x2="49.15" y2="49.55">
   <stop offset="0" style="stop-opacity:1; stop-color:orange"/>
   <stop offset="1" style="stop-opacity:1; stop-color:#E77000"/>
  </linearGradient>
  <linearGradient id="id2" gradientUnits="userSpaceOnUse" xlink:href="#id1" x1="8.06" y1="10.95" x2="56.52" y2="53.62">
  </linearGradient>
 </defs>
 <g id="Layer_x0020_1">
  <metadata id="CorelCorpID_0Corel-Layer"/>
  <polygon class="fil0" points="0,0 64.57,0 64.57,64.57 0,64.57 "/>
  <g style="clip-path:url(#id0)">
   <g id="_2215073265904">
    <polygon id="_1" class="fil1" points="44.17,14.93 57.13,29.01 57.41,26.61 65.5,36.07 65.5,38.11 65.63,38.24 65.63,63.73 42.2,68.83 23.88,53.59 "/>
   </g>
  </g>
  <polygon class="fil2" points="0,0 64.57,0 64.57,64.57 0,64.57 "/>
  <path class="fil3" d="M29.55 11.41c-0.51,-0.33 -0.72,-0.73 -1.52,-0.94 -1.96,-0.53 -3.57,1.21 -3.51,3.74 -1.58,-0.48 -2.17,-1.31 -3.76,0.09 -1.53,1.34 -1.3,2.52 -1.38,3.71 -0.84,0.72 -1.27,0.82 -1.76,1.97 -0.54,1.26 -0.18,2.1 -0.43,3.42 -1.34,0.82 -1.17,0.09 -2.02,1.57 -2.16,0.16 -3.33,-0.07 -5.5,0.48 -1.69,0.43 -3.38,0.71 -3.26,2.86 0.1,1.69 1.78,2.42 2.8,3.21 1.36,1.06 1.98,1.81 4.38,1.76 -0.01,0.84 0.07,1.6 0.38,2.3 0.38,0.87 0.61,0.98 1.26,1.44 -0.33,1.42 -0.8,1.91 -0.32,3.58 0.34,1.2 1.11,2.22 2.02,2.57 -0.24,1.76 -0.73,2.61 0.45,4.15 0.7,0.91 1.82,1.64 3.33,1.04 0.27,1.71 -0.36,2.74 0.97,3.97 1.97,1.82 2.02,1.22 3.65,0.95 0.65,0.67 1.66,1.78 3.28,1.51 1.82,-0.3 1.28,-1.63 3.43,-1.66 2.5,-0.04 1.54,1.24 3.46,1.64 1.9,0.39 2.8,-0.99 3.37,-1.52 0.84,0.19 0.94,0.55 1.96,0.25 2.34,-0.7 2.74,-2.78 2.65,-5.17 0.86,0.24 0.99,0.54 1.97,0.1 0.67,-0.29 1.12,-0.71 1.45,-1.16 1.1,-1.49 0.7,-2.26 0.42,-4.1 1.61,-0.69 2.33,-2.74 2.18,-4.4 -0.07,-0.74 -0.4,-1.15 -0.45,-1.77 1.27,-0.96 1.57,-1.61 1.64,-3.72 2.89,-0.24 1.54,0.36 4.31,-1.63 1.22,-0.87 2.75,-1.77 2.91,-3.21 0.24,-2.31 -1.79,-2.62 -3.16,-2.98 -2.34,-0.6 -3.26,-0.32 -5.58,-0.46 -0.06,-0.03 -0.43,-0.67 -0.8,-0.98 -0.41,-0.34 -0.78,-0.34 -1.29,-0.56 -0.28,-1.19 0.29,-1.95 -0.32,-3.41 -0.56,-1.34 -0.87,-1.25 -1.79,-2.04 -0.07,-0.9 0.07,-1.42 -0.29,-2.22 -0.47,-1.08 -1.58,-2.18 -2.84,-2.22 -1.03,-0.04 -1.26,0.39 -2.02,0.65 0.11,-2.62 -1.6,-4.21 -3.45,-3.8 -0.75,0.17 -1.06,0.68 -1.51,0.95 -0.54,-0.51 -1.28,-1.39 -2.58,-1.43 -1.49,-0.05 -2.07,0.84 -2.73,1.47z"/>
  <path class="fil4" d="M31.71 12.15c-1.24,0.37 -0.93,1.12 -1.83,1.34 -1.11,0.28 -1.12,-0.79 -1.98,-1.04 -0.91,-0.26 -1.69,0.48 -1.88,1.16 -0.14,0.53 0.88,4.78 -2.04,2.39 -0.88,-0.72 -2.98,-0.94 -2.93,2.38 0.02,1.24 -0.76,1.26 -1.35,1.81 -1.34,1.24 -0.75,3.52 0.59,4.22 1.09,0.58 1.63,0.06 2.39,-0.36 0.87,-0.5 1.92,-0.11 2.37,0.45 0.23,0.28 1.46,3.74 3.34,1.78 0.46,-0.48 0.81,-1.49 1.9,-0.94 0.67,0.34 0.78,1.35 1.99,1.26 1.08,-0.07 1.17,-0.99 1.85,-1.29 1.73,-0.76 1.91,2.97 4.02,1.04 0.79,-0.72 0.66,-1.26 1.19,-1.91 1.56,-1.87 2.86,0.9 4.69,-0.03 1.5,-0.75 1.87,-3.01 0.51,-4.25 -0.65,-0.6 -1.33,-0.56 -1.27,-1.77 0.06,-1.28 -0.04,-1.51 -0.73,-2.2 -0.71,-0.72 -1.18,-0.92 -2.05,-0.29 -0.88,0.64 -1.8,0.54 -2.09,-0.41 -0.32,-1.05 0.33,-1.54 -0.53,-2.57 -0.67,-0.82 -1.42,-0.6 -2.09,0.01 -2.21,2 -1.77,-1.48 -4.07,-0.78z"/>
  <path class="fil4" d="M28.58 52.53c-0.02,-0.03 -0.05,-0.09 -0.06,-0.07 -0.01,0.02 -1.1,-0.81 -1.89,-2.6 -0.48,-1.1 -1.03,-2.06 -1.47,-3.12 -1.77,-4.25 -3.58,-9.14 -4.7,-13.68 -0.19,-0.77 -0.11,-1.18 -0.79,-1.45 -1.96,-0.77 -2.5,0.24 -2.73,0.35 -0.32,0.15 -0.57,0.05 -0.9,0.22 -0.34,0.18 -0.76,0.99 -0.77,1.6 -0.06,1.79 1.53,1.54 1.71,2.88 0.16,1.24 -1.03,1.95 -0.32,3.67 0.6,1.43 1.97,0.95 1.96,2.63 0,0.69 -0.37,1.16 -0.35,1.86 0.02,0.67 0.38,1.27 0.79,1.56 1.29,0.94 2.45,-1.47 3.25,0.1 0.62,1.21 -0.62,2.34 0.18,3.92 0.93,1.84 2.54,0.55 3.17,0.68 0.79,0.15 1.6,2.14 2.92,1.45z"/>
  <path class="fil4" d="M35.68 52.6c2.13,0.21 1.82,-1.42 2.96,-1.54 0.56,-0.06 2.13,1.26 3.13,-0.72 0.77,-1.52 -0.42,-2.64 0.1,-3.75 0.25,-0.53 0.83,-0.85 1.43,-0.49 0.56,0.33 0.67,0.79 1.58,0.41 1.82,-0.75 0.81,-2.87 0.76,-3.22 -0.24,-1.73 1.2,-1.59 1.8,-2.68 1.04,-1.89 -0.21,-2.24 -0.16,-3.73 0.05,-1.53 1.75,-1.26 1.71,-3.1 -0.04,-1.75 -1.52,-1.79 -1.61,-1.82 -0.59,-0.21 -0.57,-1.12 -2.7,-0.32 -0.77,0.3 -0.61,0.62 -0.84,1.53 -1.04,4.14 -2.99,9.78 -4.74,13.62l-2.27 4.69c-0.26,0.35 -1.08,0.91 -1.15,1.12z"/>
  <path class="fil4" d="M15.61 27.69c-0.47,-1.06 -7.48,-1.84 -6.77,0.83 0.32,1.2 2.48,1.23 3.66,0.87 0.84,-0.25 1.63,-0.78 2.45,-1.15 0.5,-0.23 0.49,-0.11 0.66,-0.55z"/>
  <path class="fil4" d="M48.74 27.57c0.11,0.65 0.68,0.68 1.3,0.99 0.57,0.29 1.02,0.58 1.69,0.8 1.37,0.48 3.31,0.26 3.76,-0.83 0.94,-2.25 -5.35,-2.17 -6.75,-0.96z"/>
  <path class="fil4" d="M22.48 30.43c-0.18,1.21 0.69,2.7 1.24,3.22 0.52,0.48 2.74,1.35 3.66,0.55 0.75,-0.67 -0.86,-1.61 -1.76,-2.33 -0.57,-0.45 -2.15,-1.53 -3.14,-1.44z"/>
  <path class="fil4" d="M41.84 30.43c-1.37,-0.13 -3.35,1.64 -4.31,2.38 -2.49,1.91 1.49,2.17 3,0.89 0.59,-0.49 1.5,-2.02 1.31,-3.27z"/>
  <path class="fil4" d="M30.97 50.93c0.02,-0.51 -0.02,-0.81 -0.31,-1.13 -0.56,-0.66 -1.73,-1.59 -2.66,-1.31 -0.26,0.84 0.54,1.47 0.93,1.81 0.64,0.54 1.09,0.75 2.04,0.63z"/>
  <path class="fil4" d="M33.32 50.87c1.42,0.49 3.41,-1.56 3.01,-2.27 -0.34,-0.62 -1.73,0.3 -1.99,0.51 -0.51,0.42 -1.08,0.87 -1.02,1.76z"/>
 </g>
</svg>
