<?xml version="1.0" encoding="UTF-8"?>
<!DOCTYPE svg PUBLIC "-//W3C//DTD SVG 1.1//EN" "http://www.w3.org/Graphics/SVG/1.1/DTD/svg11.dtd">
<!-- Creator: CorelDRAW 2021 (64-Bit) -->
<svg xmlns="http://www.w3.org/2000/svg" xml:space="preserve" width="144px" height="144px" version="1.1" shape-rendering="geometricPrecision" text-rendering="geometricPrecision" image-rendering="optimizeQuality" fill-rule="evenodd" clip-rule="evenodd"
viewBox="0 0 39.86 39.86"
 xmlns:xlink="http://www.w3.org/1999/xlink"
 xmlns:xodm="http://www.corel.com/coreldraw/odm/2003">
 <defs>
   <clipPath id="id0">
    <path d="M19.93 1.11l0 0c10.35,0 18.82,8.47 18.82,18.82l0 0c0,10.35 -8.47,18.82 -18.82,18.82l0 0c-10.35,0 -18.82,-8.47 -18.82,-18.82l0 0c0,-10.35 8.47,-18.82 18.82,-18.82z"/>
   </clipPath>
   <linearGradient id="id1" gradientUnits="userSpaceOnUse" x1="9.8" y1="9.83" x2="29.91" y2="30.15">
    <stop offset="0" stop-opacity="1" stop-color="#BDC2C9"/>
    <stop offset="1" stop-opacity="1" stop-color="#ABB0B8"/>
   </linearGradient>
 </defs>
 <g id="Layer_x0020_1">
  <metadata id="CorelCorpID_0Corel-Layer"/>
  <rect fill="none" width="39.86" height="39.86"/>
  <path fill="#BDC2C9" d="M19.93 1.11l0 0c10.35,0 18.82,8.47 18.82,18.82l0 0c0,10.35 -8.47,18.82 -18.82,18.82l0 0c-10.35,0 -18.82,-8.47 -18.82,-18.82l0 0c0,-10.35 8.47,-18.82 18.82,-18.82z"/>
  <g clip-path="url(#id0)">
   <g id="_2201842598864">
    <polygon id="_1" fill="#ABB0B8" points="26.97,9.65 34.64,17.99 34.81,16.57 39.6,22.17 39.6,23.38 39.67,23.46 39.67,38.54 25.8,41.57 14.95,32.54 "/>
   </g>
  </g>
  <path fill="none" d="M19.93 1.11l0 0c10.35,0 18.82,8.47 18.82,18.82l0 0c0,10.35 -8.47,18.82 -18.82,18.82l0 0c-10.35,0 -18.82,-8.47 -18.82,-18.82l0 0c0,-10.35 8.47,-18.82 18.82,-18.82z"/>
  <path fill="url(#id1)" d="M18.31 7.57c-0.3,-0.19 -0.43,-0.43 -0.9,-0.56 -1.16,-0.31 -2.11,0.72 -2.08,2.22 -0.93,-0.28 -1.28,-0.78 -2.23,0.05 -0.9,0.8 -0.76,1.49 -0.81,2.2 -0.5,0.42 -0.75,0.48 -1.04,1.16 -0.32,0.75 -0.11,1.25 -0.26,2.03 -0.79,0.48 -0.69,0.05 -1.19,0.93 -1.28,0.09 -1.97,-0.04 -3.26,0.28 -1,0.26 -2,0.42 -1.93,1.7 0.06,1 1.05,1.43 1.66,1.9 0.8,0.62 1.17,1.07 2.59,1.04 -0.01,0.5 0.04,0.95 0.22,1.36 0.23,0.51 0.37,0.58 0.75,0.85 -0.19,0.84 -0.47,1.14 -0.19,2.12 0.21,0.71 0.66,1.32 1.2,1.52 -0.14,1.05 -0.43,1.55 0.26,2.46 0.42,0.54 1.08,0.97 1.98,0.62 0.16,1.01 -0.22,1.62 0.57,2.35 1.17,1.08 1.2,0.72 2.16,0.56 0.39,0.4 0.98,1.06 1.94,0.9 1.08,-0.18 0.76,-0.97 2.03,-0.99 1.48,-0.02 0.92,0.74 2.06,0.97 1.12,0.23 1.65,-0.59 1.99,-0.9 0.49,0.12 0.56,0.33 1.16,0.15 1.38,-0.41 1.62,-1.64 1.57,-3.06 0.51,0.14 0.58,0.32 1.17,0.06 0.39,-0.17 0.66,-0.42 0.85,-0.69 0.65,-0.88 0.42,-1.34 0.25,-2.42 0.95,-0.42 1.38,-1.63 1.29,-2.61 -0.04,-0.44 -0.23,-0.68 -0.26,-1.05 0.75,-0.57 0.93,-0.95 0.97,-2.2 1.71,-0.15 0.91,0.21 2.55,-0.96 0.72,-0.52 1.63,-1.05 1.72,-1.91 0.14,-1.37 -1.06,-1.55 -1.87,-1.76 -1.39,-0.36 -1.93,-0.19 -3.3,-0.27 -0.04,-0.02 -0.26,-0.4 -0.48,-0.58 -0.24,-0.21 -0.46,-0.2 -0.76,-0.34 -0.17,-0.7 0.17,-1.15 -0.19,-2.01 -0.33,-0.8 -0.51,-0.74 -1.06,-1.21 -0.04,-0.53 0.04,-0.84 -0.17,-1.32 -0.28,-0.64 -0.94,-1.29 -1.68,-1.31 -0.61,-0.02 -0.75,0.23 -1.2,0.38 0.07,-1.55 -0.95,-2.49 -2.04,-2.24 -0.44,0.09 -0.63,0.4 -0.89,0.56 -0.32,-0.31 -0.76,-0.82 -1.53,-0.85 -0.88,-0.03 -1.23,0.5 -1.62,0.87z"/>
  <path fill="#FFFEFE" d="M19.59 8.01c-0.73,0.22 -0.55,0.66 -1.09,0.8 -0.65,0.16 -0.66,-0.47 -1.17,-0.62 -0.54,-0.16 -1,0.28 -1.11,0.68 -0.08,0.32 0.52,2.83 -1.21,1.42 -0.52,-0.43 -1.76,-0.56 -1.73,1.41 0.01,0.73 -0.45,0.74 -0.8,1.07 -0.79,0.73 -0.44,2.08 0.35,2.5 0.65,0.34 0.96,0.03 1.41,-0.22 0.52,-0.29 1.14,-0.06 1.41,0.27 0.13,0.17 0.86,2.21 1.97,1.05 0.27,-0.28 0.48,-0.88 1.13,-0.55 0.39,0.2 0.46,0.8 1.18,0.74 0.64,-0.04 0.69,-0.58 1.09,-0.76 1.03,-0.45 1.13,1.76 2.38,0.62 0.47,-0.43 0.39,-0.75 0.71,-1.13 0.92,-1.11 1.69,0.53 2.77,-0.02 0.89,-0.45 1.11,-1.79 0.31,-2.52 -0.39,-0.35 -0.79,-0.33 -0.76,-1.05 0.04,-0.75 -0.02,-0.89 -0.43,-1.3 -0.42,-0.43 -0.7,-0.54 -1.21,-0.17 -0.52,0.38 -1.07,0.32 -1.24,-0.25 -0.19,-0.61 0.19,-0.91 -0.31,-1.52 -0.4,-0.48 -0.84,-0.35 -1.24,0.01 -1.31,1.18 -1.05,-0.87 -2.41,-0.46z"/>
  <path fill="#FFFEFE" d="M17.74 31.91c-0.01,-0.01 -0.03,-0.05 -0.04,-0.04 0,0.01 -0.65,-0.47 -1.12,-1.54 -0.28,-0.64 -0.61,-1.22 -0.87,-1.84 -1.05,-2.52 -2.12,-5.42 -2.78,-8.1 -0.11,-0.46 -0.06,-0.7 -0.47,-0.86 -1.16,-0.45 -1.48,0.14 -1.62,0.21 -0.19,0.08 -0.33,0.03 -0.53,0.13 -0.2,0.1 -0.45,0.58 -0.46,0.94 -0.03,1.07 0.91,0.91 1.02,1.71 0.09,0.74 -0.61,1.16 -0.19,2.18 0.35,0.84 1.17,0.56 1.16,1.55 0,0.41 -0.22,0.68 -0.21,1.1 0.01,0.4 0.23,0.75 0.47,0.93 0.76,0.55 1.45,-0.88 1.93,0.05 0.36,0.72 -0.38,1.39 0.1,2.33 0.55,1.08 1.51,0.32 1.88,0.39 0.47,0.1 0.95,1.27 1.73,0.86z"/>
  <path fill="#FFFEFE" d="M21.94 31.96c1.26,0.12 1.08,-0.84 1.75,-0.91 0.33,-0.04 1.26,0.74 1.86,-0.43 0.45,-0.9 -0.25,-1.56 0.06,-2.22 0.14,-0.31 0.48,-0.51 0.84,-0.29 0.33,0.19 0.4,0.47 0.94,0.24 1.07,-0.45 0.48,-1.7 0.45,-1.91 -0.14,-1.02 0.71,-0.94 1.06,-1.58 0.62,-1.12 -0.12,-1.33 -0.09,-2.21 0.03,-0.9 1.03,-0.75 1.01,-1.84 -0.02,-1.03 -0.9,-1.05 -0.95,-1.07 -0.35,-0.13 -0.34,-0.67 -1.6,-0.19 -0.46,0.17 -0.37,0.37 -0.5,0.9 -0.61,2.45 -1.77,5.8 -2.81,8.07l-1.34 2.77c-0.15,0.21 -0.64,0.54 -0.68,0.67z"/>
  <path fill="#FFFEFE" d="M10.06 17.21c-0.28,-0.63 -4.43,-1.09 -4.01,0.49 0.19,0.71 1.47,0.73 2.17,0.52 0.49,-0.15 0.96,-0.47 1.45,-0.69 0.29,-0.13 0.29,-0.06 0.39,-0.32z"/>
  <path fill="#FFFEFE" d="M29.67 17.14c0.06,0.38 0.4,0.4 0.77,0.59 0.34,0.16 0.61,0.34 1,0.47 0.82,0.28 1.96,0.15 2.23,-0.49 0.55,-1.33 -3.17,-1.29 -4,-0.57z"/>
  <path fill="#FFFEFE" d="M14.13 18.83c-0.11,0.72 0.4,1.6 0.73,1.91 0.31,0.28 1.62,0.8 2.17,0.32 0.44,-0.39 -0.51,-0.95 -1.05,-1.37 -0.34,-0.27 -1.27,-0.91 -1.85,-0.86z"/>
  <path fill="#FFFEFE" d="M25.59 18.83c-0.81,-0.07 -1.99,0.97 -2.56,1.41 -1.47,1.13 0.89,1.29 1.78,0.53 0.35,-0.29 0.89,-1.2 0.78,-1.94z"/>
  <path fill="#FFFEFE" d="M19.15 30.97c0.01,-0.31 -0.01,-0.48 -0.18,-0.67 -0.33,-0.39 -1.03,-0.94 -1.58,-0.78 -0.15,0.5 0.32,0.87 0.55,1.07 0.38,0.33 0.65,0.45 1.21,0.38z"/>
  <path fill="#FFFEFE" d="M20.54 30.93c0.84,0.29 2.02,-0.92 1.79,-1.34 -0.21,-0.37 -1.03,0.18 -1.19,0.3 -0.3,0.25 -0.63,0.51 -0.6,1.04z"/>
 </g>
</svg>
