<?xml version="1.0" encoding="UTF-8"?>
<!DOCTYPE svg PUBLIC "-//W3C//DTD SVG 1.1//EN" "http://www.w3.org/Graphics/SVG/1.1/DTD/svg11.dtd">
<!-- Creator: CorelDRAW 2021 (64-Bit) -->
<svg xmlns="http://www.w3.org/2000/svg" xml:space="preserve" width="208px" height="50px" version="1.1" shape-rendering="geometricPrecision" text-rendering="geometricPrecision" image-rendering="optimizeQuality" fill-rule="evenodd" clip-rule="evenodd"
viewBox="0 0 29.2 7.01"
 xmlns:xlink="http://www.w3.org/1999/xlink"
 xmlns:xodm="http://www.corel.com/coreldraw/odm/2003">
 <g id="Layer_x0020_1">
  <metadata id="CorelCorpID_0Corel-Layer"/>
  <rect fill="none" width="29.2" height="7.01"/>
  <g id="_1848814489360">
   <path fill="#4A4A4A" d="M3.93 0.08c-0.21,0.06 -0.16,0.19 -0.31,0.22 -0.18,0.05 -0.18,-0.13 -0.32,-0.17 -0.16,-0.04 -0.29,0.08 -0.32,0.19 -0.02,0.09 0.15,0.8 -0.34,0.4 -0.14,-0.12 -0.49,-0.16 -0.48,0.4 0,0.2 -0.13,0.21 -0.23,0.3 -0.22,0.2 -0.12,0.58 0.1,0.7 0.18,0.1 0.27,0.01 0.4,-0.06 0.14,-0.08 0.32,-0.02 0.39,0.07 0.04,0.05 0.25,0.63 0.56,0.3 0.07,-0.08 0.13,-0.25 0.31,-0.16 0.11,0.06 0.13,0.23 0.33,0.21 0.18,-0.01 0.2,-0.16 0.31,-0.21 0.29,-0.13 0.32,0.49 0.67,0.17 0.13,-0.12 0.11,-0.21 0.2,-0.31 0.26,-0.32 0.47,0.14 0.78,-0.01 0.25,-0.13 0.31,-0.5 0.08,-0.71 -0.11,-0.1 -0.22,-0.09 -0.21,-0.29 0.01,-0.21 -0.01,-0.25 -0.12,-0.37 -0.12,-0.12 -0.2,-0.15 -0.34,-0.04 -0.15,0.1 -0.3,0.08 -0.35,-0.07 -0.05,-0.18 0.06,-0.26 -0.09,-0.43 -0.11,-0.14 -0.23,-0.1 -0.34,0 -0.37,0.33 -0.3,-0.24 -0.68,-0.13z"/>
   <path fill="#4A4A4A" d="M3.41 6.79c0,0 -0.01,-0.01 -0.01,-0.01 0,0.01 -0.18,-0.13 -0.32,-0.43 -0.08,-0.18 -0.17,-0.34 -0.24,-0.52 -0.29,-0.71 -0.6,-1.52 -0.78,-2.27 -0.03,-0.13 -0.02,-0.2 -0.13,-0.24 -0.33,-0.13 -0.42,0.04 -0.46,0.06 -0.05,0.02 -0.09,0 -0.15,0.03 -0.05,0.03 -0.12,0.17 -0.12,0.27 -0.01,0.3 0.25,0.25 0.28,0.48 0.03,0.2 -0.17,0.32 -0.05,0.61 0.1,0.24 0.33,0.15 0.32,0.43 0,0.12 -0.06,0.2 -0.05,0.31 0,0.11 0.06,0.21 0.13,0.26 0.21,0.16 0.4,-0.24 0.54,0.02 0.1,0.2 -0.11,0.39 0.03,0.65 0.15,0.31 0.42,0.09 0.52,0.11 0.14,0.03 0.27,0.36 0.49,0.24z"/>
   <path fill="#4A4A4A" d="M4.59 6.81c0.35,0.03 0.3,-0.24 0.49,-0.26 0.09,-0.01 0.36,0.21 0.52,-0.12 0.13,-0.25 -0.07,-0.44 0.02,-0.62 0.04,-0.09 0.14,-0.14 0.24,-0.08 0.09,0.05 0.11,0.13 0.26,0.06 0.3,-0.12 0.13,-0.47 0.13,-0.53 -0.04,-0.29 0.19,-0.27 0.29,-0.45 0.18,-0.31 -0.03,-0.37 -0.02,-0.62 0.01,-0.25 0.29,-0.21 0.28,-0.51 0,-0.29 -0.25,-0.3 -0.26,-0.31 -0.1,-0.03 -0.1,-0.18 -0.45,-0.05 -0.13,0.05 -0.11,0.11 -0.14,0.26 -0.18,0.68 -0.5,1.62 -0.79,2.26l-0.38 0.78c-0.04,0.06 -0.18,0.15 -0.19,0.19z"/>
   <path fill="#4A4A4A" d="M1.25 2.67c-0.07,-0.18 -1.24,-0.31 -1.12,0.13 0.05,0.2 0.41,0.21 0.61,0.15 0.14,-0.04 0.27,-0.13 0.4,-0.19 0.09,-0.04 0.08,-0.02 0.11,-0.09z"/>
   <path fill="#4A4A4A" d="M6.76 2.64c0.02,0.11 0.11,0.12 0.22,0.17 0.09,0.05 0.17,0.1 0.28,0.13 0.23,0.08 0.55,0.05 0.62,-0.13 0.16,-0.38 -0.89,-0.37 -1.12,-0.17z"/>
   <path fill="#4A4A4A" d="M2.4 3.12c-0.04,0.2 0.11,0.45 0.2,0.54 0.09,0.08 0.46,0.22 0.61,0.09 0.12,-0.11 -0.14,-0.27 -0.29,-0.39 -0.1,-0.08 -0.36,-0.25 -0.52,-0.24z"/>
   <path fill="#4A4A4A" d="M5.61 3.12c-0.22,-0.02 -0.55,0.27 -0.71,0.4 -0.42,0.31 0.24,0.36 0.5,0.14 0.09,-0.08 0.25,-0.33 0.21,-0.54z"/>
   <path fill="#4A4A4A" d="M3.81 6.53c0,-0.09 -0.01,-0.13 -0.05,-0.19 -0.1,-0.11 -0.29,-0.26 -0.45,-0.22 -0.04,0.14 0.09,0.25 0.16,0.3 0.1,0.09 0.18,0.13 0.34,0.11z"/>
   <path fill="#4A4A4A" d="M4.2 6.52c0.23,0.08 0.56,-0.26 0.5,-0.38 -0.06,-0.1 -0.29,0.05 -0.33,0.09 -0.09,0.07 -0.18,0.14 -0.17,0.29z"/>
  </g>
  <polygon fill="#4A4A4A" fill-rule="nonzero" points="9.9,3.34 9.18,1.12 9.71,1.12 10.34,3.08 10.07,3.08 10.73,1.12 11.21,1.12 11.84,3.08 11.59,3.08 12.23,1.12 12.72,1.12 12,3.34 11.45,3.34 10.89,1.61 11.03,1.61 10.46,3.34 "/>
  <path id="_1" fill="#4A4A4A" fill-rule="nonzero" d="M12.65 3.34l0.98 -2.22 0.51 0 0.99 2.22 -0.54 0 -0.81 -1.96 0.21 0 -0.82 1.96 -0.52 0zm0.49 -0.48l0.14 -0.39 1.14 0 0.14 0.39 -1.42 0z"/>
  <polygon id="_2" fill="#4A4A4A" fill-rule="nonzero" points="15.36,3.34 15.36,1.12 15.88,1.12 15.88,2.92 16.99,2.92 16.99,3.34 "/>
  <polygon id="_3" fill="#4A4A4A" fill-rule="nonzero" points="17.53,3.34 17.53,1.53 16.82,1.53 16.82,1.12 18.76,1.12 18.76,1.53 18.05,1.53 18.05,3.34 "/>
  <path id="_4" fill="#4A4A4A" fill-rule="nonzero" d="M19.5 2.01l1.07 0 0 0.4 -1.07 0 0 -0.4zm0.04 0.91l1.21 0 0 0.42 -1.72 0 0 -2.22 1.68 0 0 0.41 -1.17 0 0 1.39z"/>
  <polygon id="_5" fill="#4A4A4A" fill-rule="nonzero" points="21.16,3.34 21.16,1.12 21.58,1.12 22.53,2.68 22.3,2.68 23.23,1.12 23.65,1.12 23.66,3.34 23.18,3.34 23.18,1.86 23.26,1.86 22.52,3.1 22.29,3.1 21.53,1.86 21.64,1.86 21.64,3.34 "/>
  <path id="_6" fill="#4A4A4A" fill-rule="nonzero" d="M23.89 3.34l0.99 -2.22 0.51 0 0.99 2.22 -0.54 0 -0.81 -1.96 0.21 0 -0.82 1.96 -0.53 0zm0.5 -0.48l0.14 -0.39 1.14 0 0.14 0.39 -1.42 0z"/>
  <path id="_7" fill="#4A4A4A" fill-rule="nonzero" d="M26.61 3.34l0 -2.22 0.97 0c0.19,0 0.36,0.03 0.51,0.09 0.14,0.07 0.25,0.16 0.33,0.28 0.08,0.12 0.12,0.26 0.12,0.43 0,0.17 -0.04,0.31 -0.12,0.43 -0.08,0.12 -0.19,0.21 -0.33,0.27 -0.15,0.07 -0.32,0.1 -0.51,0.1l-0.68 0 0.23 -0.23 0 0.85 -0.52 0zm1.42 0l-0.56 -0.81 0.55 0 0.56 0.81 -0.55 0zm-0.9 -0.79l-0.23 -0.24 0.65 0c0.15,0 0.27,-0.04 0.35,-0.1 0.08,-0.07 0.12,-0.17 0.12,-0.29 0,-0.12 -0.04,-0.22 -0.12,-0.28 -0.08,-0.07 -0.2,-0.11 -0.35,-0.11l-0.65 0 0.23 -0.24 0 1.26z"/>
  <path fill="#4A4A4A" fill-rule="nonzero" d="M10.2 6.32c-0.14,0 -0.26,-0.02 -0.38,-0.06 -0.11,-0.05 -0.21,-0.11 -0.3,-0.19 -0.08,-0.08 -0.15,-0.18 -0.2,-0.29 -0.04,-0.11 -0.07,-0.23 -0.07,-0.36 0,-0.13 0.03,-0.25 0.07,-0.36 0.05,-0.11 0.12,-0.21 0.2,-0.29 0.09,-0.08 0.19,-0.14 0.3,-0.19 0.12,-0.04 0.24,-0.07 0.38,-0.07 0.15,0 0.29,0.03 0.41,0.08 0.12,0.06 0.23,0.13 0.31,0.23l-0.26 0.24c-0.06,-0.06 -0.13,-0.11 -0.2,-0.15 -0.07,-0.03 -0.15,-0.05 -0.24,-0.05 -0.08,0 -0.16,0.01 -0.22,0.04 -0.07,0.03 -0.13,0.06 -0.18,0.11 -0.05,0.05 -0.09,0.11 -0.12,0.18 -0.03,0.07 -0.04,0.15 -0.04,0.23 0,0.08 0.01,0.16 0.04,0.23 0.03,0.07 0.07,0.12 0.12,0.17 0.05,0.05 0.11,0.09 0.18,0.12 0.06,0.03 0.14,0.04 0.22,0.04 0.09,0 0.17,-0.02 0.24,-0.05 0.07,-0.04 0.14,-0.09 0.2,-0.16l0.26 0.24c-0.08,0.1 -0.19,0.18 -0.31,0.23 -0.12,0.06 -0.26,0.08 -0.41,0.08z"/>
  <path id="_1_0" fill="#4A4A4A" fill-rule="nonzero" d="M11.71 6.29l0.78 -1.75 0.4 0 0.78 1.75 -0.43 0 -0.64 -1.54 0.16 0 -0.64 1.54 -0.41 0zm0.39 -0.37l0.1 -0.31 0.9 0 0.11 0.31 -1.11 0z"/>
  <path id="_2_1" fill="#4A4A4A" fill-rule="nonzero" d="M14.63 6.29l0 -1.75 0.76 0c0.15,0 0.29,0.03 0.4,0.08 0.11,0.05 0.2,0.12 0.26,0.22 0.07,0.09 0.1,0.21 0.1,0.34 0,0.13 -0.03,0.24 -0.1,0.34 -0.06,0.09 -0.15,0.16 -0.26,0.21 -0.11,0.05 -0.25,0.08 -0.4,0.08l-0.54 0 0.18 -0.18 0 0.66 -0.4 0zm1.11 0l-0.44 -0.63 0.44 0 0.44 0.63 -0.44 0zm-0.71 -0.62l-0.18 -0.19 0.51 0c0.13,0 0.22,-0.02 0.28,-0.08 0.07,-0.05 0.1,-0.13 0.1,-0.22 0,-0.1 -0.03,-0.17 -0.1,-0.23 -0.06,-0.05 -0.15,-0.08 -0.28,-0.08l-0.51 0 0.18 -0.19 0 0.99z"/>
  <polygon id="_3_2" fill="#4A4A4A" fill-rule="nonzero" points="17.24,6.29 17.24,4.54 17.58,4.54 18.61,5.8 18.45,5.8 18.45,4.54 18.85,4.54 18.85,6.29 18.52,6.29 17.48,5.03 17.64,5.03 17.64,6.29 "/>
  <path id="_4_3" fill="#4A4A4A" fill-rule="nonzero" d="M20.41 5.25l0.85 0 0 0.31 -0.85 0 0 -0.31zm0.03 0.72l0.96 0 0 0.32 -1.36 0 0 -1.75 1.32 0 0 0.33 -0.92 0 0 1.1z"/>
  <polygon id="_5_4" fill="#4A4A4A" fill-rule="nonzero" points="22.5,6.29 22.5,4.54 22.9,4.54 22.9,6.29 "/>
  <path id="_6_5" fill="#4A4A4A" fill-rule="nonzero" d="M24.1 6.29l0 -1.75 0.75 0c0.16,0 0.29,0.03 0.41,0.08 0.11,0.05 0.2,0.12 0.26,0.22 0.06,0.09 0.09,0.21 0.09,0.34 0,0.13 -0.03,0.24 -0.09,0.34 -0.06,0.09 -0.15,0.16 -0.26,0.21 -0.12,0.05 -0.25,0.08 -0.41,0.08l-0.53 0 0.18 -0.18 0 0.66 -0.4 0zm1.11 0l-0.44 -0.63 0.43 0 0.45 0.63 -0.44 0zm-0.71 -0.62l-0.18 -0.19 0.51 0c0.13,0 0.22,-0.02 0.28,-0.08 0.06,-0.05 0.09,-0.13 0.09,-0.22 0,-0.1 -0.03,-0.17 -0.09,-0.23 -0.06,-0.05 -0.15,-0.08 -0.28,-0.08l-0.51 0 0.18 -0.19 0 0.99z"/>
  <path id="_7_6" fill="#4A4A4A" fill-rule="nonzero" d="M27.56 6.32c-0.14,0 -0.27,-0.02 -0.38,-0.06 -0.12,-0.05 -0.22,-0.11 -0.31,-0.19 -0.08,-0.08 -0.15,-0.18 -0.2,-0.29 -0.05,-0.11 -0.07,-0.23 -0.07,-0.36 0,-0.13 0.02,-0.25 0.07,-0.36 0.05,-0.11 0.12,-0.21 0.2,-0.29 0.09,-0.08 0.19,-0.14 0.31,-0.19 0.12,-0.04 0.24,-0.07 0.38,-0.07 0.14,0 0.26,0.03 0.38,0.07 0.12,0.05 0.22,0.11 0.3,0.19 0.09,0.08 0.15,0.18 0.2,0.29 0.05,0.11 0.08,0.23 0.08,0.36 0,0.13 -0.03,0.25 -0.08,0.36 -0.05,0.11 -0.11,0.21 -0.2,0.29 -0.08,0.08 -0.18,0.14 -0.3,0.19 -0.12,0.04 -0.24,0.06 -0.38,0.06zm0 -0.34c0.08,0 0.15,-0.01 0.21,-0.04 0.07,-0.03 0.13,-0.07 0.18,-0.12 0.05,-0.05 0.09,-0.1 0.11,-0.17 0.03,-0.07 0.05,-0.15 0.05,-0.23 0,-0.08 -0.02,-0.16 -0.05,-0.23 -0.02,-0.07 -0.06,-0.13 -0.11,-0.18 -0.05,-0.05 -0.11,-0.08 -0.17,-0.11 -0.07,-0.03 -0.14,-0.04 -0.22,-0.04 -0.08,0 -0.15,0.01 -0.22,0.04 -0.06,0.03 -0.12,0.06 -0.17,0.11 -0.05,0.05 -0.09,0.11 -0.12,0.18 -0.03,0.07 -0.04,0.15 -0.04,0.23 0,0.08 0.01,0.16 0.04,0.23 0.03,0.07 0.07,0.12 0.12,0.17 0.05,0.05 0.1,0.09 0.17,0.12 0.07,0.03 0.14,0.04 0.22,0.04z"/>
 </g>
</svg>
