<?xml version="1.0" encoding="UTF-8"?>
<!DOCTYPE svg PUBLIC "-//W3C//DTD SVG 1.1//EN" "http://www.w3.org/Graphics/SVG/1.1/DTD/svg11.dtd">
<!-- Creator: CorelDRAW 2021 (64-Bit) -->
<svg xmlns="http://www.w3.org/2000/svg" xml:space="preserve" width="100px" height="97px" version="1.1" shape-rendering="geometricPrecision" text-rendering="geometricPrecision" image-rendering="optimizeQuality" fill-rule="evenodd" clip-rule="evenodd"
viewBox="0 0 50.01 48.65"
 xmlns:xlink="http://www.w3.org/1999/xlink"
 xmlns:xodm="http://www.corel.com/coreldraw/odm/2003">
 <g id="Layer_x0020_1">
  <metadata id="CorelCorpID_0Corel-Layer"/>
  <path fill="#0C2957" d="M25 0c13.81,0 25.01,10.89 25.01,24.33 0,13.43 -11.2,24.32 -25.01,24.32 -13.81,0 -25,-10.89 -25,-24.32 0,-13.44 11.19,-24.33 25,-24.33zm1.49 39.74c1.21,0.42 2.92,-1.34 2.58,-1.94 -0.3,-0.54 -1.49,0.25 -1.71,0.43 -0.44,0.36 -0.92,0.74 -0.87,1.51zm-2.02 0.05c0.02,-0.44 -0.02,-0.69 -0.26,-0.97 -0.48,-0.57 -1.48,-1.36 -2.28,-1.12 -0.23,0.71 0.46,1.25 0.8,1.54 0.54,0.47 0.93,0.65 1.74,0.55zm9.32 -17.57c-1.17,-0.11 -2.87,1.4 -3.7,2.04 -2.13,1.64 1.28,1.86 2.58,0.77 0.5,-0.43 1.28,-1.74 1.12,-2.81zm-16.59 0c-0.16,1.04 0.59,2.32 1.06,2.76 0.45,0.41 2.35,1.16 3.14,0.47 0.64,-0.57 -0.74,-1.38 -1.51,-1.99 -0.49,-0.39 -1.85,-1.31 -2.69,-1.24zm22.49 -2.45c0.1,0.56 0.59,0.59 1.12,0.85 0.49,0.25 0.88,0.5 1.45,0.69 1.18,0.4 2.84,0.21 3.22,-0.71 0.81,-1.93 -4.58,-1.86 -5.79,-0.83zm-28.38 0.11c-0.4,-0.91 -6.41,-1.58 -5.8,0.71 0.27,1.02 2.13,1.05 3.14,0.74 0.72,-0.21 1.39,-0.67 2.1,-0.99 0.42,-0.19 0.41,-0.09 0.56,-0.46zm17.2 21.34c1.83,0.18 1.56,-1.22 2.53,-1.32 0.48,-0.05 1.83,1.08 2.69,-0.62 0.65,-1.3 -0.36,-2.26 0.08,-3.21 0.22,-0.45 0.71,-0.73 1.23,-0.42 0.48,0.28 0.57,0.67 1.35,0.35 1.56,-0.65 0.7,-2.46 0.65,-2.76 -0.2,-1.48 1.03,-1.36 1.54,-2.3 0.89,-1.61 -0.17,-1.91 -0.13,-3.19 0.04,-1.31 1.49,-1.08 1.46,-2.66 -0.03,-1.5 -1.3,-1.53 -1.37,-1.56 -0.51,-0.18 -0.5,-0.96 -2.32,-0.27 -0.66,0.25 -0.53,0.53 -0.72,1.31 -0.89,3.55 -2.56,8.38 -4.06,11.67l-1.95 4.02c-0.22,0.29 -0.92,0.78 -0.98,0.96zm-6.09 -0.06c-0.01,-0.02 -0.04,-0.08 -0.05,-0.06 -0.01,0.01 -0.94,-0.69 -1.62,-2.23 -0.41,-0.94 -0.88,-1.77 -1.26,-2.67 -1.51,-3.65 -3.07,-7.84 -4.02,-11.72 -0.16,-0.67 -0.1,-1.02 -0.68,-1.25 -1.68,-0.65 -2.14,0.21 -2.34,0.3 -0.28,0.13 -0.49,0.05 -0.77,0.2 -0.29,0.14 -0.65,0.84 -0.66,1.36 -0.05,1.54 1.31,1.32 1.46,2.47 0.14,1.06 -0.88,1.68 -0.27,3.15 0.51,1.22 1.69,0.81 1.68,2.25 0,0.59 -0.32,0.99 -0.3,1.59 0.02,0.57 0.33,1.09 0.67,1.34 1.11,0.8 2.11,-1.26 2.79,0.08 0.54,1.04 -0.53,2.01 0.16,3.37 0.8,1.57 2.17,0.46 2.72,0.57 0.67,0.14 1.37,1.84 2.49,1.25zm2.69 -34.6c-1.06,0.32 -0.8,0.96 -1.57,1.15 -0.95,0.23 -0.96,-0.68 -1.7,-0.89 -0.78,-0.23 -1.45,0.4 -1.61,0.99 -0.12,0.46 0.76,4.1 -1.75,2.05 -0.75,-0.62 -2.55,-0.81 -2.51,2.04 0.02,1.06 -0.65,1.08 -1.16,1.55 -1.14,1.06 -0.63,3.01 0.51,3.62 0.94,0.49 1.4,0.05 2.05,-0.32 0.75,-0.42 1.64,-0.09 2.03,0.39 0.19,0.24 1.25,3.2 2.86,1.53 0.39,-0.41 0.69,-1.28 1.63,-0.81 0.57,0.29 0.67,1.16 1.71,1.08 0.92,-0.06 0.99,-0.85 1.58,-1.11 1.49,-0.65 1.63,2.55 3.44,0.9 0.68,-0.62 0.57,-1.09 1.03,-1.64 1.33,-1.6 2.44,0.77 4.01,-0.02 1.29,-0.65 1.61,-2.59 0.44,-3.65 -0.56,-0.51 -1.14,-0.48 -1.09,-1.51 0.05,-1.1 -0.03,-1.29 -0.62,-1.89 -0.61,-0.62 -1.02,-0.78 -1.76,-0.25 -0.75,0.55 -1.54,0.46 -1.79,-0.35 -0.28,-0.9 0.28,-1.32 -0.45,-2.2 -0.58,-0.7 -1.22,-0.51 -1.8,0.01 -1.89,1.71 -1.51,-1.27 -3.48,-0.67z"/>
 </g>
</svg>
