<?xml version="1.0" encoding="UTF-8"?>
<!DOCTYPE svg PUBLIC "-//W3C//DTD SVG 1.1//EN" "http://www.w3.org/Graphics/SVG/1.1/DTD/svg11.dtd">
<!-- Creator: CorelDRAW 2021 (64-Bit) -->
<svg xmlns="http://www.w3.org/2000/svg" xml:space="preserve" width="192px" height="192px" version="1.1" shape-rendering="geometricPrecision" text-rendering="geometricPrecision" image-rendering="optimizeQuality" fill-rule="evenodd" clip-rule="evenodd"
viewBox="0 0 510.32 510.32"
 xmlns:xlink="http://www.w3.org/1999/xlink"
 xmlns:xodm="http://www.corel.com/coreldraw/odm/2003">
 <defs>
   <linearGradient id="id0" gradientUnits="userSpaceOnUse" x1="63.67" y1="86.52" x2="446.65" y2="423.8">
    <stop offset="0" stop-opacity="1" stop-color="orange"/>
    <stop offset="1" stop-opacity="1" stop-color="#E77000"/>
   </linearGradient>
   <clipPath id="id1">
    <path d="M255.16 0l0 0c140.34,0 255.16,114.82 255.16,255.16l0 0c0,140.34 -114.82,255.16 -255.16,255.16l0 0c-140.34,0 -255.16,-114.82 -255.16,-255.16l0 0c0,-140.34 114.82,-255.16 255.16,-255.16z"/>
   </clipPath>
   <linearGradient id="id2" gradientUnits="userSpaceOnUse" x1="117.88" y1="118.24" x2="390.51" y2="393.74">
    <stop offset="0" stop-opacity="1" stop-color="orange"/>
    <stop offset="1" stop-opacity="1" stop-color="#E77000"/>
   </linearGradient>
 </defs>
 <g id="Layer_x0020_1">
  <metadata id="CorelCorpID_0Corel-Layer"/>
  <path fill="url(#id0)" d="M255.16 0l0 0c140.34,0 255.16,114.82 255.16,255.16l0 0c0,140.34 -114.82,255.16 -255.16,255.16l0 0c-140.34,0 -255.16,-114.82 -255.16,-255.16l0 0c0,-140.34 114.82,-255.16 255.16,-255.16z"/>
  <g clip-path="url(#id1)">
   <g id="_1651793017616">
    <polygon id="_1" fill="#D16704" points="350.55,115.83 454.59,228.88 456.84,209.63 521.78,285.54 521.78,301.88 522.76,302.95 522.76,507.52 334.71,548.51 187.66,426.16 "/>
   </g>
  </g>
  <path fill="none" d="M255.16 0l0 0c140.34,0 255.16,114.82 255.16,255.16l0 0c0,140.34 -114.82,255.16 -255.16,255.16l0 0c-140.34,0 -255.16,-114.82 -255.16,-255.16l0 0c0,-140.34 114.82,-255.16 255.16,-255.16z"/>
  <path fill="url(#id2)" d="M233.23 87.64c-4.12,-2.66 -5.82,-5.88 -12.24,-7.61 -15.75,-4.24 -28.65,9.76 -28.18,30.06 -12.63,-3.86 -17.39,-10.56 -30.2,0.69 -12.26,10.77 -10.4,20.24 -11.05,29.76 -6.72,5.79 -10.16,6.61 -14.11,15.83 -4.34,10.12 -1.44,16.89 -3.43,27.48 -10.76,6.54 -9.42,0.73 -16.26,12.59 -17.29,1.26 -26.71,-0.55 -44.09,3.85 -13.61,3.45 -27.16,5.68 -26.19,22.99 0.76,13.51 14.26,19.42 22.43,25.76 10.93,8.48 15.91,14.51 35.16,14.13 -0.08,6.71 0.56,12.82 3.03,18.43 3.07,6.94 4.91,7.84 10.18,11.56 -2.68,11.38 -6.45,15.34 -2.6,28.76 2.76,9.62 8.88,17.83 16.24,20.56 -1.97,14.18 -5.87,20.95 3.59,33.32 5.59,7.31 14.61,13.17 26.74,8.36 2.17,13.72 -2.88,22.02 7.8,31.89 15.83,14.61 16.22,9.81 29.29,7.59 5.21,5.39 13.29,14.35 26.32,12.19 14.57,-2.42 10.23,-13.15 27.49,-13.39 20.06,-0.29 12.4,9.99 27.83,13.18 15.26,3.16 22.44,-7.96 27.01,-12.22 6.73,1.59 7.58,4.42 15.75,2 18.79,-5.59 22,-22.24 21.31,-41.48 6.85,1.91 7.87,4.34 15.8,0.84 5.31,-2.34 8.98,-5.71 11.62,-9.3 8.81,-11.96 5.62,-18.21 3.35,-32.92 12.91,-5.59 18.71,-21.99 17.52,-35.32 -0.53,-5.92 -3.19,-9.26 -3.62,-14.18 10.17,-7.72 12.62,-12.93 13.17,-29.9 23.16,-1.95 12.36,2.88 34.59,-13.06 9.81,-7.03 22.1,-14.24 23.32,-25.8 1.96,-18.57 -14.34,-21.05 -25.31,-23.88 -18.82,-4.85 -26.2,-2.58 -44.78,-3.72 -0.52,-0.25 -3.52,-5.39 -6.43,-7.83 -3.29,-2.78 -6.25,-2.76 -10.39,-4.55 -2.27,-9.52 2.31,-15.61 -2.59,-27.35 -4.48,-10.76 -6.92,-10 -14.35,-16.41 -0.52,-7.2 0.58,-11.36 -2.27,-17.83 -3.82,-8.64 -12.69,-17.49 -22.82,-17.8 -8.28,-0.26 -10.16,3.12 -16.23,5.24 0.88,-21.02 -12.84,-33.77 -27.72,-30.48 -5.95,1.32 -8.5,5.45 -12.06,7.62 -4.33,-4.14 -10.32,-11.14 -20.7,-11.48 -11.97,-0.39 -16.68,6.71 -21.92,11.83z"/>
  <path fill="#FFFEFE" d="M250.56 93.53c-9.94,3.01 -7.52,9.02 -14.73,10.8 -8.91,2.19 -8.96,-6.37 -15.9,-8.39 -7.28,-2.11 -13.55,3.82 -15.04,9.3 -1.17,4.3 7.07,38.4 -16.38,19.21 -7.11,-5.81 -23.93,-7.58 -23.54,19.09 0.14,9.98 -6.08,10.13 -10.86,14.55 -10.69,9.9 -5.95,28.21 4.76,33.89 8.79,4.65 13.07,0.47 19.17,-2.96 7.04,-3.96 15.42,-0.87 19.03,3.64 1.83,2.29 11.76,30 26.83,14.29 3.66,-3.82 6.48,-12 15.23,-7.57 5.35,2.72 6.26,10.84 16.01,10.15 8.66,-0.61 9.33,-7.96 14.84,-10.38 13.89,-6.08 15.28,23.87 32.23,8.38 6.33,-5.77 5.29,-10.16 9.58,-15.32 12.51,-15.02 22.95,7.19 37.65,-0.24 12.03,-6.07 15,-24.2 4.08,-34.18 -5.21,-4.76 -10.71,-4.44 -10.23,-14.17 0.51,-10.28 -0.29,-12.08 -5.79,-17.66 -5.73,-5.8 -9.54,-7.34 -16.49,-2.3 -7.04,5.11 -14.44,4.3 -16.78,-3.35 -2.57,-8.38 2.64,-12.34 -4.22,-20.61 -5.41,-6.53 -11.42,-4.77 -16.81,0.1 -17.7,16.02 -14.2,-11.85 -32.64,-6.27z"/>
  <path fill="#FFFEFE" d="M225.41 417.63c-0.15,-0.2 -0.4,-0.73 -0.48,-0.57 -0.07,0.17 -8.85,-6.44 -15.17,-20.85 -3.85,-8.79 -8.28,-16.54 -11.81,-25.01 -14.21,-34.17 -28.75,-73.41 -37.69,-109.81 -1.53,-6.22 -0.88,-9.5 -6.34,-11.64 -15.78,-6.18 -20.06,1.94 -21.96,2.81 -2.56,1.16 -4.57,0.42 -7.21,1.78 -2.71,1.4 -6.05,7.93 -6.2,12.79 -0.44,14.4 12.28,12.36 13.72,23.16 1.33,9.94 -8.22,15.67 -2.51,29.47 4.75,11.47 15.81,7.6 15.72,21.09 -0.03,5.52 -2.97,9.27 -2.8,14.91 0.15,5.35 3.05,10.18 6.3,12.54 10.35,7.5 19.69,-11.82 26.14,0.79 4.96,9.72 -5.05,18.79 1.42,31.49 7.47,14.7 20.4,4.39 25.47,5.4 6.33,1.26 12.84,17.21 23.4,11.65z"/>
  <path fill="#FFFEFE" d="M282.39 418.19c17.15,1.7 14.61,-11.39 23.77,-12.34 4.46,-0.46 17.1,10.13 25.14,-5.79 6.14,-12.18 -3.35,-21.15 0.81,-30.07 1.99,-4.26 6.62,-6.86 11.48,-3.97 4.46,2.64 5.32,6.34 12.67,3.29 14.57,-6.04 6.49,-22.98 6.1,-25.86 -1.91,-13.82 9.6,-12.72 14.42,-21.48 8.35,-15.15 -1.65,-17.98 -1.27,-29.94 0.39,-12.24 14.01,-10.12 13.71,-24.91 -0.27,-14.01 -12.15,-14.33 -12.87,-14.59 -4.76,-1.71 -4.64,-8.98 -21.69,-2.53 -6.23,2.36 -4.95,4.97 -6.77,12.22 -8.33,33.24 -23.96,78.56 -38.07,109.37l-18.19 37.64c-2.04,2.76 -8.64,7.29 -9.24,8.96z"/>
  <path fill="#FFFEFE" d="M121.28 218.28c-3.71,-8.51 -60.02,-14.8 -54.32,6.67 2.54,9.6 19.93,9.87 29.42,6.99 6.72,-2.03 13.07,-6.29 19.65,-9.28 3.97,-1.8 3.91,-0.88 5.25,-4.38z"/>
  <path fill="#FFFEFE" d="M387.19 217.29c0.88,5.2 5.5,5.51 10.48,7.99 4.57,2.27 8.22,4.62 13.52,6.43 11.07,3.8 26.62,2.02 30.24,-6.66 7.52,-18.07 -42.99,-17.44 -54.24,-7.76z"/>
  <path fill="#FFFEFE" d="M176.47 240.25c-1.5,9.69 5.49,21.68 9.96,25.83 4.17,3.88 21.98,10.89 29.35,4.41 6.04,-5.31 -6.91,-12.91 -14.12,-18.63 -4.62,-3.67 -17.28,-12.31 -25.19,-11.61z"/>
  <path fill="#FFFEFE" d="M331.84 240.27c-10.95,-1.04 -26.87,13.12 -34.63,19.08 -19.96,15.32 12,17.43 24.13,7.19 4.73,-3.99 12.05,-16.26 10.5,-26.27z"/>
  <path fill="#FFFEFE" d="M244.58 404.82c0.2,-4.13 -0.18,-6.48 -2.44,-9.11 -4.54,-5.27 -13.91,-12.72 -21.38,-10.49 -2.12,6.72 4.32,11.78 7.48,14.49 5.12,4.39 8.74,6.02 16.34,5.11z"/>
  <path fill="#FFFEFE" d="M263.49 404.32c11.34,3.94 27.32,-12.56 24.16,-18.18 -2.8,-5 -13.96,2.39 -16.03,4.09 -4.08,3.34 -8.61,6.93 -8.13,14.09z"/>
 </g>
</svg>
