<?xml version="1.0" encoding="UTF-8"?>
<!DOCTYPE svg PUBLIC "-//W3C//DTD SVG 1.1//EN" "http://www.w3.org/Graphics/SVG/1.1/DTD/svg11.dtd">
<!-- Creator: CorelDRAW 2021 (64-Bit) -->
<svg xmlns="http://www.w3.org/2000/svg" xml:space="preserve" width="200px" height="207px" version="1.1" shape-rendering="geometricPrecision" text-rendering="geometricPrecision" image-rendering="optimizeQuality" fill-rule="evenodd" clip-rule="evenodd"
viewBox="0 0 186.85 193.81"
 xmlns:xlink="http://www.w3.org/1999/xlink"
 xmlns:xodm="http://www.corel.com/coreldraw/odm/2003">
 <defs>
   <clipPath id="id0">
    <rect width="186.85" height="190.98"/>
   </clipPath>
 </defs>
 <g id="Layer_x0020_1">
  <metadata id="CorelCorpID_0Corel-Layer"/>
  <path fill="#E77000" d="M100 51.69l0 0c39.09,0 71.06,31.98 71.06,71.06l0 0c0,39.09 -31.97,71.06 -71.06,71.06l0 0c-39.08,0 -71.06,-31.97 -71.06,-71.06l0 0c0,-39.08 31.98,-71.06 71.06,-71.06z"/>
  <g id="_3095838730640">
  </g>
  <path id="_1" fill="none" d="M100 51.69l0 0c39.09,0 71.06,31.98 71.06,71.06l0 0c0,39.09 -31.97,71.06 -71.06,71.06l0 0c-39.08,0 -71.06,-31.97 -71.06,-71.06l0 0c0,-39.08 31.98,-71.06 71.06,-71.06z"/>
  <path fill="#FFFEFE" d="M98.48 66.88c-3.44,1.03 -2.61,3.11 -5.1,3.72 -3.07,0.76 -3.09,-2.19 -5.49,-2.89 -2.51,-0.74 -4.68,1.32 -5.19,3.21 -0.4,1.48 2.44,13.27 -5.66,6.64 -2.46,-2.01 -8.26,-2.63 -8.13,6.59 0.05,3.45 -2.1,3.5 -3.75,5.02 -3.69,3.42 -2.06,9.75 1.64,11.71 3.04,1.61 4.51,0.16 6.62,-1.02 2.43,-1.37 5.33,-0.3 6.58,1.26 0.63,0.78 4.06,10.36 9.26,4.93 1.27,-1.31 2.24,-4.14 5.26,-2.61 1.85,0.94 2.16,3.74 5.53,3.5 3,-0.21 3.23,-2.75 5.13,-3.58 4.8,-2.11 5.28,8.24 11.13,2.9 2.19,-2 1.83,-3.52 3.32,-5.3 4.31,-5.19 7.92,2.48 13,-0.08 4.15,-2.1 5.18,-8.36 1.4,-11.81 -1.8,-1.64 -3.69,-1.53 -3.53,-4.89 0.18,-3.56 -0.1,-4.17 -2,-6.1 -1.97,-2.01 -3.3,-2.54 -5.7,-0.79 -2.42,1.76 -4.98,1.48 -5.79,-1.17 -0.89,-2.89 0.91,-4.25 -1.46,-7.11 -1.86,-2.26 -3.94,-1.65 -5.8,0.03 -6.12,5.53 -4.91,-4.09 -11.27,-2.16l0 0z"/>
  <path fill="#FFFEFE" d="M89.78 178.82c-0.05,-0.07 -0.13,-0.25 -0.16,-0.2 -0.03,0.06 -3.06,-2.22 -5.24,-7.2 -1.33,-3.04 -2.86,-5.71 -4.08,-8.64 -4.91,-11.8 -9.93,-25.35 -13.02,-37.93 -0.52,-2.14 -0.31,-3.28 -2.19,-4.02 -5.45,-2.13 -6.93,0.68 -7.59,0.97 -0.88,0.4 -1.57,0.15 -2.49,0.62 -0.93,0.48 -2.08,2.74 -2.13,4.42 -0.16,4.97 4.23,4.26 4.74,7.99 0.45,3.44 -2.85,5.42 -0.87,10.19 1.63,3.96 5.46,2.62 5.43,7.28 -0.02,1.91 -1.03,3.2 -0.97,5.15 0.05,1.85 1.05,3.51 2.18,4.33 3.57,2.59 6.79,-4.08 9.02,0.27 1.72,3.36 -1.74,6.49 0.5,10.88 2.57,5.08 7.04,1.51 8.79,1.87 2.19,0.43 4.44,5.94 8.08,4.02l0 0z"/>
  <path fill="#FFFEFE" d="M109.47 179.02c5.92,0.58 5.04,-3.94 8.21,-4.27 1.54,-0.16 5.9,3.5 8.68,-2 2.12,-4.21 -1.16,-7.3 0.28,-10.39 0.69,-1.47 2.29,-2.36 3.97,-1.36 1.54,0.91 1.83,2.18 4.37,1.13 5.03,-2.09 2.24,-7.94 2.1,-8.93 -0.65,-4.78 3.32,-4.4 4.99,-7.42 2.88,-5.23 -0.57,-6.21 -0.44,-10.34 0.14,-4.23 4.84,-3.5 4.73,-8.61 -0.09,-4.84 -4.19,-4.95 -4.44,-5.04 -1.64,-0.59 -1.6,-3.09 -7.49,-0.87 -2.16,0.82 -1.72,1.71 -2.34,4.22 -2.88,11.48 -8.28,27.14 -13.15,37.78l-6.29 13c-0.7,0.95 -2.98,2.51 -3.18,3.1z"/>
  <path fill="#FFFEFE" d="M53.82 109.96c-1.29,-2.94 -20.73,-5.1 -18.76,2.31 0.88,3.31 6.87,3.41 10.16,2.42 2.32,-0.71 4.51,-2.18 6.78,-3.21 1.37,-0.63 1.36,-0.31 1.82,-1.52z"/>
  <path fill="#FFFEFE" d="M145.67 109.62c0.3,1.8 1.89,1.9 3.61,2.76 1.58,0.78 2.85,1.59 4.67,2.23 3.83,1.3 9.2,0.69 10.45,-2.31 2.6,-6.24 -14.85,-6.02 -18.73,-2.68l0 0z"/>
  <path fill="#FFFEFE" d="M72.88 117.55c-0.52,3.35 1.9,7.49 3.44,8.93 1.45,1.33 7.59,3.76 10.14,1.52 2.09,-1.83 -2.39,-4.46 -4.88,-6.44 -1.6,-1.26 -5.97,-4.25 -8.7,-4.01l0 0z"/>
  <path fill="#FFFEFE" d="M126.55 117.56c-3.79,-0.36 -9.29,4.53 -11.97,6.59 -6.89,5.29 4.15,6.02 8.34,2.48 1.64,-1.38 4.16,-5.61 3.63,-9.07l0 0z"/>
  <path fill="#FFFEFE" d="M96.4 174.4c0.07,-1.43 -0.05,-2.24 -0.84,-3.15 -1.56,-1.82 -4.8,-4.39 -7.38,-3.63 -0.74,2.33 1.49,4.07 2.59,5.01 1.76,1.52 3.01,2.08 5.63,1.77l0 0z"/>
  <path fill="#FFFEFE" d="M102.93 174.22c3.93,1.36 9.44,-4.34 8.35,-6.28 -0.97,-1.72 -4.82,0.83 -5.54,1.41 -1.41,1.16 -2.97,2.4 -2.81,4.87z"/>
  <g clip-path="url(#id0)">
   <image id="gorro2.png" x="0" y="0" width="186.85" height="190.98" xlink:href="logo192-login-natal_Images\logo192-login-natal_ImgID1.png"/>
  </g>
 </g>
</svg>
