<?xml version="1.0" encoding="UTF-8"?>
<!DOCTYPE svg PUBLIC "-//W3C//DTD SVG 1.1//EN" "http://www.w3.org/Graphics/SVG/1.1/DTD/svg11.dtd">
<!-- Creator: CorelDRAW 2021 (64-Bit) -->
<svg xmlns="http://www.w3.org/2000/svg" xml:space="preserve" width="240px" height="80px" version="1.1" shape-rendering="geometricPrecision" text-rendering="geometricPrecision" image-rendering="optimizeQuality" fill-rule="evenodd" clip-rule="evenodd"
viewBox="0 0 194.91 64.97"
 xmlns:xlink="http://www.w3.org/1999/xlink"
 xmlns:xodm="http://www.corel.com/coreldraw/odm/2003">
 <defs>
   <clipPath id="id0">
    <rect x="3.3" y="3.95" width="56.97" height="56.97"/>
   </clipPath>
 </defs>
 <g id="Layer_x0020_1">
  <metadata id="CorelCorpID_0Corel-Layer"/>
  <rect fill="#F3F3F3" width="194.91" height="64.97"/>
  <circle fill="white" stroke="#D4332A" stroke-width="1.53" stroke-linecap="round" stroke-linejoin="round" stroke-miterlimit="22.9256" cx="31.78" cy="32.43" r="30.48"/>
  <g clip-path="url(#id0)">
   <image id="waltemar_.png" x="3.3" y="3.95" width="56.96" height="56.96" xlink:href="logo-3_Images\logo-3_ImgID1.png"/>
  </g>
  <polygon fill="#0C2957" fill-rule="nonzero" points="78.24,28.24 75.99,21.35 77.64,21.35 79.6,27.46 78.77,27.46 80.82,21.35 82.3,21.35 84.26,27.46 83.47,27.46 85.47,21.35 87,21.35 84.75,28.24 83.03,28.24 81.29,22.89 81.74,22.89 79.95,28.24 "/>
  <path id="_1" fill="#0C2957" fill-rule="nonzero" d="M90.63 28.24l0 -1.03 -0.09 -0.23 0 -1.85c0,-0.32 -0.11,-0.58 -0.31,-0.76 -0.2,-0.19 -0.5,-0.28 -0.92,-0.28 -0.28,0 -0.56,0.04 -0.83,0.13 -0.27,0.09 -0.5,0.21 -0.69,0.36l-0.55 -1.07c0.29,-0.2 0.63,-0.36 1.04,-0.47 0.41,-0.11 0.82,-0.17 1.24,-0.17 0.81,0 1.43,0.19 1.88,0.57 0.45,0.38 0.67,0.98 0.67,1.78l0 3.02 -1.44 0zm-1.61 0.08c-0.41,0 -0.77,-0.07 -1.06,-0.21 -0.3,-0.14 -0.53,-0.33 -0.68,-0.57 -0.16,-0.25 -0.24,-0.52 -0.24,-0.82 0,-0.32 0.08,-0.59 0.23,-0.83 0.16,-0.23 0.4,-0.42 0.74,-0.55 0.33,-0.14 0.77,-0.21 1.3,-0.21l1.41 0 0 0.9 -1.24 0c-0.36,0 -0.61,0.06 -0.74,0.18 -0.14,0.12 -0.2,0.26 -0.2,0.44 0,0.2 0.07,0.35 0.23,0.47 0.15,0.11 0.36,0.17 0.63,0.17 0.26,0 0.49,-0.06 0.69,-0.18 0.2,-0.12 0.35,-0.3 0.45,-0.54l0.23 0.71c-0.11,0.34 -0.31,0.6 -0.61,0.78 -0.29,0.17 -0.68,0.26 -1.14,0.26z"/>
  <polygon id="_2" fill="#0C2957" fill-rule="nonzero" points="93.46,28.24 93.46,20.94 94.99,20.94 94.99,28.24 "/>
  <path id="_3" fill="#0C2957" fill-rule="nonzero" d="M98.97 28.32c-0.62,0 -1.11,-0.16 -1.46,-0.47 -0.34,-0.32 -0.52,-0.8 -0.52,-1.43l0 -4.64 1.54 0 0 4.62c0,0.23 0.06,0.4 0.18,0.52 0.11,0.12 0.27,0.18 0.48,0.18 0.24,0 0.45,-0.06 0.62,-0.19l0.41 1.08c-0.16,0.11 -0.34,0.19 -0.56,0.25 -0.22,0.06 -0.45,0.08 -0.69,0.08zm-2.79 -4.07l0 -1.18 3.67 0 0 1.18 -3.67 0z"/>
  <path id="_4" fill="#0C2957" fill-rule="nonzero" d="M103.55 28.32c-0.6,0 -1.14,-0.11 -1.59,-0.35 -0.46,-0.24 -0.81,-0.56 -1.06,-0.97 -0.25,-0.41 -0.37,-0.88 -0.37,-1.4 0,-0.53 0.12,-1.01 0.37,-1.42 0.24,-0.41 0.58,-0.73 1,-0.96 0.43,-0.23 0.91,-0.35 1.45,-0.35 0.52,0 0.99,0.11 1.4,0.33 0.42,0.22 0.75,0.53 0.99,0.94 0.25,0.42 0.37,0.91 0.37,1.48 0,0.06 0,0.12 -0.01,0.2 -0.01,0.07 -0.01,0.14 -0.02,0.21l-4.3 0 0 -0.9 3.49 0 -0.59 0.27c0,-0.28 -0.06,-0.52 -0.17,-0.72 -0.11,-0.2 -0.26,-0.36 -0.46,-0.48 -0.2,-0.11 -0.43,-0.17 -0.69,-0.17 -0.26,0 -0.49,0.06 -0.69,0.17 -0.2,0.12 -0.36,0.28 -0.47,0.49 -0.11,0.2 -0.17,0.45 -0.17,0.73l0 0.24c0,0.28 0.07,0.54 0.19,0.76 0.13,0.22 0.31,0.39 0.55,0.5 0.23,0.12 0.5,0.17 0.82,0.17 0.28,0 0.53,-0.04 0.74,-0.13 0.21,-0.08 0.41,-0.21 0.59,-0.38l0.81 0.89c-0.24,0.27 -0.54,0.48 -0.91,0.63 -0.37,0.15 -0.79,0.22 -1.27,0.22z"/>
  <path id="_5" fill="#0C2957" fill-rule="nonzero" d="M113.91 22.87c0.42,0 0.8,0.08 1.12,0.25 0.33,0.17 0.58,0.42 0.77,0.77 0.19,0.34 0.28,0.78 0.28,1.32l0 3.03 -1.54 0 0 -2.79c0,-0.43 -0.08,-0.74 -0.26,-0.95 -0.18,-0.2 -0.43,-0.3 -0.75,-0.3 -0.22,0 -0.42,0.05 -0.6,0.15 -0.18,0.1 -0.32,0.26 -0.41,0.46 -0.1,0.2 -0.15,0.46 -0.15,0.78l0 2.65 -1.54 0 0 -2.79c0,-0.43 -0.08,-0.74 -0.26,-0.95 -0.17,-0.2 -0.42,-0.3 -0.74,-0.3 -0.22,0 -0.42,0.05 -0.6,0.15 -0.18,0.1 -0.32,0.26 -0.42,0.46 -0.09,0.2 -0.14,0.46 -0.14,0.78l0 2.65 -1.54 0 0 -5.29 1.47 0 0 1.45 -0.28 -0.43c0.19,-0.36 0.45,-0.63 0.79,-0.82 0.33,-0.19 0.72,-0.28 1.15,-0.28 0.49,0 0.91,0.12 1.28,0.37 0.36,0.25 0.6,0.62 0.72,1.13l-0.54 -0.15c0.18,-0.41 0.46,-0.74 0.85,-0.99 0.39,-0.24 0.84,-0.36 1.34,-0.36z"/>
  <path id="_6" fill="#0C2957" fill-rule="nonzero" d="M120.71 28.24l0 -1.03 -0.1 -0.23 0 -1.85c0,-0.32 -0.1,-0.58 -0.3,-0.76 -0.2,-0.19 -0.51,-0.28 -0.92,-0.28 -0.28,0 -0.56,0.04 -0.83,0.13 -0.28,0.09 -0.51,0.21 -0.7,0.36l-0.55 -1.07c0.29,-0.2 0.64,-0.36 1.04,-0.47 0.41,-0.11 0.82,-0.17 1.24,-0.17 0.81,0 1.44,0.19 1.88,0.57 0.45,0.38 0.67,0.98 0.67,1.78l0 3.02 -1.43 0zm-1.62 0.08c-0.41,0 -0.77,-0.07 -1.06,-0.21 -0.3,-0.14 -0.52,-0.33 -0.68,-0.57 -0.16,-0.25 -0.24,-0.52 -0.24,-0.82 0,-0.32 0.08,-0.59 0.23,-0.83 0.16,-0.23 0.4,-0.42 0.74,-0.55 0.33,-0.14 0.77,-0.21 1.31,-0.21l1.41 0 0 0.9 -1.25 0c-0.36,0 -0.6,0.06 -0.74,0.18 -0.13,0.12 -0.2,0.26 -0.2,0.44 0,0.2 0.08,0.35 0.23,0.47 0.16,0.11 0.37,0.17 0.64,0.17 0.25,0 0.48,-0.06 0.68,-0.18 0.21,-0.12 0.36,-0.3 0.45,-0.54l0.23 0.71c-0.11,0.34 -0.31,0.6 -0.61,0.78 -0.29,0.17 -0.67,0.26 -1.14,0.26z"/>
  <path id="_7" fill="#0C2957" fill-rule="nonzero" d="M123.53 28.24l0 -5.29 1.47 0 0 1.49 -0.21 -0.43c0.16,-0.37 0.41,-0.66 0.76,-0.85 0.35,-0.19 0.77,-0.29 1.27,-0.29l0 1.42c-0.07,-0.01 -0.12,-0.01 -0.18,-0.02 -0.05,0 -0.11,0 -0.16,0 -0.42,0 -0.76,0.12 -1.02,0.36 -0.26,0.24 -0.39,0.61 -0.39,1.11l0 2.5 -1.54 0z"/>
  <path id="_8" fill="#0C2957" fill-rule="nonzero" d="M133.97 28.36c-0.54,0 -1.03,-0.08 -1.49,-0.26 -0.45,-0.17 -0.85,-0.42 -1.18,-0.74 -0.34,-0.32 -0.6,-0.7 -0.78,-1.13 -0.19,-0.44 -0.28,-0.91 -0.28,-1.43 0,-0.52 0.09,-0.99 0.28,-1.43 0.18,-0.43 0.45,-0.81 0.78,-1.13 0.34,-0.32 0.74,-0.57 1.19,-0.74 0.45,-0.18 0.95,-0.26 1.49,-0.26 0.59,0 1.13,0.1 1.62,0.31 0.48,0.2 0.88,0.51 1.21,0.91l-1.02 0.94c-0.24,-0.27 -0.5,-0.47 -0.79,-0.6 -0.29,-0.14 -0.6,-0.21 -0.94,-0.21 -0.33,0 -0.62,0.06 -0.89,0.16 -0.27,0.11 -0.5,0.26 -0.7,0.45 -0.2,0.2 -0.35,0.43 -0.46,0.7 -0.11,0.27 -0.16,0.57 -0.16,0.9 0,0.33 0.05,0.63 0.16,0.9 0.11,0.26 0.26,0.5 0.46,0.69 0.2,0.2 0.43,0.35 0.7,0.46 0.27,0.1 0.56,0.15 0.89,0.15 0.34,0 0.65,-0.06 0.94,-0.2 0.29,-0.13 0.55,-0.34 0.79,-0.61l1.02 0.94c-0.33,0.4 -0.73,0.71 -1.21,0.92 -0.49,0.21 -1.03,0.31 -1.63,0.31z"/>
  <path id="_9" fill="#0C2957" fill-rule="nonzero" d="M140.99 28.24l0 -1.03 -0.1 -0.23 0 -1.85c0,-0.32 -0.1,-0.58 -0.3,-0.76 -0.2,-0.19 -0.51,-0.28 -0.92,-0.28 -0.29,0 -0.56,0.04 -0.84,0.13 -0.27,0.09 -0.5,0.21 -0.69,0.36l-0.55 -1.07c0.29,-0.2 0.64,-0.36 1.04,-0.47 0.41,-0.11 0.82,-0.17 1.24,-0.17 0.81,0 1.44,0.19 1.88,0.57 0.45,0.38 0.67,0.98 0.67,1.78l0 3.02 -1.43 0zm-1.62 0.08c-0.41,0 -0.77,-0.07 -1.06,-0.21 -0.3,-0.14 -0.52,-0.33 -0.68,-0.57 -0.16,-0.25 -0.24,-0.52 -0.24,-0.82 0,-0.32 0.08,-0.59 0.23,-0.83 0.16,-0.23 0.4,-0.42 0.74,-0.55 0.33,-0.14 0.77,-0.21 1.31,-0.21l1.4 0 0 0.9 -1.24 0c-0.36,0 -0.6,0.06 -0.74,0.18 -0.13,0.12 -0.2,0.26 -0.2,0.44 0,0.2 0.08,0.35 0.23,0.47 0.15,0.11 0.37,0.17 0.63,0.17 0.26,0 0.49,-0.06 0.69,-0.18 0.21,-0.12 0.36,-0.3 0.45,-0.54l0.23 0.71c-0.11,0.34 -0.31,0.6 -0.61,0.78 -0.29,0.17 -0.67,0.26 -1.14,0.26z"/>
  <path id="_10" fill="#0C2957" fill-rule="nonzero" d="M143.81 28.24l0 -5.29 1.47 0 0 1.49 -0.21 -0.43c0.16,-0.37 0.41,-0.66 0.76,-0.85 0.35,-0.19 0.77,-0.29 1.27,-0.29l0 1.42c-0.07,-0.01 -0.13,-0.01 -0.18,-0.02 -0.05,0 -0.11,0 -0.17,0 -0.42,0 -0.76,0.12 -1.02,0.36 -0.25,0.24 -0.38,0.61 -0.38,1.11l0 2.5 -1.54 0z"/>
  <path id="_11" fill="#0C2957" fill-rule="nonzero" d="M151.23 22.87c0.42,0 0.8,0.08 1.13,0.25 0.33,0.17 0.59,0.42 0.78,0.77 0.19,0.34 0.29,0.78 0.29,1.32l0 3.03 -1.54 0 0 -2.79c0,-0.43 -0.09,-0.74 -0.28,-0.95 -0.18,-0.2 -0.45,-0.3 -0.79,-0.3 -0.24,0 -0.46,0.05 -0.65,0.15 -0.2,0.1 -0.35,0.26 -0.46,0.47 -0.11,0.21 -0.16,0.48 -0.16,0.81l0 2.61 -1.54 0 0 -5.29 1.47 0 0 1.47 -0.27 -0.45c0.19,-0.35 0.46,-0.62 0.81,-0.81 0.36,-0.19 0.76,-0.29 1.21,-0.29z"/>
  <path id="_12" fill="#0C2957" fill-rule="nonzero" d="M157.48 28.32c-0.6,0 -1.13,-0.11 -1.59,-0.35 -0.45,-0.24 -0.8,-0.56 -1.05,-0.97 -0.25,-0.41 -0.38,-0.88 -0.38,-1.4 0,-0.53 0.12,-1.01 0.37,-1.42 0.25,-0.41 0.58,-0.73 1.01,-0.96 0.43,-0.23 0.91,-0.35 1.45,-0.35 0.52,0 0.98,0.11 1.4,0.33 0.42,0.22 0.75,0.53 0.99,0.94 0.24,0.42 0.36,0.91 0.36,1.48 0,0.06 0,0.12 -0.01,0.2 0,0.07 -0.01,0.14 -0.02,0.21l-4.3 0 0 -0.9 3.5 0 -0.59 0.27c0,-0.28 -0.06,-0.52 -0.17,-0.72 -0.11,-0.2 -0.27,-0.36 -0.46,-0.48 -0.2,-0.11 -0.43,-0.17 -0.69,-0.17 -0.27,0 -0.5,0.06 -0.7,0.17 -0.2,0.12 -0.35,0.28 -0.47,0.49 -0.11,0.2 -0.16,0.45 -0.16,0.73l0 0.24c0,0.28 0.06,0.54 0.19,0.76 0.13,0.22 0.31,0.39 0.54,0.5 0.23,0.12 0.51,0.17 0.82,0.17 0.29,0 0.53,-0.04 0.75,-0.13 0.21,-0.08 0.4,-0.21 0.58,-0.38l0.82 0.89c-0.24,0.27 -0.55,0.48 -0.92,0.63 -0.36,0.15 -0.79,0.22 -1.27,0.22z"/>
  <path id="_13" fill="#0C2957" fill-rule="nonzero" d="M161.07 28.24l0 -5.29 1.53 0 0 5.29 -1.53 0zm0.76 -6.03c-0.28,0 -0.51,-0.08 -0.68,-0.25 -0.18,-0.16 -0.27,-0.36 -0.27,-0.61 0,-0.24 0.09,-0.44 0.27,-0.61 0.17,-0.16 0.4,-0.24 0.68,-0.24 0.29,0 0.52,0.07 0.69,0.23 0.18,0.15 0.27,0.35 0.27,0.59 0,0.26 -0.09,0.47 -0.26,0.64 -0.18,0.17 -0.41,0.25 -0.7,0.25z"/>
  <path id="_14" fill="#0C2957" fill-rule="nonzero" d="M164.03 28.24l0 -5.29 1.47 0 0 1.49 -0.21 -0.43c0.16,-0.37 0.41,-0.66 0.76,-0.85 0.35,-0.19 0.77,-0.29 1.27,-0.29l0 1.42c-0.07,-0.01 -0.13,-0.01 -0.18,-0.02 -0.05,0 -0.11,0 -0.17,0 -0.42,0 -0.76,0.12 -1.02,0.36 -0.26,0.24 -0.38,0.61 -0.38,1.11l0 2.5 -1.54 0z"/>
  <path id="_15" fill="#0C2957" fill-rule="nonzero" d="M170.7 28.32c-0.56,0 -1.06,-0.11 -1.5,-0.35 -0.43,-0.24 -0.78,-0.56 -1.03,-0.97 -0.25,-0.41 -0.38,-0.88 -0.38,-1.4 0,-0.53 0.13,-1.01 0.38,-1.42 0.25,-0.41 0.6,-0.73 1.03,-0.96 0.44,-0.23 0.94,-0.35 1.5,-0.35 0.56,0 1.06,0.12 1.5,0.35 0.44,0.23 0.78,0.55 1.03,0.96 0.25,0.41 0.38,0.88 0.38,1.42 0,0.52 -0.13,0.99 -0.38,1.4 -0.25,0.41 -0.59,0.73 -1.03,0.97 -0.44,0.24 -0.94,0.35 -1.5,0.35zm0 -1.26c0.26,0 0.49,-0.06 0.69,-0.17 0.21,-0.12 0.37,-0.29 0.48,-0.51 0.12,-0.22 0.18,-0.48 0.18,-0.78 0,-0.31 -0.06,-0.57 -0.18,-0.79 -0.11,-0.22 -0.27,-0.38 -0.48,-0.5 -0.2,-0.12 -0.43,-0.18 -0.69,-0.18 -0.25,0 -0.48,0.06 -0.69,0.18 -0.2,0.12 -0.36,0.28 -0.48,0.5 -0.12,0.22 -0.19,0.48 -0.19,0.79 0,0.3 0.07,0.56 0.19,0.78 0.12,0.22 0.28,0.39 0.48,0.51 0.21,0.11 0.44,0.17 0.69,0.17z"/>
  <polygon fill="#0C2957" fill-rule="nonzero" points="78.46,39.94 76.13,33.05 76.88,33.05 79.06,39.54 78.68,39.54 80.93,33.05 81.6,33.05 83.81,39.54 83.46,39.54 85.65,33.05 86.35,33.05 84.03,39.94 83.26,39.94 81.14,33.79 81.34,33.79 79.21,39.94 "/>
  <path id="_1_0" fill="#0C2957" fill-rule="nonzero" d="M89.33 39.99c-0.53,0 -1.01,-0.11 -1.41,-0.34 -0.41,-0.22 -0.73,-0.53 -0.96,-0.93 -0.23,-0.4 -0.34,-0.85 -0.34,-1.36 0,-0.52 0.11,-0.97 0.33,-1.36 0.22,-0.4 0.52,-0.71 0.9,-0.93 0.39,-0.23 0.82,-0.34 1.3,-0.34 0.48,0 0.91,0.11 1.29,0.33 0.38,0.22 0.68,0.52 0.89,0.92 0.22,0.4 0.33,0.86 0.33,1.38 0,0.03 0,0.06 -0.01,0.1 0,0.03 0,0.07 0,0.11l-4.5 0 0 -0.52 4.12 0 -0.27 0.21c0,-0.38 -0.08,-0.71 -0.24,-1 -0.16,-0.29 -0.38,-0.52 -0.66,-0.69 -0.27,-0.16 -0.59,-0.24 -0.95,-0.24 -0.36,0 -0.68,0.08 -0.96,0.24 -0.28,0.17 -0.5,0.4 -0.66,0.69 -0.16,0.3 -0.23,0.64 -0.23,1.02l0 0.11c0,0.39 0.08,0.73 0.26,1.03 0.17,0.3 0.41,0.54 0.73,0.7 0.31,0.17 0.66,0.25 1.06,0.25 0.32,0 0.61,-0.05 0.88,-0.16 0.28,-0.12 0.51,-0.29 0.71,-0.52l0.39 0.46c-0.23,0.27 -0.51,0.48 -0.86,0.63 -0.34,0.14 -0.72,0.21 -1.14,0.21z"/>
  <path id="_2_1" fill="#0C2957" fill-rule="nonzero" d="M95.75 39.99c-0.45,0 -0.86,-0.1 -1.22,-0.31 -0.36,-0.2 -0.65,-0.5 -0.85,-0.9 -0.22,-0.39 -0.32,-0.87 -0.32,-1.42 0,-0.57 0.11,-1.05 0.32,-1.44 0.21,-0.39 0.5,-0.68 0.86,-0.89 0.36,-0.2 0.77,-0.3 1.21,-0.3 0.49,0 0.94,0.11 1.33,0.33 0.39,0.22 0.69,0.52 0.92,0.92 0.22,0.39 0.33,0.85 0.33,1.38 0,0.51 -0.11,0.97 -0.33,1.37 -0.23,0.4 -0.53,0.71 -0.92,0.93 -0.39,0.22 -0.84,0.33 -1.33,0.33zm-2.67 -0.05l0 -7.3 0.7 0 0 3.66 -0.1 1.05 0.07 1.04 0 1.55 -0.67 0zm2.62 -0.57c0.37,0 0.7,-0.08 0.99,-0.25 0.29,-0.16 0.52,-0.4 0.69,-0.71 0.17,-0.3 0.25,-0.65 0.25,-1.05 0,-0.41 -0.08,-0.77 -0.25,-1.07 -0.17,-0.3 -0.4,-0.53 -0.69,-0.7 -0.29,-0.17 -0.62,-0.25 -0.99,-0.25 -0.37,0 -0.69,0.08 -0.99,0.25 -0.29,0.17 -0.52,0.4 -0.69,0.7 -0.16,0.3 -0.25,0.66 -0.25,1.07 0,0.4 0.09,0.75 0.25,1.05 0.17,0.31 0.4,0.55 0.69,0.71 0.3,0.17 0.62,0.25 0.99,0.25z"/>
  <path id="_3_2" fill="#0C2957" fill-rule="nonzero" d="M102.48 39.94l0 -6.89 2.81 0c0.74,0 1.38,0.15 1.93,0.44 0.56,0.29 0.99,0.7 1.3,1.22 0.31,0.52 0.46,1.11 0.46,1.79 0,0.67 -0.15,1.27 -0.46,1.79 -0.31,0.52 -0.74,0.92 -1.3,1.22 -0.55,0.29 -1.19,0.43 -1.93,0.43l-2.81 0zm0.73 -0.63l2.04 0c0.61,0 1.14,-0.12 1.59,-0.35 0.45,-0.24 0.8,-0.58 1.05,-1 0.25,-0.42 0.37,-0.91 0.37,-1.46 0,-0.56 -0.12,-1.05 -0.37,-1.47 -0.25,-0.42 -0.6,-0.75 -1.05,-0.99 -0.45,-0.24 -0.98,-0.36 -1.59,-0.36l-2.04 0 0 5.63z"/>
  <path id="_4_3" fill="#0C2957" fill-rule="nonzero" d="M112.66 39.99c-0.53,0 -1.01,-0.11 -1.41,-0.34 -0.41,-0.22 -0.73,-0.53 -0.96,-0.93 -0.23,-0.4 -0.34,-0.85 -0.34,-1.36 0,-0.52 0.11,-0.97 0.33,-1.36 0.22,-0.4 0.52,-0.71 0.9,-0.93 0.39,-0.23 0.82,-0.34 1.3,-0.34 0.48,0 0.91,0.11 1.29,0.33 0.38,0.22 0.67,0.52 0.89,0.92 0.22,0.4 0.33,0.86 0.33,1.38 0,0.03 0,0.06 -0.01,0.1 0,0.03 0,0.07 0,0.11l-4.5 0 0 -0.52 4.12 0 -0.27 0.21c0,-0.38 -0.08,-0.71 -0.24,-1 -0.16,-0.29 -0.38,-0.52 -0.66,-0.69 -0.27,-0.16 -0.59,-0.24 -0.95,-0.24 -0.36,0 -0.68,0.08 -0.96,0.24 -0.28,0.17 -0.5,0.4 -0.66,0.69 -0.16,0.3 -0.23,0.64 -0.23,1.02l0 0.11c0,0.39 0.08,0.73 0.26,1.03 0.17,0.3 0.41,0.54 0.72,0.7 0.32,0.17 0.67,0.25 1.07,0.25 0.32,0 0.61,-0.05 0.88,-0.16 0.28,-0.12 0.51,-0.29 0.71,-0.52l0.39 0.46c-0.23,0.27 -0.52,0.48 -0.86,0.63 -0.34,0.14 -0.72,0.21 -1.14,0.21z"/>
  <polygon id="_5_4" fill="#0C2957" fill-rule="nonzero" points="117.64,39.94 115.35,34.78 116.08,34.78 118.19,39.57 117.84,39.57 119.98,34.78 120.67,34.78 118.36,39.94 "/>
  <path id="_6_5" fill="#0C2957" fill-rule="nonzero" d="M123.7 39.99c-0.54,0 -1.01,-0.11 -1.42,-0.34 -0.41,-0.22 -0.72,-0.53 -0.95,-0.93 -0.23,-0.4 -0.35,-0.85 -0.35,-1.36 0,-0.52 0.11,-0.97 0.33,-1.36 0.22,-0.4 0.52,-0.71 0.91,-0.93 0.38,-0.23 0.81,-0.34 1.29,-0.34 0.49,0 0.92,0.11 1.3,0.33 0.37,0.22 0.67,0.52 0.89,0.92 0.21,0.4 0.32,0.86 0.32,1.38 0,0.03 0,0.06 0,0.1 -0.01,0.03 -0.01,0.07 -0.01,0.11l-4.5 0 0 -0.52 4.13 0 -0.28 0.21c0,-0.38 -0.08,-0.71 -0.24,-1 -0.16,-0.29 -0.38,-0.52 -0.65,-0.69 -0.28,-0.16 -0.6,-0.24 -0.96,-0.24 -0.35,0 -0.67,0.08 -0.95,0.24 -0.29,0.17 -0.51,0.4 -0.66,0.69 -0.16,0.3 -0.24,0.64 -0.24,1.02l0 0.11c0,0.39 0.09,0.73 0.26,1.03 0.18,0.3 0.42,0.54 0.73,0.7 0.31,0.17 0.67,0.25 1.07,0.25 0.31,0 0.61,-0.05 0.88,-0.16 0.27,-0.12 0.51,-0.29 0.7,-0.52l0.4 0.46c-0.23,0.27 -0.52,0.48 -0.86,0.63 -0.35,0.14 -0.73,0.21 -1.14,0.21z"/>
  <polygon id="_7_6" fill="#0C2957" fill-rule="nonzero" points="127.45,39.94 127.45,32.64 128.15,32.64 128.15,39.94 "/>
  <path id="_8_7" fill="#0C2957" fill-rule="nonzero" d="M132.2 39.99c-0.5,0 -0.94,-0.11 -1.34,-0.34 -0.4,-0.22 -0.71,-0.53 -0.94,-0.93 -0.23,-0.4 -0.34,-0.85 -0.34,-1.36 0,-0.52 0.11,-0.98 0.34,-1.37 0.23,-0.4 0.54,-0.71 0.94,-0.93 0.39,-0.22 0.84,-0.33 1.34,-0.33 0.52,0 0.97,0.11 1.37,0.33 0.39,0.22 0.71,0.53 0.93,0.93 0.23,0.39 0.34,0.85 0.34,1.37 0,0.51 -0.11,0.96 -0.34,1.36 -0.22,0.4 -0.54,0.71 -0.94,0.93 -0.4,0.23 -0.85,0.34 -1.36,0.34zm0 -0.62c0.38,0 0.71,-0.08 1,-0.25 0.29,-0.16 0.51,-0.4 0.68,-0.71 0.17,-0.3 0.25,-0.65 0.25,-1.05 0,-0.41 -0.08,-0.77 -0.25,-1.07 -0.17,-0.3 -0.39,-0.53 -0.68,-0.7 -0.29,-0.17 -0.62,-0.25 -0.99,-0.25 -0.36,0 -0.69,0.08 -0.98,0.25 -0.29,0.17 -0.52,0.4 -0.69,0.7 -0.17,0.3 -0.26,0.66 -0.26,1.07 0,0.4 0.09,0.75 0.26,1.05 0.17,0.31 0.4,0.55 0.69,0.71 0.29,0.17 0.61,0.25 0.97,0.25z"/>
  <path id="_9_8" fill="#0C2957" fill-rule="nonzero" d="M138.94 39.99c-0.45,0 -0.85,-0.1 -1.21,-0.31 -0.37,-0.2 -0.65,-0.5 -0.87,-0.89 -0.21,-0.39 -0.32,-0.87 -0.32,-1.43 0,-0.57 0.11,-1.05 0.32,-1.44 0.21,-0.39 0.49,-0.68 0.86,-0.89 0.36,-0.2 0.76,-0.3 1.22,-0.3 0.49,0 0.93,0.11 1.32,0.33 0.39,0.22 0.7,0.52 0.92,0.92 0.22,0.4 0.34,0.86 0.34,1.38 0,0.52 -0.12,0.98 -0.34,1.37 -0.22,0.4 -0.53,0.71 -0.92,0.93 -0.39,0.22 -0.83,0.33 -1.32,0.33zm-2.67 1.86l0 -7.07 0.67 0 0 1.55 -0.07 1.04 0.1 1.04 0 3.44 -0.7 0zm2.62 -2.48c0.37,0 0.69,-0.08 0.98,-0.25 0.29,-0.16 0.52,-0.4 0.69,-0.71 0.17,-0.3 0.26,-0.65 0.26,-1.05 0,-0.4 -0.09,-0.76 -0.26,-1.06 -0.17,-0.3 -0.4,-0.54 -0.69,-0.71 -0.29,-0.17 -0.61,-0.25 -0.98,-0.25 -0.37,0 -0.7,0.08 -0.99,0.25 -0.29,0.17 -0.52,0.41 -0.69,0.71 -0.17,0.3 -0.25,0.66 -0.25,1.06 0,0.4 0.08,0.75 0.25,1.05 0.17,0.31 0.4,0.55 0.69,0.71 0.29,0.17 0.62,0.25 0.99,0.25z"/>
  <path id="_10_9" fill="#0C2957" fill-rule="nonzero" d="M145.14 39.99c-0.54,0 -1.01,-0.11 -1.42,-0.34 -0.41,-0.22 -0.72,-0.53 -0.95,-0.93 -0.23,-0.4 -0.35,-0.85 -0.35,-1.36 0,-0.52 0.11,-0.97 0.33,-1.36 0.22,-0.4 0.52,-0.71 0.91,-0.93 0.38,-0.23 0.81,-0.34 1.29,-0.34 0.49,0 0.92,0.11 1.3,0.33 0.37,0.22 0.67,0.52 0.89,0.92 0.21,0.4 0.32,0.86 0.32,1.38 0,0.03 0,0.06 0,0.1 -0.01,0.03 -0.01,0.07 -0.01,0.11l-4.5 0 0 -0.52 4.13 0 -0.28 0.21c0,-0.38 -0.08,-0.71 -0.24,-1 -0.16,-0.29 -0.38,-0.52 -0.65,-0.69 -0.28,-0.16 -0.6,-0.24 -0.96,-0.24 -0.35,0 -0.67,0.08 -0.95,0.24 -0.29,0.17 -0.51,0.4 -0.66,0.69 -0.16,0.3 -0.24,0.64 -0.24,1.02l0 0.11c0,0.39 0.09,0.73 0.26,1.03 0.18,0.3 0.42,0.54 0.73,0.7 0.31,0.17 0.67,0.25 1.07,0.25 0.31,0 0.61,-0.05 0.88,-0.16 0.27,-0.12 0.51,-0.29 0.7,-0.52l0.4 0.46c-0.23,0.27 -0.52,0.48 -0.87,0.63 -0.34,0.14 -0.72,0.21 -1.13,0.21z"/>
  <path id="_11_10" fill="#0C2957" fill-rule="nonzero" d="M148.89 39.94l0 -5.16 0.67 0 0 1.4 -0.07 -0.24c0.14,-0.4 0.39,-0.7 0.73,-0.9 0.34,-0.21 0.76,-0.31 1.27,-0.31l0 0.68c-0.03,0 -0.06,-0.01 -0.08,-0.01 -0.03,0 -0.05,0 -0.08,0 -0.55,0 -0.97,0.16 -1.28,0.49 -0.31,0.33 -0.46,0.81 -0.46,1.42l0 2.63 -0.7 0z"/>
 </g>
</svg>
