<?xml version="1.0" standalone="no"?>
<!DOCTYPE svg PUBLIC "-//W3C//DTD SVG 20010904//EN"
 "http://www.w3.org/TR/2001/REC-SVG-20010904/DTD/svg10.dtd">
<svg version="1.0" xmlns="http://www.w3.org/2000/svg"
 width="512.000000pt" height="512.000000pt" viewBox="0 0 512.000000 512.000000"
 preserveAspectRatio="xMidYMid meet">
<metadata>
Created by potrace 1.14, written by Peter Selinger 2001-2017
</metadata>
<g transform="translate(0.000000,512.000000) scale(0.100000,-0.100000)"
fill="#000000" stroke="none">
<path d="M0 2560 l0 -2560 2560 0 2560 0 0 2560 0 2560 -2560 0 -2560 0 0
-2560z m2608 1616 c15 -8 47 -35 72 -60 55 -57 82 -59 143 -12 61 46 81 56
116 56 59 0 120 -93 108 -166 -7 -42 9 -100 34 -125 28 -28 80 -24 142 11 67
37 84 37 134 1 64 -46 84 -88 87 -180 2 -43 6 -84 10 -90 4 -6 32 -29 62 -51
68 -51 94 -100 94 -177 0 -73 -26 -132 -74 -168 -55 -42 -106 -44 -200 -6
-137 55 -179 40 -245 -84 -44 -82 -97 -129 -146 -129 -29 0 -45 11 -104 67
-41 40 -78 67 -91 67 -30 0 -77 -27 -90 -51 -26 -48 -113 -74 -162 -48 -11 6
-39 31 -62 55 -35 36 -49 44 -79 44 -31 0 -42 -7 -79 -51 -112 -131 -185 -107
-300 101 -38 67 -127 77 -226 24 -54 -28 -74 -34 -102 -29 -92 17 -160 106
-160 210 0 80 19 117 89 171 33 26 63 54 66 63 2 9 9 55 14 103 10 102 31 145
84 172 50 24 89 16 163 -34 78 -51 104 -57 129 -30 17 19 20 38 21 134 2 124
12 154 65 182 55 28 100 16 155 -42 50 -53 100 -45 162 27 46 53 118 72 170
45z m-1487 -1195 c73 -23 99 -44 83 -67 -5 -8 -63 -40 -128 -71 -109 -52 -126
-57 -203 -61 -135 -7 -203 30 -203 112 0 51 43 83 145 110 46 12 241 -3 306
-23z m3147 20 c150 -22 213 -103 135 -173 -57 -52 -191 -64 -285 -27 -119 46
-223 104 -226 125 -8 54 215 98 376 75z m-2376 -326 c115 -58 288 -198 288
-233 0 -91 -230 -73 -322 25 -41 43 -79 128 -85 190 l-6 56 36 -6 c20 -3 60
-18 89 -32z m1435 -20 c-11 -105 -80 -207 -166 -244 -98 -42 -232 -33 -239 16
-4 31 13 53 89 114 136 109 239 167 298 169 23 0 24 -2 18 -55z m-1789 -40
c46 -19 46 -18 77 -145 136 -554 497 -1433 625 -1523 25 -18 16 -27 -27 -27
-26 0 -45 11 -92 54 -84 77 -90 79 -160 61 -32 -8 -69 -15 -82 -15 -40 0 -85
35 -109 85 -24 49 -24 43 -4 226 5 41 2 64 -10 87 -24 46 -57 51 -123 18 -73
-36 -117 -35 -154 5 -47 50 -56 97 -34 183 28 114 14 149 -83 215 -18 13 -41
39 -51 59 -32 66 -33 99 -5 195 34 117 30 138 -46 210 -63 61 -78 96 -66 161
9 49 47 99 81 110 35 10 57 20 105 47 40 23 91 21 158 -6z m2203 -5 c24 -16
50 -30 57 -30 27 0 72 -31 87 -60 19 -37 19 -122 0 -159 -8 -16 -29 -41 -47
-56 -72 -60 -85 -120 -48 -217 40 -106 15 -192 -77 -263 -28 -22 -59 -55 -68
-74 -17 -32 -17 -39 0 -112 30 -132 9 -191 -81 -225 l-43 -16 -49 31 c-54 34
-77 38 -108 16 -39 -27 -48 -68 -34 -147 7 -40 12 -91 12 -114 -2 -87 -67
-164 -138 -164 -17 0 -54 7 -82 15 -62 19 -73 14 -140 -55 -37 -37 -57 -49
-90 -55 -24 -4 -46 -4 -50 0 -4 3 14 25 40 48 40 36 61 73 151 262 58 121 125
270 150 330 113 276 246 676 303 910 13 54 32 107 41 116 20 19 103 47 144 48
14 1 46 -12 70 -29z m-1427 -1371 c24 -11 65 -41 90 -66 37 -36 46 -52 46 -79
0 -33 -1 -34 -43 -34 -91 0 -218 122 -193 185 8 21 48 19 100 -6z m572 6 c16
-41 -48 -125 -125 -165 -46 -23 -109 -27 -117 -6 -15 39 56 125 141 169 39 21
94 22 101 2z"/>
</g>
</svg>
