<?xml version="1.0" encoding="UTF-8"?>
<!DOCTYPE svg PUBLIC "-//W3C//DTD SVG 1.1//EN" "http://www.w3.org/Graphics/SVG/1.1/DTD/svg11.dtd">
<!-- Creator: CorelDRAW 2021 (64-Bit) -->
<svg xmlns="http://www.w3.org/2000/svg" xml:space="preserve" width="70px" height="70px" version="1.1" shape-rendering="geometricPrecision" text-rendering="geometricPrecision" image-rendering="optimizeQuality" fill-rule="evenodd" clip-rule="evenodd"
viewBox="0 0 19.38 19.38"
 xmlns:xlink="http://www.w3.org/1999/xlink"
 xmlns:xodm="http://www.corel.com/coreldraw/odm/2003">
 <defs>
   <clipPath id="id0">
    <path d="M9.69 0.54l0 0c5.03,0 9.15,4.12 9.15,9.15l0 0c0,5.03 -4.12,9.15 -9.15,9.15l0 0c-5.03,0 -9.15,-4.12 -9.15,-9.15l0 0c0,-5.03 4.12,-9.15 9.15,-9.15z"/>
   </clipPath>
 </defs>
 <g id="Layer_x0020_1">
  <metadata id="CorelCorpID_0Corel-Layer"/>
  <rect fill="none" width="19.38" height="19.38"/>
  <path fill="#D7DDE3" d="M9.69 0.54l0 0c5.03,0 9.15,4.12 9.15,9.15l0 0c0,5.03 -4.12,9.15 -9.15,9.15l0 0c-5.03,0 -9.15,-4.12 -9.15,-9.15l0 0c0,-5.03 4.12,-9.15 9.15,-9.15z"/>
  <g clip-path="url(#id0)">
  </g>
  <path id="_1" fill="none" d="M9.69 0.54l0 0c5.03,0 9.15,4.12 9.15,9.15l0 0c0,5.03 -4.12,9.15 -9.15,9.15l0 0c-5.03,0 -9.15,-4.12 -9.15,-9.15l0 0c0,-5.03 4.12,-9.15 9.15,-9.15z"/>
  <path fill="#CED3D9" d="M8.9 3.68c-0.15,-0.09 -0.21,-0.21 -0.44,-0.27 -0.56,-0.15 -1.02,0.35 -1.01,1.08 -0.45,-0.14 -0.62,-0.38 -1.08,0.02 -0.44,0.39 -0.37,0.73 -0.4,1.07 -0.24,0.21 -0.36,0.24 -0.5,0.57 -0.16,0.36 -0.05,0.6 -0.13,0.98 -0.38,0.24 -0.33,0.03 -0.58,0.45 -0.62,0.05 -0.96,-0.02 -1.58,0.14 -0.49,0.12 -0.97,0.2 -0.94,0.83 0.03,0.48 0.51,0.69 0.81,0.92 0.39,0.3 0.57,0.52 1.26,0.51 -0.01,0.24 0.02,0.46 0.11,0.66 0.11,0.25 0.17,0.28 0.36,0.41 -0.1,0.41 -0.23,0.55 -0.09,1.03 0.1,0.35 0.32,0.64 0.58,0.74 -0.07,0.51 -0.21,0.75 0.13,1.19 0.2,0.27 0.52,0.48 0.96,0.3 0.07,0.5 -0.11,0.79 0.28,1.15 0.56,0.52 0.58,0.35 1.05,0.27 0.18,0.19 0.47,0.51 0.94,0.44 0.52,-0.09 0.37,-0.48 0.99,-0.48 0.72,-0.01 0.44,0.35 0.99,0.47 0.55,0.11 0.81,-0.29 0.97,-0.44 0.24,0.06 0.27,0.16 0.57,0.07 0.67,-0.2 0.79,-0.8 0.76,-1.48 0.25,0.06 0.28,0.15 0.57,0.03 0.19,-0.09 0.32,-0.21 0.41,-0.34 0.32,-0.43 0.21,-0.65 0.12,-1.18 0.47,-0.2 0.68,-0.79 0.63,-1.27 -0.02,-0.21 -0.11,-0.33 -0.13,-0.5 0.37,-0.28 0.46,-0.47 0.48,-1.08 0.83,-0.07 0.44,0.11 1.24,-0.46 0.35,-0.26 0.79,-0.51 0.83,-0.93 0.07,-0.66 -0.51,-0.75 -0.91,-0.85 -0.67,-0.18 -0.94,-0.1 -1.6,-0.14 -0.02,-0.01 -0.13,-0.19 -0.23,-0.28 -0.12,-0.1 -0.23,-0.1 -0.37,-0.16 -0.09,-0.34 0.08,-0.56 -0.1,-0.98 -0.16,-0.39 -0.25,-0.36 -0.51,-0.59 -0.02,-0.26 0.02,-0.41 -0.08,-0.64 -0.14,-0.31 -0.46,-0.63 -0.82,-0.64 -0.3,-0.01 -0.37,0.11 -0.58,0.19 0.03,-0.75 -0.46,-1.21 -1,-1.09 -0.21,0.04 -0.3,0.19 -0.43,0.27 -0.15,-0.15 -0.37,-0.4 -0.74,-0.41 -0.43,-0.02 -0.6,0.24 -0.79,0.42z"/>
  <path fill="#FFFEFE" d="M9.52 3.89c-0.35,0.11 -0.27,0.33 -0.52,0.39 -0.32,0.08 -0.33,-0.23 -0.57,-0.3 -0.27,-0.08 -0.49,0.14 -0.54,0.33 -0.05,0.16 0.25,1.38 -0.59,0.69 -0.26,-0.21 -0.86,-0.27 -0.85,0.69 0.01,0.35 -0.21,0.36 -0.38,0.52 -0.39,0.35 -0.22,1.01 0.17,1.21 0.31,0.17 0.46,0.02 0.68,-0.1 0.26,-0.15 0.56,-0.03 0.69,0.13 0.06,0.08 0.42,1.07 0.96,0.51 0.13,-0.14 0.23,-0.43 0.54,-0.27 0.2,0.1 0.23,0.39 0.58,0.36 0.31,-0.02 0.33,-0.28 0.53,-0.37 0.5,-0.22 0.55,0.86 1.16,0.3 0.22,-0.21 0.19,-0.36 0.34,-0.55 0.45,-0.54 0.82,0.26 1.35,-0.01 0.43,-0.21 0.54,-0.86 0.15,-1.22 -0.19,-0.17 -0.39,-0.16 -0.37,-0.51 0.02,-0.37 -0.01,-0.43 -0.21,-0.63 -0.2,-0.21 -0.34,-0.27 -0.59,-0.09 -0.25,0.19 -0.52,0.16 -0.6,-0.12 -0.09,-0.3 0.09,-0.44 -0.15,-0.74 -0.2,-0.23 -0.41,-0.17 -0.61,0.01 -0.63,0.57 -0.51,-0.43 -1.17,-0.23z"/>
  <path fill="#FFFEFE" d="M8.62 15.51c0,0 -0.01,-0.02 -0.02,-0.02 0,0.01 -0.31,-0.23 -0.54,-0.74 -0.14,-0.32 -0.3,-0.6 -0.42,-0.9 -0.51,-1.23 -1.03,-2.63 -1.35,-3.94 -0.06,-0.22 -0.04,-0.34 -0.23,-0.42 -0.57,-0.22 -0.72,0.07 -0.79,0.11 -0.09,0.04 -0.16,0.01 -0.26,0.06 -0.09,0.05 -0.21,0.28 -0.22,0.46 -0.02,0.51 0.44,0.44 0.49,0.83 0.05,0.35 -0.29,0.56 -0.09,1.05 0.17,0.42 0.57,0.28 0.57,0.76 -0.01,0.2 -0.11,0.33 -0.1,0.54 0,0.19 0.1,0.36 0.22,0.45 0.37,0.26 0.71,-0.43 0.94,0.02 0.18,0.35 -0.18,0.68 0.05,1.13 0.27,0.53 0.73,0.16 0.91,0.2 0.23,0.04 0.46,0.61 0.84,0.41z"/>
  <path fill="#FFFEFE" d="M10.66 15.53c0.62,0.07 0.53,-0.4 0.86,-0.44 0.16,-0.02 0.61,0.36 0.9,-0.21 0.22,-0.43 -0.12,-0.75 0.03,-1.07 0.07,-0.16 0.23,-0.25 0.41,-0.15 0.16,0.1 0.19,0.23 0.45,0.12 0.53,-0.22 0.24,-0.82 0.22,-0.93 -0.07,-0.49 0.35,-0.45 0.52,-0.77 0.3,-0.54 -0.06,-0.64 -0.05,-1.07 0.02,-0.44 0.51,-0.36 0.5,-0.89 -0.01,-0.51 -0.44,-0.52 -0.47,-0.53 -0.17,-0.06 -0.16,-0.32 -0.77,-0.09 -0.23,0.09 -0.18,0.18 -0.25,0.44 -0.3,1.19 -0.86,2.82 -1.36,3.92l-0.65 1.35c-0.08,0.1 -0.31,0.26 -0.34,0.32z"/>
  <path fill="#FFFEFE" d="M4.89 8.37c-0.14,-0.31 -2.15,-0.53 -1.95,0.24 0.09,0.34 0.71,0.35 1.06,0.25 0.24,-0.08 0.46,-0.23 0.7,-0.34 0.14,-0.06 0.14,-0.03 0.19,-0.15z"/>
  <path fill="#FFFEFE" d="M14.42 8.33c0.03,0.19 0.2,0.2 0.38,0.29 0.16,0.08 0.29,0.16 0.48,0.23 0.4,0.13 0.96,0.07 1.09,-0.24 0.27,-0.65 -1.54,-0.63 -1.95,-0.28z"/>
  <path fill="#FFFEFE" d="M6.87 9.15c-0.06,0.35 0.19,0.78 0.35,0.93 0.15,0.14 0.79,0.39 1.06,0.16 0.21,-0.19 -0.25,-0.46 -0.51,-0.67 -0.17,-0.13 -0.62,-0.44 -0.9,-0.42z"/>
  <path fill="#FFFEFE" d="M12.44 9.15c-0.39,-0.03 -0.97,0.47 -1.24,0.69 -0.72,0.55 0.43,0.62 0.86,0.26 0.17,-0.15 0.43,-0.59 0.38,-0.95z"/>
  <path fill="#FFFEFE" d="M9.31 15.05c0.01,-0.14 -0.01,-0.23 -0.09,-0.32 -0.16,-0.19 -0.5,-0.46 -0.77,-0.38 -0.07,0.24 0.16,0.42 0.27,0.52 0.19,0.16 0.32,0.22 0.59,0.18z"/>
  <path fill="#FFFEFE" d="M9.99 15.04c0.4,0.14 0.98,-0.45 0.86,-0.66 -0.1,-0.17 -0.5,0.09 -0.57,0.15 -0.15,0.12 -0.31,0.25 -0.29,0.51z"/>
 </g>
</svg>
