<?xml version="1.0" encoding="UTF-8"?>
<!DOCTYPE svg PUBLIC "-//W3C//DTD SVG 1.1//EN" "http://www.w3.org/Graphics/SVG/1.1/DTD/svg11.dtd">
<!-- Creator: CorelDRAW 2021 (64-Bit) -->
<svg xmlns="http://www.w3.org/2000/svg" xml:space="preserve" width="242px" height="34px" version="1.1" style="shape-rendering:geometricPrecision; text-rendering:geometricPrecision; image-rendering:optimizeQuality; fill-rule:evenodd; clip-rule:evenodd"
viewBox="0 0 26.88 3.77"
 xmlns:xlink="http://www.w3.org/1999/xlink"
 xmlns:xodm="http://www.corel.com/coreldraw/odm/2003">
 <defs>
  <style type="text/css">
   <![CDATA[
    .fil0 {fill:#1D1D1F}
   ]]>
  </style>
 </defs>
 <g id="Layer_x0020_1">
  <metadata id="CorelCorpID_0Corel-Layer"/>
  <g id="_2621617802016">
   <path class="fil0" d="M22.38 1.59c0,0.17 0.17,0.62 0.17,0.77l-0.36 0 0.13 -0.59c0.04,-0.19 0.01,-0.15 0.06,-0.18zm-2.38 1.56l0.5 0c0.04,0 0.05,-0.01 0.05,-0.05l0 -1.69c0.33,0 0.43,0.01 0.43,0.38 0,0.07 -0.06,0.17 -0.1,0.19 -0.06,0.04 -0.15,0.04 -0.26,0.04l0.38 0.86c0.16,0.36 -0.07,0.27 0.93,0.27 0.07,0 0.16,-0.39 0.17,-0.46l0.56 0c0,0.09 0.09,0.35 0.12,0.46 0.41,0 0.84,0.01 1.26,0 0.18,0 0.39,-0.04 0.51,-0.12 0.11,-0.09 0.17,-0.27 0.17,-0.46 0,-0.29 -0.19,-0.42 -0.38,-0.53 -0.17,-0.1 -0.51,-0.2 -0.51,-0.42 0,-0.11 0.08,-0.21 0.19,-0.21l0.51 0 0 -0.32 -0.77 0c-0.39,0 -0.59,0.2 -0.59,0.58 0,0.35 0.36,0.49 0.58,0.6 0.1,0.05 0.21,0.08 0.31,0.16 0.17,0.14 0.12,0.4 -0.16,0.4 -0.79,0 -0.64,0.05 -0.72,-0.19l-0.46 -1.55 -0.65 0 -0.41 1.36c-0.03,0.1 -0.13,0.38 -0.14,0.46l-0.04 0c-0.03,-0.14 -0.3,-0.64 -0.32,-0.76 0.5,-0.04 0.51,-1.06 -0.12,-1.06l-1.04 0 0 2.06z"/>
   <path class="fil0" d="M5.44 2.74l-0.26 0 0 -0.69c0.4,0 0.58,-0.01 0.58,0.4 0,0.18 -0.13,0.29 -0.32,0.29zm-0.05 -1.09l-0.21 0 0 -0.62 0.26 0c0.14,0 0.29,0.13 0.29,0.26 0,0.22 -0.06,0.36 -0.34,0.36zm-0.87 -0.98l0 2.43c0,0.04 0.02,0.05 0.06,0.05 0.42,0 1.26,0.06 1.57,-0.13 0.36,-0.23 0.32,-0.81 0.15,-1 -0.08,-0.08 -0.2,-0.16 -0.35,-0.18 0.02,-0.01 0,0 0.04,-0.01 0.14,-0.07 0.28,-0.12 0.35,-0.32 0.09,-0.27 0.03,-0.58 -0.19,-0.74 -0.14,-0.11 -0.38,-0.15 -0.63,-0.15l-0.94 0c-0.04,0 -0.06,0.01 -0.06,0.05z"/>
   <path class="fil0" d="M18.76 2.76l-0.17 0 0 -0.71c0.38,0 0.6,-0.04 0.6,0.38 0,0.28 -0.15,0.33 -0.43,0.33zm0.17 -1.11l-0.34 0 0 -0.62c0.26,0 0.56,-0.06 0.58,0.3 0,0.07 -0.01,0.16 -0.05,0.21 -0.04,0.05 -0.11,0.11 -0.19,0.11zm-0.98 1.5l0.98 0c0.26,0 0.49,-0.04 0.65,-0.14 0.33,-0.22 0.32,-0.73 0.15,-0.97 -0.08,-0.12 -0.21,-0.16 -0.35,-0.2 0.09,-0.06 0.13,-0.02 0.28,-0.18 0.22,-0.22 0.17,-0.74 -0.1,-0.91 -0.16,-0.09 -0.38,-0.13 -0.63,-0.13l-0.98 0 0 2.53z"/>
   <path class="fil0" d="M0.02 1.26c0.04,0.05 0.31,0.22 0.39,0.27l0.29 0.19c0.02,0.01 0.03,0.02 0.05,0.03 0.01,0.01 0.01,0.01 0.01,0.01l0.04 0.03c0.16,-0.1 0.31,-0.2 0.47,-0.31 0.08,-0.05 0.15,-0.1 0.23,-0.16 0.06,-0.04 0.19,-0.13 0.25,-0.15l0 -0.03c-0.05,-0.02 -0.35,-0.21 -0.38,-0.26 0.1,-0.03 0.4,-0.28 0.5,-0.31 0.18,0.12 0.35,0.24 0.54,0.36 0.08,0.05 0.5,0.32 0.53,0.36 -0.1,0.07 -1.76,1.16 -1.79,1.21 0.07,0.02 0.29,0.2 0.41,0.26l2.17 -1.45c0.04,-0.03 0.04,-0.02 0.05,-0.07 -0.06,-0.02 -0.17,-0.1 -0.23,-0.14l-1.65 -1.1c-0.2,0.11 -1.86,1.24 -1.88,1.26z"/>
   <path class="fil0" d="M0.02 2.52c0.02,0.02 1.68,1.15 1.88,1.25 0.06,-0.03 1.81,-1.22 1.88,-1.24 -0.01,-0.05 -0.03,-0.05 -0.07,-0.08 -0.05,-0.02 -0.07,-0.04 -0.11,-0.06l-0.61 -0.41c0,0 -0.01,0 -0.01,0.01l-0.46 0.31c-0.07,0.04 -0.44,0.27 -0.46,0.34 0.05,0.01 0.33,0.2 0.36,0.24 -0.03,0.04 -0.17,0.12 -0.23,0.16 -0.09,0.06 -0.16,0.12 -0.25,0.17 -0.11,-0.06 -1.04,-0.68 -1.07,-0.73 0.05,-0.03 1.7,-1.15 1.77,-1.17 -0.02,-0.09 -0.29,-0.22 -0.37,-0.29 -0.1,0.05 -0.19,0.12 -0.29,0.18l-1.39 0.93c-0.09,0.06 -0.53,0.34 -0.57,0.39z"/>
   <path class="fil0" d="M8.42 3.15l0.45 0 0 -1.32c0.06,0.06 0.43,1.02 0.5,1.18 0.09,0.19 -0.02,0.14 0.63,0.14 0.04,0 0.06,-0.01 0.06,-0.05l0 -2.01 -0.47 0 0 1.24c-0.02,-0.03 -0.02,-0.03 -0.04,-0.07 -0.01,-0.03 -0.02,-0.05 -0.03,-0.08 -0.03,-0.06 -0.05,-0.1 -0.07,-0.16 -0.04,-0.1 -0.09,-0.22 -0.13,-0.32 -0.05,-0.1 -0.09,-0.2 -0.14,-0.31 -0.16,-0.39 0.01,-0.3 -0.76,-0.3l0 2.06z"/>
   <path class="fil0" d="M14.71 2.83l-0.1 0 0 -1.42c0.33,0 0.48,-0.05 0.48,0.62 0,0.18 0,0.44 -0.05,0.6 -0.04,0.15 -0.14,0.2 -0.33,0.2zm-0.64 0.32c0.25,0 0.85,0.03 1.06,-0.04 0.17,-0.05 0.28,-0.12 0.37,-0.26 0.02,-0.04 0.04,-0.08 0.06,-0.14 0.09,-0.24 0.06,-0.5 0.06,-0.76 0,-0.62 -0.22,-0.88 -0.81,-0.88l-0.74 0 0 2.08z"/>
   <path class="fil0" d="M12.71 2.88c-0.16,0 -0.2,-0.1 -0.22,-0.23 -0.04,-0.19 -0.04,-0.44 -0.04,-0.65 0,-0.23 0.02,-0.64 0.23,-0.64l0.07 0c0.25,0 0.22,0.6 0.22,0.85 0,0.21 0.02,0.67 -0.26,0.67zm-0.81 -0.88c0,0.31 -0.01,0.71 0.15,0.94 0.24,0.36 1.08,0.36 1.33,0 0.2,-0.3 0.19,-1.33 0,-1.63 -0.17,-0.27 -0.49,-0.28 -0.77,-0.28 -0.59,0 -0.71,0.46 -0.71,0.97z"/>
   <path class="fil0" d="M16.64 2.88c-0.22,0 -0.28,-0.16 -0.28,-0.43 0,-0.23 -0.02,-0.76 0.05,-0.94 0.02,-0.04 0.04,-0.08 0.07,-0.1 0.15,-0.13 0.38,-0.05 0.38,0.45 0,0.3 0.07,1.02 -0.22,1.02zm-0.83 -1.07c0,0.63 -0.11,1.4 0.74,1.4 0.26,0 0.54,-0.03 0.69,-0.22 0.23,-0.29 0.18,-0.72 0.18,-1.13 0,-0.26 -0.07,-0.48 -0.2,-0.62 -0.31,-0.32 -1.19,-0.3 -1.35,0.23 -0.03,0.09 -0.06,0.22 -0.06,0.34z"/>
   <path class="fil0" d="M7.33 1.57c0.02,0.02 0.01,0 0.02,0.03 0.05,0.15 0.14,0.65 0.19,0.76l-0.38 0c0.01,-0.09 0.16,-0.65 0.17,-0.79zm-0.86 1.58c0.56,0 0.46,0.05 0.54,-0.2 0.02,-0.07 0.06,-0.18 0.06,-0.26l0.56 0c0,0.02 0.08,0.46 0.17,0.46l0.5 0c0,-0.1 -0.4,-1.4 -0.45,-1.54 -0.03,-0.08 -0.05,-0.17 -0.08,-0.26 -0.03,-0.1 -0.05,-0.17 -0.08,-0.26l-0.63 0 -0.25 0.78c-0.03,0.1 -0.06,0.18 -0.08,0.27l-0.28 0.92c-0.02,0.06 -0.05,0.09 0.02,0.09z"/>
   <path class="fil0" d="M10.25 2.15c0,0.76 0.09,1.06 0.84,1.06 0.51,0 0.67,-0.3 0.67,-0.76 -0.73,0 -0.48,-0.05 -0.54,0.24 -0.02,0.05 -0.02,0.08 -0.05,0.12 -0.05,0.08 -0.1,0.07 -0.17,0.07 -0.25,0 -0.2,-0.63 -0.2,-0.9 0,-0.2 -0.02,-0.62 0.2,-0.62 0.09,0 0.15,-0.01 0.2,0.14 0.01,0.03 0.03,0.19 0.03,0.24l0.52 0 0 -0.14c0,-0.34 -0.31,-0.57 -0.66,-0.57 -0.3,0 -0.59,0.02 -0.74,0.32 -0.09,0.18 -0.1,0.53 -0.1,0.8z"/>
   <path class="fil0" d="M25.72 3.1c0,0.04 0.02,0.05 0.06,0.05l1.05 0c0.08,0 0.05,-0.11 0.05,-0.32l-0.62 0 0 -1.74 -0.54 0 0 2.01z"/>
   <path class="fil0" d="M24.9 3.1c0,0.04 0.01,0.05 0.05,0.05l0.48 0 0 -2.06 -0.53 0 0 2.01z"/>
   <path class="fil0" d="M0.01 3.27c0,0.63 -0.1,0.58 0.39,0.26 0.07,-0.05 0.13,-0.09 0.2,-0.14 0.1,-0.07 0.18,-0.1 0.2,-0.17 -0.06,-0.01 -0.31,-0.19 -0.38,-0.24 -0.04,0.01 -0.41,0.24 -0.41,0.29z"/>
   <path class="fil0" d="M2.99 0.52c0.04,0.05 0.32,0.23 0.4,0.27 0.04,0.01 0.31,-0.22 0.39,-0.24l0 -0.55c-0.07,0.05 -0.73,0.5 -0.79,0.52z"/>
  </g>
 </g>
</svg>
