<?xml version="1.0" encoding="UTF-8"?>
<!DOCTYPE svg PUBLIC "-//W3C//DTD SVG 1.1//EN" "http://www.w3.org/Graphics/SVG/1.1/DTD/svg11.dtd">
<!-- Creator: CorelDRAW 2021 (64-Bit) -->
<svg xmlns="http://www.w3.org/2000/svg" xml:space="preserve" width="152px" height="34px" version="1.1" style="shape-rendering:geometricPrecision; text-rendering:geometricPrecision; image-rendering:optimizeQuality; fill-rule:evenodd; clip-rule:evenodd"
viewBox="0 0 10.54 2.36"
 xmlns:xlink="http://www.w3.org/1999/xlink"
 xmlns:xodm="http://www.corel.com/coreldraw/odm/2003">
 <defs>
  <style type="text/css">
   <![CDATA[
    .fil0 {fill:#F76700}
   ]]>
  </style>
 </defs>
 <g id="Layer_x0020_1">
  <metadata id="CorelCorpID_0Corel-Layer"/>
  <g id="_2621611295440">
   <path class="fil0" d="M0 0.79c0.02,0.08 0.06,0.05 0.18,0.02 0.04,-0.01 0.08,-0.03 0.13,-0.03l-0.01 0.16c0,0.28 0.15,0.58 0.37,0.74 0.05,0.03 0.07,0.06 0.12,0.06 0.01,0 0.03,-0.02 0.03,-0.03 0,-0.06 -0.09,-0.1 -0.19,-0.26 -0.09,-0.17 -0.12,-0.44 -0.06,-0.63 0.03,-0.07 0.02,-0.09 0.14,-0.09 0.41,0 0.62,-0.01 1.02,0.12 0.34,0.11 0.65,0.37 0.25,0.67 -0.14,0.1 -0.29,0.12 -0.29,0.19 0,0.08 0.18,-0.01 0.24,-0.03 0.17,-0.07 0.28,-0.14 0.41,-0.27 0.1,-0.1 0.12,-0.18 0.12,-0.3 0,-0.13 -0.1,-0.24 -0.17,-0.3 -0.31,-0.28 -1.11,-0.38 -1.56,-0.27 0.09,-0.18 0.42,-0.32 0.66,-0.32 0.18,0 0.38,0.06 0.51,0.16 0.08,0.06 0.05,0.05 0.11,0.03 0.01,-0.04 0.03,-0.03 -0.05,-0.11 -0.04,-0.05 -0.18,-0.15 -0.24,-0.19 -0.33,-0.17 -0.73,-0.14 -1.03,0.08 -0.09,0.06 -0.2,0.17 -0.25,0.27 -0.02,0.02 -0.03,0.05 -0.04,0.08 -0.08,0.15 -0.02,0.05 -0.24,0.15 -0.06,0.03 -0.13,0.05 -0.16,0.1z"/>
   <path class="fil0" d="M3.3 2.12c-0.08,0 -0.06,-0.01 -0.11,-0.01l0 -0.56c0.07,-0.04 0.2,-0.05 0.27,-0.01 0.16,0.09 0.16,0.58 -0.16,0.58zm-0.39 0.18c0.16,0.04 0.18,0.05 0.38,0.05 0.33,0 0.57,-0.21 0.57,-0.51l0 -0.09c0,-0.3 -0.17,-0.47 -0.47,-0.47 -0.1,0 -0.13,0.02 -0.2,0.03l0 -0.5 -0.15 0.07c-0.19,0.1 -0.13,0.19 -0.13,0.53 0,0.29 0,0.59 0,0.89z"/>
   <path class="fil0" d="M5.98 1.82c0,-0.18 0.06,-0.29 0.23,-0.31 0.06,-0.01 0.09,0.01 0.15,0.01l0 0.53c0,0.05 0.01,0.05 -0.03,0.06 -0.11,0.04 -0.35,0 -0.35,-0.29zm0.38 -0.8l0 0.27 -0.18 -0.01c-0.14,0 -0.28,0.07 -0.35,0.14 -0.21,0.22 -0.27,0.93 0.42,0.93 0.11,0 0.32,-0.03 0.39,-0.06l0 -1.48c-0.07,0.04 -0.28,0.11 -0.28,0.21z"/>
   <path class="fil0" d="M10.06 2.12c-0.2,0 -0.22,-0.14 -0.22,-0.33 0,-0.36 0.28,-0.33 0.36,-0.2 0.06,0.09 0.1,0.53 -0.14,0.53zm-0.51 -0.37c0,0.17 0,0.32 0.13,0.47 0.2,0.22 0.86,0.23 0.86,-0.4 0,-0.21 -0.07,-0.41 -0.26,-0.5 -0.12,-0.06 -0.28,-0.07 -0.42,-0.02 -0.18,0.05 -0.31,0.24 -0.31,0.45z"/>
   <path class="fil0" d="M7.28 1.49l0.02 0c0.11,0 0.16,0.09 0.17,0.19l-0.38 0c0,-0.1 0.09,-0.19 0.19,-0.19zm-0.49 0.33c0,0.71 0.82,0.53 0.87,0.48 0.03,-0.03 0.01,-0.2 0.01,-0.23 -0.05,0 -0.09,0.02 -0.14,0.03 -0.13,0.03 -0.3,0.04 -0.39,-0.07 -0.05,-0.06 -0.04,-0.08 -0.06,-0.13l0.64 0c0.03,-0.11 0.01,-0.28 -0.03,-0.38 -0.14,-0.38 -0.9,-0.37 -0.9,0.3z"/>
   <path class="fil0" d="M4.95 2c0,-0.15 0.19,-0.12 0.31,-0.12l0 0.24c-0.03,0 -0.31,0.05 -0.31,-0.12zm-0.16 -0.7c-0.01,0.17 -0.01,0.07 0,0.23 0.08,0 0.36,-0.09 0.45,0.05 0.03,0.04 0.02,0.05 0.02,0.1l-0.18 0c-0.21,0 -0.4,0.11 -0.4,0.32 0,0.42 0.5,0.38 0.79,0.31 0.03,-0.01 0.08,-0.01 0.08,-0.04l0 -0.55c0,-0.27 -0.12,-0.4 -0.34,-0.44 -0.03,0 -0.12,-0.02 -0.15,-0.01 -0.08,0 -0.23,0.03 -0.27,0.03z"/>
   <path class="fil0" d="M7.86 1.57c0,0.35 0.46,0.32 0.46,0.43 0,0.13 -0.05,0.12 -0.2,0.12 -0.1,0 -0.17,-0.04 -0.26,-0.06 0,0.04 -0.02,0.09 -0.01,0.14 0.01,0.07 0,0.09 0.05,0.11 0.25,0.09 0.71,0.07 0.71,-0.26 0,-0.19 -0.06,-0.27 -0.24,-0.34 -0.03,-0.01 -0.15,-0.06 -0.18,-0.08 -0.07,-0.06 -0.02,-0.13 0.07,-0.13 0.24,0 0.21,0.03 0.3,0.04 0.01,-0.03 0.03,-0.14 0.01,-0.19 -0.02,-0.05 -0.07,-0.05 -0.15,-0.07 -0.23,-0.04 -0.56,0.02 -0.56,0.29z"/>
   <path class="fil0" d="M8.73 1.78c0,0.17 0.02,0.32 0.13,0.43 0.17,0.18 0.49,0.18 0.68,0.08 -0.01,-0.03 -0.04,-0.07 -0.06,-0.1 -0.01,-0.03 -0.04,-0.07 -0.04,-0.11 -0.11,0.05 -0.27,0.06 -0.35,-0.04 -0.08,-0.1 -0.09,-0.3 -0.03,-0.42 0.09,-0.18 0.32,-0.08 0.38,-0.08 0.01,-0.07 0.07,-0.15 0.1,-0.2 -0.34,-0.18 -0.81,-0.04 -0.81,0.44z"/>
   <path class="fil0" d="M4.03 1.29l0 1.05 0.14 0.01c0.07,0 0.09,-0.01 0.15,-0.01l0 -0.5c0,-0.29 0.14,-0.32 0.34,-0.32 0.01,-0.06 0.01,-0.15 0.01,-0.23 -0.09,-0.02 -0.19,-0.01 -0.27,0.04 -0.05,0.02 -0.06,0.06 -0.1,0.09l-0.03 -0.13c-0.15,-0.01 -0.08,-0.01 -0.24,0z"/>
   <path class="fil0" d="M1.25 1.64l0 0.71c0.17,0 0.25,0.02 0.25,-0.07l0 -0.73c0,-0.1 -0.17,0.03 -0.2,0.05 -0.03,0.01 -0.05,0.02 -0.05,0.04z"/>
   <path class="fil0" d="M1.01 1.81l0 0.5c0,0.05 0.09,0.04 0.18,0.04l0 -0.69c-0.03,0.01 -0.08,0.05 -0.1,0.06 -0.04,0.02 -0.08,0.03 -0.08,0.09z"/>
  </g>
 </g>
</svg>
