<?xml version="1.0" encoding="UTF-8"?>
<!DOCTYPE svg PUBLIC "-//W3C//DTD SVG 1.1//EN" "http://www.w3.org/Graphics/SVG/1.1/DTD/svg11.dtd">
<!-- Creator: CorelDRAW 2019 (64 Bit) -->
<svg xmlns="http://www.w3.org/2000/svg" xml:space="preserve" width="207px" height="34px" version="1.1" style="shape-rendering:geometricPrecision; text-rendering:geometricPrecision; image-rendering:optimizeQuality; fill-rule:evenodd; clip-rule:evenodd"
viewBox="0 0 85.06 13.91"
 xmlns:xlink="http://www.w3.org/1999/xlink">
 <defs>
  <style type="text/css">
   <![CDATA[
    .fil0 {fill:#F76700}
    .fil1 {fill:#F76700;fill-rule:nonzero}
   ]]>
  </style>
 </defs>
 <g id="Camada_x0020_1">
  <metadata id="CorelCorpID_0Corel-Layer"/>
  <path class="fil0" d="M18.69 11.67c0.25,-0.52 0.48,-2.92 0.67,-3.73 2.29,0 4.25,-0.39 3.87,2 -0.34,2.11 -2.2,1.73 -4.54,1.73zm0.93 -5.99c0.55,-1.13 0.18,-3.46 0.94,-3.46 2.02,0 3.19,-0.26 3.19,1.2 0,0.98 -0.51,1.68 -1.19,2 -0.82,0.38 -1.77,0.26 -2.94,0.26zm-3.19 6.39c0,2.24 2.17,1.73 5.06,1.73 4.79,0 5.25,-6.4 2.79,-7.05l0 -0.27c1.94,-0.52 3.15,-5.08 0.11,-6.1 -1.51,-0.5 -4.28,-0.29 -6.23,-0.29 0,0.97 -0.28,1.97 -0.41,2.92 -0.26,1.95 -1.32,7.6 -1.32,9.06z"/>
  <path class="fil0" d="M41.05 11.67l-2.53 0c0.03,-1.14 0.53,-2.56 0.53,-3.73 2.16,0 4,-0.39 4,1.6 0,1.2 -0.79,2.13 -2,2.13zm-1.6 -5.99c0.1,-1.11 0.44,-2.35 0.54,-3.46 2.07,0 4.06,-0.46 3.43,1.83 -0.55,1.98 -2.43,1.63 -3.97,1.63zm-3.32 6.39c0,2.26 2.68,1.73 5.19,1.73 1.14,0 2.15,-0.52 2.76,-1.1 2.18,-2.02 1.57,-5.51 -0.1,-5.95 0.57,-0.85 1.99,-1.02 1.99,-3.86 0,-3.67 -5.5,-2.8 -7.98,-2.8l-1.86 11.98z"/>
  <path class="fil0" d="M1.53 1.56c1.57,0.03 4.44,1.53 5.69,2.55l1.49 1.3c0.85,-0.44 2.53,-1.8 3.33,-1.99 -0.06,0.73 -0.75,1.04 -1.17,1.49 -0.5,0.54 -0.73,1.01 -1.36,1.44 0.83,1.24 1.51,1.93 2.15,3.7 1.49,4.14 -0.15,3.75 2.24,3.75 0.24,-1.02 0.37,-2.22 0.55,-3.31 0.19,-1.12 0.37,-2.27 0.54,-3.46 0.19,-1.35 1.04,-5.97 1.04,-6.94l-13.97 0c-0.55,0 -0.52,1 -0.53,1.47z"/>
  <path class="fil0" d="M2.19 13.8l8.78 0c0,-1.92 -0.89,-4.14 -1.94,-5.64 -0.28,-0.4 -0.33,-0.32 -0.45,-0.75 -1.43,0.76 -2.7,1.64 -4.13,2.4 0.13,-0.47 0.37,-0.56 0.7,-0.9 0.34,-0.34 0.39,-0.52 0.73,-0.87 0.35,-0.36 0.43,-0.42 0.76,-0.84 0.33,-0.42 0.61,-0.5 0.74,-0.99 -0.73,-1.09 -4.31,-3.19 -6.12,-3.19 -0.03,1.36 -1.55,8.16 -1.21,9.32 0.25,0.86 1.07,1.46 2.14,1.46z"/>
  <path class="fil0" d="M31.07 6.21l-1.46 0c0,-1.27 0.53,-2.65 0.53,-3.99 0.95,0 3.72,-0.19 3.72,0.93 0,1.72 -0.56,3.06 -2.79,3.06zm-4.79 6.52c0,1.17 1.29,1.07 2.13,1.07 0,-0.69 0.27,-2.02 0.38,-2.68 0.09,-0.52 0.12,-0.83 0.21,-1.39 0.07,-0.48 0.2,-0.94 0.21,-1.39 1.45,0 1.13,-0.13 1.77,1.16 0.46,0.91 1.95,3.72 2.09,4.3l2.66 0 -2.93 -5.86c2.96,-0.24 4.69,-5.06 2.42,-6.94 -1.53,-1.27 -4.78,-0.91 -7.08,-0.91l-0.94 6.25c-0.21,1.58 -0.92,5.21 -0.92,6.39z"/>
  <path class="fil1" d="M49.88 5.19l1.08 -5.12 1.79 0c0.62,0 1.07,0.12 1.34,0.36 0.27,0.24 0.36,0.59 0.26,1.05 -0.05,0.25 -0.16,0.47 -0.33,0.66 -0.17,0.19 -0.38,0.33 -0.63,0.42 0.25,0.07 0.43,0.2 0.54,0.4 0.11,0.2 0.13,0.44 0.07,0.73 -0.1,0.49 -0.34,0.86 -0.71,1.12 -0.36,0.25 -0.84,0.38 -1.42,0.38l-1.99 0zm1.52 -2.22l-0.29 1.37 0.91 0c0.25,0 0.45,-0.06 0.62,-0.17 0.16,-0.12 0.26,-0.29 0.31,-0.49 0.1,-0.47 -0.1,-0.71 -0.58,-0.71l-0.97 0zm0.16 -0.75l0.78 0c0.54,-0.01 0.85,-0.22 0.93,-0.64 0.05,-0.23 0.02,-0.4 -0.09,-0.5 -0.12,-0.1 -0.32,-0.15 -0.61,-0.15l-0.74 0 -0.27 1.29zm6.03 1.92l-1.85 0 -0.58 1.05 -1.12 0 2.99 -5.12 0.97 0 0.84 5.12 -1.12 0 -0.13 -1.05zm-1.39 -0.86l1.28 0 -0.24 -1.91 -1.04 1.91zm7.28 1.91l-1.05 0 -1.34 -3.37 -0.72 3.37 -1.05 0 1.08 -5.12 1.05 0 1.35 3.38 0.71 -3.38 1.05 0 -1.08 5.12zm5.3 -1.7c-0.15,0.55 -0.45,0.98 -0.88,1.3 -0.43,0.32 -0.95,0.47 -1.55,0.47 -0.66,0 -1.13,-0.22 -1.41,-0.66 -0.28,-0.44 -0.34,-1.05 -0.18,-1.82l0.06 -0.31c0.11,-0.5 0.29,-0.93 0.54,-1.31 0.25,-0.37 0.56,-0.66 0.92,-0.86 0.37,-0.2 0.76,-0.3 1.19,-0.3 0.59,0 1.03,0.16 1.33,0.47 0.29,0.32 0.41,0.77 0.34,1.34l-1.05 0c0.04,-0.33 0,-0.57 -0.13,-0.72 -0.12,-0.15 -0.35,-0.23 -0.67,-0.23 -0.35,0 -0.64,0.13 -0.87,0.38 -0.23,0.25 -0.4,0.65 -0.52,1.18l-0.08 0.38c-0.11,0.56 -0.12,0.96 0,1.22 0.11,0.25 0.35,0.38 0.71,0.38 0.33,0 0.58,-0.07 0.78,-0.22 0.19,-0.15 0.33,-0.38 0.42,-0.69l1.05 0zm5.06 -0.74c-0.11,0.5 -0.29,0.94 -0.55,1.32 -0.26,0.39 -0.58,0.68 -0.95,0.88 -0.38,0.21 -0.78,0.31 -1.21,0.31 -0.42,0 -0.78,-0.1 -1.07,-0.3 -0.29,-0.21 -0.49,-0.5 -0.59,-0.88 -0.1,-0.38 -0.1,-0.81 0,-1.3l0.05 -0.26c0.11,-0.5 0.29,-0.95 0.56,-1.33 0.26,-0.38 0.58,-0.68 0.95,-0.88 0.38,-0.21 0.78,-0.31 1.2,-0.31 0.43,0 0.79,0.1 1.08,0.31 0.29,0.2 0.48,0.5 0.58,0.88 0.1,0.38 0.1,0.83 -0.01,1.33l-0.04 0.23zm-1.02 -0.23c0.11,-0.54 0.1,-0.95 -0.03,-1.23 -0.14,-0.28 -0.38,-0.42 -0.74,-0.42 -0.35,0 -0.66,0.14 -0.91,0.42 -0.25,0.27 -0.43,0.68 -0.54,1.21l-0.06 0.25c-0.11,0.52 -0.1,0.93 0.04,1.22 0.13,0.29 0.37,0.43 0.73,0.43 0.36,0 0.66,-0.14 0.91,-0.42 0.25,-0.28 0.43,-0.68 0.54,-1.21l0.06 -0.25zm3.06 2.67l1.08 -5.12 1.58 0c0.45,0 0.83,0.1 1.14,0.31 0.31,0.2 0.53,0.49 0.65,0.86 0.12,0.38 0.13,0.8 0.03,1.28l-0.05 0.23c-0.1,0.48 -0.29,0.9 -0.56,1.27 -0.27,0.37 -0.61,0.66 -1.01,0.86 -0.4,0.21 -0.82,0.31 -1.27,0.31l-1.59 0zm1.96 -4.26l-0.72 3.41 0.51 0c0.41,0 0.75,-0.13 1.03,-0.4 0.27,-0.27 0.46,-0.66 0.57,-1.16l0.06 -0.27c0.11,-0.52 0.09,-0.91 -0.07,-1.18 -0.16,-0.27 -0.45,-0.4 -0.86,-0.4l-0.52 0zm6.27 2.04l-2.03 0 -0.28 1.37 2.37 0 -0.18 0.85 -3.43 0 1.08 -5.12 3.42 0 -0.18 0.86 -2.37 0 -0.25 1.22 2.02 0 -0.17 0.82zm-36.05 10.86l1.08 -5.12 1.79 0c0.62,0 1.07,0.12 1.34,0.36 0.27,0.24 0.36,0.59 0.26,1.05 -0.05,0.25 -0.16,0.47 -0.33,0.66 -0.17,0.19 -0.38,0.33 -0.63,0.42 0.25,0.07 0.43,0.2 0.54,0.4 0.11,0.2 0.13,0.44 0.07,0.73 -0.1,0.49 -0.34,0.86 -0.71,1.12 -0.36,0.25 -0.84,0.38 -1.42,0.38l-1.99 0zm1.52 -2.22l-0.29 1.37 0.91 0c0.24,0 0.45,-0.05 0.61,-0.17 0.17,-0.12 0.27,-0.28 0.32,-0.49 0.09,-0.47 -0.1,-0.7 -0.58,-0.71l-0.97 0zm0.16 -0.75l0.78 0c0.53,-0.01 0.85,-0.22 0.93,-0.64 0.05,-0.23 0.02,-0.39 -0.09,-0.5 -0.12,-0.1 -0.32,-0.15 -0.61,-0.15l-0.74 0 -0.27 1.29zm5.2 1.1l-0.84 0 -0.39 1.87 -1.06 0 1.08 -5.12 1.9 0c0.61,0 1.05,0.14 1.32,0.41 0.27,0.27 0.35,0.65 0.25,1.14 -0.07,0.35 -0.21,0.64 -0.41,0.88 -0.2,0.23 -0.47,0.42 -0.81,0.55l0.67 2.1 -0.01 0.04 -1.13 0 -0.57 -1.87zm-0.66 -0.85l0.85 0c0.27,0 0.49,-0.07 0.66,-0.21 0.18,-0.13 0.29,-0.32 0.34,-0.55 0.05,-0.24 0.02,-0.43 -0.09,-0.57 -0.11,-0.14 -0.3,-0.21 -0.59,-0.21l-0.84 0 -0.33 1.54zm6.08 1.67l-1.85 0 -0.57 1.05 -1.12 0 2.98 -5.12 0.98 0 0.84 5.12 -1.13 0 -0.13 -1.05zm-1.38 -0.85l1.28 0 -0.24 -1.92 -1.04 1.92zm6.05 0.56c0.05,-0.2 0.01,-0.35 -0.11,-0.46 -0.12,-0.1 -0.35,-0.22 -0.69,-0.34 -0.34,-0.11 -0.61,-0.23 -0.79,-0.34 -0.52,-0.32 -0.72,-0.74 -0.61,-1.28 0.06,-0.27 0.19,-0.52 0.39,-0.74 0.2,-0.21 0.46,-0.38 0.78,-0.51 0.32,-0.12 0.66,-0.18 1.02,-0.18 0.37,0 0.68,0.07 0.94,0.2 0.26,0.13 0.44,0.32 0.55,0.56 0.1,0.24 0.12,0.52 0.06,0.83l-1.06 0c0.05,-0.24 0.02,-0.42 -0.1,-0.55 -0.12,-0.13 -0.32,-0.2 -0.58,-0.2 -0.26,0 -0.47,0.06 -0.64,0.17 -0.17,0.11 -0.27,0.25 -0.3,0.43 -0.04,0.17 0.02,0.31 0.16,0.42 0.14,0.11 0.37,0.22 0.67,0.31 0.56,0.19 0.95,0.41 1.17,0.68 0.22,0.26 0.29,0.6 0.2,1 -0.09,0.44 -0.33,0.79 -0.72,1.04 -0.39,0.25 -0.87,0.38 -1.43,0.38 -0.4,0 -0.74,-0.08 -1.03,-0.22 -0.3,-0.14 -0.5,-0.34 -0.62,-0.59 -0.12,-0.25 -0.14,-0.55 -0.07,-0.88l1.06 0c-0.12,0.57 0.16,0.85 0.83,0.85 0.25,0 0.46,-0.05 0.62,-0.15 0.16,-0.1 0.27,-0.25 0.3,-0.43zm2.61 1.34l-1.05 0 1.08 -5.12 1.05 0 -1.08 5.12zm2.21 -0.85l2.24 0 -0.18 0.85 -3.29 0 1.08 -5.12 1.05 0 -0.9 4.27zm3.79 0.85l-1.05 0 1.08 -5.12 1.05 0 -1.08 5.12zm4.15 -1.05l-1.85 0 -0.57 1.05 -1.12 0 2.98 -5.12 0.98 0 0.84 5.12 -1.12 0 -0.14 -1.05zm-1.38 -0.85l1.28 0 -0.24 -1.92 -1.04 1.92z"/>
 </g>
</svg>
