<?xml version="1.0" encoding="UTF-8"?>
<!DOCTYPE svg PUBLIC "-//W3C//DTD SVG 1.1//EN" "http://www.w3.org/Graphics/SVG/1.1/DTD/svg11.dtd">
<!-- Creator: CorelDRAW 2019 (64 Bit) -->
<svg xmlns="http://www.w3.org/2000/svg" xml:space="preserve" width="150px" height="34px" version="1.1" style="shape-rendering:geometricPrecision; text-rendering:geometricPrecision; image-rendering:optimizeQuality; fill-rule:evenodd; clip-rule:evenodd"
viewBox="0 0 149.74 33.91"
 xmlns:xlink="http://www.w3.org/1999/xlink">
 <defs>
  <style type="text/css">
   <![CDATA[
    .fil1 {fill:#0D6FAB}
    .fil0 {fill:#F76700}
    .fil2 {fill:#FEFEFE}
   ]]>
  </style>
 </defs>
 <g id="Camada_x0020_1">
  <metadata id="CorelCorpID_0Corel-Layer"/>
  <path class="fil0" d="M41.97 20.91c0.1,-0.55 3.69,-9.38 3.87,-9.57l1.42 9.58 -5.29 -0.01zm-3.66 8.16l10.25 0 0.77 4.37 10.57 -0.02 -6.71 -32.74 -11.91 0c-0.28,0.08 -3.68,7.33 -4.07,8.13l-9.97 20.53c-0.35,0.72 -1.78,3.54 -1.94,4.1l10.67 -0.02 2.34 -4.35z"/>
  <path class="fil0" d="M131.81 20.9c0.16,-0.64 3.68,-9.34 3.87,-9.54l1.42 9.56 -5.29 -0.02zm-6.13 12.54c0.53,-0.31 1.9,-3.59 2.52,-4.36 2.51,-0.15 6.82,-0.03 9.69,-0.02 0.66,0 0.49,-0.16 0.73,1.19 0.1,0.55 0.42,3.1 0.71,3.19l10.41 -0.01 -6.73 -32.75 -12.01 0.01 -15.85 32.75 10.53 0z"/>
  <path class="fil0" d="M25.57 1.88c-2.25,-1.34 -5.74,-2.07 -8.87,-1.84 -8.47,0.63 -14.98,7.63 -16.38,15.73 -1.75,10.21 3.76,18.16 13.57,18.14 3.76,-0.01 5.53,-1.04 8.5,-2.17l1 -9.58c-0.36,0.2 -0.49,0.45 -0.85,0.73 -5.22,4.04 -12.6,1.54 -11.7,-6.55 0.69,-6.24 9.07,-9.82 13.06,-5.62 0.19,0.2 0.39,0.58 0.66,0.66l1.01 -9.5z"/>
  <path class="fil0" d="M80.12 0.68c-1.78,0 -3.56,0 -5.35,0 -0.96,0 -4.61,-0.12 -5.27,0.05l-4.59 32.71 10.63 -0.02 4.58 -32.74z"/>
  <path class="fil0" d="M97.41 27.74c0.24,-0.49 5.03,-6.46 5.62,-7.21 0.61,-0.8 1.29,-1.6 1.87,-2.41l-13.79 -0.02 -2.96 3.81c-2.43,3.19 -5.03,6.31 -7.45,9.49 -0.37,0.5 -1.23,1.45 -1.46,1.93l13.73 -0.03c0.38,-0.39 0.79,-0.99 1.11,-1.39 0.4,-0.51 0.73,-0.94 1.11,-1.41l2.22 -2.76z"/>
  <path class="fil1" d="M105.77 15.8c-0.13,-0.48 -1.02,-1.88 -1.32,-2.39 -0.46,-0.77 -0.89,-1.55 -1.35,-2.33l-2.7 -4.75 -3.4 -5.79 -12.83 0.03 8.78 15.23 12.82 0z"/>
  <path class="fil0" d="M100.4 6.33l2.7 4.75c0.46,0.78 0.89,1.56 1.35,2.33 0.3,0.51 1.19,1.91 1.32,2.39 1.3,-0.03 0.71,0.26 2.12,-1.45l10.77 -13.62 -13.69 0.01 -3.95 4.91c-0.16,0.21 -0.37,0.52 -0.62,0.68z"/>
  <path class="fil1" d="M97.41 27.74l3.25 5.5 13.34 0c-0.23,-0.59 -0.81,-1.42 -1.16,-1.99 -0.39,-0.64 -0.75,-1.23 -1.13,-1.88l-6.81 -11.25c-0.58,0.81 -1.26,1.61 -1.87,2.41 -0.59,0.75 -5.38,6.72 -5.62,7.21z"/>
  <path class="fil2" d="M41.97 20.91l5.29 0.01 -1.42 -9.58c-0.18,0.19 -3.77,9.02 -3.87,9.57z"/>
  <path class="fil2" d="M131.81 20.9l5.29 0.02 -1.42 -9.56c-0.19,0.2 -3.71,8.9 -3.87,9.54z"/>
 </g>
</svg>
