<?xml version="1.0" encoding="UTF-8"?>
<!DOCTYPE svg PUBLIC "-//W3C//DTD SVG 1.1//EN" "http://www.w3.org/Graphics/SVG/1.1/DTD/svg11.dtd">
<!-- Creator: CorelDRAW 2021 (64-Bit) -->
<svg xmlns="http://www.w3.org/2000/svg" xml:space="preserve" width="73px" height="34px" version="1.1" style="shape-rendering:geometricPrecision; text-rendering:geometricPrecision; image-rendering:optimizeQuality; fill-rule:evenodd; clip-rule:evenodd"
viewBox="0 0 28.07 13.12"
 xmlns:xlink="http://www.w3.org/1999/xlink"
 xmlns:xodm="http://www.corel.com/coreldraw/odm/2003">
 <defs>
  <style type="text/css">
   <![CDATA[
    .fil0 {fill:url(#id0)}
   ]]>
  </style>
  <linearGradient id="id0" gradientUnits="userSpaceOnUse" x1="4.15" y1="-0.39" x2="23.93" y2="13.51">
   <stop offset="0" style="stop-opacity:1; stop-color:#D290D6"/>
   <stop offset="0.439216" style="stop-opacity:1; stop-color:#7ED0FF"/>
   <stop offset="1" style="stop-opacity:1; stop-color:#FD573F"/>
  </linearGradient>
 </defs>
 <g id="Layer_x0020_1">
  <metadata id="CorelCorpID_0Corel-Layer"/>
  <path class="fil0" d="M21.52 0c3.62,0 6.55,2.94 6.55,6.56 0,3.62 -2.93,6.56 -6.55,6.56 -3.34,0 -6.1,-2.49 -6.51,-5.72l-3.37 3.3c-1.2,1.48 -3.03,2.42 -5.08,2.42 -3.62,0 -6.56,-2.94 -6.56,-6.56 0,-3.62 2.94,-6.56 6.56,-6.56 3.45,0 6.28,2.67 6.54,6.06l2.55 -2.44c1.08,-2.15 3.3,-3.62 5.87,-3.62zm0 2.56c2.2,0 3.99,1.79 3.99,4 0,2.21 -1.79,4 -3.99,4 -2.21,0 -4,-1.79 -4,-4 0,-2.21 1.79,-4 4,-4zm-14.96 0c2.21,0 4,1.79 4,4 0,2.21 -1.79,4 -4,4 -2.21,0 -4,-1.79 -4,-4 0,-2.21 1.79,-4 4,-4z"/>
 </g>
</svg>
