<svg id="efi-by-gerencianet-horizontal-primary" xmlns="http://www.w3.org/2000/svg" width="133.304" height="30.5" viewBox="0 0 133.304 30.5">
  <g id="Grupo_25715" data-name="Grupo 25715">
    <rect id="Retângulo_3014" data-name="Retângulo 3014" width="133.304" height="30" transform="translate(0)" fill="none"/>
    <path id="Caminho_21382" data-name="Caminho 21382" d="M37.074,7.673,42.525,5.58V0l-6.6,5.381a1.438,1.438,0,0,0-.669,1.163,1.247,1.247,0,0,0,1.817,1.129M35.257,27.039h3.507V9.434H35.257Zm-15.907,0h3.507V20.263h8.766V16.941H22.857a4,4,0,0,1,4.176-4.418,5.664,5.664,0,0,1,3.347,1.129l2.231-2.624A8.6,8.6,0,0,0,27.128,9.1a7.429,7.429,0,0,0-7.778,7.839ZM3.57,16.376a4.678,4.678,0,0,1,4.846-3.853,4.247,4.247,0,0,1,4.559,3.853Zm13.006,1.495c0-4.052-2.805-8.769-8.161-8.769C3.7,9.1,0,12.789,0,18.1s3.73,9.268,8.767,9.268a8.881,8.881,0,0,0,7.3-3.853l-2.455-2.093A5.837,5.837,0,0,1,8.671,23.95,4.913,4.913,0,0,1,3.57,19.7H14.846c1.084,0,1.731-.532,1.731-1.827" transform="translate(0 0.539)" fill="#f37021"/>
    <g id="Grupo_25712" data-name="Grupo 25712" transform="translate(44.721 17.874)">
      <path id="Caminho_21415" data-name="Caminho 21415" d="M-122.06-1972.516l1.072-2.749-2.327-6.267h1.152l1.717,4.946h.023l1.717-4.946h1.106l-3.376,9.017Zm8.2-6.975a4.339,4.339,0,0,1,4.252-4.659,4.863,4.863,0,0,1,2.465.648v1.189a4.355,4.355,0,0,0-2.419-.745,3.3,3.3,0,0,0-3.2,3.566,3.279,3.279,0,0,0,3.145,3.565,3.347,3.347,0,0,0,1.682-.4v-3.542h1.025v4.238a5.074,5.074,0,0,1-2.718.768A4.34,4.34,0,0,1-113.856-1979.492Zm56.695,1.236a3.135,3.135,0,0,1,3.007-3.421c1.474,0,2.684,1.128,2.684,3.265a3.134,3.134,0,0,1-.034.492h-4.62a2.158,2.158,0,0,0,2.2,2.065,3.15,3.15,0,0,0,2.1-.852v1.092a3.532,3.532,0,0,1-2.177.721A3.068,3.068,0,0,1-57.161-1978.256Zm1.037-.492H-52.5c-.023-1.345-.818-1.969-1.671-1.969A2.069,2.069,0,0,0-56.125-1978.748Zm-15.6.468c0-2.077,1.371-3.4,2.834-3.4a2.5,2.5,0,0,1,2.224,1.345l.127-1.2h.864v6.495h-.864l-.127-1.188a2.489,2.489,0,0,1-2.224,1.333A3.1,3.1,0,0,1-71.727-1978.279Zm1.071,0a2.121,2.121,0,0,0,1.982,2.353,2.131,2.131,0,0,0,1.97-2.365,2.126,2.126,0,0,0-1.97-2.353A2.125,2.125,0,0,0-70.656-1978.279Zm-10.163-.012a3.2,3.2,0,0,1,3.146-3.386,3.1,3.1,0,0,1,1.728.456v1.129a2.56,2.56,0,0,0-1.671-.552,2.2,2.2,0,0,0-2.132,2.353,2.2,2.2,0,0,0,2.143,2.365,2.6,2.6,0,0,0,1.659-.528v1.116a3.349,3.349,0,0,1-1.728.445A3.2,3.2,0,0,1-80.819-1978.292Zm-13.782.036a3.136,3.136,0,0,1,3.008-3.421c1.474,0,2.684,1.128,2.684,3.265a3.041,3.041,0,0,1-.035.492h-4.62a2.159,2.159,0,0,0,2.2,2.065,3.152,3.152,0,0,0,2.1-.852v1.092a3.532,3.532,0,0,1-2.177.721A3.068,3.068,0,0,1-94.6-1978.256Zm1.037-.492h3.629c-.023-1.345-.817-1.969-1.67-1.969A2.069,2.069,0,0,0-93.564-1978.748Zm-11.972.492a3.136,3.136,0,0,1,3.007-3.421c1.475,0,2.684,1.128,2.684,3.265a3.048,3.048,0,0,1-.034.492h-4.62a2.158,2.158,0,0,0,2.2,2.065,3.149,3.149,0,0,0,2.1-.852v1.092a3.531,3.531,0,0,1-2.177.721A3.068,3.068,0,0,1-105.536-1978.256Zm1.037-.492h3.629c-.023-1.345-.818-1.969-1.671-1.969A2.069,2.069,0,0,0-104.5-1978.748Zm-24.51,2.521-.127,1.188H-130v-9.6h1.06v4.251a2.434,2.434,0,0,1,2.166-1.285c1.464,0,2.811,1.308,2.811,3.4,0,2.064-1.371,3.386-2.835,3.386A2.471,2.471,0,0,1-129.009-1976.226Zm.046-2.065a2.123,2.123,0,0,0,1.959,2.365,2.121,2.121,0,0,0,1.982-2.353,2.125,2.125,0,0,0-1.982-2.365A2.119,2.119,0,0,0-128.963-1978.292Zm79.211.984v-3.265h-.934v-.961h.956v-1.524h1.014v1.524h1.786v.961h-1.786v3.218a1.263,1.263,0,0,0,1.371,1.429,3.129,3.129,0,0,0,.553-.06v.961a3.8,3.8,0,0,1-.737.071A2.107,2.107,0,0,1-49.752-1977.307Zm-9.945,2.27v-3.9c0-1.14-.5-1.681-1.429-1.681A1.54,1.54,0,0,0-62.682-1979v3.962h-1.06v-6.5h.819l.115.985h.034a2.233,2.233,0,0,1,1.913-1.129,2.139,2.139,0,0,1,2.224,2.341v4.3Zm-23.645,0v-3.9c0-1.14-.5-1.681-1.429-1.681A1.54,1.54,0,0,0-86.327-1979v3.962h-1.06v-6.5h.818l.116.985h.034a2.232,2.232,0,0,1,1.913-1.129,2.138,2.138,0,0,1,2.223,2.341v4.3Zm-14.98,0v-6.5h.84l.116,1.033h.012a2,2,0,0,1,1.786-1.1,2.128,2.128,0,0,1,.415.036v1.057a2.567,2.567,0,0,0-.438-.048,1.651,1.651,0,0,0-1.671,1.825v3.7Zm23.98,0v-6.495h1.059v6.495Zm-.126-8.655a.646.646,0,0,1,.657-.673.646.646,0,0,1,.657.673.646.646,0,0,1-.657.672A.646.646,0,0,1-74.469-1983.694Z" transform="translate(130 1984.643)" fill="#2f2f2f" stroke="rgba(0,0,0,0)" stroke-width="1"/>
    </g>
  </g>
</svg>
