<?xml version="1.0" encoding="UTF-8"?>
<!DOCTYPE svg PUBLIC "-//W3C//DTD SVG 1.1//EN" "http://www.w3.org/Graphics/SVG/1.1/DTD/svg11.dtd">
<!-- Creator: CorelDRAW 2019 (64 Bit) -->
<svg xmlns="http://www.w3.org/2000/svg" xml:space="preserve" width="114px" height="34px" version="1.1" style="shape-rendering:geometricPrecision; text-rendering:geometricPrecision; image-rendering:optimizeQuality; fill-rule:evenodd; clip-rule:evenodd"
viewBox="0 0 2.89 0.86"
 xmlns:xlink="http://www.w3.org/1999/xlink">
 <defs>
  <style type="text/css">
   <![CDATA[
    .fil0 {fill:#F37021}
    .fil1 {fill:#F37021;fill-rule:nonzero}
   ]]>
  </style>
 </defs>
 <g id="Layer_x0020_1">
  <metadata id="CorelCorpID_0Corel-Layer"/>
  <path class="fil0" d="M0.12 0.51c0.02,-0.07 0.07,-0.12 0.15,-0.12 0.1,0 0.14,0.05 0.16,0.12l-0.31 0zm0.41 0.23l-0.08 -0.06c-0.06,0.05 -0.1,0.08 -0.19,0.07 -0.08,-0.01 -0.13,-0.06 -0.14,-0.13 0.1,0 0.33,0.01 0.41,-0.01 0.04,-0.14 -0.06,-0.29 -0.18,-0.32 -0.34,-0.09 -0.48,0.39 -0.2,0.54 0.15,0.07 0.32,0 0.38,-0.09zm0.11 0.11l0.11 0 0 -0.21 0.29 0 0 -0.11 -0.29 0c0,-0.07 0.03,-0.11 0.08,-0.13 0.07,-0.02 0.12,0 0.17,0.03l0.07 -0.09c-0.12,-0.08 -0.3,-0.07 -0.38,0.03 -0.08,0.11 -0.05,0.32 -0.05,0.48zm0.52 0l0.11 0 0.01 -0.55 -0.12 -0.01 0 0.56zm0.24 -0.67l0 -0.18c-0.02,0.01 -0.04,0.03 -0.06,0.04l-0.16 0.13c-0.03,0.03 -0.04,0.1 0.07,0.06 0.04,-0.02 0.11,-0.05 0.15,-0.05z"/>
  <path class="fil1" d="M1.42 0.86l0 -0.36 0.16 0c0.04,0 0.07,0.01 0.09,0.03 0.02,0.01 0.03,0.04 0.03,0.06 0,0.02 0,0.04 -0.01,0.05 -0.01,0.02 -0.02,0.03 -0.04,0.03 -0.01,0.01 -0.03,0.01 -0.05,0.01l0.01 -0.01c0.02,0 0.04,0 0.06,0.01 0.01,0.01 0.03,0.02 0.04,0.03 0.01,0.02 0.01,0.03 0.01,0.05 0,0.03 -0.01,0.06 -0.03,0.07 -0.03,0.02 -0.06,0.03 -0.1,0.03l-0.17 0zm0.04 -0.03l0.13 0c0.03,0 0.05,-0.01 0.07,-0.02 0.01,-0.01 0.02,-0.03 0.02,-0.05 0,-0.02 -0.01,-0.04 -0.02,-0.05 -0.02,-0.01 -0.04,-0.02 -0.07,-0.02l-0.14 0 0 -0.03 0.12 0c0.03,0 0.05,0 0.07,-0.01 0.02,-0.01 0.02,-0.03 0.02,-0.05 0,-0.02 0,-0.04 -0.02,-0.05 -0.02,-0.01 -0.04,-0.02 -0.07,-0.02l-0.11 0 0 0.3zm0.29 0.03l0.16 -0.36 0.04 0 0.16 0.36 -0.04 0 -0.15 -0.34 0.02 0 -0.15 0.34 -0.04 0zm0.06 -0.1l0.01 -0.03 0.21 0 0.01 0.03 -0.23 0zm0.36 0.1l0 -0.36 0.03 0 0.25 0.31 -0.02 0 0 -0.31 0.04 0 0 0.36 -0.03 0 -0.25 -0.31 0.02 0 0 0.31 -0.04 0zm0.45 -0.09l0 -0.04 0.22 -0.23 0.04 0 -0.16 0.17 -0.02 0.02 -0.08 0.08zm-0.03 0.09l0 -0.36 0.04 0 0 0.36 -0.04 0zm0.25 0l-0.15 -0.18 0.03 -0.03 0.17 0.21 -0.05 0z"/>
 </g>
</svg>
