<?xml version="1.0" encoding="UTF-8"?>
<!DOCTYPE svg PUBLIC "-//W3C//DTD SVG 1.1//EN" "http://www.w3.org/Graphics/SVG/1.1/DTD/svg11.dtd">
<!-- Creator: CorelDRAW 2021 (64-Bit) -->
<svg xmlns="http://www.w3.org/2000/svg" xml:space="preserve" width="134px" height="34px" version="1.1" style="shape-rendering:geometricPrecision; text-rendering:geometricPrecision; image-rendering:optimizeQuality; fill-rule:evenodd; clip-rule:evenodd"
viewBox="0 0 8.21 2.08"
 xmlns:xlink="http://www.w3.org/1999/xlink"
 xmlns:xodm="http://www.corel.com/coreldraw/odm/2003">
 <defs>
  <style type="text/css">
   <![CDATA[
    .fil0 {fill:#F76700}
   ]]>
  </style>
 </defs>
 <g id="Layer_x0020_1">
  <metadata id="CorelCorpID_0Corel-Layer"/>
  <g id="_3069863311200">
   <path class="fil0" d="M6.71 0.98l-0.8 0c0.06,-0.25 0.55,-0.46 0.8,0zm-1.29 0.25c0,0.24 0.09,0.45 0.25,0.6 0.54,0.54 1.44,0.11 1.49,-0.39l-0.46 0c-0.09,0.39 -0.81,0.36 -0.81,-0.14l1.27 0c0,-0.22 0.01,-0.29 -0.08,-0.5 -0.11,-0.23 -0.39,-0.44 -0.69,-0.44 -0.35,0 -0.49,0.02 -0.74,0.27 -0.12,0.12 -0.23,0.36 -0.23,0.6l0 0z"/>
   <path class="fil0" d="M1.41 1.28c-0.05,-0.04 -0.14,-0.33 -0.17,-0.39 -0.02,-0.07 -0.04,-0.13 -0.07,-0.21 -0.02,-0.06 -0.07,-0.13 -0.07,-0.21 -0.05,0.01 -0.17,0.07 -0.21,0.09l0.16 0.41c0.03,0.08 0.14,0.36 0.15,0.43 -0.09,-0.06 -0.34,-0.41 -0.42,-0.5l-0.14 -0.18c-0.04,0.02 -0.12,0.08 -0.15,0.12l0.54 0.7c0.03,0.06 -0.03,0.01 -0.07,-0.02l-0.65 -0.47c-0.02,0.04 -0.05,0.06 -0.07,0.12l0.54 0.4c0.05,0.04 0.14,0.09 0.17,0.14 -0.05,-0.01 -0.15,-0.05 -0.21,-0.07l-0.4 -0.18c-0.04,-0.01 -0.06,-0.02 -0.11,-0.04 -0.04,-0.02 -0.05,-0.03 -0.1,-0.04 -0.02,0.04 -0.03,0.06 -0.03,0.11 0.13,0.04 0.71,0.32 0.8,0.33l0 0.03c-0.06,0 -0.15,-0.02 -0.22,-0.04l-0.65 -0.14c0,0.15 -0.1,0.1 0.38,0.19 0.07,0.02 0.16,0.03 0.24,0.05 0.04,0.01 0.08,0.02 0.12,0.03l0.12 0.03 -0.89 0 0 0.08 1.74 0 0 -1.68 -0.33 0 0 0.91 0 0z"/>
   <path class="fil0" d="M3.38 0.64l0 -0.27c-0.24,0 -0.43,-0.03 -0.43,0.06l0 1.57c0,0.04 0.01,0.05 0.06,0.05l0.39 0 0 -1.28c0.29,0 0.44,-0.05 0.44,0.12l0 1.16 0.43 0 0 -1.29c0,-0.22 -0.16,-0.4 -0.36,-0.4 -0.15,0 -0.26,-0.01 -0.38,0.09 -0.1,0.09 -0.1,0.14 -0.15,0.19l0 0z"/>
   <path class="fil0" d="M4.36 0.71c0,0.07 0.08,0.05 0.23,0.05l0 0.7c0,0.65 0.3,0.59 0.8,0.59l0 -0.38 -0.35 0 0 -0.91 0.35 0c0,-0.47 0.08,-0.38 -0.35,-0.38 0,-0.23 0,-0.35 -0.02,-0.38l-0.04 0c-0.04,0.03 -0.13,0.14 -0.28,0.32 -0.06,0.06 -0.11,0.12 -0.17,0.19 -0.03,0.02 -0.17,0.17 -0.17,0.2l0 0z"/>
   <path class="fil0" d="M7.78 0.67l0 -0.3 -0.43 0 0 1.68 0.46 0 0 -1.26 0.4 0 0 -0.43c-0.34,0 -0.32,0.05 -0.42,0.3 0,0.01 -0.01,0.01 -0.01,0.01z"/>
   <polygon class="fil0" points="2.23,2.05 2.66,2.05 2.66,0.37 2.23,0.37 "/>
  </g>
 </g>
</svg>
