<?xml version="1.0" encoding="UTF-8"?>
<!DOCTYPE svg PUBLIC "-//W3C//DTD SVG 1.1//EN" "http://www.w3.org/Graphics/SVG/1.1/DTD/svg11.dtd">
<!-- Creator: CorelDRAW 2019 (64 Bit) -->
<svg xmlns="http://www.w3.org/2000/svg" xml:space="preserve" width="34px" height="34px" version="1.1" style="shape-rendering:geometricPrecision; text-rendering:geometricPrecision; image-rendering:optimizeQuality; fill-rule:evenodd; clip-rule:evenodd"
viewBox="0 0 11.83 11.83"
 xmlns:xlink="http://www.w3.org/1999/xlink">
 <defs>
  <style type="text/css">
   <![CDATA[
    .fil0 {fill:#FF6200}
    .fil1 {fill:white}
   ]]>
  </style>
 </defs>
 <g id="Camada_x0020_1">
  <metadata id="CorelCorpID_0Corel-Layer"/>
  <g id="_2092877291312">
   <path class="fil0" d="M1.3 6.34l0.88 -0.02 0 2.96 -0.24 0 -0.38 0 -0.26 -0.01 0 -2.93zm8.31 2.66c-0.36,0.62 -1.39,0.38 -1.65,-0.26 -0.17,-0.42 -0.08,-1.85 -0.1,-2.42l0.88 0c0,0.48 0,0.95 0,1.43 0,0.44 -0.03,0.92 0.48,0.89 0.47,-0.03 0.42,-0.5 0.42,-0.95 0,-0.46 0,-0.91 0,-1.37l0.88 0.02 0 2.93 -0.8 0 -0.11 -0.27zm-5.8 -3.58l0 0.9 0.75 0.01 0 0.64 -0.75 0.01c0.01,0.4 -0.01,0.81 0.01,1.2 0.01,0.5 0.23,0.48 0.69,0.44l0 0.66c-1.79,0.35 -1.57,-0.89 -1.57,-2.3l-0.44 -0.02 0 -0.63 0.44 -0.01 0 -0.75 0.87 -0.15zm1.17 1.69l0 -0.65c0.66,-0.36 1.81,-0.31 2.21,0.2 0.39,0.5 0.26,1.87 0.26,2.62l-0.69 0c-0.17,-0.02 -0.07,-0.02 -0.18,-0.16 -0.01,-0.01 -0.03,-0.03 -0.03,-0.04 -0.01,-0.01 -0.02,-0.03 -0.03,-0.05 -0.36,0.56 -1.63,0.4 -1.68,-0.52 -0.05,-0.94 0.9,-1.11 1.77,-1.09 -0.14,-0.88 -1.1,-0.35 -1.63,-0.31zm3.54 -1.61c0.08,-0.16 0.05,-0.1 0.29,-0.14l1.16 -0.19 -0.03 0.75 -1.42 0 0 -0.42zm-6.95 -0.45c0.64,-0.24 0.94,0.71 0.4,0.92 -0.66,0.24 -1.09,-0.65 -0.4,-0.92zm4.15 -5.05c-1.27,0 -4.36,0.09 -4.99,0.84 -0.95,1.12 -1.01,9.05 0.03,10.17 1.03,1.1 9.2,1.08 10.27,0.03 1.08,-1.06 1.05,-9.21 0.01,-10.26 -0.75,-0.75 -4,-0.78 -5.32,-0.78z"/>
   <path class="fil1" d="M5.75 8.64c-0.25,-0.64 0.29,-0.68 0.87,-0.68 -0.02,0.67 -0.19,0.91 -0.87,0.68zm-0.77 -1.53c0.53,-0.04 1.49,-0.57 1.63,0.31 -0.87,-0.02 -1.82,0.15 -1.77,1.09 0.05,0.92 1.32,1.08 1.68,0.52 0.01,0.02 0.02,0.04 0.03,0.05 0,0.01 0.02,0.03 0.03,0.04 0.11,0.14 0.01,0.14 0.18,0.16l0.69 0c0,-0.75 0.13,-2.12 -0.26,-2.62 -0.4,-0.51 -1.55,-0.56 -2.21,-0.2l0 0.65z"/>
   <path class="fil1" d="M9.61 9l0.11 0.27 0.8 0 0 -2.93 -0.88 -0.02c0,0.46 0,0.91 0,1.37 0,0.45 0.05,0.92 -0.42,0.95 -0.51,0.03 -0.48,-0.45 -0.48,-0.89 0,-0.48 0,-0.95 0,-1.43l-0.88 0c0.02,0.57 -0.07,2 0.1,2.42 0.26,0.64 1.29,0.88 1.65,0.26z"/>
   <path class="fil1" d="M2.94 5.57l0 0.75 -0.44 0.01 0 0.63 0.44 0.02c0,1.41 -0.22,2.65 1.57,2.3l0 -0.66c-0.46,0.04 -0.68,0.06 -0.69,-0.44 -0.02,-0.39 0,-0.8 -0.01,-1.2l0.75 -0.01 0 -0.64 -0.75 -0.01 0 -0.9 -0.87 0.15z"/>
   <polygon class="fil1" points="1.3,9.27 1.56,9.28 1.94,9.28 2.18,9.28 2.18,6.32 1.3,6.34 "/>
   <path class="fil1" d="M8.52 5.5l0 0.42 1.42 0 0.03 -0.75 -1.16 0.19c-0.24,0.04 -0.21,-0.02 -0.29,0.14z"/>
   <path class="fil1" d="M1.57 5.05c-0.69,0.27 -0.26,1.16 0.4,0.92 0.54,-0.21 0.24,-1.16 -0.4,-0.92z"/>
   <path class="fil0" d="M5.75 8.64c0.68,0.23 0.85,-0.01 0.87,-0.68 -0.58,0 -1.12,0.04 -0.87,0.68z"/>
  </g>
 </g>
</svg>
