<?xml version="1.0" encoding="UTF-8"?>
<!DOCTYPE svg PUBLIC "-//W3C//DTD SVG 1.1//EN" "http://www.w3.org/Graphics/SVG/1.1/DTD/svg11.dtd">
<!-- Creator: CorelDRAW 2019 (64 Bit) -->
<svg xmlns="http://www.w3.org/2000/svg" xml:space="preserve" width="132px" height="34px" version="1.1" style="shape-rendering:geometricPrecision; text-rendering:geometricPrecision; image-rendering:optimizeQuality; fill-rule:evenodd; clip-rule:evenodd"
viewBox="0 0 30.23 7.93"
 xmlns:xlink="http://www.w3.org/1999/xlink">
 <defs>
  <style type="text/css">
   <![CDATA[
    .fil3 {fill:#5B6593}
    .fil4 {fill:#8694B7}
    .fil0 {fill:#F76700}
    .fil2 {fill:white}
    .fil1 {fill:white}
   ]]>
  </style>
 </defs>
 <g id="Camada_x0020_1">
  <metadata id="CorelCorpID_0Corel-Layer"/>
  <path class="fil0" d="M4.16 4.45l0.14 0.05c0.4,-0.14 0.6,-0.01 0.59,0.44 -0.02,0.25 -0.04,0.1 0.08,0.16 1.3,-0.04 0.05,1.67 -0.29,0.36 -0.44,0.16 -0.51,0.12 -0.72,-0.3 -0.5,0.15 -0.64,0 -0.66,-0.52 -0.19,0.08 -0.34,0.09 -0.55,0 -0.18,-0.57 0.41,-0.83 0.61,-0.21 0.19,-0.21 0.62,-0.48 0.8,0.02zm-3.94 -1c0.55,0.06 1.84,0.4 2.17,0.72 0.3,0.34 -0.03,0.51 0.57,0.79 0.37,0.16 0.06,0.06 0.35,0.32 0.2,0.18 0.28,0.11 0.47,0.21 1.99,1.01 0.93,0.62 1.81,0.54 0.49,-0.05 0.23,0.18 1.03,-0.07 0.73,-0.23 0.45,-0.3 0.89,-0.46 0.76,-0.27 0.21,-0.36 0.78,-0.57 0.61,-0.23 0.24,-0.44 0.46,-0.77l2.1 -0.7c0.02,2.42 -2.82,3.6 -5.34,3.59 -2.32,0 -5.55,-1.25 -5.29,-3.6zm3.57 -0.79c0.15,-0.33 0.96,-1.09 1.48,-1.22 0.95,-0.24 1.46,0.23 2.2,0.43 1.23,0.32 1.74,-0.25 2.28,-0.23 0.35,0.02 0.99,1 1.06,1.56l-2.38 0.78c-0.1,-0.19 -1.74,-1.57 -2.03,-1.78 -1.22,-0.9 -1.58,0.99 -2.61,0.46zm4.61 1.98c-0.52,0.32 -0.95,-0.63 -1.4,-0.73 0.05,0.52 0.83,0.6 0.79,1.21 -0.68,0.5 -0.76,-0.46 -1.32,-0.47 0.15,0.3 0.67,0.67 0.53,0.93 -0.44,0.41 -0.59,-0.31 -1.08,-0.42l0.47 0.66 -0.62 0.02c-0.07,-0.26 0.04,-0.54 -0.16,-0.76 -0.36,-0.39 -0.25,0.13 -0.57,-0.52 -0.15,-0.31 -0.36,-0.25 -0.69,-0.38 -0.49,-0.18 -0.07,-0.2 -0.81,-0.19 -0.29,0 -0.36,-0.07 -0.87,-0.05 -0.22,0 -0.5,-0.19 -0.76,-0.28 -0.51,-0.19 -1.1,-0.34 -1.64,-0.47 0.12,-0.77 0.67,-1.32 1.07,-1.65 0.65,0.1 1.22,0.49 2.02,0.49 0.3,0 0.48,-0.08 0.75,-0.13 -0.13,0.24 -0.49,0.43 -0.53,0.68 -0.06,0.35 0.42,0.45 0.78,0.39 0.58,-0.1 0.96,-0.94 1.64,-0.72 0.33,0.1 1.07,0.84 1.36,1.07 0.25,0.2 1.32,0.89 1.04,1.32zm-6.76 -3.3c1.35,-1.48 6.64,-1.41 7.89,0.07 -1.27,0.96 -2.71,-0.4 -4.06,-0.24 -0.63,0.08 -1.04,0.46 -1.88,0.61 -0.43,0.08 -1.67,-0.21 -1.95,-0.44zm-1.64 2.02l0 0.87c0,1.11 1.15,2.2 1.88,2.62 3.36,1.94 9.2,0.48 9.2,-2.75l0 -0.61c0,-2.06 -3.02,-3.49 -5.24,-3.49l-0.6 0c-2.16,0 -5.24,1.42 -5.24,3.36z"/>
  <path class="fil1" d="M0.22 3.45c-0.26,2.35 2.97,3.6 5.29,3.6 2.52,0.01 5.36,-1.17 5.34,-3.59l-2.1 0.7c-0.22,0.33 0.15,0.54 -0.46,0.77 -0.57,0.21 -0.02,0.3 -0.78,0.57 -0.44,0.16 -0.16,0.23 -0.89,0.46 -0.8,0.25 -0.54,0.02 -1.03,0.07 -0.88,0.08 0.18,0.47 -1.81,-0.54 -0.19,-0.1 -0.27,-0.03 -0.47,-0.21 -0.29,-0.26 0.02,-0.16 -0.35,-0.32 -0.6,-0.28 -0.27,-0.45 -0.57,-0.79 -0.33,-0.32 -1.62,-0.66 -2.17,-0.72z"/>
  <path class="fil2" d="M8.4 4.64c0.28,-0.43 -0.79,-1.12 -1.04,-1.32 -0.29,-0.23 -1.03,-0.97 -1.36,-1.07 -0.68,-0.22 -1.06,0.62 -1.64,0.72 -0.36,0.06 -0.84,-0.04 -0.78,-0.39 0.04,-0.25 0.4,-0.44 0.53,-0.68 -0.27,0.05 -0.45,0.13 -0.75,0.13 -0.8,0 -1.37,-0.39 -2.02,-0.49 -0.4,0.33 -0.95,0.88 -1.07,1.65 0.54,0.13 1.13,0.28 1.64,0.47 0.26,0.09 0.54,0.28 0.76,0.28 0.51,-0.02 0.58,0.05 0.87,0.05 0.74,-0.01 0.32,0.01 0.81,0.19 0.33,0.13 0.54,0.07 0.69,0.38 0.32,0.65 0.21,0.13 0.57,0.52 0.2,0.22 0.09,0.5 0.16,0.76l0.62 -0.02 -0.47 -0.66c0.49,0.11 0.64,0.83 1.08,0.42 0.14,-0.26 -0.38,-0.63 -0.53,-0.93 0.56,0.01 0.64,0.97 1.32,0.47 0.04,-0.61 -0.74,-0.69 -0.79,-1.21 0.45,0.1 0.88,1.05 1.4,0.73z"/>
  <path class="fil2" d="M3.79 2.66c1.03,0.53 1.39,-1.36 2.61,-0.46 0.29,0.21 1.93,1.59 2.03,1.78l2.38 -0.78c-0.07,-0.56 -0.71,-1.54 -1.06,-1.56 -0.54,-0.02 -1.05,0.55 -2.28,0.23 -0.74,-0.2 -1.25,-0.67 -2.2,-0.43 -0.52,0.13 -1.33,0.89 -1.48,1.22z"/>
  <path class="fil1" d="M1.64 1.34c0.28,0.23 1.52,0.52 1.95,0.44 0.84,-0.15 1.25,-0.53 1.88,-0.61 1.35,-0.16 2.79,1.2 4.06,0.24 -1.25,-1.48 -6.54,-1.55 -7.89,-0.07z"/>
  <path class="fil0" d="M12.76 1.95l0 1.54 0.41 0c0.33,0 0.17,-1.39 0.26,-1.81 0.43,-0.1 0.25,-0.1 0.68,0l0.06 1.81 0.41 0c0.56,0 -0.22,-1.88 0.53,-1.88l0.2 0c0.66,0 -0.08,1.88 0.48,1.88l0.4 0c0,-1.02 0.25,-2.55 -0.94,-2.55 -0.46,0 -0.55,0.17 -0.81,0.34 -0.43,-0.64 -1.68,-0.36 -1.68,0.67z"/>
  <path class="fil0" d="M18.2 5.84c0,-1.31 0.94,-0.91 0.94,-0.33 0,0.35 0.06,0.87 -0.47,0.87 -0.32,0 -0.47,-0.23 -0.47,-0.54zm-0.67 -0.2c0,1.15 0.83,1.6 1.61,1.08 0,1.05 -0.9,0.42 -0.95,0.41 -0.14,-0.03 -0.43,-0.01 -0.59,-0.01 0.27,1.18 2.22,1.07 2.22,-0.27l0 -1.54c0,-1.06 -2.29,-1.52 -2.29,0.33z"/>
  <path class="fil0" d="M26.53 2.96c-0.74,0 -0.74,-1.42 0,-1.42 0.57,0 0.66,1.42 0,1.42zm0.41 -1.75c-0.19,-0.13 -0.28,-0.27 -0.61,-0.27 -1.32,0 -1.49,2.55 0,2.55 0.64,0 1.34,-0.09 1.34,-1.21 0,-0.56 0.13,-2.08 -0.13,-2.08 -0.59,0 -0.6,0.41 -0.6,1.01z"/>
  <path class="fil0" d="M13.43 5.84l0 -0.33c0,-0.68 0.94,-0.68 0.94,0 0,0.23 0.08,0.87 -0.4,0.87 -0.32,0 -0.54,-0.21 -0.54,-0.54zm-0.67 -0.53l0 2.41c0.71,0 0.67,0 0.67,-1 1.85,1.23 2.25,-2.29 0.74,-2.29 -0.55,0 -1.41,0.07 -1.41,0.88z"/>
  <path class="fil0" d="M17.46 1.54l0.27 0c0.22,0 0.32,0.19 0.34,0.41l-0.94 0c0.02,-0.22 0.12,-0.41 0.33,-0.41zm-1.07 0.74c0,1.67 2.27,1.45 2.35,0.47 -1.18,0 -0.47,0.21 -1.14,0.21 -0.37,0 -0.47,-0.25 -0.54,-0.54l1.75 0c0,-0.79 -0.28,-1.48 -1.21,-1.48 -0.75,0 -1.21,0.57 -1.21,1.34z"/>
  <path class="fil0" d="M21.36 6.38c-0.67,0 -0.6,-0.25 -0.6,-0.87 0,-0.72 1,-0.71 1,0 0,0.3 0,0.87 -0.4,0.87zm-1.34 -0.67c0,1.69 2.48,1.75 2.48,-0.07 0,-1.65 -2.48,-1.76 -2.48,0.07z"/>
  <path class="fil0" d="M16.66 5.78c0,0.54 -0.04,0.67 -0.54,0.67 -0.29,0 -0.29,-0.34 -0.13,-0.46 0.13,-0.11 0.48,-0.12 0.67,-0.21zm-1.35 -0.47l0.61 0c0.11,-0.47 0.39,-0.35 0.74,-0.27 -0.02,0.73 -0.93,0.08 -1.36,0.79 -0.3,0.52 -0.05,1.16 0.89,1.16 0.98,0 1.21,-0.49 1.21,-1.41 0,-1.08 -0.41,-1.15 -1.21,-1.15 -0.58,0 -0.88,0.29 -0.88,0.88z"/>
  <path class="fil0" d="M23.71 2.96l0 -0.41c0.21,-0.11 0.45,-0.17 0.74,-0.2 0,0.62 -0.22,0.73 -0.74,0.61zm-0.67 -1.15c1.18,0 0.59,-0.33 1.01,-0.33 0.25,0 0.12,0.04 0.4,0.06l0 0.34c-2.24,0.19 -1.52,1.61 -0.67,1.61 1.12,0 1.41,-0.16 1.41,-1.54 0,-1.35 -1.48,-1.08 -1.84,-0.76 -0.29,0.26 -0.16,0.32 -0.31,0.62z"/>
  <path class="fil0" d="M29.02 2.96c-0.77,0 -0.64,-1.42 -0.14,-1.42 0.29,0 0.67,-0.04 0.67,0.68 0,0.39 -0.16,0.74 -0.53,0.74zm-0.14 0.53c1.14,0 1.35,-0.52 1.35,-1.41 0,-0.72 -0.52,-1.14 -1.28,-1.14 -1.56,0 -1.53,2.55 -0.07,2.55z"/>
  <path class="fil0" d="M20.49 2.28c0,1.65 2.35,1.55 2.35,0.21l-0.54 0c-0.34,0 -0.1,0.47 -0.54,0.47 -0.79,0 -0.59,-1.42 -0.13,-1.42 1.01,0 -0.26,0.41 1.21,0.41 0,-1.41 -2.35,-1.41 -2.35,0.33z"/>
  <path class="fil2" d="M4.97 5.1l-0.11 0.05c0,0 -0.07,-0.02 0.03,-0.21 0.01,-0.45 -0.19,-0.58 -0.59,-0.44 -0.08,0.08 0.11,0.08 -0.09,0.07l-0.05 -0.12c-0.18,-0.5 -0.61,-0.23 -0.8,-0.02 -0.2,-0.62 -0.79,-0.36 -0.61,0.21 0.21,0.09 0.36,0.08 0.55,0 0.02,0.52 0.16,0.67 0.66,0.52 0.21,0.42 0.28,0.46 0.72,0.3 0.34,1.31 1.59,-0.4 0.29,-0.36z"/>
  <path class="fil0" d="M19.01 2.35c0,1.29 -0.12,1.14 0.54,1.14 0.43,0 0.04,-1.25 0.27,-1.61 0.35,-0.71 0.67,0.46 0.67,-0.94 -0.97,0 -1.48,0.45 -1.48,1.41z"/>
  <path class="fil3" d="M4.3 4.5l-0.14 -0.05 0.05 0.12c0.2,0.01 0.01,0.01 0.09,-0.07z"/>
  <path class="fil4" d="M4.97 5.1c-0.12,-0.06 -0.1,0.09 -0.08,-0.16 -0.1,0.19 -0.03,0.21 -0.03,0.21l0.11 -0.05z"/>
 </g>
</svg>
