<?xml version="1.0" encoding="UTF-8"?>
<!DOCTYPE svg PUBLIC "-//W3C//DTD SVG 1.1//EN" "http://www.w3.org/Graphics/SVG/1.1/DTD/svg11.dtd">
<!-- Creator: CorelDRAW 2019 (64 Bit) -->
<svg xmlns="http://www.w3.org/2000/svg" xml:space="preserve" width="153px" height="34px" version="1.1" style="shape-rendering:geometricPrecision; text-rendering:geometricPrecision; image-rendering:optimizeQuality; fill-rule:evenodd; clip-rule:evenodd"
viewBox="0 0 22.94 5.09"
 xmlns:xlink="http://www.w3.org/1999/xlink">
 <defs>
  <style type="text/css">
   <![CDATA[
    .fil0 {fill:#F76700}
    .fil1 {fill:#F7F7F7}
   ]]>
  </style>
 </defs>
 <g id="Camada_x0020_1">
  <metadata id="CorelCorpID_0Corel-Layer"/>
  <g id="_2345836496080">
   <path class="fil0" d="M13.68 0.03c-1.31,0.17 -2.43,1.33 -2.23,2.83 0.16,1.31 1.33,2.4 2.87,2.21 1.26,-0.15 2.41,-1.32 2.21,-2.83 -0.16,-1.3 -1.35,-2.4 -2.85,-2.21z"/>
   <path class="fil0" d="M2.54 0.03c-2.33,0.34 -3.33,2.92 -1.82,4.73 0.49,0.59 1.13,0.23 1.16,-0.25 0.02,-0.37 -0.21,-0.47 -0.34,-0.66 -0.13,-0.18 -0.26,-0.42 -0.3,-0.7 -0.2,-1.16 0.82,-2.12 2,-1.91 1,0.19 1.73,1.38 1.11,2.46 -0.06,0.1 -0.14,0.21 -0.2,0.28 -0.09,0.09 -0.17,0.15 -0.21,0.3 -0.19,0.59 0.65,1.42 1.45,0.04 1.23,-2.09 -0.55,-4.62 -2.85,-4.29z"/>
   <path class="fil0" d="M19.69 0.03c-2.47,0.39 -3.27,3.09 -1.8,4.75 0.13,0.15 0.36,0.36 0.71,0.26 0.24,-0.06 0.43,-0.28 0.43,-0.56 0.01,-0.52 -0.5,-0.48 -0.65,-1.35 -0.19,-1.13 0.87,-2.15 2.04,-1.88 0.98,0.22 1.7,1.33 1.09,2.43 -0.11,0.2 -0.36,0.42 -0.41,0.58 -0.11,0.33 0.05,0.59 0.24,0.72 0.87,0.58 2.38,-1.83 1.1,-3.73 -0.46,-0.67 -1.49,-1.42 -2.75,-1.22z"/>
   <path class="fil0" d="M8.68 0.03c-1.93,0.26 -3.01,2.51 -1.66,4.12 0.48,0.57 1.37,1.1 2.52,0.85 0.53,-0.11 0.83,-0.32 1.16,-0.59 0.61,-0.49 -0.07,-1.52 -0.82,-0.88 -0.58,0.5 -1.39,0.42 -1.86,-0.07 -1.16,-1.21 0.51,-3.03 1.87,-1.9 0.56,0.45 1.01,-0.01 1.05,-0.34 0.07,-0.73 -1.33,-1.31 -2.26,-1.19z"/>
   <path class="fil1" d="M13.72 1.24c-0.62,0.15 -1.2,0.77 -1.02,1.58 0.15,0.62 0.74,1.18 1.56,1.02 0.63,-0.12 1.22,-0.78 1.05,-1.58 -0.14,-0.64 -0.78,-1.21 -1.59,-1.02z"/>
   <path class="fil0" d="M8.81 1.97c-0.79,0.24 -0.4,1.4 0.37,1.14 0.72,-0.25 0.4,-1.37 -0.37,-1.14z"/>
  </g>
 </g>
</svg>
