<?xml version="1.0" encoding="UTF-8"?>
<!DOCTYPE svg PUBLIC "-//W3C//DTD SVG 1.1//EN" "http://www.w3.org/Graphics/SVG/1.1/DTD/svg11.dtd">
<!-- Creator: CorelDRAW 2019 (64 Bit) -->
<svg xmlns="http://www.w3.org/2000/svg" xml:space="preserve" width="83px" height="34px" version="1.1" style="shape-rendering:geometricPrecision; text-rendering:geometricPrecision; image-rendering:optimizeQuality; fill-rule:evenodd; clip-rule:evenodd"
viewBox="0 0 48.65 19.95"
 xmlns:xlink="http://www.w3.org/1999/xlink">
 <defs>
  <style type="text/css">
   <![CDATA[
    .fil0 {fill:#F76700}
   ]]>
  </style>
 </defs>
 <g id="Camada_x0020_1">
  <metadata id="CorelCorpID_0Corel-Layer"/>
  <path class="fil0" d="M15.4 4.15c0.13,-0.08 -0.09,-0.01 0.24,-0.11l2.23 0.02c0.13,0.59 0.05,6.66 0.05,7.79 0,1.2 -0.17,2.6 0.43,3.56 1.03,1.63 2.6,1.37 4.49,1.37l0 0.63c0,2.67 -4.28,1.71 -6.02,0.13 -1,-0.9 -1.47,-1.97 -1.47,-3.87 0,-2.07 -0.09,-7.87 0.05,-9.52zm8.34 -0.08c0.43,-0.07 1.68,-0.09 2.13,-0.05 0.54,0.03 0.4,0.14 0.39,0.75 -0.02,1.7 0.09,8.73 -0.02,9.5 -0.08,0.54 -0.5,0.99 -0.84,1.27 -0.48,0.41 -0.94,0.38 -1.71,0.38l0.05 -11.85zm-0.05 12.71c3.91,0 3.44,-2.94 3.44,-5.13 0,-1.42 0,-2.84 0,-4.25 0,-4.29 0.42,-4.25 -2.18,-4.25 -2.58,0 -2.11,0.07 -2.11,4.25 0,2.84 0,5.68 0,8.52 -0.9,0 -2.22,0.13 -2.95,-0.23 -0.7,-0.33 -1.09,-1.01 -1.1,-2.02 -0.02,-2.09 0,-4.18 0,-6.27 0,-4.19 0.41,-4.25 -2.03,-4.25 -1,0 -2.15,-0.24 -2.26,0.91l0 9.4c0,2.34 0.31,3.4 1.65,4.65 1.61,1.49 5.4,2.65 6.87,1.11 0.78,-0.82 0.67,-1.1 0.67,-2.44z"/>
  <path class="fil0" d="M3.51 4.04l0 11.8c-0.56,0.19 -1.93,0.13 -2.52,0.05 -0.11,-0.74 -0.04,-5.99 -0.04,-7.18 0,-2.5 -0.57,-4.67 2.56,-4.67zm0.86 -1.49c0,-2.89 4.68,-1.4 5.77,-0.36 0.81,0.76 1.71,1.72 1.71,3.39 0,2.21 0.1,8.55 -0.03,10.31l-2.24 0.03c-0.23,-0.06 -0.16,-0.06 -0.25,-0.1 -0.51,-2.13 0.57,-9.42 -0.46,-11.25 -0.96,-1.67 -2.76,-1.39 -4.5,-1.39l0 -0.63zm-0.86 0.63c-3.82,0 -3.43,2.75 -3.43,5.03 0,8.66 -0.68,8.59 2.02,8.59 2.66,0 2.27,0.11 2.27,-4.14 0,-2.86 0,-5.71 0,-8.56 0.62,-0.17 2.36,-0.11 2.9,0.15 0.7,0.33 1.13,0.87 1.15,1.93l-0.01 9.41c0.02,1.37 0.79,1.21 1.98,1.21 2.81,0 2.32,0.02 2.32,-3.94 0,-2.09 0,-4.18 0,-6.27 0,-1.82 0.02,-3.26 -1.59,-4.67 -1.65,-1.46 -5.05,-2.74 -6.86,-1.26 -0.76,0.61 -0.75,1.29 -0.75,2.52z"/>
  <path class="fil0" d="M30.52 11.16c1.69,-0.61 2.3,0.54 2.27,2.1 -0.03,1.61 -0.59,2.45 -2.29,2.09l0.02 -4.19zm-0.87 4.45c0.05,0.03 0.09,0.07 0.2,0.13 0.18,0.09 -0.14,-0.05 0.14,0.06 0.71,0.28 1.74,0.3 2.4,-0.05 0.65,-0.34 1.14,-1.08 1.25,-2.08 0.24,-2.26 -0.93,-3.65 -3.15,-3l0 -2.57 -0.87 0.03 0.03 7.48z"/>
  <path class="fil0" d="M44.67 15.89l0.86 0 0 -2.62c0.46,0.37 0.76,0.86 1.12,1.34 0.2,0.26 0.33,0.39 0.54,0.67 0.54,0.72 0.26,0.64 1.46,0.64l-2.27 -2.74c0.13,-0.35 0.67,-0.91 1.01,-1.34 0.36,-0.46 0.73,-0.82 1.07,-1.26 -1.34,-0.07 -0.81,-0.05 -2.31,1.74 -0.29,0.34 -0.28,0.43 -0.61,0.65l-0.01 -4.83 -0.85 -0.04 -0.01 7.79z"/>
  <path class="fil0" d="M39.48 10.94l0 4.98 0.88 -0.03 0.01 -4.75c2.77,-0.64 2.07,0.93 2.15,4.78l0.86 0c0,-3.38 0.6,-5.34 -1.85,-5.47 -0.62,-0.03 -1.68,0 -2.05,0.49z"/>
  <path class="fil0" d="M37.35 15.36c-1.05,0.29 -2.21,0.15 -2.13,-1.09 0.06,-1.01 1.16,-1.28 2.16,-1.37l-0.03 2.46zm-2.49 -4.02c1.22,-0.3 2.63,-0.76 2.5,1.09 -1.42,0.12 -3.26,0.64 -2.96,2.29 0.29,1.57 2.41,1.45 3.76,0.94 0.12,-0.79 0.13,-3.74 -0.14,-4.35 -0.23,-0.52 -0.71,-0.8 -1.45,-0.86 -0.61,-0.04 -1.36,0.09 -1.85,0.39l0.14 0.5z"/>
 </g>
</svg>
