<?xml version="1.0" encoding="UTF-8"?>
<!DOCTYPE svg PUBLIC "-//W3C//DTD SVG 1.1//EN" "http://www.w3.org/Graphics/SVG/1.1/DTD/svg11.dtd">
<!-- Creator: CorelDRAW 2019 (64 Bit) -->
<svg xmlns="http://www.w3.org/2000/svg" xml:space="preserve" width="121px" height="34px" version="1.1" style="shape-rendering:geometricPrecision; text-rendering:geometricPrecision; image-rendering:optimizeQuality; fill-rule:evenodd; clip-rule:evenodd"
viewBox="0 0 109.02 30.76"
 xmlns:xlink="http://www.w3.org/1999/xlink">
 <defs>
  <style type="text/css">
   <![CDATA[
    .fil0 {fill:#F76700}
   ]]>
  </style>
 </defs>
 <g id="Camada_x0020_1">
  <metadata id="CorelCorpID_0Corel-Layer"/>
  <g id="_2188299136848">
   <path class="fil0" d="M28.16 21.57c-2.77,7.56 -13.98,3.71 -11.52,-3.89 0.87,-2.7 3.93,-5.08 7.79,-3.81 2.57,0.84 5.02,4.17 3.73,7.7zm-8.05 4.89c-5.41,5.91 -17.77,2.22 -17,-8.15 0.67,-9.06 12.28,-12.27 17.64,-5.7 -1.01,0.72 -5.04,1.6 -5.37,6.54 -0.12,1.79 0.51,3.53 1.31,4.63 1.14,1.58 2.18,1.73 3.42,2.68zm-16.99 -12.27c-0.51,-3.87 1.37,-7.61 3.27,-9.47 8.67,-8.52 21.89,-1.98 21.11,9.78 -1,-0.45 -1.44,-1.1 -2.71,-1.55 -1.68,-0.6 -2.32,0.12 -3.47,-1.13 -3.7,-3.99 -8.63,-4.88 -13.65,-2.28 -2.78,1.45 -3.39,3.49 -4.55,4.65zm10.79 -14.09c-8.84,1.2 -14.79,8.6 -13.8,17.14 0.89,7.77 8.17,14.58 16.93,13.39 13.6,-1.86 18.11,-18.09 8.09,-26.96 -2.4,-2.12 -7.04,-4.14 -11.22,-3.57z"/>
   <path class="fil0" d="M71.19 15.48c1.78,-0.18 3.8,-0.09 3.49,1.87 -0.32,2.01 -2.16,1.92 -4.41,1.91l0.92 -3.78zm0.88 -5.06c1.4,-0.04 2.29,-0.31 3.3,0.56 1.08,2.41 -1.77,2.9 -3.92,2.91l0.62 -3.47zm3.42 4.12c3.9,-1.77 3.72,-5.81 -1.19,-5.81 -4.54,0 -4.14,-0.33 -4.53,1.25 -0.13,0.56 -0.21,1.13 -0.31,1.6l-1.96 9.19c3.04,0.07 8.12,0.55 9.43,-1.99 1.57,-3.03 -1.19,-4.04 -1.44,-4.24z"/>
   <path class="fil0" d="M64.42 13.27c0.1,2.16 -2.26,8.19 -4.35,5.69 -0.8,-0.95 0.08,-3.17 0.73,-4.08 0.74,-1.02 1.73,-1.68 3.62,-1.61zm-6.89 11.48c0.46,0.1 1.07,0.16 1.55,0.17 2.63,0.11 4.79,-0.56 5.87,-3.19 0.57,-1.4 2.13,-8.23 2.23,-9.66 -1.72,-0.81 -3.87,-0.57 -5.6,0.05 -4.68,1.7 -5.18,6.92 -3.41,8.21 2.13,1.55 4.54,-0.63 4.9,-0.84 -0.05,1.6 -0.78,2.97 -2.02,3.51 -1.64,0.72 -2.69,0.1 -4.31,-0.11l-0.35 1.4 1.14 0.46z"/>
   <path class="fil0" d="M40.67 10.49l1.04 -0.01 0.27 0c1.69,0 2.69,1.21 1.86,2.88 -0.65,1.3 -2.38,1.3 -4.15,1.3l0.98 -4.17zm-0.87 5.82c3.6,0 7.09,-0.46 6.88,-4.52 -0.19,-3.83 -4.71,-3.06 -8.26,-3.05l-2.56 11.99 2.62 0.06c0.12,-1.08 0.36,-3.91 1.32,-4.48z"/>
   <path class="fil0" d="M103.94 7.78c-2.83,0.03 -2.1,-1.12 -3.46,5.51 -0.52,2.5 -1.06,4.95 -1.59,7.51 3.06,0 2.35,0.1 2.68,-1.01l0.58 -3.48 1 1.14c0.2,0.36 0.39,0.82 0.61,1.27 0.18,0.37 0.41,0.91 0.63,1.27 0.57,0.93 -0.24,0.81 3.16,0.8l-2.71 -4.92 4.18 -4.03c-2.4,-0.06 -2.32,-0.45 -3.91,1.17 -0.79,0.8 -1.74,1.96 -2.61,2.28l1.44 -7.51z"/>
   <path class="fil0" d="M54.03 13.32c-0.21,1.5 -1.95,8.07 -4.35,5.73 -1.07,-1.06 0.01,-3.38 0.72,-4.25 0.87,-1.09 1.7,-1.74 3.63,-1.48zm1.1 7.48c-0.03,-2.81 1.65,-6.85 1.44,-8.88 -4.24,-0.86 -7.9,0.43 -9.3,3.54 -2.34,5.22 2.48,7.46 5.49,3.73l-0.19 1.6 2.56 0.01z"/>
   <path class="fil0" d="M85.77 13.36c0,1.92 -2.19,7.72 -4.29,5.67 -1.41,-1.38 0.7,-6.46 4.29,-5.67zm2.67 -1.29c-2.69,-1.37 -7.58,-0.23 -9.36,3.43 -2.57,5.3 3.02,7.44 5.32,3.63l0.09 0.37c0.19,1.61 -0.01,-1.4 0.03,0.39 0,0.09 -0.07,0.63 -0.09,0.86l2.3 0.03 1.71 -8.71z"/>
   <path class="fil0" d="M88.77 20.75l2.47 0.05c0.17,-1.7 1.39,-9.92 4.28,-7.13 0.67,1.26 -0.72,5.43 -0.94,7.13 2.99,0 2.29,0.38 3.12,-3.55 0.42,-1.99 1.84,-5.98 -2.18,-5.67 -1.44,0.11 -1.65,0.78 -2.76,1.45 -0.36,-0.42 -0.02,-0.23 -0.08,-0.51l-2.06 -0.71 -1.85 8.94z"/>
  </g>
 </g>
</svg>
