<?xml version="1.0" encoding="UTF-8"?>
<!DOCTYPE svg PUBLIC "-//W3C//DTD SVG 1.1//EN" "http://www.w3.org/Graphics/SVG/1.1/DTD/svg11.dtd">
<!-- Creator: CorelDRAW 2019 (64 Bit) -->
<svg xmlns="http://www.w3.org/2000/svg" xml:space="preserve" width="103px" height="34px" version="1.1" style="shape-rendering:geometricPrecision; text-rendering:geometricPrecision; image-rendering:optimizeQuality; fill-rule:evenodd; clip-rule:evenodd"
viewBox="0 0 18.53 6.14"
 xmlns:xlink="http://www.w3.org/1999/xlink">
 <defs>
  <style type="text/css">
   <![CDATA[
    .fil0 {fill:#F76700}
    .fil2 {fill:white}
    .fil3 {fill:#F76700;fill-rule:nonzero}
    .fil1 {fill:white;fill-rule:nonzero}
   ]]>
  </style>
 </defs>
 <g id="Camada_x0020_1">
  <metadata id="CorelCorpID_0Corel-Layer"/>
  <circle class="fil0" cx="3.07" cy="3.07" r="3.07"/>
  <path class="fil1" d="M1.24 5.04l0 -2.31 0.37 0 0.29 0 0 1.3 -0.29 -0.31 0.83 0c0.2,0 0.35,-0.04 0.45,-0.13 0.1,-0.09 0.15,-0.21 0.15,-0.36 0,-0.16 -0.05,-0.28 -0.15,-0.37 -0.1,-0.09 -0.25,-0.13 -0.45,-0.13l-0.54 0 0 -0.31 0 -0.23 0.57 0c0.26,0 0.48,0.04 0.66,0.13 0.19,0.08 0.33,0.2 0.43,0.35 0.1,0.16 0.15,0.34 0.15,0.56 0,0.21 -0.05,0.39 -0.15,0.55 -0.1,0.15 -0.24,0.27 -0.43,0.35 -0.18,0.09 -0.4,0.13 -0.66,0.13l-0.86 0 0.29 -0.3 0 1.08 -0.66 0z"/>
  <rect class="fil2" x="4.04" y="1.58" width="1.25" height="1.28"/>
  <rect class="fil0" x="4.24" y="1.8" width="0.84" height="0.86"/>
  <rect class="fil2" x="4.43" y="1.98" width="0.47" height="0.48"/>
  <path class="fil3" d="M8.27 3.41l0 0.88 -0.52 0 0 -2.52 0.98 0c0.19,0 0.36,0.03 0.5,0.1 0.14,0.07 0.25,0.17 0.33,0.3 0.08,0.13 0.12,0.27 0.12,0.44 0,0.24 -0.09,0.44 -0.26,0.58 -0.16,0.14 -0.4,0.22 -0.7,0.22l-0.45 0zm0 -0.43l0.46 0c0.14,0 0.24,-0.03 0.32,-0.09 0.07,-0.07 0.1,-0.16 0.1,-0.28 0,-0.12 -0.03,-0.22 -0.11,-0.3 -0.07,-0.08 -0.17,-0.12 -0.3,-0.12l-0.47 0 0 0.79zm2.26 1.31l-0.5 0 0 -1.87 0.5 0 0 1.87zm-0.53 -2.36c0,-0.07 0.02,-0.13 0.07,-0.18 0.05,-0.05 0.12,-0.07 0.21,-0.07 0.09,0 0.15,0.02 0.2,0.07 0.06,0.05 0.08,0.11 0.08,0.18 0,0.08 -0.02,0.14 -0.08,0.19 -0.05,0.05 -0.12,0.08 -0.2,0.08 -0.08,0 -0.15,-0.03 -0.2,-0.08 -0.06,-0.05 -0.08,-0.11 -0.08,-0.19zm1.72 1.99c0.1,0 0.17,-0.02 0.23,-0.07 0.06,-0.05 0.09,-0.12 0.09,-0.2l0.47 0c0,0.12 -0.04,0.24 -0.1,0.35 -0.07,0.1 -0.17,0.18 -0.28,0.24 -0.12,0.06 -0.25,0.09 -0.4,0.09 -0.26,0 -0.48,-0.09 -0.63,-0.26 -0.16,-0.17 -0.23,-0.4 -0.23,-0.7l0 -0.04c0,-0.29 0.07,-0.52 0.23,-0.69 0.15,-0.17 0.36,-0.26 0.63,-0.26 0.23,0 0.42,0.07 0.56,0.2 0.15,0.14 0.22,0.31 0.22,0.54l-0.47 0c0,-0.1 -0.03,-0.18 -0.09,-0.24 -0.06,-0.06 -0.13,-0.09 -0.23,-0.09 -0.12,0 -0.2,0.04 -0.26,0.13 -0.06,0.08 -0.09,0.22 -0.09,0.41l0 0.05c0,0.2 0.03,0.33 0.09,0.42 0.05,0.08 0.14,0.12 0.26,0.12zm1.63 -0.51l0 0.88 -0.52 0 0 -2.52 0.99 0c0.18,0 0.35,0.03 0.5,0.1 0.14,0.07 0.25,0.17 0.33,0.3 0.08,0.13 0.11,0.27 0.11,0.44 0,0.24 -0.08,0.44 -0.25,0.58 -0.17,0.14 -0.4,0.22 -0.7,0.22l-0.46 0zm0 -0.43l0.47 0c0.13,0 0.24,-0.03 0.31,-0.09 0.07,-0.07 0.11,-0.16 0.11,-0.28 0,-0.12 -0.04,-0.22 -0.11,-0.3 -0.07,-0.08 -0.17,-0.12 -0.3,-0.12l-0.48 0 0 0.79zm2.81 1.31c-0.03,-0.04 -0.04,-0.1 -0.05,-0.16 -0.13,0.13 -0.28,0.2 -0.48,0.2 -0.18,0 -0.33,-0.05 -0.45,-0.16 -0.13,-0.11 -0.19,-0.24 -0.19,-0.4 0,-0.2 0.08,-0.35 0.23,-0.46 0.14,-0.11 0.36,-0.16 0.63,-0.16l0.24 0 0 -0.11c0,-0.09 -0.03,-0.15 -0.07,-0.21 -0.05,-0.05 -0.12,-0.07 -0.21,-0.07 -0.09,0 -0.15,0.02 -0.2,0.06 -0.05,0.04 -0.07,0.09 -0.07,0.16l-0.5 0c0,-0.11 0.03,-0.21 0.1,-0.3 0.06,-0.09 0.16,-0.17 0.28,-0.22 0.12,-0.05 0.26,-0.08 0.41,-0.08 0.24,0 0.42,0.06 0.55,0.18 0.14,0.11 0.21,0.28 0.21,0.49l0 0.81c0,0.18 0.02,0.31 0.07,0.4l0 0.03 -0.5 0zm-0.42 -0.34c0.08,0 0.14,-0.02 0.21,-0.05 0.06,-0.04 0.11,-0.08 0.14,-0.14l0 -0.32 -0.19 0c-0.25,0 -0.39,0.09 -0.4,0.26l0 0.03c0,0.06 0.02,0.11 0.06,0.16 0.05,0.04 0.11,0.06 0.18,0.06zm1.91 -0.36l0.34 -1.17 0.54 0 -0.75 2.16 -0.04 0.1c-0.12,0.25 -0.3,0.37 -0.56,0.37 -0.07,0 -0.15,-0.01 -0.22,-0.03l0 -0.38 0.08 0c0.09,0 0.16,-0.02 0.21,-0.04 0.05,-0.03 0.08,-0.08 0.11,-0.15l0.06 -0.15 -0.66 -1.88 0.54 0 0.35 1.17z"/>
 </g>
</svg>
