<?xml version="1.0" encoding="UTF-8"?>
<!DOCTYPE svg PUBLIC "-//W3C//DTD SVG 1.1//EN" "http://www.w3.org/Graphics/SVG/1.1/DTD/svg11.dtd">
<!-- Creator: CorelDRAW 2019 (64 Bit) -->
<svg xmlns="http://www.w3.org/2000/svg" xml:space="preserve" width="106px" height="34px" version="1.1" style="shape-rendering:geometricPrecision; text-rendering:geometricPrecision; image-rendering:optimizeQuality; fill-rule:evenodd; clip-rule:evenodd"
viewBox="0 0 354.2 113.59"
 xmlns:xlink="http://www.w3.org/1999/xlink">
 <defs>
  <style type="text/css">
   <![CDATA[
    .fil0 {fill:#F76700}
    .fil1 {fill:white}
   ]]>
  </style>
 </defs>
 <g id="Camada_x0020_1">
  <metadata id="CorelCorpID_0Corel-Layer"/>
  <path class="fil0" d="M0 30.89l0 60.62 16.63 0.26 -0.02 -20.6c10.06,-1.97 45.2,5.81 46.04,-27.31 0.8,-31.22 -30.79,-27.05 -46.06,-27.48l0 14.14c14.17,-0.42 30.52,-2.63 29.65,14.15 -0.74,14.18 -18.94,13.3 -29.61,11.9l0.05 -25.94 -16.68 0.26z"/>
  <path class="fil0" d="M182.84 30.68l-16.65 -0.13 -0.01 61.18 16.65 0.04 0 -20.77c13.85,-1.36 44.48,3.95 45.42,-27.16 0.36,-12.2 -5.15,-19.68 -12.52,-23.5 -10.18,-5.28 -21.19,-3.67 -32.94,-3.95l-0.03 14.13c14.59,-0.38 29.84,-2.56 29.07,14.22 -0.62,13.52 -16.68,12.86 -28.96,11.92l-0.03 -25.98z"/>
  <path class="fil0" d="M272.37 67.52c0.23,6.31 -1.38,9.36 -6.03,11.85 -14.04,7.53 -22.14,-8.5 -11.62,-11.52 3.03,-0.87 14.18,-0.64 17.65,-0.33zm-30.46 -16.06c8.26,-4.33 28.51,-10.91 29,5.9 -17.83,0 -40.91,-1.86 -37.65,20.46 2.06,14.11 18.06,17.13 28.62,13.32 6.9,-2.5 4.81,-3.5 9.5,-5.57l0 5.53 16.15 0.16c0.23,-9.48 0.05,-19.15 0.05,-28.65 0.01,-11.44 0.93,-15.13 -6.26,-22.83 -4.82,-5.16 -14.27,-6.47 -22.89,-5.9 -9.81,0.64 -14.22,3.77 -22.15,6.01l5.63 11.57z"/>
  <path class="fil0" d="M305.43 113.59l17.49 0 31.28 -78.8 0 -0.48 -17.28 -0.35c-2.45,7.25 -10.91,29.77 -14.41,35.33l-13.93 -35.25 -17.15 -0.16 15.62 40.05c10.23,25.7 7.14,14.08 -1.62,39.66z"/>
  <path class="fil0" d="M156.34 80.61c-1.84,-2.9 -7.77,-5.99 -10.48,-8.12 -3.93,2.78 -7.04,8.22 -16.57,6.5 -13.93,-2.51 -15.06,-24.54 -2.9,-29.54 10.29,-4.23 16.38,3.42 18.51,4.71 2.78,-1.4 8.75,-5.42 10.62,-7.65 -3.16,-9.37 -21.62,-14.7 -34.73,-10.76 -11.85,3.56 -19.62,13.73 -19.34,28.65 0.45,23.61 22.14,32.81 41.38,26.63 7.17,-2.31 9.63,-5.88 13.51,-10.42z"/>
  <polygon class="fil0" points="72.8,91.72 89.5,91.77 89.58,43.65 72.86,43.64 "/>
  <path class="fil0" d="M78.49 5.48l19 -0.03 3.34 0.15 -0.11 21.88 -22.03 0.05 -0.09 -3.38 -0.11 -18.67zm27.78 -5.48l-33.4 0 -0.01 33.32 33.49 -0.09 -0.08 -33.23z"/>
  <path class="fil1" d="M84.42 11.12l10.61 -0.03 -0.2 11.05 -10.86 0.05 0.45 -11.07zm-5.82 13.03l0.09 3.38 22.03 -0.05 0.11 -21.88 -3.34 -0.15 -19 0.03 0.11 18.67z"/>
  <path class="fil1" d="M272.37 67.52c-3.47,-0.31 -14.62,-0.54 -17.65,0.33 -10.52,3.02 -2.42,19.05 11.62,11.52 4.65,-2.49 6.26,-5.54 6.03,-11.85z"/>
  <polygon class="fil0" points="83.97,22.19 94.83,22.14 95.03,11.09 84.42,11.12 "/>
 </g>
</svg>
