<svg width="512px" height="512px" style="clip-rule:evenodd;fill-rule:evenodd;image-rendering:optimizeQuality;shape-rendering:geometricPrecision;text-rendering:geometricPrecision" version="1.1" viewBox="0 0 160.59 160.62" xmlns="http://www.w3.org/2000/svg">
 <defs>
  <style type="text/css"><![CDATA[
    .str0 {stroke:#FC6800;stroke-width:3.35;stroke-miterlimit:22.9256}
    .fil0 {fill:none}
   ]]></style>
 </defs>
 <path class="fil0 str0" d="m1.68 77.88v5.22c1.19 2.47 0.84 6.97 5.48 12.42 4 4.68 12.85 13.04 17.69 17.98 2.25 2.3 3.26 1.55 7.27 1.55 2.97 0 5.72 0.17 8.51-0.62 5.12-1.46 7.76-4.64 10.48-7.35l17.88-18.1c2.73-2.82 6.18-6.39 12.4-5.27 4.91 0.88 8 4.94 10.46 7.39 3.89 3.9 19.16 19.92 22.63 21.95 4.76 2.79 10.42 2.06 16.05 2.09 4.64 0.01 3.7-0.32 6.15-2.76l9.07-9.07c5.1-5.12 13.12-10.91 13.17-22.9 0.05-11.94-7.83-17.95-12.82-22.95l-8.92-8.92c-1.83-1.83-1.94-3.1-5.72-3.06-9.19 0.07-14.62-1.18-21.37 5.57l-9.07 9.07c-3.04 3.05-5.87 5.87-8.91 8.92-2.44 2.44-5.66 6.81-10.27 7.86-6.5 1.48-9.94-2.46-12.54-5.07l-18-17.99c-8.75-8.75-10.15-8.45-23.2-8.3-2.14 0.03-2.07 0.48-3.13 1.57-5.58 5.75-12.76 12.38-17.89 18.09-1.19 1.32-2.49 3.43-3.4 5.51-1 2.28-1.32 5.62-2 7.17z"/>
 <path class="fil0 str0" d="m82.88 1.68h-5c-1.52 0.67-3.7 0.33-7.8 2.29-1.24 0.59-2.03 1.09-3.11 1.8-3.47 2.26-23.3 22.64-28.32 27.66-1.36 1.36-4.08 3.75-4.99 5.17 14.48 0.64 15.76 3.6 25.61 13.43l14.6 14.61c6.34 6.33 6.57 4.33 16.43-5.55 3.35-3.36 6.48-6.49 9.84-9.85 2.81-2.81 6.54-7.11 10.33-9.35 5.62-3.32 9.25-3.32 16.43-3.34-0.67-1.34-8.19-8.48-9.86-10.16-3.46-3.45-6.69-6.69-10.15-10.15-4.77-4.76-10.12-11.26-16.26-14.19-4.17-2-6.21-1.66-7.75-2.37z"/>
 <path class="fil0 str0" d="m33.65 121.98c0.38 0.82 27.33 28.09 31.17 31.21 9.41 7.64 21.53 7.63 30.79 0.23 0.83-0.67 1.89-1.87 2.62-2.6 0.95-0.95 1.67-1.67 2.61-2.62 4.22-4.21 25.44-25.05 25.94-26.14-14.75 0-17.01-2.93-26.45-12.38-3.3-3.3-6.38-6.38-9.69-9.68-1.7-1.7-8.44-9.09-10.27-9.47-3.32-0.7-4.84 1.9-6.23 3.29l-14.76 14.76c-6.64 6.62-10.77 13.34-25.73 13.4z"/>
</svg>
