<?xml version="1.0" encoding="UTF-8"?>
<!DOCTYPE svg PUBLIC "-//W3C//DTD SVG 1.1//EN" "http://www.w3.org/Graphics/SVG/1.1/DTD/svg11.dtd">
<!-- Creator: CorelDRAW 2021 (64-Bit) -->
<svg xmlns="http://www.w3.org/2000/svg" xml:space="preserve" width="174px" height="38px" version="1.1" style="shape-rendering:geometricPrecision; text-rendering:geometricPrecision; image-rendering:optimizeQuality; fill-rule:evenodd; clip-rule:evenodd"
viewBox="0 0 13.76 3.01"
 xmlns:xlink="http://www.w3.org/1999/xlink"
 xmlns:xodm="http://www.corel.com/coreldraw/odm/2003">
 <defs>
  <style type="text/css">
   <![CDATA[
    .fil0 {fill:#F76700}
   ]]>
  </style>
 </defs>
 <g id="Layer_x0020_1">
  <metadata id="CorelCorpID_0Corel-Layer"/>
  <g id="_2042563125648">
   <path class="fil0" d="M1.72 0.51c0.22,0 0.26,-0.09 0.37,-0.2 0.13,-0.12 0.25,-0.19 0.24,-0.3l-1.33 -0.01c-0.64,0 -0.6,0.56 -0.71,1.12 -0.06,0.25 -0.31,1.34 -0.29,1.5 0.1,0 0.22,-0.14 0.28,-0.22 0.07,-0.09 0.09,-0.23 0.12,-0.37 0.39,-1.88 0.11,-1.74 1.23,-1.73 -0.07,0.11 -0.13,0.09 -0.1,0.2l0.19 0.01z"/>
   <path class="fil0" d="M0.13 2.99c0.28,0.05 0.91,0.01 1.23,0.01 0.38,0 0.61,0.01 0.72,-0.53 0.06,-0.35 0.13,-0.69 0.2,-1.03 0.04,-0.2 0.21,-0.88 0.19,-1.05 -0.1,0.02 -0.22,0.16 -0.28,0.23 -0.08,0.1 -0.09,0.25 -0.12,0.38 -0.39,1.85 -0.11,1.75 -1.23,1.71 0.04,-0.08 0.02,-0.04 0.08,-0.1 0.13,-0.15 -0.23,-0.11 -0.28,-0.1 -0.1,0.02 -0.14,0.09 -0.19,0.14 -0.08,0.07 -0.29,0.25 -0.32,0.34z"/>
   <path class="fil0" d="M8.28 1.13c0.09,-0.04 0.2,-0.05 0.26,0.02 0.08,0.09 -0.04,0.67 -0.18,0.74 -0.34,0.18 -0.36,-0.28 -0.23,-0.57 0.08,-0.2 0.1,-0.16 0.15,-0.19zm-0.57 1.45c0.18,0.09 0.45,0.12 0.64,0.03 0.17,-0.09 0.27,-0.23 0.34,-0.44 0.05,-0.15 0.27,-1.18 0.24,-1.27 -0.03,-0.01 -0.02,-0.02 -0.06,-0.03 -0.14,-0.03 -0.16,0.03 -0.23,0.11 -0.22,-0.25 -0.67,-0.21 -0.85,0.42 -0.11,0.38 -0.05,0.95 0.61,0.69 -0.05,0.46 -0.51,0.27 -0.61,0.26 -0.04,0.07 -0.08,0.13 -0.08,0.23z"/>
   <path class="fil0" d="M10.54 1.85c-0.02,-0.11 0.05,-0.45 0.08,-0.56 0.06,-0.2 0.32,-0.28 0.4,-0.09 0.14,0.33 -0.17,0.98 -0.48,0.65zm0.16 -0.9c-0.12,-0.11 -0.07,-0.08 -0.28,-0.07 -0.07,0.13 -0.23,1.05 -0.27,1.27 -0.08,0.41 -0.16,0.53 0.11,0.48 0.15,-0.02 0.16,-0.42 0.21,-0.56 0.45,0.23 0.74,0.04 0.85,-0.47 0.15,-0.72 -0.36,-0.9 -0.62,-0.65z"/>
   <path class="fil0" d="M11.72 1.88c-0.02,-0.27 0.18,-0.3 0.43,-0.29 -0.02,0.14 -0.02,0.23 -0.13,0.29 -0.13,0.07 -0.2,0.06 -0.3,0zm0.07 -0.63c0.13,-0.04 0.09,-0.19 0.3,-0.16 0.17,0.01 0.15,0.17 0.1,0.29 -0.22,0.03 -0.69,-0.05 -0.77,0.42 -0.08,0.44 0.47,0.46 0.62,0.23l0.05 0.11c0.19,0.02 0.26,0.05 0.3,-0.13 0.02,-0.12 0.04,-0.22 0.06,-0.35 0.04,-0.19 0.14,-0.51 0.02,-0.66 -0.13,-0.18 -0.4,-0.2 -0.63,-0.09 -0.07,0.03 -0.49,0.35 -0.05,0.34z"/>
   <path class="fil0" d="M6.11 1.88c-0.06,-0.27 0.2,-0.29 0.43,-0.29 -0.03,0.17 -0.03,0.23 -0.15,0.29 -0.09,0.04 -0.18,0.07 -0.28,0zm0.09 -0.63c0.07,-0.06 0.13,-0.27 0.39,-0.11 0.06,0.36 -0.12,0.21 -0.39,0.27 -0.47,0.1 -0.52,0.64 -0.23,0.74 0.23,0.09 0.36,-0.05 0.48,-0.12l0.02 0.12 0.25 -0.02c0.08,-0.12 0.1,-0.42 0.13,-0.59 0.04,-0.18 0.11,-0.42 -0.01,-0.56 -0.28,-0.32 -0.96,-0.01 -0.84,0.27l0.2 0z"/>
   <path class="fil0" d="M9.26 1.89c-0.02,-0.29 0.16,-0.3 0.43,-0.3 -0.02,0.17 -0.03,0.24 -0.15,0.29 -0.12,0.06 -0.18,0.06 -0.28,0.01zm0.1 -0.64c0.08,-0.08 0.13,-0.25 0.39,-0.12 0.06,0.38 -0.12,0.22 -0.4,0.28 -0.67,0.15 -0.45,1.13 0.25,0.62l0.04 0.12 0.23 -0.01c0.08,-0.13 0.1,-0.38 0.13,-0.56 0.04,-0.19 0.12,-0.44 0,-0.6 -0.21,-0.27 -0.88,-0.12 -0.87,0.26l0.23 0.01z"/>
   <path class="fil0" d="M12.71 0.9c-0.08,0.2 0.2,1.08 0.11,1.29 -0.16,0.34 -0.36,0.07 -0.38,0.44 0.44,0.15 0.65,-0.41 0.8,-0.71 0.1,-0.17 0.53,-0.9 0.52,-1.03 -0.16,-0.03 -0.1,-0.02 -0.27,-0.01 -0.14,0.17 -0.28,0.62 -0.41,0.74 -0.03,-0.2 -0.03,-0.59 -0.1,-0.74 -0.11,-0.01 -0.19,-0.03 -0.27,0.02z"/>
   <path class="fil0" d="M3.9 1.37c0.06,-0.31 0.45,-0.44 0.41,0l-0.41 0zm0.66 0.22c0.1,-0.15 0.13,-0.65 -0.24,-0.73 -0.69,-0.16 -0.96,0.88 -0.65,1.19 0.2,0.22 0.98,0.13 0.74,-0.21 -0.14,0.02 -0.23,0.13 -0.42,0.1 -0.15,-0.02 -0.2,-0.17 -0.17,-0.34l0.74 -0.01z"/>
   <path class="fil0" d="M1.36 1.73c0.07,0.22 -0.2,0.23 -0.37,0.16l-0.05 -0.15c-0.14,-0.01 -0.36,-0.04 -0.22,0.22 0.06,0.11 0.14,0.14 0.24,0.19l0.03 0.15 0.19 0 0.04 -0.14c0.24,-0.03 0.49,-0.19 0.45,-0.48 -0.03,-0.26 -0.37,-0.26 -0.57,-0.36 -0.01,-0.14 0.03,-0.22 0.16,-0.24 0.17,-0.02 0.18,0.09 0.23,0.18l0.23 0c0.08,-0.2 -0.08,-0.34 -0.25,-0.39l-0.01 -0.14 -0.19 -0.02c-0.11,0.27 -0.08,0.1 -0.28,0.24 -0.19,0.13 -0.33,0.46 0.02,0.62 0.18,0.08 0.28,0.04 0.35,0.16z"/>
   <path class="fil0" d="M5.45 1.72c-0.07,0.09 -0.13,0.25 -0.33,0.2 -0.16,-0.04 -0.16,-0.23 -0.13,-0.41 0.03,-0.15 0.1,-0.32 0.19,-0.38 0.05,-0.04 0.18,-0.05 0.25,-0.01 0.05,0.04 0.05,0.14 0.08,0.21l0.13 0.01c0.23,0.01 0.11,-0.27 0.05,-0.35 -0.22,-0.25 -0.81,-0.22 -0.97,0.4 -0.29,1.08 0.98,0.89 0.95,0.33l-0.22 0z"/>
   <path class="fil0" d="M3.51 1.14c0.03,-0.08 0.07,-0.18 0.07,-0.28 -0.14,0 -0.26,0.04 -0.33,0.13l-0.06 -0.12 -0.23 0.01c-0.05,0.09 -0.28,1.12 -0.25,1.26l0.25 0c0.07,-0.13 0.11,-0.44 0.15,-0.62 0.06,-0.31 0.07,-0.35 0.4,-0.38z"/>
   <path class="fil0" d="M7.85 0.87c-0.14,-0.03 -0.27,0.05 -0.35,0.11l-0.05 -0.11 -0.23 0.01c-0.05,0.11 -0.27,1.14 -0.24,1.24 0.04,0.02 -0.04,0.01 0.06,0.03l0.18 -0.01c0.07,-0.12 0.12,-0.46 0.16,-0.64 0.07,-0.32 0.09,-0.31 0.33,-0.36 0.05,-0.01 0.04,-0.01 0.07,-0.02l0.07 -0.25z"/>
  </g>
 </g>
</svg>
