<?xml version="1.0" encoding="UTF-8"?>
<!DOCTYPE svg PUBLIC "-//W3C//DTD SVG 1.1//EN" "http://www.w3.org/Graphics/SVG/1.1/DTD/svg11.dtd">
<!-- Creator: CorelDRAW 2021 (64-Bit) -->
<svg xmlns="http://www.w3.org/2000/svg" xml:space="preserve" width="194px" height="34px" version="1.1" style="shape-rendering:geometricPrecision; text-rendering:geometricPrecision; image-rendering:optimizeQuality; fill-rule:evenodd; clip-rule:evenodd"
viewBox="0 0 17.18 3.02"
 xmlns:xlink="http://www.w3.org/1999/xlink"
 xmlns:xodm="http://www.corel.com/coreldraw/odm/2003">
 <defs>
  <style type="text/css">
   <![CDATA[
    .fil0 {fill:#1D1D1F}
   ]]>
  </style>
 </defs>
 <g id="Layer_x0020_1">
  <metadata id="CorelCorpID_0Corel-Layer"/>
  <g id="_2621617841712">
   <path class="fil0" d="M1.49 0.29c0,0.38 0.1,0.45 0.28,0.77 0.15,0.26 0.29,0.42 0.29,0.73 0,0.15 -0.05,0.2 -0.08,0.31l-0.03 0c-0.01,-0.1 -0.13,-0.29 -0.17,-0.36 -0.07,-0.12 -0.13,-0.23 -0.2,-0.35 -0.07,-0.13 -0.35,-0.55 -0.36,-0.7 -0.11,0.03 -0.13,0.29 -0.13,0.4 0,0.38 0.57,0.96 0.57,1.28 0,0.37 -0.03,0.21 -0.08,0.42 -0.04,-0.04 -0.04,-0.09 -0.08,-0.15l-0.5 -0.88c-0.21,-0.35 0.02,-0.45 -0.25,-0.36 -0.27,0.1 -0.75,0.37 -0.75,0.64l0 0.13c0,0.16 0.02,0.23 0.2,0.4 0.26,0.27 0.72,0.42 1.21,0.45l0.32 0c0.48,-0.03 0.96,-0.19 1.25,-0.48 0.5,-0.49 -0.08,-1.02 -0.71,-1.17 0,-0.24 -0.36,-0.78 -0.49,-1.01 -0.05,-0.09 -0.16,-0.24 -0.16,-0.36 -0.09,0.02 -0.13,0.2 -0.13,0.29z"/>
   <path class="fil0" d="M13.34 2.25c0,-0.29 0.03,-0.61 0.46,-0.61 0.11,0 0.14,0.02 0.25,0.02l0 0.94c-0.12,0.02 -0.17,0.09 -0.35,0.09 -0.23,0 -0.36,-0.21 -0.36,-0.44zm0.71 -1.39l0 0.5c-0.31,-0.08 -0.66,-0.01 -0.88,0.21 -0.35,0.35 -0.26,1.41 0.48,1.41 0.26,0 0.38,-0.19 0.42,-0.21l0 0.17 0.32 0 0 -2.12 -0.34 0.04z"/>
   <path class="fil0" d="M3.78 1.34c0,0.18 0.02,0.29 0.16,0.43 0.09,0.1 0.17,0.14 0.3,0.19 0.06,0.03 0.11,0.05 0.18,0.08 0.07,0.03 0.1,0.05 0.16,0.08 0.42,0.23 0.2,0.68 -0.5,0.51 -0.09,-0.02 -0.17,-0.05 -0.26,-0.07 -0.04,0.07 -0.06,0.16 -0.06,0.26 0,0.17 1.37,0.38 1.37,-0.4 0,-0.32 -0.13,-0.48 -0.44,-0.62 -0.29,-0.13 -0.57,-0.17 -0.57,-0.46 0,-0.4 0.78,-0.16 0.88,-0.16 0,-0.12 0.04,-0.15 0.04,-0.3 -0.33,-0.08 -0.27,-0.08 -0.61,-0.08 -0.35,0 -0.65,0.19 -0.65,0.54z"/>
   <path class="fil0" d="M10 2.18c0,-0.16 0.05,-0.3 0.11,-0.39 0.13,-0.17 0.35,-0.15 0.54,-0.15 0.04,0 0.06,0.01 0.06,0.06l0 0.86c0,0.11 -0.71,0.36 -0.71,-0.38zm-0.34 -0.02c0,0.82 0.69,0.95 1,0.7 0.06,-0.05 0.03,-0.05 0.09,-0.09 0,0.2 -0.06,0.17 0.32,0.17l0 -1.53c-0.23,-0.02 -0.1,-0.07 -0.69,-0.07 -0.43,0 -0.72,0.34 -0.72,0.82z"/>
   <path class="fil0" d="M5.69 2.31c0,-0.56 0.09,-0.67 0.65,-0.67 0.04,0 0.05,0.01 0.05,0.06l0 0.84c0,0.11 -0.4,0.25 -0.59,0.04 -0.05,-0.05 -0.11,-0.18 -0.11,-0.27zm-0.37 -0.19c0,0.33 0.08,0.64 0.37,0.78 0.19,0.1 0.46,0.1 0.62,-0.04 0.06,-0.05 0.04,-0.06 0.1,-0.07l0 0.15c0.22,0 0.33,0.03 0.33,-0.06l0 -1.41c0,-0.14 -0.55,-0.13 -0.67,-0.13 -0.45,0 -0.75,0.34 -0.75,0.78z"/>
   <path class="fil0" d="M15.36 1.62c0.22,0 0.35,0.16 0.35,0.38l-0.71 0c0,-0.16 0.06,-0.3 0.21,-0.35 0.02,0 0.13,-0.03 0.15,-0.03zm-0.7 0.36c0,0.21 -0.02,0.39 0.06,0.57 0.21,0.47 0.83,0.47 1.17,0.34 0.08,-0.03 0.06,-0.03 0.08,-0.13 0.02,-0.07 0.02,-0.11 0.02,-0.2 -0.28,0.14 -0.99,0.24 -0.99,-0.27l1.03 0c0.09,-0.39 -0.04,-0.95 -0.61,-0.95 -0.24,0 -0.4,0.01 -0.57,0.19 -0.1,0.1 -0.19,0.26 -0.19,0.45z"/>
   <path class="fil0" d="M11.41 1.41l0 1.53 0.33 0 0 -1.28c0.18,-0.01 0.53,-0.08 0.62,0.12 0.05,0.1 0.03,0.82 0.03,1.01 -0.01,0.18 -0.04,0.15 0.3,0.15 0.05,0 0.06,-0.01 0.06,-0.06 0,-0.33 0.03,-0.91 -0.04,-1.18 -0.11,-0.4 -0.69,-0.39 -1.04,-0.34 -0.09,0.02 -0.17,0.05 -0.26,0.05z"/>
   <path class="fil0" d="M7.08 1.41l0 1.53c0.43,0 0.34,0.11 0.34,-0.61 0,-0.22 0,-0.45 0,-0.67 0.76,-0.06 0.65,-0.03 0.65,1.28l0.33 0 0 -1.09c0,-0.55 -0.66,-0.56 -1.06,-0.48 -0.09,0.01 -0.18,0.04 -0.26,0.04z"/>
   <path class="fil0" d="M8.72 0.92l0 1.58c0,0.51 0.55,0.54 0.8,0.42 0.02,-0.09 0.04,-0.17 0.04,-0.29 -0.09,0.05 -0.49,0.13 -0.49,-0.19l0 -0.76 0.49 0 0.02 -0.29 -0.51 0 0 -0.57c-0.1,0 -0.35,0 -0.35,0.1z"/>
   <path class="fil0" d="M16.34 1.41l0 1.53 0.32 0 0 -1.3 0.5 0c0,-0.09 0.02,-0.16 0.02,-0.28 -0.25,-0.03 -0.35,-0.05 -0.62,0 -0.09,0.02 -0.15,0.05 -0.22,0.05z"/>
  </g>
 </g>
</svg>
