<?xml version="1.0" encoding="UTF-8"?>
<!DOCTYPE svg PUBLIC "-//W3C//DTD SVG 1.1//EN" "http://www.w3.org/Graphics/SVG/1.1/DTD/svg11.dtd">
<!-- Creator: CorelDRAW 2021 (64-Bit) -->
<svg xmlns="http://www.w3.org/2000/svg" xml:space="preserve" width="116px" height="34px" version="1.1" style="shape-rendering:geometricPrecision; text-rendering:geometricPrecision; image-rendering:optimizeQuality; fill-rule:evenodd; clip-rule:evenodd"
viewBox="0 0 6.2 1.82"
 xmlns:xlink="http://www.w3.org/1999/xlink"
 xmlns:xodm="http://www.corel.com/coreldraw/odm/2003">
 <defs>
  <style type="text/css">
   <![CDATA[
    .fil0 {fill:#F76700}
    .fil1 {fill:#FFFFFE}
    .fil2 {fill:#F76700;fill-rule:nonzero}
   ]]>
  </style>
 </defs>
 <g id="Layer_x0020_1">
  <metadata id="CorelCorpID_0Corel-Layer"/>
  <path class="fil0" d="M1.61 1.01c-0.07,0.47 -0.6,0.8 -1.12,0.47 -0.1,-0.07 -0.21,-0.22 -0.26,-0.35 -0.06,-0.2 -0.03,-0.42 0.08,-0.59 0.2,-0.33 0.62,-0.44 0.97,-0.24 0.23,0.14 0.37,0.42 0.33,0.71zm0.2 -0.04c0.04,-0.49 -0.33,-0.93 -0.84,-0.97 -0.86,-0.07 -1.34,1.05 -0.61,1.63 0.53,0.43 1.4,0.09 1.45,-0.66l0 0z"/>
  <path class="fil0" d="M0.37 0.97c0.04,0.28 0.29,0.51 0.6,0.47 0.27,-0.03 0.5,-0.26 0.47,-0.6 -0.02,-0.27 -0.29,-0.51 -0.6,-0.46 -0.31,0.04 -0.5,0.32 -0.47,0.59z"/>
  <path class="fil1" d="M0.37 0.97c-0.03,-0.27 0.16,-0.55 0.47,-0.59 0.31,-0.05 0.58,0.19 0.6,0.46 0.03,0.34 -0.2,0.57 -0.47,0.6 -0.31,0.04 -0.56,-0.19 -0.6,-0.47zm1.24 0.04c0.04,-0.29 -0.1,-0.57 -0.33,-0.71 -0.35,-0.2 -0.77,-0.09 -0.97,0.24 -0.11,0.17 -0.14,0.39 -0.08,0.59 0.05,0.13 0.16,0.28 0.26,0.35 0.52,0.33 1.05,0 1.12,-0.47z"/>
  <path class="fil2" d="M2.52 1.44c-0.08,0 -0.15,-0.01 -0.21,-0.03 -0.07,-0.02 -0.13,-0.04 -0.17,-0.08l0.08 -0.16c0.04,0.03 0.08,0.05 0.13,0.07 0.06,0.02 0.12,0.03 0.17,0.03 0.05,0 0.08,-0.01 0.1,-0.02 0.03,0 0.05,-0.01 0.06,-0.03 0.02,-0.02 0.02,-0.03 0.02,-0.05 0,-0.03 -0.01,-0.05 -0.03,-0.06 -0.02,-0.01 -0.04,-0.03 -0.07,-0.04 -0.04,-0.01 -0.07,-0.01 -0.11,-0.02 -0.04,-0.01 -0.08,-0.02 -0.12,-0.04 -0.04,-0.01 -0.07,-0.02 -0.1,-0.04 -0.04,-0.02 -0.06,-0.05 -0.08,-0.08 -0.02,-0.03 -0.03,-0.07 -0.03,-0.12 0,-0.06 0.02,-0.11 0.04,-0.15 0.03,-0.05 0.07,-0.08 0.13,-0.1 0.06,-0.03 0.13,-0.04 0.22,-0.04 0.06,0 0.12,0 0.18,0.02 0.05,0.01 0.1,0.03 0.15,0.06l-0.07 0.16c-0.04,-0.02 -0.09,-0.04 -0.13,-0.05 -0.04,-0.01 -0.09,-0.02 -0.13,-0.02 -0.04,0 -0.07,0.01 -0.1,0.01 -0.03,0.01 -0.05,0.03 -0.06,0.04 -0.01,0.02 -0.02,0.04 -0.02,0.05 0,0.03 0.01,0.05 0.03,0.06 0.02,0.02 0.05,0.03 0.08,0.04 0.03,0.01 0.07,0.02 0.11,0.03 0.03,0 0.08,0.01 0.11,0.03 0.04,0.01 0.08,0.02 0.11,0.04 0.03,0.02 0.06,0.05 0.08,0.08 0.02,0.03 0.03,0.07 0.03,0.12 0,0.05 -0.02,0.1 -0.05,0.14 -0.03,0.05 -0.07,0.08 -0.13,0.11 -0.06,0.03 -0.13,0.04 -0.22,0.04l0 0zm0.87 0c-0.07,0 -0.14,-0.02 -0.2,-0.05 -0.06,-0.03 -0.11,-0.08 -0.14,-0.13 -0.03,-0.06 -0.05,-0.12 -0.05,-0.2 0,-0.07 0.02,-0.13 0.05,-0.18 0.03,-0.06 0.08,-0.1 0.14,-0.13 0.06,-0.04 0.13,-0.05 0.2,-0.05 0.08,0 0.15,0.01 0.21,0.05 0.05,0.03 0.1,0.07 0.13,0.13 0.04,0.05 0.05,0.11 0.05,0.18 0,0.08 -0.01,0.14 -0.05,0.2 -0.03,0.05 -0.08,0.1 -0.13,0.13 -0.06,0.03 -0.13,0.05 -0.21,0.05zm0 -0.17c0.03,0 0.07,-0.01 0.1,-0.03 0.02,-0.01 0.05,-0.04 0.06,-0.07 0.02,-0.03 0.02,-0.06 0.02,-0.11 0,-0.04 0,-0.07 -0.02,-0.1 -0.01,-0.03 -0.04,-0.05 -0.06,-0.07 -0.03,-0.01 -0.07,-0.02 -0.1,-0.02 -0.03,0 -0.06,0.01 -0.09,0.02 -0.03,0.02 -0.05,0.04 -0.07,0.07 -0.01,0.03 -0.02,0.06 -0.02,0.1 0,0.05 0.01,0.08 0.02,0.11 0.02,0.03 0.04,0.06 0.07,0.07 0.03,0.02 0.06,0.03 0.09,0.03zm0.56 0.15l0 -0.73c0,-0.08 0.02,-0.14 0.07,-0.19 0.05,-0.05 0.12,-0.07 0.21,-0.07 0.03,0 0.06,0 0.08,0 0.03,0.01 0.06,0.02 0.08,0.03l-0.06 0.15c-0.01,0 -0.02,-0.01 -0.04,-0.01 -0.01,-0.01 -0.02,-0.01 -0.04,-0.01 -0.03,0 -0.06,0.01 -0.07,0.02 -0.02,0.02 -0.03,0.05 -0.03,0.08l0 0.07 0.01 0.09 0 0.57 -0.21 0 0 0zm-0.11 -0.54l0 -0.16 0.5 0 0 0.16 -0.5 0zm0.61 0.54l0 -0.71 0.21 0 0 0.71 -0.21 0zm0.11 -0.81c-0.04,0 -0.07,-0.01 -0.1,-0.04 -0.02,-0.02 -0.03,-0.05 -0.03,-0.08 0,-0.03 0.01,-0.06 0.03,-0.08 0.03,-0.02 0.06,-0.03 0.1,-0.03 0.04,0 0.07,0.01 0.09,0.03 0.02,0.02 0.04,0.04 0.04,0.08 0,0.03 -0.02,0.06 -0.04,0.08 -0.02,0.03 -0.05,0.04 -0.09,0.04zm0.54 0.83c-0.07,0 -0.12,-0.01 -0.18,-0.03 -0.06,-0.01 -0.1,-0.03 -0.13,-0.05l0.06 -0.15c0.04,0.02 0.08,0.03 0.12,0.05 0.05,0.01 0.09,0.02 0.14,0.02 0.04,0 0.08,-0.01 0.09,-0.02 0.03,-0.01 0.04,-0.02 0.04,-0.05 0,-0.02 -0.01,-0.03 -0.03,-0.03 -0.01,-0.01 -0.03,-0.02 -0.06,-0.03 -0.03,0 -0.05,0 -0.08,-0.01 -0.04,0 -0.07,-0.01 -0.09,-0.02 -0.04,0 -0.07,-0.02 -0.09,-0.03 -0.03,-0.02 -0.05,-0.03 -0.06,-0.06 -0.02,-0.03 -0.03,-0.06 -0.03,-0.1 0,-0.05 0.01,-0.09 0.04,-0.12 0.03,-0.04 0.07,-0.06 0.12,-0.08 0.05,-0.03 0.11,-0.03 0.17,-0.03 0.05,0 0.1,0 0.16,0.01 0.05,0.01 0.09,0.03 0.12,0.05l-0.07 0.15c-0.03,-0.02 -0.07,-0.04 -0.1,-0.04 -0.04,-0.01 -0.07,-0.02 -0.11,-0.02 -0.04,0 -0.07,0.01 -0.1,0.02 -0.02,0.01 -0.03,0.03 -0.03,0.05 0,0.02 0.01,0.03 0.03,0.04 0.01,0.01 0.03,0.02 0.06,0.02 0.03,0.01 0.05,0.01 0.08,0.02 0.03,0 0.06,0.01 0.09,0.01 0.03,0.01 0.06,0.02 0.09,0.04 0.03,0.01 0.04,0.03 0.06,0.06 0.02,0.02 0.02,0.06 0.02,0.1 0,0.04 -0.01,0.08 -0.04,0.11 -0.02,0.04 -0.06,0.07 -0.11,0.09 -0.05,0.01 -0.11,0.03 -0.18,0.03l0 0zm0.91 -0.02l0 -0.14 -0.02 -0.03 0 -0.25c0,-0.04 -0.01,-0.08 -0.04,-0.1 -0.03,-0.02 -0.07,-0.04 -0.12,-0.04 -0.05,0 -0.08,0.01 -0.12,0.02 -0.03,0.01 -0.06,0.03 -0.09,0.05l-0.08 -0.15c0.04,-0.03 0.09,-0.04 0.15,-0.06 0.05,-0.02 0.11,-0.02 0.16,-0.02 0.11,0 0.2,0.02 0.26,0.07 0.06,0.06 0.09,0.14 0.09,0.24l0 0.41 -0.19 0 0 0zm-0.23 0.02c-0.05,0 -0.1,-0.01 -0.14,-0.03 -0.04,-0.02 -0.07,-0.05 -0.09,-0.08 -0.02,-0.03 -0.03,-0.07 -0.03,-0.11 0,-0.04 0.01,-0.08 0.03,-0.12 0.02,-0.03 0.05,-0.05 0.1,-0.07 0.04,-0.02 0.1,-0.03 0.18,-0.03l0.18 0 0 0.12 -0.16 0c-0.05,0 -0.08,0.01 -0.1,0.03 -0.02,0.01 -0.03,0.04 -0.03,0.06 0,0.03 0.01,0.05 0.03,0.06 0.02,0.02 0.05,0.02 0.09,0.02 0.03,0 0.06,0 0.09,-0.02 0.03,-0.02 0.05,-0.04 0.06,-0.07l0.03 0.09c-0.01,0.05 -0.04,0.08 -0.08,0.11 -0.04,0.02 -0.09,0.04 -0.16,0.04l0 0z"/>
 </g>
</svg>
