<?xml version="1.0" encoding="UTF-8"?>
<!DOCTYPE svg PUBLIC "-//W3C//DTD SVG 1.1//EN" "http://www.w3.org/Graphics/SVG/1.1/DTD/svg11.dtd">
<!-- Creator: CorelDRAW 2019 (64 Bit) -->
<svg xmlns="http://www.w3.org/2000/svg" xml:space="preserve" width="40px" height="40px" version="1.1" style="shape-rendering:geometricPrecision; text-rendering:geometricPrecision; image-rendering:optimizeQuality; fill-rule:evenodd; clip-rule:evenodd"
viewBox="0 0 38.98 38.96"
 xmlns:xlink="http://www.w3.org/1999/xlink">
 <defs>
  <style type="text/css">
   <![CDATA[
    .fil2 {fill:#1F92F0}
    .fil0 {fill:#49AA4D}
    .fil1 {fill:#F14135}
    .fil3 {fill:#FFBE04}
   ]]>
  </style>
 </defs>
 <g id="Camada_x0020_1">
  <metadata id="CorelCorpID_0Corel-Layer"/>
  <g id="_931130560">
   <path class="fil0" d="M2.04 28.18l0.37 0.77c0.03,0.04 0.14,0.21 0.19,0.29 0.13,0.24 0.08,0.08 0.1,0.3 0.2,0.14 0.23,0.24 0.34,0.46 0.1,0.13 0.18,0.27 0.3,0.45 0.06,0.08 0.13,0.15 0.18,0.24 0.13,0.2 0.06,0.06 0.1,0.22l2.1 2.39c0.72,0.72 1.62,1.44 2.41,2.05 0.21,0.15 0.71,0.44 0.81,0.59 0.17,0.07 0.17,0.06 0.33,0.16 0,0 0.11,0.08 0.12,0.09 0.07,0.06 0.07,0.06 0.12,0.12 0.16,0.02 0.41,0.13 0.48,0.25 0.4,0.15 0.72,0.37 1.13,0.54 0.32,0.15 0.79,0.32 1.09,0.5l0.96 0.34 2.29 0.68 0.83 0.1c1.89,0.23 3.41,0.33 5.34,0.14l0.77 -0.04c0.28,-0.19 0.99,-0.25 1.38,-0.3 0.24,-0.09 0.4,-0.14 0.66,-0.12 0.11,-0.09 2.2,-0.79 2.48,-0.87 0.14,-0.1 0.32,-0.17 0.5,-0.18 0.16,-0.15 0.39,-0.22 0.6,-0.34 1.58,-0.9 2.6,-1.36 4.06,-2.63 0.15,-0.18 0.02,-0.1 0.24,-0.15 0.21,-0.32 0.53,-0.64 0.86,-0.8 0.03,-0.1 -0.04,-0.02 0.09,-0.16 0.13,-0.14 0.06,-0.06 0.15,-0.09 0.12,-0.24 0.21,-0.25 0.33,-0.47 -0.97,-0.75 -1.96,-1.4 -2.93,-2.12 -0.49,-0.37 -1,-0.73 -1.5,-1.08 -0.46,-0.32 -1.04,-0.81 -1.45,-1.03 -0.27,0.2 -0.43,0.36 -0.69,0.58 -0.27,0.22 -0.49,0.36 -0.78,0.56 -0.43,0.29 -1.15,0.76 -1.71,0.96l-0.95 0.42c-0.66,0.24 -1.41,0.46 -2.17,0.57 -0.3,0.07 -0.63,0.13 -0.94,0.08 -0.23,0.16 -0.82,0.1 -1.15,0.11l-0.99 -0.05c-1.79,-0.13 -3.29,-0.64 -4.83,-1.4l-0.55 -0.39c-0.25,-0.05 -0.73,-0.34 -0.82,-0.55 -0.26,-0.13 -0.49,-0.29 -0.64,-0.48 -0.15,-0.07 0,0.01 -0.16,-0.11 -0.01,0 -0.1,-0.08 -0.11,-0.09 -0.14,-0.13 -0.1,-0.07 -0.2,-0.21 -0.26,-0.14 -0.5,-0.38 -0.65,-0.64l-0.41 -0.46c-0.18,-0.14 -0.38,-0.38 -0.46,-0.63 -0.15,-0.07 -0.21,-0.19 -0.32,-0.35 -0.07,-0.09 -0.1,-0.12 -0.14,-0.21 -0.13,-0.25 -0.05,-0.03 -0.08,-0.25 -0.38,-0.25 -0.84,-1.38 -1.02,-1.87l-4.56 3.11c-0.3,0.21 -1.22,0.88 -1.5,1z"/>
   <path class="fil1" d="M17.39 0.1l-0.97 0.13 -1.16 0.21c-0.3,0.08 -0.61,0.19 -0.91,0.18 -0.11,0.1 -2.01,0.73 -2.27,0.8 -0.16,0.15 -0.44,0.23 -0.65,0.24 -0.21,0.27 -1.42,0.78 -1.76,0.97 -0.3,0.17 -0.58,0.35 -0.86,0.53 -0.32,0.21 -0.53,0.42 -0.85,0.57l-0.08 0.02c-0.12,0.21 -0.79,0.72 -1,0.8 -0.02,0.03 -0.02,0.09 -0.13,0.18 -0.14,0.12 -0.04,0.05 -0.16,0.09 -0.19,0.27 -0.43,0.41 -0.7,0.67l-0.4 0.41c-0.27,0.26 -0.4,0.51 -0.67,0.69 -0.06,0.17 0.03,0.05 -0.13,0.2 -0.1,0.1 -0.12,0.08 -0.15,0.09 -0.08,0.21 -0.58,0.89 -0.8,1l-0.02 0.09c-0.15,0.33 -0.46,0.67 -0.67,1.01 -0.19,0.33 -0.47,0.7 -0.61,1.07l5.89 4.26 0.03 0c0.39,-1.14 1.81,-2.9 2.43,-3.51 0.62,-0.62 2.38,-2.04 3.52,-2.43 0.22,-0.13 0.55,-0.31 0.83,-0.31 0.33,-0.31 1.91,-0.62 2.31,-0.67l0.98 -0.14c0.48,-0.03 1.67,-0.17 2,0.05l0.09 -0.05 1.11 0.15 0.95 0.21c0.83,0.2 3.01,0.99 3.37,1.51 0.22,0.02 -0.01,-0.06 0.25,0.08 0.07,0.04 0.11,0.08 0.2,0.14 0.17,0.11 0.27,0.16 0.35,0.31 0.24,0.09 0.48,0.29 0.63,0.47l0.46 0.42c0.51,0.29 0.61,-0.04 1.43,-0.86l2.62 -2.61c1.56,-1.56 1.61,-1.19 0.21,-2.45 -0.36,-0.32 -0.83,-0.64 -1.21,-0.95 -0.29,-0.22 -0.64,-0.41 -0.9,-0.62 -0.21,-0.11 -0.35,-0.18 -0.46,-0.34 -0.19,-0.03 -0.37,-0.11 -0.5,-0.27l-2.31 -1.12c-0.26,-0.01 -0.61,-0.15 -0.83,-0.28l-2.47 -0.7c-0.28,0.02 -0.44,-0.02 -0.73,-0.1 -1.88,-0.22 -3.38,-0.34 -5.3,-0.14z"/>
   <path class="fil2" d="M19.59 15.88c-0.07,0.16 -0.11,0.27 -0.11,0.52l0 0.99 0 1.1 0 0.99 0 1.11 0 0.98 0 1.11 -0.03 0.22c0.43,0.29 0.55,0.19 1.13,0.19l0.99 0 1.1 0 0.99 0 1.11 0 0.99 0 1.1 0 0.99 0 1.1 0 0.99 0 1.27 0 -0.21 0.64 -0.43 0.97c-0.61,1.76 -2.59,3.59 -2.7,3.78 0.41,0.22 0.99,0.71 1.45,1.03 0.5,0.35 1.01,0.71 1.5,1.08 0.97,0.72 1.96,1.37 2.93,2.12 0.08,-0.06 0.13,-0.09 0.23,-0.18 0.16,-0.14 0.06,-0.09 0.24,-0.21 0.05,-0.22 -0.03,-0.09 0.15,-0.24 0.98,-1.16 1.92,-2.6 2.62,-4.01 0.06,-0.11 0.1,-0.21 0.16,-0.33 0.01,-0.04 0.04,-0.11 0.07,-0.15l0.13 -0.17c0,-0.2 0.07,-0.35 0.18,-0.52l0.85 -2.43c-0.02,-0.23 0.06,-0.47 0.13,-0.71 0.03,-0.22 0.09,-0.44 0.13,-0.66 0.02,-0.13 0.03,-0.24 0.06,-0.36 0.05,-0.25 0,-0.17 0.11,-0.34 -0.04,-0.27 0.02,-0.49 0.05,-0.77 0.18,-1.69 0.11,-3.56 0.11,-5.29l-0.1 -0.43 -0.5 -0.04 -1.11 0 -0.99 0.01 -1.1 0 -0.99 0 -1.1 0 -0.99 0 -1.1 0 -0.99 0 -1.11 0 -0.98 0 -1.11 0 -0.99 0 -1.1 0 -0.99 0 -1.1 0 -0.99 0 -1.11 0 -0.93 0z"/>
   <path class="fil3" d="M1.66 11.44c-0.01,0.2 -0.12,0.5 -0.25,0.65 -0.06,0.27 -0.69,2.15 -0.8,2.27 0.02,0.3 -0.09,0.6 -0.17,0.92l-0.21 1.14 -0.13 0.97c-0.2,1.92 -0.08,3.43 0.14,5.3 0.07,0.26 0.14,0.57 0.11,0.81l0.69 2.39c0.13,0.21 0.28,0.58 0.28,0.82l0.72 1.47c0.28,-0.12 1.2,-0.79 1.5,-1l4.56 -3.11 -0.49 -1.48 -0.21 -0.96 -0.15 -1.1 0.04 -0.1c-0.2,-0.33 -0.07,-1.53 -0.04,-1.99l0.13 -0.98c0.05,-0.37 0.37,-1.99 0.68,-2.32 0,-0.3 0.18,-0.52 0.27,-0.83l-5.89 -4.26c-0.29,0.36 -0.4,1.08 -0.78,1.39z"/>
  </g>
 </g>
</svg>
