<?xml version="1.0" encoding="UTF-8"?>
<!DOCTYPE svg PUBLIC "-//W3C//DTD SVG 1.1//EN" "http://www.w3.org/Graphics/SVG/1.1/DTD/svg11.dtd">
<!-- Creator: CorelDRAW -->
<svg xmlns="http://www.w3.org/2000/svg" xml:space="preserve" width="96px" height="96px" version="1.1" style="shape-rendering:geometricPrecision; text-rendering:geometricPrecision; image-rendering:optimizeQuality; fill-rule:evenodd; clip-rule:evenodd"
viewBox="0 0 11.52 11.52"
 xmlns:xlink="http://www.w3.org/1999/xlink"
 xmlns:xodm="http://www.corel.com/coreldraw/odm/2003">
 <defs>
  <style type="text/css">
   <![CDATA[
    .fil0 {fill:#F76700;fill-rule:nonzero}
   ]]>
  </style>
 </defs>
 <g id="Camada_x0020_1">
  <metadata id="CorelCorpID_0Corel-Layer"/>
  <path class="fil0" d="M1.13 0l9.26 0c0.31,0 0.59,0.16 0.8,0.42 0.2,0.26 0.33,0.62 0.33,1.02l0 8.64c0,0.4 -0.13,0.76 -0.33,1.02 -0.21,0.26 -0.49,0.42 -0.8,0.42l0 0 -2 0c-0.02,0 -0.04,0 -0.06,0l0 0 -6.58 0 0 0 0 0 -0.62 0c-0.31,0 -0.59,-0.16 -0.8,-0.42 -0.2,-0.26 -0.33,-0.62 -0.33,-1.02l0 0 0 -0.79 0 0c0,-0.02 0,-0.05 0,-0.07l0 -1.68c0,-0.03 0,-0.05 0,-0.08l0 0 0 -0.78 0 0c0,-0.03 0,-0.06 0,-0.08l0 -1.68c0,-0.02 0,-0.05 0,-0.08l0 0 0 -2.54c0,-0.02 0,-0.05 0,-0.07l0 0 0 -0.79c0,-0.4 0.13,-0.76 0.33,-1.02 0.21,-0.26 0.49,-0.42 0.8,-0.42zm9.26 1.05l-0.62 0c-0.08,0 -0.16,0.04 -0.22,0.11 -0.05,0.07 -0.09,0.17 -0.09,0.28l0 0.79c0,0.1 0.04,0.2 0.09,0.27 0.06,0.07 0.14,0.12 0.22,0.12l0.62 0c0.08,0 0.16,-0.05 0.22,-0.12 0.05,-0.07 0.09,-0.17 0.09,-0.27l0 -0.79c0,-0.11 -0.04,-0.21 -0.09,-0.28 -0.06,-0.07 -0.14,-0.11 -0.22,-0.11zm-2.06 0l-5.14 0c-0.09,0 -0.16,0.04 -0.22,0.11 -0.05,0.07 -0.08,0.15 -0.09,0.24 0,0.02 0,0.03 0,0.04l0 0 0 0.79 0 0c0,0.02 0,0.05 0,0.07l0 1.68c0,0.03 0,0.05 0,0.08l0 0 0 0.78 0 0c0,0.11 0.03,0.21 0.09,0.28 0.06,0.07 0.13,0.12 0.22,0.12l5.14 0c0.09,0 0.16,-0.05 0.22,-0.12 0.05,-0.06 0.08,-0.15 0.09,-0.24 0,-0.01 0,-0.02 0,-0.04l0 -0.78c0,-0.03 0,-0.05 0,-0.08l0 -1.68c0,-0.02 0,-0.05 0,-0.07l0 -0.79c0,-0.11 -0.03,-0.21 -0.09,-0.28 -0.06,-0.07 -0.13,-0.11 -0.22,-0.11zm-6.58 0l-0.62 0c-0.08,0 -0.16,0.04 -0.22,0.11 -0.05,0.07 -0.09,0.17 -0.09,0.28l0 0.79 0 0c0,0.1 0.04,0.2 0.09,0.27 0.06,0.07 0.14,0.12 0.22,0.12l0.62 0 0 0c0.08,0 0.16,-0.04 0.22,-0.12 0.05,-0.07 0.09,-0.17 0.09,-0.27l0 0 0 -0.79 0 0c0,-0.11 -0.04,-0.21 -0.09,-0.28 -0.06,-0.07 -0.14,-0.11 -0.22,-0.11zm8.95 9.03l0 -0.83c-0.01,-0.09 -0.04,-0.17 -0.09,-0.23 -0.06,-0.07 -0.14,-0.12 -0.22,-0.12l-0.62 0c-0.08,0 -0.16,0.05 -0.22,0.12 -0.05,0.07 -0.09,0.17 -0.09,0.27l0 0.79c0,0.11 0.04,0.21 0.09,0.28 0.06,0.07 0.14,0.11 0.22,0.11l0.62 0 0 0c0.08,0 0.16,-0.04 0.22,-0.11 0.05,-0.07 0.09,-0.17 0.09,-0.28zm0 -2.62l0 -0.78c0,-0.11 -0.04,-0.21 -0.09,-0.28 -0.06,-0.07 -0.14,-0.12 -0.22,-0.12l-0.62 0c-0.08,0 -0.16,0.05 -0.22,0.12 -0.05,0.07 -0.09,0.17 -0.09,0.28l0 0.78c0,0.11 0.04,0.21 0.09,0.28 0.05,0.06 0.12,0.11 0.19,0.11 0.01,0 0.02,0 0.03,0l0.62 0c0.08,0 0.16,-0.04 0.22,-0.11 0.05,-0.07 0.09,-0.17 0.09,-0.28zm0 -2.62l0 -0.78c0,-0.11 -0.04,-0.21 -0.09,-0.28 -0.05,-0.06 -0.12,-0.11 -0.19,-0.11 -0.01,0 -0.02,0 -0.03,0l-0.62 0c-0.08,0 -0.16,0.04 -0.22,0.11 -0.05,0.07 -0.09,0.17 -0.09,0.28l0 0.78c0,0.11 0.04,0.21 0.09,0.28 0.06,0.07 0.14,0.12 0.22,0.12l0.62 0c0.08,0 0.16,-0.05 0.22,-0.12 0.05,-0.07 0.09,-0.17 0.09,-0.28zm-7.51 5.63l5.14 0 0 0c0.09,0 0.16,-0.04 0.22,-0.11 0.05,-0.07 0.08,-0.15 0.09,-0.24 0,-0.02 0,-0.03 0,-0.04l0 -0.79c0,-0.02 0,-0.05 0,-0.07l0 -1.68c0,-0.03 0,-0.05 0,-0.08l0 -0.78c0,-0.11 -0.03,-0.21 -0.09,-0.28 -0.06,-0.07 -0.13,-0.12 -0.22,-0.12l-5.14 0c-0.09,0 -0.16,0.05 -0.22,0.12 -0.05,0.06 -0.08,0.15 -0.09,0.24 0,0.01 0,0.02 0,0.04l0 0 0 0.78 0 0c0,0.03 0,0.05 0,0.08l0 1.75 0 0 0 0 0 0.79 0 0c0,0.11 0.03,0.21 0.09,0.28 0.06,0.07 0.13,0.11 0.22,0.11zm-2.28 -0.11c0.06,0.07 0.14,0.11 0.22,0.11l0.62 0 0 0 0 0c0.08,0 0.16,-0.04 0.22,-0.11 0.05,-0.07 0.09,-0.17 0.09,-0.28l0 0 0 -0.79 0 0 0 0c0,-0.1 -0.04,-0.2 -0.09,-0.27 -0.06,-0.07 -0.14,-0.12 -0.22,-0.12l-0.62 0c-0.08,0 -0.16,0.05 -0.22,0.12 -0.05,0.07 -0.09,0.17 -0.09,0.27l0 0 0 0.79 0 0c0,0.11 0.04,0.21 0.09,0.28zm-0.09 -6.3l0 0.78 0 0c0,0.11 0.04,0.21 0.09,0.28 0.06,0.07 0.14,0.12 0.22,0.12l0.62 0c0.01,0 0.02,0 0.03,0 0.07,-0.01 0.14,-0.05 0.19,-0.12 0.05,-0.07 0.09,-0.17 0.09,-0.28l0 0 0 -0.78 0 0c0,-0.11 -0.04,-0.21 -0.09,-0.28 -0.06,-0.07 -0.14,-0.12 -0.22,-0.12l0 0.01 -0.62 0c-0.08,0 -0.16,0.04 -0.22,0.11 -0.05,0.07 -0.09,0.17 -0.09,0.28zm0 2.62l0 0.78 0 0c0,0.11 0.04,0.21 0.09,0.28 0.05,0.06 0.12,0.11 0.19,0.11 0.01,0 0.02,0 0.03,0l0.62 0c0.01,0 0.02,0 0.03,0 0.07,0 0.14,-0.05 0.19,-0.11 0.05,-0.07 0.09,-0.17 0.09,-0.28l0 0 0 -0.78 0 0c0,-0.11 -0.04,-0.21 -0.09,-0.28 -0.06,-0.07 -0.14,-0.12 -0.22,-0.12l-0.62 0c-0.08,0 -0.16,0.05 -0.22,0.12 -0.05,0.07 -0.09,0.17 -0.09,0.28l0 0z"/>
 </g>
</svg>
