<?xml version="1.0" encoding="UTF-8"?>
<!DOCTYPE svg PUBLIC "-//W3C//DTD SVG 1.1//EN" "http://www.w3.org/Graphics/SVG/1.1/DTD/svg11.dtd">
<!-- Creator: CorelDRAW -->
<svg xmlns="http://www.w3.org/2000/svg" xml:space="preserve" width="96px" height="96px" version="1.1" style="shape-rendering:geometricPrecision; text-rendering:geometricPrecision; image-rendering:optimizeQuality; fill-rule:evenodd; clip-rule:evenodd"
viewBox="0 0 7.26 7.26"
 xmlns:xlink="http://www.w3.org/1999/xlink"
 xmlns:xodm="http://www.corel.com/coreldraw/odm/2003">
 <defs>
  <style type="text/css">
   <![CDATA[
    .fil0 {fill:#F76700;fill-rule:nonzero}
   ]]>
  </style>
 </defs>
 <g id="Camada_x0020_1">
  <metadata id="CorelCorpID_0Corel-Layer"/>
  <g id="_2584071716096">
   <path class="fil0" d="M0.58 0l2.21 0c0.16,0 0.31,0.07 0.41,0.17 0.11,0.11 0.17,0.25 0.17,0.41l0 0 0 2.21 0 0c0,0.16 -0.06,0.31 -0.17,0.41 -0.1,0.11 -0.25,0.17 -0.41,0.17l0 0 0 0 -2.21 0 0 0c-0.16,0 -0.3,-0.06 -0.41,-0.17 -0.1,-0.1 -0.17,-0.25 -0.17,-0.41l0 0 0 -2.21c0,-0.16 0.07,-0.3 0.17,-0.41 0.11,-0.1 0.25,-0.17 0.41,-0.17zm2.21 0.52l-2.21 0c-0.01,0 -0.03,0.01 -0.04,0.02 -0.01,0.01 -0.02,0.03 -0.02,0.04l0 2.21 0 0c0,0.02 0.01,0.03 0.02,0.04 0.01,0.02 0.03,0.02 0.04,0.02l0 0 2.21 0 0 0 0 0c0.02,0 0.03,0 0.04,-0.02 0.02,-0.01 0.02,-0.02 0.02,-0.04l0 0 0 -2.21 0 0c0,-0.01 0,-0.03 -0.02,-0.04 -0.01,-0.01 -0.02,-0.02 -0.04,-0.02z"/>
   <path class="fil0" d="M4.47 0l2.21 0c0.16,0 0.31,0.07 0.41,0.17 0.11,0.11 0.17,0.25 0.17,0.41l0 0 0 2.21 0 0c0,0.16 -0.06,0.31 -0.17,0.41 -0.1,0.11 -0.25,0.17 -0.41,0.17l0 0 -2.21 0 0 0c-0.16,0 -0.3,-0.06 -0.41,-0.17 -0.1,-0.1 -0.17,-0.25 -0.17,-0.41l0 0 0 -2.21 0 0c0,-0.16 0.07,-0.3 0.17,-0.41 0.11,-0.1 0.25,-0.17 0.41,-0.17zm2.21 0.52l-2.21 0c-0.01,0 -0.03,0.01 -0.04,0.02 -0.01,0.01 -0.02,0.03 -0.02,0.04l0 0 0 2.21 0 0c0,0.02 0.01,0.03 0.02,0.04 0.01,0.02 0.03,0.02 0.04,0.02l0 0 2.21 0 0 0c0.02,0 0.03,0 0.05,-0.02 0.01,-0.01 0.01,-0.02 0.01,-0.04l0.01 0 0 -2.21 -0.01 0c0,-0.01 0,-0.03 -0.01,-0.04 -0.02,-0.01 -0.03,-0.02 -0.05,-0.02z"/>
   <path class="fil0" d="M0.58 3.89l2.21 0c0.16,0 0.31,0.07 0.41,0.17 0.11,0.11 0.17,0.25 0.17,0.41l0 0 0 0 0 2.21 0 0c0,0.16 -0.06,0.31 -0.17,0.41 -0.1,0.11 -0.25,0.17 -0.41,0.17l0 0 -2.21 0c-0.16,0 -0.3,-0.06 -0.41,-0.17 -0.1,-0.1 -0.17,-0.25 -0.17,-0.41l0 -2.21c0,-0.16 0.07,-0.3 0.17,-0.41 0.11,-0.1 0.25,-0.17 0.41,-0.17zm2.21 0.52l-2.21 0c-0.01,0 -0.03,0.01 -0.04,0.02 -0.01,0.01 -0.02,0.03 -0.02,0.04l0 2.21c0,0.02 0.01,0.03 0.02,0.05 0.01,0.01 0.03,0.01 0.04,0.01l2.21 0 0 0.01c0.02,0 0.03,-0.01 0.04,-0.02 0.02,-0.02 0.02,-0.03 0.02,-0.05l0 0 0 -2.21 0 0 0 0c0,-0.01 0,-0.03 -0.02,-0.04 -0.01,-0.01 -0.02,-0.02 -0.04,-0.02z"/>
   <path class="fil0" d="M4.47 3.89l2.21 0c0.16,0 0.31,0.07 0.41,0.17 0.11,0.11 0.17,0.25 0.17,0.41l0 0 0 0 0 2.21 0 0c0,0.16 -0.06,0.31 -0.17,0.41 -0.1,0.11 -0.25,0.17 -0.41,0.17l0 0 -2.21 0c-0.16,0 -0.3,-0.06 -0.41,-0.17 -0.1,-0.1 -0.17,-0.25 -0.17,-0.41l0 0 0 -2.21 0 0c0,-0.16 0.07,-0.3 0.17,-0.41 0.11,-0.1 0.25,-0.17 0.41,-0.17zm2.21 0.52l-2.21 0c-0.01,0 -0.03,0.01 -0.04,0.02 -0.01,0.01 -0.02,0.03 -0.02,0.04l0 0 0 2.21 0 0c0,0.02 0.01,0.03 0.02,0.05 0.01,0.01 0.03,0.01 0.04,0.01l2.21 0 0 0.01c0.02,0 0.03,-0.01 0.05,-0.02 0.01,-0.02 0.01,-0.03 0.01,-0.05l0.01 0 0 -2.21 -0.01 0 0.01 0c0,-0.01 -0.01,-0.03 -0.02,-0.04 -0.02,-0.01 -0.03,-0.02 -0.05,-0.02z"/>
  </g>
 </g>
</svg>
