<?xml version="1.0" encoding="UTF-8"?>
<!DOCTYPE svg PUBLIC "-//W3C//DTD SVG 1.1//EN" "http://www.w3.org/Graphics/SVG/1.1/DTD/svg11.dtd">
<!-- Creator: CorelDRAW -->
<svg xmlns="http://www.w3.org/2000/svg" xml:space="preserve" width="96px" height="96px" version="1.1" style="shape-rendering:geometricPrecision; text-rendering:geometricPrecision; image-rendering:optimizeQuality; fill-rule:evenodd; clip-rule:evenodd"
viewBox="0 0 32.06 32.06"
 xmlns:xlink="http://www.w3.org/1999/xlink"
 xmlns:xodm="http://www.corel.com/coreldraw/odm/2003">
 <defs>
  <style type="text/css">
   <![CDATA[
    .fil0 {fill:#F76700}
   ]]>
  </style>
 </defs>
 <g id="Camada_x0020_1">
  <metadata id="CorelCorpID_0Corel-Layer"/>
  <g id="_2584169127088">
   <path class="fil0" d="M0 15.44c0,2.36 0.02,2.44 1.4,4.07l2.2 2.19c0.18,0.15 0.24,0.17 0.41,0.34 0.18,0.19 0.97,1.1 1.13,1.1l2.7 0c0.44,0 0.95,-0.32 1.25,-0.51 0.22,-0.15 0.31,-0.22 0.5,-0.38 0.87,-0.69 1.99,-1.86 2.77,-2.7 0.53,-0.58 1.15,-1.34 1.77,-1.81 0.2,-0.15 0.3,-0.27 0.52,-0.44 0.82,-0.64 0.93,-0.57 1.92,-0.57 0.24,0 0.5,0.09 0.7,0.18 0.6,0.25 4.57,4.37 5.23,5.03l0.99 0.84c0.83,0.49 2.27,0.36 3.36,0.36 0.25,0 2.07,-1.83 2.31,-2.08 0.62,-0.61 1.59,-1.74 2.07,-2.38 0.9,-1.18 0.82,-1.78 0.82,-3.17 0,-1.98 -2.17,-3.73 -3.63,-5.08 -1.93,-1.78 -0.36,-1.47 -3.87,-1.47 -1.1,0 -3.45,2.32 -4.09,3.15l-1.79 1.86c-1.23,0.98 -1.15,1.41 -2.78,1.41 -0.86,0 -2.42,-1.79 -3.02,-2.38 -0.55,-0.55 -1.64,-1.79 -2.21,-2.26 -0.22,-0.19 -0.29,-0.24 -0.5,-0.45 -0.64,-0.64 -1.34,-1.21 -2.28,-1.36 -0.36,-0.06 -1.93,0.01 -2.54,0.03 -0.43,0 -0.39,0.08 -0.62,0.32 -0.78,0.8 -2.49,2.33 -3.18,3.11 -0.18,0.2 -0.23,0.3 -0.44,0.5 -0.37,0.36 -0.52,0.58 -0.73,1.1 -0.19,0.43 -0.37,0.87 -0.37,1.45z"/>
   <path class="fil0" d="M6.63 24.56l1.94 2.11c0.83,0.86 3.13,3.17 4.13,4.05 0.36,0.32 0.78,0.71 1.17,0.85 1.47,0.55 1.03,0.48 2.56,0.48 1.83,0 2.96,-1.4 3.91,-2.31l1.08 -1.01c0.7,-0.7 1.36,-1.36 2.06,-2.06l1.52 -1.59c0.19,-0.18 0.42,-0.32 0.49,-0.59 -1.68,0 -1.99,-0.12 -3.03,-0.82 -0.63,-0.43 -1.49,-1.23 -2.05,-1.8 -0.34,-0.33 -0.62,-0.61 -0.95,-0.94l-0.95 -1.01c-0.31,-0.32 -1.6,-1.78 -2.08,-1.78 -0.91,0 -0.58,-0.05 -1.57,0.93 -0.34,0.35 -0.64,0.64 -0.98,0.98 -1.07,1.07 -2.9,3 -4.05,3.79 -0.47,0.33 -0.74,0.44 -1.36,0.6 -0.6,0.15 -1.08,0.12 -1.84,0.12z"/>
   <path class="fil0" d="M6.56 7.54c2.21,0 2.91,0.09 4.41,1.61 0.82,0.82 4.57,4.81 5.26,4.81 0.68,0 1.72,-1.18 2.22,-1.71 0.18,-0.19 0.23,-0.3 0.43,-0.5l1.42 -1.56c0.87,-0.86 2.8,-2.62 4.18,-2.65 0.33,-0.01 0.68,0 1.01,0 -0.26,-0.4 -0.71,-0.68 -1.02,-1.07 -0.5,-0.63 -4.44,-4.48 -5.31,-5.36 -0.37,-0.37 -0.79,-0.59 -1.31,-0.79 -1.64,-0.65 -3.59,-0.26 -4.96,0.78 -0.46,0.34 -0.71,0.6 -1.11,0.99 -0.19,0.2 -0.34,0.35 -0.54,0.54l-1.76 1.96c-0.09,0.1 -0.16,0.17 -0.27,0.27l-1.58 1.59c-0.2,0.17 -1.02,0.92 -1.07,1.09z"/>
  </g>
 </g>
</svg>
