<?xml version="1.0" encoding="UTF-8"?>
<!DOCTYPE svg PUBLIC "-//W3C//DTD SVG 1.1//EN" "http://www.w3.org/Graphics/SVG/1.1/DTD/svg11.dtd">
<!-- Creator: CorelDRAW -->
<svg xmlns="http://www.w3.org/2000/svg" xml:space="preserve" width="96px" height="96px" version="1.1" style="shape-rendering:geometricPrecision; text-rendering:geometricPrecision; image-rendering:optimizeQuality; fill-rule:evenodd; clip-rule:evenodd"
viewBox="0 0 186.24 186.24"
 xmlns:xlink="http://www.w3.org/1999/xlink"
 xmlns:xodm="http://www.corel.com/coreldraw/odm/2003">
 <defs>
  <style type="text/css">
   <![CDATA[
    .fil0 {fill:#F76700}
   ]]>
  </style>
 </defs>
 <g id="Camada_x0020_1">
  <metadata id="CorelCorpID_0Corel-Layer"/>
  <path class="fil0" d="M132.22 115.46c-2.26,-0.85 -4.04,-2.4 -7.99,-3.7 -3.01,-0.99 -6.18,-1.71 -9.56,-1.99 -18.14,-1.49 -35.97,10.71 -40.22,29.49 -6.15,27.16 16.8,50.72 43.77,46.49 8.2,-1.29 17.65,-6.57 22.15,-12.31 6.04,-7.71 9.63,-14.28 9.71,-25.38 0.07,-7.74 -0.04,-15.56 -0.04,-23.31 0,-30.97 0.28,-62.08 -0.02,-93.03 3.65,1.76 11.7,14.68 13.57,18.94 10.38,23.62 -0.14,37.69 4.89,44.52 3.91,5.3 11.27,4.15 13.98,0.71 3.1,-3.95 3.71,-15.57 3.78,-20.55 0.25,-19.75 -6.93,-36.7 -16.3,-48.43 -1.22,-1.53 -2.16,-2.94 -3.7,-4.37l-6.02 -6.11c-0.72,-0.77 -1.43,-1.11 -2.23,-1.82 -5.5,-4.85 -8.85,-6.23 -14.79,-9.45 -1.59,-0.86 -9.85,-4.95 -10.96,-5.16l-0.02 115.46z"/>
  <path class="fil0" d="M6.96 1.34c-8.25,1.97 -9.25,12.07 -2.55,16.1 3.47,2.08 21.31,1.18 26.62,1.18 4.39,0 52.17,0.44 55.22,-0.29 7.91,-1.89 8.87,-12.24 2.15,-16.19 -3.25,-1.9 -21.49,-1.04 -26.59,-1.04 -3.86,0 -52.31,-0.37 -54.85,0.24z"/>
  <path class="fil0" d="M6.77 69.28c-8.05,1.82 -8.8,12.45 -2.3,16.15 3.22,1.82 8.66,1.16 12.58,1.16 7.36,0 66,0.43 69.15,-0.27 7.84,-1.71 9.05,-12.22 2.22,-16.15 -3.53,-2.03 -21.25,-1.12 -26.61,-1.12l-41.35 0c-3.25,0 -10.97,-0.38 -13.69,0.23z"/>
  <path class="fil0" d="M7.78 35.13c-8.72,1.03 -10.2,12.02 -3.84,16.02 3.29,2.08 8.1,1.42 12.17,1.42 4.67,0 9.33,0 13.99,0 4.26,0 52.36,0.26 55.22,-0.07 3.53,-0.4 6.53,-3.26 7.29,-6.33 1.09,-4.34 -1.11,-8.12 -3.73,-9.71 -3.35,-2.03 -8.07,-1.37 -12.15,-1.37l-68.95 0.04z"/>
 </g>
</svg>
