<?xml version="1.0" standalone="no"?>
<!DOCTYPE svg PUBLIC "-//W3C//DTD SVG 20010904//EN"
 "http://www.w3.org/TR/2001/REC-SVG-20010904/DTD/svg10.dtd">
<svg version="1.0" xmlns="http://www.w3.org/2000/svg"
 width="710.000000pt" height="710.000000pt" viewBox="0 0 710.000000 710.000000"
 preserveAspectRatio="xMidYMid meet">
<metadata>
Created by potrace 1.14, written by Peter Selinger 2001-2017
</metadata>
<g transform="translate(0.000000,710.000000) scale(0.100000,-0.100000)"
fill="#000000" stroke="none">
<path d="M3320 6304 c-25 -2 -85 -11 -135 -20 -821 -141 -1488 -791 -1639
-1599 -14 -73 -32 -270 -20 -217 9 39 21 24 23 -30 1 -29 7 -69 14 -88 9 -26
12 -178 12 -586 0 -512 -1 -553 -17 -571 -25 -27 -23 -37 13 -67 42 -36 81
-34 125 7 43 39 52 80 53 227 l1 95 43 -95 c69 -154 156 -297 296 -490 102
-141 187 -239 342 -396 71 -72 129 -133 129 -137 0 -3 -168 -6 -372 -7 -415
-1 -456 -5 -580 -63 -178 -83 -292 -233 -334 -438 -31 -155 -5 -329 70 -462
30 -54 27 -57 -58 -68 -81 -10 -216 -37 -241 -49 -11 -5 -41 -11 -67 -15 -26
-3 -54 -13 -62 -21 -8 -8 -22 -14 -32 -14 -19 0 -50 -32 -59 -61 -10 -29 13
-44 100 -66 92 -25 225 -38 520 -53 245 -13 3883 -9 3928 4 30 9 36 33 10 38
-13 3 -5 11 27 27 138 72 241 172 300 295 60 123 92 296 58 309 -10 4 -10 6
-1 6 9 1 8 8 -2 28 -8 15 -12 30 -9 35 3 4 1 8 -5 8 -6 0 -15 19 -21 43 -40
162 -102 264 -207 333 -106 70 -111 71 -663 78 -272 3 -1066 6 -1765 7 -698 1
-1254 5 -1235 9 37 9 1148 18 2555 21 473 1 825 5 782 9 -43 4 -80 10 -83 12
-2 3 14 11 36 18 22 7 40 17 40 22 0 4 -167 8 -371 8 l-372 0 89 83 c193 179
361 375 499 582 74 112 155 252 155 270 0 6 -18 -23 -40 -62 -42 -78 -137
-223 -146 -223 -6 0 -1 9 47 80 36 54 131 236 164 315 9 22 17 55 17 73 0 17
4 32 10 32 5 0 7 3 5 8 -3 4 4 50 16 102 31 141 31 440 0 557 -61 227 -184
417 -340 524 -66 45 -179 96 -268 120 -67 19 -108 22 -255 22 -190 1 -287 -15
-402 -66 -32 -14 -66 -23 -80 -20 -17 3 -40 -4 -67 -21 -22 -14 -44 -26 -48
-26 -5 0 17 17 47 36 144 94 334 154 493 156 70 0 52 16 -21 17 -24 1 -51 5
-60 10 -29 15 -229 -6 -327 -34 -146 -43 -295 -127 -383 -217 l-42 -44 38 -44
c26 -28 44 -40 52 -35 9 5 11 4 6 -4 -11 -18 -17 -61 -9 -61 5 0 13 8 20 18 6
11 31 34 55 52 39 30 37 27 -17 -28 -33 -34 -62 -62 -65 -62 -7 0 -51 42 -119
115 -189 201 -419 283 -763 273 -82 -2 -143 -1 -136 3 30 15 151 30 261 32
125 2 122 5 -43 31 -237 38 -517 -40 -718 -200 -114 -89 -201 -201 -284 -364
l-39 -75 5 151 c10 293 78 515 233 754 235 362 665 665 1101 775 225 57 499
72 725 39 557 -81 1046 -438 1282 -937 101 -213 144 -390 151 -614 3 -120 9
-159 34 -245 39 -139 40 -142 41 -313 1 -164 -11 -237 -62 -403 -17 -53 -35
-114 -42 -134 -9 -30 -8 -47 6 -91 36 -115 91 -155 163 -121 50 24 69 65 55
118 -7 27 -12 268 -15 716 -4 728 -3 706 -61 905 -29 99 -63 181 -137 330
-178 357 -547 677 -968 837 -340 130 -719 158 -1099 82 -41 -8 -78 -17 -83
-20 -5 -3 -25 -6 -44 -6 -21 0 -32 -4 -27 -11 3 -5 1 -7 -5 -3 -6 3 -13 2 -16
-2 -3 -5 -22 -9 -43 -9 -21 0 -58 -10 -83 -21 -123 -56 -184 -82 -187 -78 -7
6 152 85 238 117 107 40 187 62 324 90 97 20 142 23 385 24 l275 2 -3 33 c-1
19 2 36 8 40 6 4 -29 14 -77 24 -86 18 -392 30 -503 20z m1999 -2109 l-1 -80
-18 70 c-9 39 -20 80 -24 92 -6 20 -5 21 18 10 25 -11 26 -16 25 -92z m-1736
-186 c39 -34 124 -96 187 -139 182 -123 219 -167 241 -294 13 -79 10 -116 -22
-223 l-24 -78 -6 80 c-8 102 -36 163 -109 236 -59 59 -149 110 -200 112 l-31
2 -2 -365 c-2 -413 0 -402 -82 -489 -166 -177 -447 -65 -449 179 0 82 17 132
62 182 66 73 151 98 253 74 35 -8 72 -18 82 -21 16 -7 17 16 17 399 0 223 2
406 5 406 3 0 38 -28 78 -61z m1734 -631 c-3 -8 -6 -5 -6 6 -1 11 2 17 5 13 3
-3 4 -12 1 -19z m-2999 -1450 c121 -57 146 -217 48 -314 -67 -68 -172 -82
-263 -36 -68 35 -103 95 -103 177 0 156 164 246 318 173z m1395 6 c31 -17 30
-12 16 -53 -10 -27 -15 -32 -33 -26 -99 30 -151 25 -151 -15 0 -25 22 -37 111
-60 58 -14 92 -44 100 -87 17 -89 -63 -149 -185 -141 -53 4 -116 24 -139 43
-2 1 5 18 14 38 l17 35 41 -19 c46 -21 126 -25 144 -7 28 28 13 47 -45 63
-129 35 -163 64 -163 135 0 43 51 97 103 109 50 11 131 4 170 -15z m419 -5
c49 -25 85 -74 99 -135 35 -154 -124 -286 -282 -233 -112 38 -171 166 -125
272 46 108 193 154 308 96z m933 6 c17 -7 38 -21 47 -32 17 -19 17 -21 -11
-47 l-28 -27 -34 20 c-21 13 -51 21 -77 21 -37 0 -50 -6 -78 -34 -29 -29 -34
-41 -34 -81 0 -84 60 -132 145 -118 l35 6 0 58 0 59 45 0 46 0 -3 -82 -3 -83
-40 -19 c-114 -56 -260 -14 -306 88 -38 85 -13 200 54 248 64 46 166 56 242
23z m393 4 c35 -11 39 -24 20 -64 -9 -20 -17 -25 -32 -20 -96 29 -149 25 -154
-13 -4 -25 9 -31 102 -57 74 -20 116 -59 116 -107 0 -84 -78 -135 -193 -126
-50 4 -113 24 -135 43 -2 1 5 19 14 38 17 36 17 36 47 21 41 -22 133 -30 152
-14 32 27 18 49 -42 65 -128 35 -163 62 -163 122 0 109 120 159 268 112z
m-3678 -144 l0 -155 95 0 95 0 0 -40 0 -40 -145 0 -145 0 0 195 0 195 50 0 50
0 0 -155z m819 23 c30 -71 57 -128 60 -128 3 0 31 59 61 130 l54 130 49 0 c27
0 47 -4 45 -9 -1 -5 -39 -92 -83 -195 l-80 -186 -50 0 -50 0 -75 177 c-41 97
-78 185 -82 195 -7 17 -3 19 45 16 l52 -3 54 -127z m611 92 l0 -40 -100 0
-100 0 0 -40 0 -40 90 0 90 0 0 -35 0 -35 -90 0 -90 0 0 -40 0 -39 103 -3 102
-3 3 -37 3 -38 -155 0 -156 0 0 195 0 195 150 0 150 0 0 -40z m1272 -72 l93
-112 3 112 3 112 44 0 45 0 0 -195 0 -195 -39 0 c-38 0 -43 4 -128 107 l-88
107 -3 -107 -3 -107 -49 0 -50 0 0 195 0 195 40 0 c38 0 42 -4 132 -112z
m-3112 45 c-2 -26 -38 -154 -39 -136 -1 12 -5 23 -10 25 -10 3 -15 43 -13 91
2 23 6 27 32 27 17 0 30 -3 30 -7z m871 -503 c12 -7 19 -21 19 -40 0 -32 -23
-50 -64 -50 -19 0 -26 -5 -26 -20 0 -11 -4 -20 -10 -20 -6 0 -10 30 -10 70 l0
70 36 0 c19 0 44 -5 55 -10z m479 -54 l0 -65 43 -4 c40 -3 40 -4 -10 -5 l-53
-2 0 70 c0 40 4 70 10 70 6 0 10 -28 10 -64z m590 -3 c29 -64 32 -97 6 -60
-18 23 -82 23 -95 0 -5 -10 -12 -15 -16 -11 -9 8 51 138 64 138 6 0 24 -30 41
-67z m470 30 l22 -38 22 37 c11 21 27 38 33 38 8 0 1 -19 -17 -49 -17 -26 -30
-58 -30 -70 0 -11 -4 -21 -10 -21 -5 0 -10 11 -10 26 0 14 -11 42 -25 62 -27
39 -31 52 -16 52 5 0 19 -17 31 -37z m610 27 c0 -5 -18 -10 -40 -10 -33 0 -40
-3 -40 -20 0 -16 7 -20 35 -20 19 0 35 -4 35 -10 0 -5 -16 -10 -35 -10 -30 0
-35 -3 -35 -24 0 -22 5 -25 43 -29 40 -3 40 -4 -10 -5 l-53 -2 0 70 0 70 50 0
c28 0 50 -4 50 -10z m538 -2 c15 -15 16 -60 1 -75 -8 -8 -8 -17 0 -32 15 -27
-4 -28 -21 -1 -7 11 -23 20 -35 20 -16 0 -23 -6 -23 -20 0 -11 -4 -20 -10 -20
-6 0 -10 30 -10 70 l0 70 43 0 c24 0 48 -5 55 -12z"/>
<path d="M2148 1853 c-34 -21 -48 -53 -48 -106 0 -52 21 -84 67 -103 100 -42
199 67 149 164 -30 58 -112 80 -168 45z"/>
<path d="M3944 1836 c-29 -29 -34 -41 -34 -83 0 -58 19 -90 67 -109 71 -30
149 15 160 93 10 75 -43 133 -123 133 -28 0 -44 -8 -70 -34z"/>
<path d="M2170 1340 c0 -29 2 -31 33 -28 27 2 32 7 32 28 0 21 -5 26 -32 28
-31 3 -33 1 -33 -28z"/>
<path d="M3253 1330 c-11 -29 -10 -30 18 -30 l30 0 -16 30 c-9 17 -17 30 -18
30 -1 0 -8 -13 -14 -30z"/>
<path d="M4850 1340 c0 -29 2 -31 33 -28 27 2 32 7 32 28 0 21 -5 26 -32 28
-31 3 -33 1 -33 -28z"/>
<path d="M5390 5828 l0 -443 -46 -19 c-116 -47 -145 -209 -43 -241 59 -19 149
38 173 110 13 35 11 74 -2 61 -3 -3 -11 2 -18 12 -8 11 -9 19 -2 23 8 5 11
146 10 444 l0 437 -28 29 c-15 16 -31 29 -36 29 -4 0 -8 -199 -8 -442z"/>
<path d="M1689 6043 c-45 -49 -127 -145 -217 -256 l-72 -88 0 -175 c0 -158 -2
-175 -17 -180 -52 -15 -105 -51 -125 -82 -49 -80 -13 -188 71 -213 35 -10 44
-9 82 12 79 44 111 118 77 176 -12 20 -15 34 -8 38 6 4 10 62 10 149 l0 143
58 78 57 78 7 -54 c3 -30 6 -110 7 -179 l1 -125 31 45 c36 54 74 124 62 117
-4 -3 -7 81 -5 186 2 105 0 202 -3 215 l-6 25 -26 -24 c-20 -19 -17 -12 11 28
31 43 60 123 44 123 -2 0 -20 -17 -39 -37z"/>
<path d="M3605 5735 c-93 -23 -189 -47 -212 -54 l-43 -12 0 -244 c0 -240 0
-245 -20 -245 -60 0 -120 -66 -120 -132 0 -74 91 -139 151 -108 36 18 80 62
90 89 11 28 -22 90 -49 92 -10 1 -6 4 8 8 l25 7 5 204 c3 113 7 182 8 154 l2
-50 126 32 c90 23 127 28 130 20 3 -7 3 -67 2 -135 l-3 -123 -40 -13 c-60 -21
-95 -68 -95 -128 0 -42 5 -54 34 -83 26 -26 42 -34 70 -34 45 0 87 21 115 56
27 35 27 72 -2 108 -20 25 -26 27 -45 17 -12 -6 -22 -9 -22 -6 0 3 16 13 36
21 l35 15 -2 232 c-1 128 -4 249 -7 270 -4 37 -5 37 -41 31 -30 -5 -126 -27
-280 -64 -18 -5 -30 -5 -25 -1 5 5 68 23 139 40 183 45 235 61 235 72 0 14
-21 10 -205 -36z"/>
<path d="M4024 5591 c-61 -37 -80 -122 -43 -197 25 -53 188 -224 212 -224 26
0 189 166 215 220 l22 44 -30 28 c-17 15 -30 31 -30 35 0 11 -49 33 -73 33
-10 0 -25 -7 -33 -15 -23 -22 -47 -19 -124 19 -69 33 -78 46 -33 46 29 0 59
-15 91 -43 l22 -21 35 34 c29 29 41 33 82 32 46 0 47 0 23 14 -14 7 -40 13
-58 14 -36 0 -92 -24 -92 -40 0 -16 -17 -12 -56 15 -44 30 -88 32 -130 6z"/>
<path d="M2720 5502 c-45 -22 -80 -75 -80 -120 0 -20 10 -56 22 -80 20 -43
185 -222 204 -222 36 0 214 187 231 243 8 28 6 37 -21 72 -42 55 -45 57 -101
51 l-50 -5 28 24 c30 27 66 32 99 14 16 -8 19 -8 13 1 -4 7 -23 19 -42 27 -44
18 -89 9 -124 -23 -24 -23 -27 -24 -40 -8 -15 18 -69 44 -91 44 -7 0 -29 -8
-48 -18z m149 -50 c46 -34 25 -39 -34 -7 -26 14 -55 25 -64 25 -14 0 -14 2 -1
10 21 14 59 3 99 -28z"/>
<path d="M3453 5395 c0 -22 2 -30 4 -17 2 12 2 30 0 40 -3 9 -5 -1 -4 -23z"/>
<path d="M3452 5325 c0 -16 2 -22 5 -12 2 9 2 23 0 30 -3 6 -5 -1 -5 -18z"/>
<path d="M4655 5253 c-54 -14 -93 -70 -81 -117 8 -33 52 -83 87 -102 28 -14
32 -13 74 16 51 35 69 62 60 91 -8 24 -46 50 -80 53 -34 4 -45 16 -14 16 19 0
21 2 9 10 -8 5 -15 15 -15 21 0 15 -13 18 -40 12z"/>
<path d="M4740 5230 c0 -5 7 -10 16 -10 8 0 12 5 9 10 -3 6 -10 10 -16 10 -5
0 -9 -4 -9 -10z"/>
<path d="M4015 4780 c-3 -5 -14 -10 -24 -10 -10 0 -28 -9 -41 -20 -32 -28 -14
-24 50 10 30 17 47 30 38 30 -9 0 -20 -4 -23 -10z"/>
<path d="M1422 4263 c-20 -20 -27 -28 -14 -18 40 33 32 10 -22 -62 -64 -84
-86 -139 -132 -328 -20 -77 -39 -144 -45 -149 -15 -16 -10 -97 12 -176 46
-168 183 -346 258 -338 l25 3 -4 440 c-5 526 -5 506 5 576 6 45 4 58 -10 72
-23 24 -30 22 -73 -20z"/>
<path d="M5510 3768 c0 -277 -3 -520 -6 -540 -6 -36 -5 -38 19 -38 37 0 110
86 158 187 l41 83 5 163 c5 157 4 166 -18 213 -13 27 -28 51 -34 52 -5 1 -10
8 -10 15 0 6 -2 14 -5 17 -5 5 -32 60 -35 70 -7 29 -18 90 -20 108 -4 24 -49
107 -65 117 -6 3 -10 15 -10 25 0 10 -4 22 -10 25 -7 4 -10 -164 -10 -497z"/>
<path d="M1593 2781 c-90 -41 -85 -124 11 -200 21 -17 43 -31 48 -31 16 0 96
59 113 82 31 45 10 93 -48 110 l-22 6 23 1 c29 1 28 12 -4 34 -24 18 -25 18
-22 1 2 -11 -4 -20 -14 -22 -13 -2 -18 3 -18 17 0 26 -13 26 -67 2z"/>
<path d="M5605 2733 c-63 -12 -101 -62 -91 -119 7 -36 95 -124 125 -124 28 0
121 89 121 115 0 31 -44 65 -86 65 -18 0 -36 5 -39 10 -4 6 10 10 34 10 41 0
55 13 26 24 -8 3 -15 1 -15 -4 0 -17 -27 -11 -41 8 -8 11 -23 17 -34 15z"/>
</g>
</svg>
