<?xml version="1.0" encoding="UTF-8"?>
<!DOCTYPE svg PUBLIC "-//W3C//DTD SVG 1.0//EN" "http://www.w3.org/TR/2001/REC-SVG-20010904/DTD/svg10.dtd">
<!-- Creator: CorelDRAW X7 -->
<svg xmlns="http://www.w3.org/2000/svg" xml:space="preserve" width="200px" height="200px" version="1.0" style="shape-rendering:geometricPrecision; text-rendering:geometricPrecision; image-rendering:optimizeQuality; fill-rule:evenodd; clip-rule:evenodd"
viewBox="0 0 200 200"
 xmlns:xlink="http://www.w3.org/1999/xlink">
 <defs>
  <style type="text/css">
   <![CDATA[
    .fil2 {fill:#00BBFF}
    .fil1 {fill:#08007F}
    .fil5 {fill:#6966A4}
    .fil4 {fill:#817FB2}
    .fil3 {fill:#FEFEFF}
    .fil0 {fill:#ffe600}
   ]]>
  </style>
 </defs>
 <g id="Camada_x0020_1">
  <metadata id="CorelCorpID_0Corel-Layer"/>
  <rect class="fil0" width="200" height="200"/>
  <g id="_247028072">
   <path class="fil1" d="M74 126l-1 -2c0,0 -1,0 -1,0 0,-1 0,-1 0,-1 -7,3 -11,-2 -11,-9 -6,2 -11,2 -10,-7 7,-6 8,-4 12,2 6,-5 10,-5 14,1 0,0 0,1 0,1 0,0 1,0 1,0 0,1 0,1 0,1 4,-4 7,-3 11,1l0 9c12,-3 13,7 10,11 -4,6 -12,4 -14,-5 -5,2 -8,3 -11,-2zm-66 -34c14,3 29,7 39,13 1,6 0,9 4,12 2,1 4,1 6,2 6,3 -3,4 12,8 6,2 3,7 14,6 2,4 5,7 11,6 3,0 5,-2 7,-2 2,-1 3,1 6,1 2,1 5,1 7,0 5,-2 0,-2 6,-3 8,-1 7,-1 11,-7 10,0 10,-3 13,-9 10,0 12,-5 10,-14 12,-3 25,-10 38,-11 5,50 -93,81 -153,46 -15,-9 -32,-22 -31,-48zm62 -13c2,-4 15,-16 18,-18 21,-11 37,5 56,6 14,1 19,-4 30,-6 6,6 16,16 17,29 -15,3 -26,7 -40,12l-3 -2c-1,-1 -1,-1 -2,-2l-31 -26c-20,-16 -29,15 -43,9 -2,-1 -2,-2 -2,-2zm49 35c-2,0 -2,-1 -2,1 3,5 8,8 10,13 -6,11 -13,-2 -20,-5 1,4 6,7 8,11 -4,2 -7,1 -11,0 -2,-15 0,-12 -11,-17 -2,-8 -4,-11 -14,-10 -5,-9 -13,-3 -16,-4 -14,-7 -8,3 -17,-2 -12,-7 -24,-8 -37,-13 3,-12 10,-20 18,-28 10,1 23,9 36,8 6,0 8,-2 13,-2 -2,4 -19,14 -3,18 3,1 6,1 10,0 10,-5 17,-19 30,-9l10 8c5,4 27,23 28,25 2,7 -7,10 -12,4 -3,-4 -10,-10 -14,-11 2,7 13,11 15,18 -2,5 -6,8 -11,5 -4,-3 -7,-8 -10,-10zm-87 -57c6,-5 21,-11 30,-14 29,-9 66,-7 94,7 5,2 10,6 14,7 -2,2 0,0 -2,2 -6,5 -25,5 -34,3 -12,-3 -19,-10 -35,-8 -13,1 -9,6 -32,10 -8,2 -29,-3 -35,-7zm-27 48c7,68 124,76 169,39 2,-2 3,-4 5,-5 12,-11 17,-26 17,-44 -1,-24 -19,-38 -34,-46 -55,-33 -165,-10 -157,56z"/>
   <path class="fil2" d="M8 92c-1,26 16,39 31,48 60,35 158,4 153,-46 -13,1 -26,8 -38,11 2,9 0,14 -10,14 -3,6 -3,9 -13,9 -4,6 -3,6 -11,7 -6,1 -1,1 -6,3 -2,1 -5,1 -7,0 -3,0 -4,-2 -6,-1 -2,0 -4,2 -7,2 -6,1 -9,-2 -11,-6 -11,1 -8,-4 -14,-6 -15,-4 -6,-5 -12,-8 -2,-1 -4,-1 -6,-2 -4,-3 -3,-6 -4,-12 -10,-6 -25,-10 -39,-13z"/>
   <path class="fil3" d="M117 115l-1 -2 3 1c3,2 6,7 10,10 5,3 9,0 11,-5 -2,-7 -13,-11 -15,-18 4,1 11,7 14,11 5,6 14,3 12,-4 -1,-2 -23,-21 -28,-25l-10 -8c-13,-10 -20,4 -30,9 -4,1 -7,1 -10,0 -16,-4 1,-14 3,-18 -5,0 -7,2 -13,2 -13,1 -26,-7 -36,-8 -8,8 -15,16 -18,28 13,5 25,6 37,13 9,5 3,-5 17,2 3,1 11,-5 16,4 10,-1 12,2 14,10 11,5 9,2 11,17 4,1 7,2 11,0 -2,-4 -7,-7 -8,-11 7,3 14,16 20,5 -2,-5 -7,-8 -10,-13z"/>
   <path class="fil3" d="M70 79c0,0 0,1 2,2 14,6 23,-25 43,-9l31 26c1,1 1,1 2,2l3 2c14,-5 25,-9 40,-12 -1,-13 -11,-23 -17,-29 -11,2 -16,7 -30,6 -19,-1 -35,-17 -56,-6 -3,2 -16,14 -18,18z"/>
   <path class="fil2" d="M32 57c6,4 27,9 35,7 23,-4 19,-9 32,-10 16,-2 23,5 35,8 9,2 28,2 34,-3 2,-2 0,0 2,-2 -4,-1 -9,-5 -14,-7 -28,-14 -65,-16 -94,-7 -9,3 -24,9 -30,14z"/>
   <path class="fil3" d="M72 123c1,-1 -2,-2 2,-1l0 4c3,5 6,4 11,2 2,9 10,11 14,5 3,-4 2,-14 -10,-11l0 -9c-4,-4 -7,-5 -11,-1 0,0 0,0 0,-1 0,0 -1,0 -1,0 0,0 0,-1 0,-1 -4,-6 -8,-6 -14,-1 -4,-6 -5,-8 -12,-2 -1,9 4,9 10,7 0,7 4,12 11,9z"/>
   <path class="fil4" d="M74 126l0 -4c-4,-1 -1,0 -2,1 0,0 0,0 0,1 0,0 1,0 1,0l1 2z"/>
   <path class="fil5" d="M117 115c0,-2 0,-1 2,-1l-3 -1 1 2z"/>
  </g>
 </g>
</svg>
