<?xml version="1.0" standalone="no"?>
<!DOCTYPE svg PUBLIC "-//W3C//DTD SVG 20010904//EN"
 "http://www.w3.org/TR/2001/REC-SVG-20010904/DTD/svg10.dtd">
<svg version="1.0" xmlns="http://www.w3.org/2000/svg"
 width="512.000000pt" height="512.000000pt" viewBox="0 0 512.000000 512.000000"
 preserveAspectRatio="xMidYMid meet">
<metadata>
Created by potrace 1.14, written by Peter Selinger 2001-2017
</metadata>
<g transform="translate(0.000000,512.000000) scale(0.100000,-0.100000)"
fill="#000000" stroke="none">
<path d="M2399 4233 l-49 -46 -87 37 c-68 30 -95 37 -125 33 -80 -11 -126 -67
-157 -191 -11 -43 -24 -83 -30 -89 -7 -7 -30 -2 -73 16 -73 31 -86 32 -136 11
-46 -19 -95 -65 -133 -123 -24 -37 -29 -56 -29 -107 0 -67 -6 -78 -110 -210
l-45 -57 -3 -114 -4 -114 -66 -43 c-37 -24 -80 -58 -96 -75 l-30 -31 -132 0
c-119 0 -147 -4 -269 -35 -222 -57 -240 -72 -233 -201 4 -91 13 -104 149 -211
128 -102 221 -151 316 -165 l70 -11 6 -72 c6 -84 29 -136 81 -183 41 -37 42
-40 20 -153 -27 -143 -10 -201 94 -311 l64 -68 -13 -80 c-11 -71 -11 -86 5
-135 20 -63 67 -130 116 -163 31 -22 42 -23 107 -18 l72 6 -6 -53 c-11 -107
45 -237 125 -292 33 -22 47 -25 133 -25 l96 0 59 -42 c148 -103 214 -104 310
-3 43 45 58 54 98 60 98 15 170 -9 216 -71 51 -69 132 -82 221 -36 30 15 77
42 105 60 48 32 52 32 101 21 69 -16 116 -5 164 38 73 66 129 194 129 294 l0
49 55 0 c69 0 119 20 168 68 46 44 87 120 87 159 0 15 -7 53 -15 83 -8 30 -15
61 -15 67 0 7 29 45 65 84 114 124 132 186 95 323 l-22 84 46 67 c41 59 52 89
92 228 4 13 16 17 52 17 65 0 113 15 166 53 26 17 84 58 131 90 175 122 225
214 176 323 -49 107 -199 154 -496 154 l-144 0 -32 40 c-18 22 -52 51 -75 65
-73 43 -74 45 -74 156 0 119 -8 138 -92 225 l-59 62 -14 96 c-18 133 -55 186
-157 222 -55 19 -88 18 -149 -6 -29 -12 -58 -19 -64 -16 -7 2 -15 25 -18 51
-14 96 -71 184 -142 216 -63 29 -111 25 -177 -17 l-58 -35 -58 35 c-72 45
-110 56 -190 56 -61 0 -64 -1 -113 -47z m212 -81 c14 -9 46 -34 71 -54 25 -21
55 -38 68 -38 12 0 60 18 107 40 94 44 127 49 142 22 5 -10 15 -56 21 -102 23
-171 61 -201 188 -151 29 12 71 21 93 21 74 0 119 -77 119 -203 0 -64 19 -94
85 -132 51 -31 88 -104 87 -173 -2 -63 -47 -141 -102 -171 -47 -26 -51 -26
-201 19 -51 16 -85 21 -105 16 -37 -10 -91 -67 -128 -136 -31 -59 -73 -110
-90 -110 -6 0 -60 30 -121 65 -60 36 -116 65 -125 65 -9 0 -47 -20 -84 -45
-38 -25 -78 -45 -88 -45 -23 0 -68 23 -121 61 -22 16 -50 29 -63 29 -12 0 -51
-22 -86 -49 -77 -59 -119 -81 -152 -81 -41 0 -82 44 -108 117 -26 74 -61 118
-102 129 -19 4 -68 -4 -148 -27 l-120 -33 -37 20 c-44 23 -79 84 -91 157 -14
90 -1 122 79 197 60 55 72 72 81 112 5 26 7 54 4 62 -21 55 48 156 107 156 16
0 65 -18 109 -40 96 -48 130 -51 160 -13 19 24 22 39 20 113 -3 121 -3 125 26
159 34 41 61 40 149 -9 40 -22 83 -40 97 -40 13 0 42 15 64 34 89 76 144 93
195 58z m-1466 -1173 c51 -12 115 -40 115 -49 0 -12 -202 -108 -264 -126 -50
-14 -68 -15 -113 -4 -29 6 -67 23 -84 37 -26 22 -30 31 -27 66 4 47 34 75 95
88 46 10 222 2 278 -12z m3139 -8 c53 -23 68 -42 64 -83 -4 -40 -47 -72 -118
-87 -42 -9 -63 -7 -147 15 -110 28 -218 76 -227 100 -20 53 106 86 293 78 61
-3 109 -11 135 -23z m-2338 -301 c98 -49 172 -105 198 -149 18 -32 18 -34 2
-46 -30 -23 -84 -27 -139 -11 -93 27 -164 109 -181 209 -6 34 -5 37 17 37 14
0 60 -18 103 -40z m1350 26 c9 -23 -55 -134 -106 -186 -57 -58 -103 -75 -160
-60 -27 7 -45 19 -52 35 -16 35 16 73 116 140 115 76 190 102 202 71z m-1775
-66 c53 -15 75 -46 99 -140 12 -47 43 -157 70 -245 175 -569 302 -861 547
-1257 2 -5 -9 -8 -25 -8 -21 0 -45 13 -81 46 -67 61 -89 66 -183 42 -99 -26
-121 -20 -143 34 -14 33 -18 76 -19 185 -1 127 -4 145 -22 170 -27 36 -57 39
-140 14 -59 -18 -71 -18 -100 -6 -55 23 -63 55 -49 201 4 45 5 95 1 110 -5 17
-39 58 -82 99 -73 70 -74 72 -74 121 0 27 7 76 15 109 21 90 19 126 -12 171
-94 136 -93 134 -93 188 0 33 7 62 20 83 40 66 179 108 271 83z m2171 -1 c115
-24 178 -85 178 -172 0 -56 -8 -74 -63 -139 -48 -58 -57 -110 -33 -211 18 -78
21 -150 6 -177 -6 -11 -37 -38 -70 -60 -33 -22 -67 -55 -76 -72 -17 -32 -17
-34 2 -208 5 -47 3 -59 -17 -84 -12 -16 -37 -35 -55 -42 -29 -12 -40 -11 -96
6 -75 24 -107 25 -134 6 -20 -15 -23 -64 -14 -226 4 -74 -18 -131 -67 -170
-29 -22 -53 -23 -150 -4 -27 5 -46 -2 -115 -45 -74 -45 -126 -65 -116 -43 2 4
25 50 53 102 139 269 286 601 376 850 66 185 82 235 124 402 75 293 101 321
267 287z m-1356 -1333 c70 -33 134 -91 134 -123 0 -22 -3 -24 -27 -19 -16 4
-62 23 -103 44 -77 38 -109 73 -97 105 9 23 33 21 93 -7z m539 14 c3 -5 -1
-22 -9 -38 -28 -55 -192 -140 -218 -114 -30 30 50 105 152 142 64 23 67 23 75
10z"/>
</g>
</svg>
