<?xml version="1.0" encoding="UTF-8"?>
<!DOCTYPE svg PUBLIC "-//W3C//DTD SVG 1.1//EN" "http://www.w3.org/Graphics/SVG/1.1/DTD/svg11.dtd">
<!-- Creator: CorelDRAW 2021 (64-Bit) -->
<svg xmlns="http://www.w3.org/2000/svg" xml:space="preserve" width="480px" height="148px" version="1.1" shape-rendering="geometricPrecision" text-rendering="geometricPrecision" image-rendering="optimizeQuality" fill-rule="evenodd" clip-rule="evenodd"
viewBox="0 0 75.09 23.08"
 xmlns:xlink="http://www.w3.org/1999/xlink"
 xmlns:xodm="http://www.corel.com/coreldraw/odm/2003">
 <g id="Layer_x0020_1">
  <metadata id="CorelCorpID_0Corel-Layer"/>
  <g id="_1803782850000">
   <g>
    <path fill="#e77000" d="M14.36 7.41c0.02,-1.58 1.02,-2.78 2.48,-2.86 0.19,1.62 -0.98,2.78 -2.48,2.86z"/>
    <path fill="#e77000" d="M19.42 13.73c-0.13,1 -1.14,2.33 -1.7,2.84 -1.22,1.13 -2.01,-0.2 -3.43,-0.01 -1.57,0.21 -1.8,1.23 -3.22,-0.42 -1.38,-1.62 -2.4,-4.72 -1.36,-6.82 1.41,-2.85 4.28,-1.26 4.58,-1.22 0.78,0.09 3.27,-1.67 4.79,0.69 -0.65,0.61 -1.38,1.29 -1.27,2.64 0.11,1.29 0.8,1.74 1.61,2.3z"/>
    <path fill="#e77000" d="M19.42 13.73c-0.81,-0.56 -1.5,-1.01 -1.61,-2.3 -0.11,-1.35 0.62,-2.03 1.27,-2.64 -1.52,-2.36 -4.01,-0.6 -4.79,-0.69 -0.3,-0.04 -3.17,-1.63 -4.58,1.22 -1.04,2.1 -0.02,5.2 1.36,6.82 1.42,1.65 1.65,0.63 3.22,0.42 1.42,-0.19 2.21,1.14 3.43,0.01 0.56,-0.51 1.57,-1.84 1.7,-2.84z"/>
    <path fill="#e77000" d="M14.36 7.41c1.5,-0.08 2.67,-1.24 2.48,-2.86 -1.46,0.08 -2.46,1.28 -2.48,2.86z"/>
   </g>
   <path fill="#e77000" fill-rule="nonzero" d="M29.85 14.18l1.12 0 -2.46 -6.8 -1.14 0 -2.45 6.8 1.09 0 0.63 -1.84 2.59 0 0.62 1.84zm-1.93 -5.67l0.03 0 1.01 2.98 -2.05 0 1.01 -2.98zm6.25 0.63c-0.71,0 -1.28,0.36 -1.57,0.93l-0.02 0 0 -0.85 -0.99 0 0 6.6 1.02 0 0 -2.46 0.02 0c0.29,0.55 0.85,0.9 1.56,0.9 1.25,0 2.07,-0.99 2.07,-2.56 0,-1.57 -0.83,-2.56 -2.09,-2.56zm-0.27 4.26c-0.78,0 -1.3,-0.67 -1.3,-1.7 0,-1.02 0.53,-1.7 1.3,-1.7 0.81,0 1.31,0.66 1.31,1.7 0,1.04 -0.5,1.7 -1.31,1.7zm5.72 -4.26c-0.71,0 -1.28,0.36 -1.57,0.93l-0.02 0 0 -0.85 -0.99 0 0 6.6 1.02 0 0 -2.46 0.02 0c0.29,0.55 0.85,0.9 1.56,0.9 1.25,0 2.07,-0.99 2.07,-2.56 0,-1.57 -0.83,-2.56 -2.09,-2.56zm-0.26 4.26c-0.79,0 -1.31,-0.67 -1.31,-1.7 0,-1.02 0.53,-1.7 1.31,-1.7 0.8,0 1.3,0.66 1.3,1.7 0,1.04 -0.5,1.7 -1.3,1.7zm4.91 -1.12c0.07,1.23 1.08,2.01 2.59,2.01 1.61,0 2.62,-0.8 2.62,-2.07 0,-0.99 -0.58,-1.55 -1.97,-1.88l-0.75 -0.19c-0.87,-0.21 -1.23,-0.5 -1.23,-0.98 0,-0.6 0.56,-1.01 1.38,-1.01 0.82,0 1.38,0.41 1.44,1.09l1.03 0c-0.04,-1.18 -1.02,-1.98 -2.46,-1.98 -1.45,0 -2.47,0.8 -2.47,1.98 0,0.94 0.58,1.53 1.83,1.83l0.88 0.21c0.88,0.22 1.25,0.53 1.25,1.06 0,0.61 -0.62,1.05 -1.47,1.05 -0.9,0 -1.55,-0.44 -1.63,-1.12l-1.04 0zm6.34 -4.23l0 1.17 -0.72 0 0 0.81 0.72 0 0 2.84c0,0.96 0.39,1.34 1.39,1.34 0.23,0 0.45,-0.02 0.57,-0.05l0 -0.8c-0.07,0.01 -0.24,0.02 -0.34,0.02 -0.41,0 -0.6,-0.19 -0.6,-0.62l0 -2.73 0.94 0 0 -0.81 -0.94 0 0 -1.17 -1.02 0zm4.81 6.22c1.41,0 2.35,-0.97 2.35,-2.57 0,-1.59 -0.94,-2.57 -2.35,-2.57 -1.42,0 -2.35,0.98 -2.35,2.57 0,1.6 0.93,2.57 2.35,2.57zm0 -0.84c-0.8,0 -1.32,-0.63 -1.32,-1.73 0,-1.1 0.52,-1.73 1.32,-1.73 0.79,0 1.31,0.63 1.31,1.73 0,1.1 -0.51,1.73 -1.31,1.73zm3.13 0.75l1.02 0 0 -2.97c0,-0.7 0.4,-1.14 1.06,-1.14 0.2,0 0.38,0.02 0.46,0.06l0 -0.95c-0.08,-0.01 -0.2,-0.04 -0.35,-0.04 -0.58,0 -1.03,0.35 -1.19,0.92l-0.03 0 0 -0.84 -0.97 0 0 4.96zm5.03 -4.23c0.71,0 1.19,0.53 1.21,1.29l-2.47 0c0.05,-0.75 0.55,-1.29 1.26,-1.29zm1.21 2.77c-0.14,0.43 -0.57,0.73 -1.14,0.73 -0.82,0 -1.34,-0.57 -1.34,-1.44l0 -0.06 3.5 0 0 -0.35c0,-1.5 -0.86,-2.47 -2.23,-2.47 -1.4,0 -2.29,1.04 -2.29,2.59 0,1.57 0.88,2.55 2.33,2.55 1.14,0 1.99,-0.64 2.14,-1.55l-0.97 0z"/>
   <path fill="#e77000" fill-rule="nonzero" d="M4.55 0l65.99 0c1.25,0 2.39,0.52 3.21,1.36l0.01 0c0.82,0.85 1.33,2.01 1.33,3.29l0 13.79c0,1.27 -0.51,2.44 -1.33,3.28l-0.04 0.03c-0.82,0.82 -1.95,1.33 -3.18,1.33l-65.99 0c-1.25,0 -2.39,-0.52 -3.21,-1.36 -0.83,-0.84 -1.34,-2.01 -1.34,-3.28l0 -13.79c0,-1.28 0.51,-2.44 1.34,-3.29 0.82,-0.84 1.96,-1.36 3.21,-1.36zm65.99 1.3l-65.99 0c-0.9,0 -1.72,0.38 -2.31,0.99 -0.6,0.6 -0.96,1.44 -0.96,2.36l0 13.79c0,0.91 0.36,1.75 0.96,2.36 0.59,0.6 1.41,0.98 2.31,0.98l65.99 0c0.89,0 1.69,-0.36 2.29,-0.95l0.02 -0.03c0.6,-0.61 0.97,-1.45 0.97,-2.36l0 -13.79c0,-0.92 -0.37,-1.76 -0.97,-2.36 -0.59,-0.61 -1.41,-0.99 -2.31,-0.99z"/>
  </g>
 </g>
</svg>
