<?xml version="1.0" encoding="UTF-8"?>
<!DOCTYPE svg PUBLIC "-//W3C//DTD SVG 1.1//EN" "http://www.w3.org/Graphics/SVG/1.1/DTD/svg11.dtd">
<!-- Creator: CorelDRAW 2021 (64-Bit) -->
<svg xmlns="http://www.w3.org/2000/svg" xml:space="preserve" width="484px" height="152px" version="1.1" shape-rendering="geometricPrecision" text-rendering="geometricPrecision" image-rendering="optimizeQuality" fill-rule="evenodd" clip-rule="evenodd"
viewBox="0 0 74.25 23.33"
 xmlns:xlink="http://www.w3.org/1999/xlink"
 xmlns:xodm="http://www.corel.com/coreldraw/odm/2003">
 <g id="Layer_x0020_1">
  <metadata id="CorelCorpID_0Corel-Layer"/>
  <path fill="#0E2332" fill-rule="nonzero" d="M4.15 0l65.94 0c1.14,0 2.18,0.47 2.94,1.22 0.75,0.75 1.22,1.79 1.22,2.93l0 15.03c0,1.14 -0.47,2.18 -1.22,2.93 -0.76,0.76 -1.8,1.22 -2.94,1.22l-65.94 0c-1.14,0 -2.18,-0.46 -2.93,-1.22 -0.75,-0.75 -1.22,-1.79 -1.22,-2.93l0 -15.03c0,-1.14 0.47,-2.18 1.22,-2.93 0.75,-0.75 1.79,-1.22 2.93,-1.22zm65.94 0.64l-65.94 0c-0.96,0 -1.84,0.39 -2.48,1.03 -0.64,0.64 -1.03,1.52 -1.03,2.48l0 15.03c0,0.97 0.39,1.85 1.03,2.48 0.64,0.64 1.52,1.04 2.48,1.04l65.94 0c0.97,0 1.85,-0.4 2.49,-1.04 0.63,-0.63 1.03,-1.51 1.03,-2.48l0 -15.03c0,-0.96 -0.4,-1.84 -1.03,-2.48 -0.64,-0.64 -1.52,-1.03 -2.49,-1.03z"/>
  <path fill="#0E2332" d="M15.37 8.33c0.01,-1.54 1,-2.72 2.43,-2.8 0.18,1.59 -0.96,2.73 -2.43,2.8z"/>
  <path fill="#0E2332" d="M20.33 14.54c-0.12,0.98 -1.11,2.28 -1.66,2.79 -1.21,1.11 -1.98,-0.2 -3.37,-0.01 -1.54,0.2 -1.77,1.2 -3.16,-0.42 -1.36,-1.59 -2.35,-4.63 -1.33,-6.69 1.38,-2.8 4.19,-1.24 4.49,-1.2 0.76,0.09 3.21,-1.63 4.7,0.68 -0.64,0.6 -1.36,1.26 -1.25,2.59 0.11,1.26 0.79,1.71 1.58,2.26z"/>
  <path fill="#0E2332" d="M20.33 14.54c-0.79,-0.55 -1.47,-1 -1.58,-2.26 -0.11,-1.33 0.61,-1.99 1.25,-2.59 -1.49,-2.31 -3.94,-0.59 -4.7,-0.68 -0.3,-0.04 -3.11,-1.6 -4.49,1.2 -1.02,2.06 -0.03,5.1 1.33,6.69 1.39,1.62 1.62,0.62 3.16,0.42 1.39,-0.19 2.16,1.12 3.37,0.01 0.55,-0.51 1.54,-1.81 1.66,-2.79z"/>
  <path fill="#0E2332" d="M15.37 8.33c1.47,-0.07 2.61,-1.21 2.43,-2.8 -1.43,0.08 -2.42,1.26 -2.43,2.8z"/>
  <path fill="#0E2332" fill-rule="nonzero" d="M28.57 14.99l1.1 0 -2.41 -6.67 -1.12 0 -2.41 6.67 1.08 0 0.61 -1.8 2.54 0 0.61 1.8zm-1.89 -5.56l0.02 0 1 2.93 -2.02 0 1 -2.93zm6.14 0.62c-0.71,0 -1.27,0.36 -1.55,0.92l-0.02 0 0 -0.84 -0.97 0 0 6.47 1 0 0 -2.41 0.02 0c0.28,0.55 0.84,0.89 1.53,0.89 1.22,0 2.03,-0.98 2.03,-2.52 0,-1.54 -0.81,-2.51 -2.04,-2.51zm-0.27 4.18c-0.77,0 -1.27,-0.65 -1.27,-1.67 0,-1 0.51,-1.67 1.27,-1.67 0.79,0 1.29,0.66 1.29,1.67 0,1.02 -0.5,1.67 -1.29,1.67zm5.61 -4.18c-0.7,0 -1.26,0.36 -1.54,0.92l-0.02 0 0 -0.84 -0.97 0 0 6.47 1 0 0 -2.41 0.02 0c0.28,0.55 0.83,0.89 1.53,0.89 1.22,0 2.03,-0.98 2.03,-2.52 0,-1.54 -0.81,-2.51 -2.05,-2.51zm-0.26 4.18c-0.77,0 -1.28,-0.65 -1.28,-1.67 0,-1 0.52,-1.67 1.28,-1.67 0.79,0 1.28,0.66 1.28,1.67 0,1.02 -0.49,1.67 -1.28,1.67zm4.82 -1.09c0.07,1.2 1.06,1.96 2.54,1.96 1.58,0 2.58,-0.78 2.58,-2.02 0,-0.98 -0.57,-1.53 -1.94,-1.85l-0.73 -0.18c-0.86,-0.22 -1.22,-0.49 -1.22,-0.96 0,-0.6 0.56,-1 1.36,-1 0.8,0 1.35,0.4 1.41,1.07l1.01 0c-0.03,-1.16 -1,-1.95 -2.41,-1.95 -1.42,0 -2.42,0.79 -2.42,1.95 0,0.92 0.57,1.5 1.79,1.79l0.86 0.21c0.87,0.21 1.23,0.52 1.23,1.04 0,0.6 -0.6,1.03 -1.44,1.03 -0.88,0 -1.52,-0.43 -1.6,-1.09l-1.02 0zm6.22 -4.16l0 1.15 -0.71 0 0 0.79 0.71 0 0 2.79c0,0.94 0.38,1.32 1.37,1.32 0.22,0 0.44,-0.02 0.55,-0.05l0 -0.79c-0.06,0.01 -0.23,0.02 -0.33,0.02 -0.4,0 -0.59,-0.19 -0.59,-0.61l0 -2.68 0.93 0 0 -0.79 -0.93 0 0 -1.15 -1 0zm4.72 6.11c1.39,0 2.31,-0.96 2.31,-2.53 0,-1.56 -0.92,-2.52 -2.31,-2.52 -1.39,0 -2.31,0.96 -2.31,2.52 0,1.57 0.92,2.53 2.31,2.53zm0 -0.83c-0.78,0 -1.29,-0.61 -1.29,-1.7 0,-1.07 0.51,-1.69 1.29,-1.69 0.78,0 1.29,0.62 1.29,1.69 0,1.09 -0.51,1.7 -1.29,1.7zm3.08 0.73l0.99 0 0 -2.91c0,-0.69 0.4,-1.12 1.04,-1.12 0.2,0 0.37,0.03 0.45,0.06l0 -0.93c-0.07,-0.01 -0.2,-0.04 -0.34,-0.04 -0.57,0 -1.01,0.34 -1.17,0.91l-0.02 0 0 -0.83 -0.95 0 0 4.86zm4.93 -4.14c0.7,0 1.17,0.52 1.19,1.27l-2.43 0c0.05,-0.74 0.54,-1.27 1.24,-1.27zm1.19 2.72c-0.14,0.42 -0.56,0.71 -1.13,0.71 -0.8,0 -1.31,-0.56 -1.31,-1.41l0 -0.06 3.44 0 0 -0.34c0,-1.47 -0.84,-2.43 -2.19,-2.43 -1.38,0 -2.25,1.02 -2.25,2.55 0,1.53 0.86,2.5 2.29,2.5 1.11,0 1.95,-0.64 2.09,-1.52l-0.94 0z"/>
 </g>
</svg>
