<?xml version="1.0" encoding="UTF-8"?>
<!DOCTYPE svg PUBLIC "-//W3C//DTD SVG 1.1//EN" "http://www.w3.org/Graphics/SVG/1.1/DTD/svg11.dtd">
<!-- Creator: CorelDRAW 2021 (64 Bit) -->
<svg xmlns="http://www.w3.org/2000/svg" xml:space="preserve" width="101px" height="30px" version="1.1" style="shape-rendering:geometricPrecision; text-rendering:geometricPrecision; image-rendering:optimizeQuality; fill-rule:evenodd; clip-rule:evenodd"
viewBox="0 0 49.17 14.61"
 xmlns:xlink="http://www.w3.org/1999/xlink"
 xmlns:xodm="http://www.corel.com/coreldraw/odm/2003">
 <defs>
  <style type="text/css">
   <![CDATA[
    .fil0 {fill:#333333}
    .fil1 {fill:#333333;fill-rule:nonzero}
   ]]>
  </style>
 </defs>
 <g id="Layer_x0020_1">
  <metadata id="CorelCorpID_0Corel-Layer"/>
  <path class="fil0" d="M9.66 4.78c0.01,-1.04 0.67,-1.83 1.63,-1.89 0.12,1.07 -0.65,1.84 -1.63,1.89z"/>
  <path class="fil0" d="M12.99 8.94c-0.09,0.66 -0.75,1.53 -1.12,1.87 -0.81,0.74 -1.33,-0.13 -2.26,-0.01 -1.03,0.14 -1.19,0.81 -2.11,-0.28 -0.92,-1.06 -1.59,-3.1 -0.9,-4.49 0.92,-1.87 2.81,-0.82 3.01,-0.8 0.51,0.06 2.15,-1.09 3.16,0.45 -0.44,0.41 -0.92,0.85 -0.84,1.74 0.07,0.85 0.53,1.15 1.06,1.52z"/>
  <path class="fil0" d="M0.34 3.18c0,-2.58 1.11,-2.83 3.24,-2.83l42.94 0c1.03,0 1.68,0.47 2.03,1.13 0.41,0.77 0.27,1.9 0.27,2.87l0 4c-0.01,1.41 0.24,4.03 -0.4,5 -0.51,0.78 -1.31,0.9 -2.23,0.9l-43.36 0c-1.64,0 -2.49,-0.8 -2.49,-2.48l0 -8.59zm48.77 -1c-0.01,-0.98 -0.83,-1.8 -1.79,-2.05 -0.85,-0.21 -2.87,-0.1 -3.88,-0.1l-39.86 0c-1.27,0 -2.23,-0.06 -3.04,0.95 -0.66,0.82 -0.52,2.18 -0.52,3.45 0,1.4 -0.07,6.96 0.03,7.89 0.3,2.78 3.17,2.25 5.69,2.25l39.87 0c1.44,0.01 2.22,0.06 3.01,-0.95 0.71,-0.91 0.53,-2.21 0.53,-3.52 0,-2.64 -0.01,-5.28 -0.04,-7.92z"/>
  <path class="fil0" d="M12.99 8.94c-0.53,-0.37 -0.99,-0.67 -1.06,-1.52 -0.08,-0.89 0.4,-1.33 0.84,-1.74 -1.01,-1.54 -2.65,-0.39 -3.16,-0.45 -0.2,-0.02 -2.09,-1.07 -3.01,0.8 -0.69,1.39 -0.02,3.43 0.9,4.49 0.92,1.09 1.08,0.42 2.11,0.28 0.93,-0.12 1.45,0.75 2.26,0.01 0.37,-0.34 1.03,-1.21 1.12,-1.87z"/>
  <path class="fil0" d="M9.66 4.78c0.98,-0.05 1.75,-0.82 1.63,-1.89 -0.96,0.06 -1.62,0.85 -1.63,1.89z"/>
  <path class="fil1" d="M18.51 10.99l0.74 0 -1.62 -4.47 -0.75 0 -1.61 4.47 0.72 0 0.41 -1.21 1.7 0 0.41 1.21zm-1.27 -3.73l0.02 0 0.67 1.97 -1.35 0 0.66 -1.97z"/>
  <path id="_1" class="fil1" d="M21.36 7.68c-0.47,0 -0.85,0.24 -1.04,0.61l-0.01 0 0 -0.56 -0.65 0 0 4.34 0.67 0 0 -1.61 0.02 0c0.18,0.36 0.55,0.59 1.02,0.59 0.82,0 1.36,-0.65 1.36,-1.69 0,-1.03 -0.54,-1.68 -1.37,-1.68zm-0.18 2.8c-0.51,0 -0.85,-0.44 -0.85,-1.12 0,-0.67 0.34,-1.12 0.85,-1.12 0.53,0 0.86,0.44 0.86,1.12 0,0.69 -0.33,1.12 -0.86,1.12z"/>
  <path id="_2" class="fil1" d="M24.95 7.68c-0.47,0 -0.85,0.24 -1.04,0.61l-0.01 0 0 -0.56 -0.65 0 0 4.34 0.67 0 0 -1.61 0.01 0c0.19,0.36 0.56,0.59 1.03,0.59 0.82,0 1.36,-0.65 1.36,-1.69 0,-1.03 -0.55,-1.68 -1.37,-1.68zm-0.18 2.8c-0.51,0 -0.86,-0.44 -0.86,-1.12 0,-0.67 0.35,-1.12 0.86,-1.12 0.53,0 0.86,0.44 0.86,1.12 0,0.69 -0.33,1.12 -0.86,1.12z"/>
  <path id="_3" class="fil1" d="M28 9.75c0.05,0.81 0.72,1.32 1.71,1.32 1.06,0 1.73,-0.53 1.73,-1.36 0,-0.66 -0.39,-1.03 -1.3,-1.24l-0.5 -0.12c-0.57,-0.15 -0.81,-0.33 -0.81,-0.65 0,-0.4 0.37,-0.67 0.91,-0.67 0.54,0 0.91,0.27 0.95,0.72l0.67 0c-0.02,-0.77 -0.67,-1.3 -1.61,-1.3 -0.96,0 -1.63,0.53 -1.63,1.3 0,0.62 0.38,1.01 1.2,1.2l0.58 0.14c0.58,0.15 0.83,0.35 0.83,0.7 0,0.4 -0.41,0.69 -0.97,0.69 -0.59,0 -1.02,-0.29 -1.07,-0.73l-0.69 0z"/>
  <path id="_4" class="fil1" d="M32.17 6.96l0 0.77 -0.47 0 0 0.53 0.47 0 0 1.87c0,0.63 0.26,0.89 0.92,0.89 0.15,0 0.3,-0.02 0.37,-0.04l0 -0.53c-0.04,0.01 -0.15,0.02 -0.22,0.02 -0.27,0 -0.39,-0.13 -0.39,-0.41l0 -1.8 0.62 0 0 -0.53 -0.62 0 0 -0.77 -0.68 0z"/>
  <path id="_5" class="fil1" d="M35.34 11.06c0.93,0 1.55,-0.65 1.55,-1.7 0,-1.04 -0.62,-1.69 -1.55,-1.69 -0.93,0 -1.55,0.65 -1.55,1.69 0,1.05 0.62,1.7 1.55,1.7zm0 -0.56c-0.52,0 -0.87,-0.41 -0.87,-1.14 0,-0.72 0.35,-1.13 0.87,-1.13 0.52,0 0.86,0.41 0.86,1.13 0,0.73 -0.33,1.14 -0.86,1.14z"/>
  <path id="_6" class="fil1" d="M37.4 10.99l0.67 0 0 -1.95c0,-0.46 0.27,-0.75 0.7,-0.75 0.13,0 0.25,0.02 0.3,0.04l0 -0.63c-0.05,0 -0.13,-0.02 -0.23,-0.02 -0.38,0 -0.67,0.23 -0.78,0.61l-0.02 0 0 -0.56 -0.64 0 0 3.26z"/>
  <path id="_7" class="fil1" d="M40.71 8.21c0.47,0 0.79,0.35 0.8,0.85l-1.63 0c0.04,-0.49 0.36,-0.85 0.83,-0.85zm0.8 1.83c-0.09,0.28 -0.37,0.47 -0.75,0.47 -0.54,0 -0.88,-0.37 -0.88,-0.94l0 -0.04 2.3 0 0 -0.23c0,-0.99 -0.56,-1.63 -1.47,-1.63 -0.92,0 -1.51,0.69 -1.51,1.71 0,1.03 0.58,1.68 1.54,1.68 0.75,0 1.31,-0.43 1.4,-1.02l-0.63 0z"/>
  <path class="fil1" d="M15.85 5.84l0 -2.42 0.84 0c0.18,0 0.33,0.01 0.43,0.04 0.14,0.03 0.25,0.09 0.35,0.17 0.13,0.11 0.22,0.25 0.29,0.41 0.06,0.17 0.09,0.36 0.09,0.58 0,0.18 -0.02,0.34 -0.06,0.49 -0.05,0.14 -0.1,0.25 -0.17,0.35 -0.06,0.09 -0.14,0.16 -0.22,0.22 -0.08,0.05 -0.17,0.09 -0.29,0.12 -0.11,0.02 -0.24,0.04 -0.38,0.04l-0.88 0zm0.32 -0.28l0.52 0c0.16,0 0.28,-0.02 0.37,-0.05 0.1,-0.03 0.17,-0.07 0.22,-0.12 0.08,-0.08 0.14,-0.18 0.18,-0.31 0.04,-0.13 0.06,-0.28 0.06,-0.47 0,-0.25 -0.04,-0.45 -0.12,-0.58 -0.09,-0.14 -0.19,-0.23 -0.31,-0.27 -0.08,-0.04 -0.22,-0.05 -0.41,-0.05l-0.51 0 0 1.85z"/>
  <path id="_1_0" class="fil1" d="M18.14 4.96c0,-0.32 0.09,-0.56 0.27,-0.72 0.15,-0.13 0.34,-0.19 0.55,-0.19 0.24,0 0.44,0.08 0.59,0.24 0.16,0.15 0.23,0.37 0.23,0.65 0,0.22 -0.03,0.4 -0.1,0.53 -0.07,0.13 -0.16,0.23 -0.29,0.3 -0.13,0.07 -0.27,0.11 -0.43,0.11 -0.24,0 -0.44,-0.08 -0.59,-0.24 -0.15,-0.16 -0.23,-0.38 -0.23,-0.68zm0.31 0c0,0.23 0.05,0.39 0.14,0.51 0.1,0.11 0.22,0.16 0.37,0.16 0.15,0 0.27,-0.05 0.37,-0.16 0.1,-0.12 0.15,-0.29 0.15,-0.52 0,-0.21 -0.05,-0.38 -0.15,-0.49 -0.1,-0.11 -0.22,-0.16 -0.37,-0.16 -0.15,0 -0.27,0.05 -0.37,0.16 -0.09,0.11 -0.14,0.28 -0.14,0.5z"/>
  <path id="_2_1" class="fil1" d="M20.45 5.84l-0.53 -1.75 0.31 0 0.28 1.01 0.1 0.37c0,-0.01 0.03,-0.13 0.09,-0.36l0.27 -1.02 0.31 0 0.26 1.01 0.09 0.34 0.1 -0.34 0.3 -1.01 0.29 0 -0.55 1.75 -0.31 0 -0.28 -1.05 -0.07 -0.3 -0.35 1.35 -0.31 0z"/>
  <path id="_3_2" class="fil1" d="M22.57 5.84l0 -1.75 0.26 0 0 0.25c0.13,-0.19 0.32,-0.29 0.56,-0.29 0.11,0 0.2,0.02 0.29,0.06 0.09,0.03 0.16,0.08 0.2,0.15 0.04,0.06 0.07,0.13 0.09,0.21 0.01,0.06 0.02,0.16 0.02,0.29l0 1.08 -0.3 0 0 -1.07c0,-0.12 -0.01,-0.21 -0.03,-0.27 -0.03,-0.06 -0.07,-0.1 -0.13,-0.14 -0.05,-0.04 -0.12,-0.05 -0.2,-0.05 -0.13,0 -0.24,0.04 -0.33,0.12 -0.09,0.08 -0.14,0.23 -0.14,0.45l0 0.96 -0.29 0z"/>
  <polygon id="_4_3" class="fil1" points="24.44,5.84 24.44,3.42 24.73,3.42 24.73,5.84 "/>
  <path id="_5_4" class="fil1" d="M25.08 4.96c0,-0.32 0.09,-0.56 0.27,-0.72 0.15,-0.13 0.34,-0.19 0.55,-0.19 0.24,0 0.44,0.08 0.59,0.24 0.16,0.15 0.23,0.37 0.23,0.65 0,0.22 -0.03,0.4 -0.1,0.53 -0.07,0.13 -0.17,0.23 -0.29,0.3 -0.13,0.07 -0.27,0.11 -0.43,0.11 -0.24,0 -0.44,-0.08 -0.59,-0.24 -0.15,-0.16 -0.23,-0.38 -0.23,-0.68zm0.31 0c0,0.23 0.04,0.39 0.14,0.51 0.1,0.11 0.22,0.16 0.37,0.16 0.15,0 0.27,-0.05 0.37,-0.16 0.1,-0.12 0.15,-0.29 0.15,-0.52 0,-0.21 -0.05,-0.38 -0.15,-0.49 -0.1,-0.11 -0.22,-0.16 -0.37,-0.16 -0.15,0 -0.27,0.05 -0.37,0.16 -0.1,0.11 -0.14,0.28 -0.14,0.5z"/>
  <path id="_6_5" class="fil1" d="M28.21 5.62c-0.11,0.09 -0.21,0.16 -0.31,0.2 -0.11,0.04 -0.22,0.06 -0.33,0.06 -0.19,0 -0.34,-0.05 -0.45,-0.14 -0.1,-0.1 -0.15,-0.22 -0.15,-0.36 0,-0.09 0.02,-0.17 0.06,-0.24 0.04,-0.07 0.09,-0.13 0.15,-0.17 0.06,-0.04 0.14,-0.07 0.21,-0.1 0.06,-0.01 0.15,-0.03 0.27,-0.04 0.24,-0.03 0.42,-0.06 0.53,-0.1 0,-0.04 0,-0.07 0,-0.08 0,-0.12 -0.03,-0.2 -0.08,-0.25 -0.08,-0.07 -0.19,-0.1 -0.34,-0.1 -0.14,0 -0.25,0.02 -0.31,0.07 -0.07,0.05 -0.12,0.14 -0.15,0.26l-0.29 -0.04c0.03,-0.12 0.07,-0.22 0.13,-0.3 0.06,-0.08 0.15,-0.14 0.26,-0.18 0.12,-0.04 0.25,-0.06 0.4,-0.06 0.15,0 0.27,0.02 0.37,0.05 0.09,0.04 0.16,0.08 0.2,0.14 0.05,0.05 0.08,0.12 0.1,0.2 0.01,0.05 0.01,0.14 0.01,0.27l0 0.39c0,0.28 0.01,0.45 0.02,0.53 0.01,0.07 0.04,0.14 0.07,0.21l-0.31 0c-0.03,-0.06 -0.05,-0.14 -0.06,-0.22zm-0.02 -0.66c-0.11,0.05 -0.27,0.08 -0.49,0.11 -0.12,0.02 -0.2,0.04 -0.26,0.06 -0.05,0.02 -0.08,0.06 -0.11,0.1 -0.03,0.04 -0.04,0.09 -0.04,0.14 0,0.08 0.03,0.14 0.09,0.19 0.06,0.06 0.14,0.08 0.26,0.08 0.11,0 0.22,-0.02 0.3,-0.07 0.09,-0.05 0.16,-0.12 0.2,-0.21 0.03,-0.06 0.05,-0.16 0.05,-0.29l0 -0.11z"/>
  <path id="_7_6" class="fil1" d="M30.08 5.84l0 -0.22c-0.11,0.17 -0.28,0.26 -0.49,0.26 -0.14,0 -0.27,-0.04 -0.39,-0.12 -0.11,-0.08 -0.2,-0.18 -0.27,-0.32 -0.06,-0.14 -0.09,-0.3 -0.09,-0.48 0,-0.17 0.02,-0.33 0.08,-0.47 0.06,-0.14 0.15,-0.25 0.26,-0.33 0.12,-0.07 0.25,-0.11 0.39,-0.11 0.11,0 0.2,0.02 0.29,0.07 0.08,0.04 0.14,0.1 0.2,0.17l0 -0.87 0.29 0 0 2.42 -0.27 0zm-0.94 -0.87c0,0.22 0.05,0.39 0.14,0.5 0.1,0.11 0.21,0.16 0.34,0.16 0.13,0 0.24,-0.05 0.33,-0.16 0.09,-0.1 0.13,-0.26 0.13,-0.48 0,-0.24 -0.04,-0.41 -0.14,-0.53 -0.09,-0.11 -0.2,-0.16 -0.34,-0.16 -0.13,0 -0.24,0.05 -0.33,0.16 -0.09,0.1 -0.13,0.27 -0.13,0.51z"/>
  <path id="_8" class="fil1" d="M31.65 4.96c0,-0.32 0.09,-0.56 0.27,-0.72 0.15,-0.13 0.33,-0.19 0.55,-0.19 0.24,0 0.44,0.08 0.59,0.24 0.15,0.15 0.23,0.37 0.23,0.65 0,0.22 -0.03,0.4 -0.1,0.53 -0.07,0.13 -0.17,0.23 -0.3,0.3 -0.13,0.07 -0.27,0.11 -0.42,0.11 -0.24,0 -0.44,-0.08 -0.59,-0.24 -0.16,-0.16 -0.23,-0.38 -0.23,-0.68zm0.3 0c0,0.23 0.05,0.39 0.15,0.51 0.1,0.11 0.22,0.16 0.37,0.16 0.15,0 0.27,-0.05 0.37,-0.16 0.1,-0.12 0.15,-0.29 0.15,-0.52 0,-0.21 -0.05,-0.38 -0.15,-0.49 -0.1,-0.11 -0.22,-0.16 -0.37,-0.16 -0.15,0 -0.27,0.05 -0.37,0.16 -0.1,0.11 -0.15,0.28 -0.15,0.5z"/>
  <path id="_9" class="fil1" d="M33.64 5.84l0 -1.75 0.26 0 0 0.25c0.13,-0.19 0.32,-0.29 0.56,-0.29 0.11,0 0.2,0.02 0.29,0.06 0.09,0.03 0.16,0.08 0.2,0.15 0.04,0.06 0.07,0.13 0.09,0.21 0.01,0.06 0.02,0.16 0.02,0.29l0 1.08 -0.3 0 0 -1.07c0,-0.12 -0.01,-0.21 -0.03,-0.27 -0.03,-0.06 -0.07,-0.1 -0.13,-0.14 -0.05,-0.04 -0.12,-0.05 -0.2,-0.05 -0.13,0 -0.24,0.04 -0.33,0.12 -0.09,0.08 -0.14,0.23 -0.14,0.45l0 0.96 -0.29 0z"/>
  <path id="_10" class="fil1" d="M37.1 5.57l0.04 0.27c-0.09,0.01 -0.16,0.02 -0.23,0.02 -0.1,0 -0.19,-0.01 -0.25,-0.05 -0.06,-0.03 -0.1,-0.08 -0.12,-0.13 -0.03,-0.06 -0.04,-0.18 -0.04,-0.35l0 -1.01 -0.22 0 0 -0.23 0.22 0 0 -0.44 0.3 -0.17 0 0.61 0.3 0 0 0.23 -0.3 0 0 1.02c0,0.09 0,0.14 0.01,0.17 0.01,0.02 0.03,0.04 0.06,0.05 0.02,0.02 0.05,0.03 0.1,0.03 0.03,0 0.07,-0.01 0.13,-0.02z"/>
  <path id="_11" class="fil1" d="M37.39 5.84l0 -2.42 0.3 0 0 0.87c0.13,-0.16 0.31,-0.24 0.52,-0.24 0.13,0 0.24,0.03 0.33,0.08 0.1,0.05 0.17,0.12 0.21,0.21 0.04,0.09 0.06,0.22 0.06,0.39l0 1.11 -0.3 0 0 -1.11c0,-0.15 -0.03,-0.25 -0.09,-0.32 -0.07,-0.07 -0.16,-0.1 -0.27,-0.1 -0.09,0 -0.17,0.02 -0.25,0.06 -0.08,0.05 -0.13,0.11 -0.17,0.19 -0.03,0.08 -0.04,0.19 -0.04,0.32l0 0.96 -0.3 0z"/>
  <path id="_12" class="fil1" d="M40.46 5.27l0.31 0.04c-0.05,0.18 -0.14,0.32 -0.27,0.42 -0.13,0.1 -0.3,0.15 -0.5,0.15 -0.26,0 -0.46,-0.08 -0.61,-0.24 -0.15,-0.16 -0.22,-0.38 -0.22,-0.66 0,-0.3 0.07,-0.52 0.22,-0.69 0.16,-0.16 0.35,-0.24 0.59,-0.24 0.24,0 0.43,0.08 0.57,0.24 0.15,0.16 0.23,0.38 0.23,0.67 0,0.02 0,0.04 0,0.08l-1.31 0c0.01,0.19 0.07,0.34 0.16,0.44 0.1,0.1 0.22,0.15 0.37,0.15 0.11,0 0.2,-0.03 0.28,-0.08 0.07,-0.06 0.13,-0.15 0.18,-0.28zm-0.97 -0.47l0.97 0c-0.01,-0.15 -0.05,-0.26 -0.11,-0.34 -0.09,-0.11 -0.22,-0.17 -0.37,-0.17 -0.13,0 -0.25,0.05 -0.34,0.14 -0.09,0.09 -0.14,0.21 -0.15,0.37z"/>
 </g>
</svg>
