<?xml version="1.0" encoding="UTF-8"?>
<!DOCTYPE svg PUBLIC "-//W3C//DTD SVG 1.1//EN" "http://www.w3.org/Graphics/SVG/1.1/DTD/svg11.dtd">
<!-- Creator: CorelDRAW 2021 (64-Bit) -->
<svg xmlns="http://www.w3.org/2000/svg" xml:space="preserve" width="103px" height="31px" version="1.1" shape-rendering="geometricPrecision" text-rendering="geometricPrecision" image-rendering="optimizeQuality" fill-rule="evenodd" clip-rule="evenodd"
viewBox="0 0 21.65 6.5"
 xmlns:xlink="http://www.w3.org/1999/xlink"
 xmlns:xodm="http://www.corel.com/coreldraw/odm/2003">
 <g id="Layer_x0020_1">
  <metadata id="CorelCorpID_0Corel-Layer"/>
  <path fill="#FCFBFC" d="M4.34 2.14c0.01,-0.46 0.3,-0.8 0.72,-0.83 0.05,0.47 -0.28,0.8 -0.72,0.83z"/>
  <path fill="#FCFBFC" d="M5.8 3.96c-0.03,0.29 -0.32,0.67 -0.49,0.82 -0.35,0.32 -0.58,-0.06 -0.98,0 -0.46,0.06 -0.52,0.35 -0.93,-0.13 -0.4,-0.46 -0.7,-1.36 -0.4,-1.96 0.41,-0.82 1.24,-0.37 1.32,-0.36 0.23,0.03 0.95,-0.48 1.39,0.2 -0.19,0.18 -0.4,0.38 -0.37,0.77 0.03,0.37 0.23,0.5 0.46,0.66z"/>
  <path fill="#E77000" d="M5.8 3.96c-0.23,-0.16 -0.43,-0.29 -0.46,-0.66 -0.03,-0.39 0.18,-0.59 0.37,-0.77 -0.44,-0.68 -1.16,-0.17 -1.39,-0.2 -0.08,-0.01 -0.91,-0.46 -1.32,0.36 -0.3,0.6 0,1.5 0.4,1.96 0.41,0.48 0.47,0.19 0.93,0.13 0.4,-0.06 0.63,0.32 0.98,0 0.17,-0.15 0.46,-0.53 0.49,-0.82z"/>
  <path fill="#E77000" d="M4.34 2.14c0.44,-0.03 0.77,-0.36 0.72,-0.83 -0.42,0.03 -0.71,0.37 -0.72,0.83z"/>
  <path fill="#E77000" fill-rule="nonzero" d="M8.23 4.86l0.32 0 -0.71 -1.96 -0.33 0 -0.71 1.96 0.32 0 0.18 -0.53 0.75 0 0.18 0.53zm-0.56 -1.63l0.01 0 0.29 0.86 -0.59 0 0.29 -0.86z"/>
  <path id="_1" fill="#E77000" fill-rule="nonzero" d="M9.47 3.41c-0.2,0 -0.37,0.1 -0.45,0.27l-0.01 0 0 -0.25 -0.28 0 0 1.9 0.29 0 0 -0.71 0.01 0c0.08,0.16 0.24,0.26 0.45,0.26 0.36,0 0.59,-0.28 0.59,-0.73 0,-0.46 -0.23,-0.74 -0.6,-0.74zm-0.07 1.23c-0.23,0 -0.38,-0.2 -0.38,-0.49 0,-0.3 0.15,-0.5 0.38,-0.5 0.23,0 0.37,0.2 0.37,0.5 0,0.3 -0.14,0.49 -0.37,0.49z"/>
  <path id="_2" fill="#E77000" fill-rule="nonzero" d="M11.04 3.41c-0.2,0 -0.37,0.1 -0.45,0.27l-0.01 0 0 -0.25 -0.28 0 0 1.9 0.29 0 0 -0.71 0.01 0c0.08,0.16 0.24,0.26 0.45,0.26 0.36,0 0.6,-0.28 0.6,-0.73 0,-0.46 -0.24,-0.74 -0.61,-0.74zm-0.07 1.23c-0.23,0 -0.38,-0.2 -0.38,-0.49 0,-0.3 0.15,-0.5 0.38,-0.5 0.23,0 0.37,0.2 0.37,0.5 0,0.3 -0.14,0.49 -0.37,0.49z"/>
  <path id="_3" fill="#E77000" fill-rule="nonzero" d="M12.38 4.31c0.02,0.36 0.32,0.58 0.75,0.58 0.47,0 0.76,-0.23 0.76,-0.59 0,-0.29 -0.17,-0.45 -0.57,-0.55l-0.22 -0.05c-0.25,-0.06 -0.35,-0.14 -0.35,-0.28 0,-0.18 0.16,-0.3 0.39,-0.3 0.24,0 0.4,0.12 0.42,0.32l0.3 0c-0.01,-0.34 -0.3,-0.57 -0.71,-0.57 -0.42,0 -0.71,0.23 -0.71,0.57 0,0.27 0.16,0.44 0.52,0.53l0.26 0.06c0.25,0.06 0.36,0.15 0.36,0.3 0,0.18 -0.18,0.31 -0.43,0.31 -0.26,0 -0.44,-0.13 -0.47,-0.33l-0.3 0z"/>
  <path id="_4" fill="#E77000" fill-rule="nonzero" d="M14.21 3.09l0 0.34 -0.21 0 0 0.23 0.21 0 0 0.82c0,0.28 0.11,0.39 0.4,0.39 0.07,0 0.13,-0.01 0.17,-0.01l0 -0.24c-0.02,0.01 -0.07,0.01 -0.1,0.01 -0.12,0 -0.17,-0.06 -0.17,-0.18l0 -0.79 0.27 0 0 -0.23 -0.27 0 0 -0.34 -0.3 0z"/>
  <path id="_5" fill="#E77000" fill-rule="nonzero" d="M15.6 4.89c0.41,0 0.68,-0.28 0.68,-0.74 0,-0.46 -0.27,-0.75 -0.68,-0.75 -0.41,0 -0.68,0.29 -0.68,0.75 0,0.46 0.27,0.74 0.68,0.74zm0 -0.24c-0.23,0 -0.38,-0.19 -0.38,-0.5 0,-0.32 0.15,-0.5 0.38,-0.5 0.23,0 0.38,0.18 0.38,0.5 0,0.31 -0.15,0.5 -0.38,0.5z"/>
  <path id="_6" fill="#E77000" fill-rule="nonzero" d="M16.5 4.86l0.3 0 0 -0.86c0,-0.2 0.11,-0.32 0.3,-0.32 0.06,0 0.11,0 0.13,0.01l0 -0.27c-0.02,-0.01 -0.05,-0.01 -0.1,-0.01 -0.17,0 -0.29,0.1 -0.34,0.26l-0.01 0 0 -0.24 -0.28 0 0 1.43z"/>
  <path id="_7" fill="#E77000" fill-rule="nonzero" d="M17.95 3.64c0.21,0 0.35,0.15 0.35,0.37l-0.71 0c0.01,-0.21 0.16,-0.37 0.36,-0.37zm0.35 0.8c-0.04,0.13 -0.16,0.21 -0.33,0.21 -0.23,0 -0.38,-0.17 -0.38,-0.41l0 -0.02 1.01 0 0 -0.1c0,-0.43 -0.25,-0.72 -0.65,-0.72 -0.4,0 -0.66,0.3 -0.66,0.75 0,0.45 0.25,0.74 0.67,0.74 0.33,0 0.58,-0.19 0.62,-0.45l-0.28 0z"/>
  <path fill="#E77000" fill-rule="nonzero" d="M7.06 2.6l0 -1.06 0.37 0c0.08,0 0.14,0.01 0.18,0.02 0.06,0.01 0.12,0.04 0.16,0.07 0.05,0.05 0.1,0.11 0.12,0.18 0.03,0.08 0.05,0.16 0.05,0.26 0,0.08 -0.01,0.15 -0.03,0.21 -0.02,0.06 -0.05,0.11 -0.07,0.15 -0.03,0.04 -0.07,0.08 -0.1,0.1 -0.04,0.02 -0.08,0.04 -0.13,0.05 -0.05,0.02 -0.1,0.02 -0.17,0.02l-0.38 0zm0.14 -0.12l0.23 0c0.07,0 0.12,-0.01 0.16,-0.02 0.04,-0.02 0.07,-0.03 0.1,-0.06 0.03,-0.03 0.05,-0.08 0.07,-0.13 0.02,-0.06 0.03,-0.13 0.03,-0.21 0,-0.11 -0.02,-0.19 -0.05,-0.25 -0.04,-0.06 -0.08,-0.1 -0.14,-0.12 -0.03,-0.02 -0.09,-0.02 -0.18,-0.02l-0.22 0 0 0.81z"/>
  <path id="_1_0" fill="#E77000" fill-rule="nonzero" d="M8.06 2.22c0,-0.14 0.04,-0.25 0.12,-0.32 0.07,-0.05 0.15,-0.08 0.24,-0.08 0.11,0 0.19,0.03 0.26,0.1 0.07,0.07 0.1,0.17 0.1,0.29 0,0.1 -0.01,0.17 -0.04,0.23 -0.03,0.06 -0.08,0.1 -0.13,0.13 -0.06,0.03 -0.12,0.05 -0.19,0.05 -0.1,0 -0.19,-0.04 -0.26,-0.11 -0.06,-0.06 -0.1,-0.16 -0.1,-0.29zm0.14 0c0,0.1 0.02,0.17 0.06,0.22 0.04,0.05 0.1,0.07 0.16,0.07 0.07,0 0.12,-0.02 0.16,-0.07 0.05,-0.05 0.07,-0.13 0.07,-0.23 0,-0.09 -0.02,-0.16 -0.07,-0.21 -0.04,-0.05 -0.09,-0.07 -0.16,-0.07 -0.06,0 -0.12,0.02 -0.16,0.07 -0.04,0.05 -0.06,0.12 -0.06,0.22z"/>
  <path id="_2_1" fill="#E77000" fill-rule="nonzero" d="M9.07 2.6l-0.23 -0.77 0.14 0 0.12 0.45 0.04 0.16c0,-0.01 0.02,-0.06 0.04,-0.16l0.12 -0.45 0.14 0 0.11 0.45 0.04 0.15 0.04 -0.15 0.14 -0.45 0.12 0 -0.24 0.77 -0.13 0 -0.12 -0.46 -0.03 -0.13 -0.16 0.59 -0.14 0z"/>
  <path id="_3_2" fill="#E77000" fill-rule="nonzero" d="M10 2.6l0 -0.77 0.12 0 0 0.11c0.05,-0.08 0.14,-0.12 0.24,-0.12 0.05,0 0.09,0.01 0.13,0.02 0.04,0.02 0.07,0.04 0.09,0.07 0.02,0.02 0.03,0.06 0.04,0.09 0,0.03 0,0.07 0,0.13l0 0.47 -0.13 0 0 -0.47c0,-0.05 0,-0.09 -0.01,-0.11 -0.01,-0.03 -0.03,-0.05 -0.05,-0.07 -0.03,-0.01 -0.06,-0.02 -0.1,-0.02 -0.05,0 -0.1,0.02 -0.14,0.05 -0.04,0.04 -0.06,0.1 -0.06,0.2l0 0.42 -0.13 0z"/>
  <polygon id="_4_3" fill="#E77000" fill-rule="nonzero" points="10.82,2.6 10.82,1.54 10.95,1.54 10.95,2.6 "/>
  <path id="_5_4" fill="#E77000" fill-rule="nonzero" d="M11.1 2.22c0,-0.14 0.04,-0.25 0.12,-0.32 0.07,-0.05 0.15,-0.08 0.24,-0.08 0.11,0 0.19,0.03 0.26,0.1 0.07,0.07 0.1,0.17 0.1,0.29 0,0.1 -0.01,0.17 -0.04,0.23 -0.03,0.06 -0.07,0.1 -0.13,0.13 -0.06,0.03 -0.12,0.05 -0.19,0.05 -0.1,0 -0.19,-0.04 -0.26,-0.11 -0.06,-0.06 -0.1,-0.16 -0.1,-0.29zm0.14 0c0,0.1 0.02,0.17 0.06,0.22 0.04,0.05 0.1,0.07 0.16,0.07 0.07,0 0.12,-0.02 0.16,-0.07 0.05,-0.05 0.07,-0.13 0.07,-0.23 0,-0.09 -0.02,-0.16 -0.07,-0.21 -0.04,-0.05 -0.09,-0.07 -0.16,-0.07 -0.06,0 -0.12,0.02 -0.16,0.07 -0.04,0.05 -0.06,0.12 -0.06,0.22z"/>
  <path id="_6_5" fill="#E77000" fill-rule="nonzero" d="M12.48 2.51c-0.05,0.04 -0.1,0.07 -0.14,0.08 -0.05,0.02 -0.1,0.03 -0.15,0.03 -0.08,0 -0.15,-0.02 -0.19,-0.06 -0.05,-0.05 -0.07,-0.1 -0.07,-0.16 0,-0.04 0.01,-0.07 0.03,-0.1 0.01,-0.04 0.04,-0.06 0.06,-0.08 0.03,-0.02 0.06,-0.03 0.1,-0.04 0.02,-0.01 0.06,-0.01 0.11,-0.02 0.11,-0.01 0.19,-0.03 0.23,-0.05 0.01,-0.01 0.01,-0.02 0.01,-0.03 0,-0.05 -0.02,-0.09 -0.04,-0.11 -0.03,-0.03 -0.08,-0.04 -0.15,-0.04 -0.06,0 -0.11,0.01 -0.14,0.03 -0.02,0.02 -0.05,0.06 -0.06,0.11l-0.13 -0.02c0.01,-0.05 0.03,-0.09 0.06,-0.13 0.03,-0.03 0.06,-0.06 0.11,-0.08 0.05,-0.01 0.11,-0.02 0.18,-0.02 0.06,0 0.12,0.01 0.16,0.02 0.04,0.02 0.07,0.04 0.09,0.06 0.02,0.02 0.03,0.05 0.04,0.09 0,0.02 0.01,0.06 0.01,0.12l0 0.17c0,0.12 0,0.2 0.01,0.23 0,0.03 0.01,0.06 0.03,0.09l-0.14 0c-0.01,-0.03 -0.02,-0.06 -0.02,-0.09zm-0.01 -0.29c-0.05,0.02 -0.12,0.03 -0.22,0.05 -0.05,0 -0.09,0.01 -0.11,0.02 -0.02,0.01 -0.04,0.03 -0.05,0.04 -0.01,0.02 -0.02,0.04 -0.02,0.06 0,0.04 0.01,0.07 0.04,0.09 0.03,0.02 0.06,0.04 0.11,0.04 0.05,0 0.1,-0.02 0.14,-0.04 0.04,-0.02 0.07,-0.05 0.08,-0.09 0.02,-0.03 0.02,-0.07 0.02,-0.13l0.01 -0.04z"/>
  <path id="_7_6" fill="#E77000" fill-rule="nonzero" d="M13.29 2.6l0 -0.1c-0.05,0.08 -0.12,0.12 -0.21,0.12 -0.06,0 -0.12,-0.02 -0.17,-0.05 -0.05,-0.04 -0.09,-0.08 -0.12,-0.14 -0.03,-0.06 -0.04,-0.13 -0.04,-0.21 0,-0.08 0.01,-0.15 0.04,-0.21 0.02,-0.06 0.06,-0.11 0.11,-0.14 0.05,-0.04 0.11,-0.05 0.17,-0.05 0.05,0 0.09,0.01 0.13,0.03 0.03,0.02 0.06,0.04 0.08,0.07l0 -0.38 0.13 0 0 1.06 -0.12 0zm-0.41 -0.38c0,0.1 0.02,0.17 0.06,0.22 0.04,0.05 0.09,0.07 0.15,0.07 0.06,0 0.11,-0.02 0.15,-0.07 0.04,-0.04 0.06,-0.12 0.06,-0.21 0,-0.11 -0.03,-0.18 -0.07,-0.23 -0.04,-0.05 -0.09,-0.07 -0.15,-0.07 -0.05,0 -0.1,0.02 -0.14,0.07 -0.04,0.04 -0.06,0.12 -0.06,0.22z"/>
  <path id="_8" fill="#E77000" fill-rule="nonzero" d="M13.98 2.22c0,-0.14 0.04,-0.25 0.12,-0.32 0.07,-0.05 0.15,-0.08 0.24,-0.08 0.11,0 0.19,0.03 0.26,0.1 0.07,0.07 0.1,0.17 0.1,0.29 0,0.1 -0.02,0.17 -0.04,0.23 -0.03,0.06 -0.08,0.1 -0.13,0.13 -0.06,0.03 -0.12,0.05 -0.19,0.05 -0.11,0 -0.19,-0.04 -0.26,-0.11 -0.07,-0.06 -0.1,-0.16 -0.1,-0.29zm0.13 0c0,0.1 0.03,0.17 0.07,0.22 0.04,0.05 0.1,0.07 0.16,0.07 0.07,0 0.12,-0.02 0.16,-0.07 0.05,-0.05 0.07,-0.13 0.07,-0.23 0,-0.09 -0.03,-0.16 -0.07,-0.21 -0.04,-0.05 -0.1,-0.07 -0.16,-0.07 -0.06,0 -0.12,0.02 -0.16,0.07 -0.04,0.05 -0.07,0.12 -0.07,0.22z"/>
  <path id="_9" fill="#E77000" fill-rule="nonzero" d="M14.85 2.6l0 -0.77 0.12 0 0 0.11c0.06,-0.08 0.14,-0.12 0.24,-0.12 0.05,0 0.09,0.01 0.13,0.02 0.04,0.02 0.07,0.04 0.09,0.07 0.02,0.02 0.03,0.06 0.04,0.09 0,0.03 0,0.07 0,0.13l0 0.47 -0.13 0 0 -0.47c0,-0.05 0,-0.09 -0.01,-0.11 -0.01,-0.03 -0.03,-0.05 -0.05,-0.07 -0.03,-0.01 -0.06,-0.02 -0.09,-0.02 -0.06,0 -0.11,0.02 -0.15,0.05 -0.04,0.04 -0.06,0.1 -0.06,0.2l0 0.42 -0.13 0z"/>
  <path id="_10" fill="#E77000" fill-rule="nonzero" d="M16.37 2.49l0.02 0.11c-0.04,0.01 -0.07,0.01 -0.1,0.01 -0.05,0 -0.09,-0.01 -0.11,-0.02 -0.03,-0.02 -0.05,-0.04 -0.06,-0.06 -0.01,-0.02 -0.01,-0.08 -0.01,-0.15l0 -0.45 -0.1 0 0 -0.1 0.1 0 0 -0.19 0.13 -0.07 0 0.26 0.13 0 0 0.1 -0.13 0 0 0.45c0,0.04 0,0.06 0,0.08 0.01,0.01 0.02,0.01 0.03,0.02 0.01,0.01 0.02,0.01 0.04,0.01 0.02,0 0.03,0 0.06,0z"/>
  <path id="_11" fill="#E77000" fill-rule="nonzero" d="M16.5 2.6l0 -1.06 0.13 0 0 0.38c0.06,-0.07 0.13,-0.1 0.22,-0.1 0.06,0 0.11,0.01 0.15,0.03 0.04,0.02 0.07,0.05 0.09,0.09 0.02,0.04 0.03,0.1 0.03,0.18l0 0.48 -0.13 0 0 -0.48c0,-0.07 -0.02,-0.12 -0.04,-0.15 -0.03,-0.03 -0.07,-0.04 -0.12,-0.04 -0.04,0 -0.08,0.01 -0.11,0.03 -0.03,0.02 -0.06,0.05 -0.07,0.08 -0.02,0.04 -0.02,0.08 -0.02,0.14l0 0.42 -0.13 0z"/>
  <path id="_12" fill="#E77000" fill-rule="nonzero" d="M17.84 2.35l0.14 0.02c-0.03,0.08 -0.06,0.14 -0.12,0.18 -0.06,0.05 -0.13,0.07 -0.22,0.07 -0.11,0 -0.2,-0.04 -0.27,-0.11 -0.06,-0.06 -0.09,-0.16 -0.09,-0.29 0,-0.12 0.03,-0.22 0.09,-0.3 0.07,-0.07 0.16,-0.1 0.26,-0.1 0.1,0 0.19,0.03 0.25,0.1 0.07,0.07 0.1,0.17 0.1,0.3 0,0 0,0.02 0,0.03l-0.57 0c0,0.08 0.03,0.15 0.07,0.19 0.04,0.05 0.1,0.07 0.16,0.07 0.05,0 0.09,-0.01 0.12,-0.04 0.04,-0.02 0.06,-0.06 0.08,-0.12zm-0.42 -0.21l0.42 0c0,-0.06 -0.02,-0.11 -0.05,-0.14 -0.04,-0.05 -0.09,-0.08 -0.16,-0.08 -0.06,0 -0.11,0.02 -0.15,0.06 -0.04,0.04 -0.06,0.1 -0.06,0.16z"/>
  <rect fill="none" stroke="#E77000" stroke-width="0.19" stroke-linecap="round" stroke-linejoin="round" stroke-miterlimit="22.9256" x="0.09" y="0.09" width="21.47" height="6.31" rx="1.26" ry="1.26"/>
 </g>
</svg>
