<svg xmlns="http://www.w3.org/2000/svg" width="20" height="21" fill="none" class="icon" viewBox="0 0 20 21"><path fill="currentColor" fill-rule="evenodd" d="M10 2.663c.357 0 .646.29.646.647v9.345l2.532-2.532a.646.646 0 0 1 .914.914l-3.635 3.635a.646.646 0 0 1-.914 0l-3.635-3.635a.646.646 0 0 1 .914-.914l2.532 2.532V3.31c0-.357.29-.647.646-.647M2.73 13.57c.357 0 .646.29.646.646v1.818a1.17 1.17 0 0 0 1.171 1.171h10.906a1.17 1.17 0 0 0 1.171-1.171v-1.818a.646.646 0 1 1 1.293 0v1.818a2.464 2.464 0 0 1-2.464 2.464H4.547a2.464 2.464 0 0 1-2.464-2.464v-1.818c0-.357.29-.646.647-.646" clip-rule="evenodd"></path></svg>