<?xml version="1.0" encoding="UTF-8"?>
<!DOCTYPE svg PUBLIC "-//W3C//DTD SVG 1.1//EN" "http://www.w3.org/Graphics/SVG/1.1/DTD/svg11.dtd">
<!-- Creator: CorelDRAW 2021 (64-Bit) -->
<svg xmlns="http://www.w3.org/2000/svg" xml:space="preserve" width="151px" height="192px" version="1.1" style="shape-rendering:geometricPrecision; text-rendering:geometricPrecision; image-rendering:optimizeQuality; fill-rule:evenodd; clip-rule:evenodd"
viewBox="0 0 255.36 323.56"
 xmlns:xlink="http://www.w3.org/1999/xlink"
 xmlns:xodm="http://www.corel.com/coreldraw/odm/2003">
 <defs>
  <style type="text/css">
   <![CDATA[
    .fil0 {fill:white}
   ]]>
  </style>
 </defs>
 <g id="Layer_x0020_1">
  <metadata id="CorelCorpID_0Corel-Layer"/>
  <path class="fil0" d="M0.08 159.03c0,25.36 23.31,2.44 30.01,-4.28 32.45,-32.57 38.86,-74.1 99.81,-74.1 45.58,0 78.38,46.74 78.38,63.69 0,48.99 -18.61,73.12 4.13,103.65 23.2,31.15 31.93,16.32 31.27,9.61 -0.66,-6.8 -23.15,-24.62 -23.15,-39.78 0,-42.6 23.35,-72.81 -12.77,-117.05 -48.02,-58.81 -127.49,-51.26 -169.01,11.2 -15.88,23.88 -11.46,19.94 -32.48,38.56 -4.26,3.77 -6.19,1.19 -6.19,8.5z"/>
  <path class="fil0" d="M0.08 203.12c0,31.29 54.27,-19.62 64.49,-38.38 17.4,-31.96 26.24,-52.25 65.33,-52.25 23.42,0 46.54,20.76 46.54,44.09 0,46.51 -19.12,71.21 6.25,111.33 7.2,11.37 21.72,22.05 37.84,23.4 3.26,-4.88 4.46,-6.79 7.35,-12.25 -16.07,-16.94 -28.26,-9.05 -35.76,-37.76 -10.32,-39.47 22.63,-84.92 -10.13,-122.11 -36.5,-41.45 -94.17,-36.35 -127.27,23.45 -13.61,24.59 -19.43,30.21 -40.29,45.44 -5.41,3.95 -14.35,7.95 -14.35,15.04z"/>
  <path class="fil0" d="M0.08 252.11c10.66,2.49 9.89,2.8 18.67,-3.25 6.57,-4.52 11.17,-7.46 17.4,-12.12 22.05,-16.49 44.17,-35.12 57.81,-59.76 13.25,-23.94 11.93,-32.64 33.49,-32.64 13.21,0 22.04,12.11 22.04,24.49 0,48.09 -92.63,108.49 -104.78,120.78 -6.44,6.51 -18.4,55.07 74.78,-38.11 11.15,-11.15 21,-21.2 30.02,-33.66 57.72,-79.69 -31.18,-125.41 -64.53,-66.98 -8.25,14.47 -12.24,26.04 -23.05,38.18 -17.03,19.12 -33.61,27.99 -51.4,41.69 -1.25,0.96 -7.53,6.37 -7.85,6.84 -3.37,4.85 -2.6,6.5 -2.6,14.54z"/>
  <path class="fil0" d="M4.97 122.29c17.87,0 17.51,-6.39 25.47,-18.63 28.51,-43.88 56.85,-52.4 104.36,-52.4 51.05,0 70.73,34.78 92.43,52.38 12.54,10.18 37.66,-2.98 -19.96,-46.47 -6.75,-5.09 -14.83,-10.57 -22.73,-14.02 -52.83,-23.06 -121.06,-14.89 -157.54,32.58 -15.4,20.03 -26.2,28.65 -22.03,46.56z"/>
  <path class="fil0" d="M14.77 53.71c0,5.75 -1.97,1.69 7.35,9.79 15.21,-4.06 32.48,-44.09 102.88,-44.09 43.42,0 57.87,9.81 85.57,27.15 30.55,19.13 36.39,-11.49 -20.09,-33.84 -97.32,-38.5 -175.71,20.75 -175.71,40.99z"/>
  <path class="fil0" d="M14.77 276.61c0,42.24 113.89,-73.37 122.48,-110.23 -5.69,-3.8 -10.09,-11.33 -18.2,-3.84l-24.19 37.39c-12.87,15.13 -13.86,18.64 -30.06,31.17 -7.2,5.57 -9.58,9.47 -16.76,15.09 -10.4,8.14 -33.27,22.85 -33.27,30.42z"/>
  <path class="fil0" d="M235.23 161.48c0,43.38 -11.33,71.04 4.89,71.04 21.51,0 19.85,-115.13 -2.45,-115.13 -18.1,0 -2.44,27.64 -2.44,44.09z"/>
  <path class="fil0" d="M73.56 308.45c3.11,3.58 6.23,6.69 9.8,9.8 19.17,-10.15 30.71,-38.22 43.66,-9.37 12.71,28.32 22.47,6.97 22.47,6.92 0,-9.84 -5.94,-19.6 -10.71,-26.03 -21.63,-29.12 -52.65,-5.07 -65.22,18.68z"/>
  <path class="fil0" d="M139.7 254.56c0,47.11 46.54,66.22 46.54,51.44 0,-18.7 -26.95,-19.1 -26.95,-48.99 0,-10.53 2.86,-13.27 4.9,-22.04l-9.42 -7.77c-10.78,5.92 -15.07,11.26 -15.07,27.36z"/>
 </g>
</svg>
