<svg width="32px" height="37px" style="clip-rule:evenodd;fill-rule:evenodd;image-rendering:optimizeQuality;shape-rendering:geometricPrecision;text-rendering:geometricPrecision" version="1.1" viewBox="0 0 31.87 36.55" xmlns="http://www.w3.org/2000/svg">
 <defs>
  <style type="text/css"><![CDATA[
    .fil0 {fill:#3f67e0}
   ]]></style>
 </defs>
 <path class="fil0" d="m22.53 22c2.45 0 4.11-0.36 5.39 1.24 1.03 1.28 0.67 4.19 0.67 6.04 0.01 1.43-0.15 2.28-1.05 3.14-0.39 0.38-1.06 0.69-1.65 0.78-0.75 0.1-5.56 0.04-6.73 0.04-2.36 0-4.23 0.32-5.43-1.25-1.06-1.39-0.67-4.15-0.68-6.08 0-1.14 0.12-1.97 0.69-2.71 0.49-0.64 1.31-1.07 2.14-1.17l6.65-0.03zm-12.77 6.58c-1.44 0.8-2.87 1.46-4.28 2.19-2.6 1.34-2.16 0.18-2.16-3.17 0-3.22-0.41-4.36 2.21-3.04 1.4 0.7 2.87 1.38 4.24 2.14l-0.01 1.88zm0.32 3.6c0.3 0.54 0.44 1.02 0.76 1.5 0.25 0.38 0.74 0.93 1 1.15 2.43 2.02 3.9 1.68 7.14 1.68 1.87 0 7.02 0.21 8.5-0.32 0.61-0.21 1.05-0.41 1.52-0.72 0.88-0.58 0.67-0.56 1.15-1 1.92-1.73 1.72-4.52 1.72-6.97 0-3.25 0-5.05-1.86-6.91-1.84-1.84-3.61-1.86-6.82-1.86-2.02 0-6.92-0.24-8.59 0.19-2.09 0.53-3.98 2.21-4.48 4.21-2.02-0.65-5.43-3.3-7.33-3.1-1.41 0.15-2.47 1.21-2.7 2.53-0.13 0.77-0.12 9.64 0.04 10.31 0.28 1.23 1.36 2.27 2.76 2.37 1.26 0.09 2.74-0.87 3.73-1.37 0.7-0.35 2.85-1.54 3.46-1.69zm13.96-26.25c2.27-0.28 4.08 1.43 4.33 3.37 0.29 2.28-1.36 4.15-3.33 4.42-2.36 0.33-4.19-1.38-4.46-3.36-0.32-2.36 1.43-4.17 3.46-4.43zm-12.86-2.39c2.99-0.49 5.41 1.71 5.83 4.21 0.51 3.06-1.65 5.48-4.17 5.93-3.1 0.55-5.55-1.66-5.98-4.19-0.55-3.2 1.72-5.52 4.32-5.95zm7.33 10.7c0.19 0.18 0.15 0.18 0.28 0.34 0.68 0.81 1.85 1.68 2.87 2.09 4.53 1.82 9.53-1.04 10.15-5.91 0.46-3.61-1.67-6.29-3.83-7.43-2.45-1.3-5.39-1.18-7.69 0.4-0.38 0.25-0.55 0.49-0.88 0.64-1.33-2.53-4.9-5.11-9.3-4.18-8.18 1.74-9.1 12.93-1.86 16.22 1.81 0.82 3.87 1.08 5.95 0.52 1.28-0.35 2.46-1.02 3.42-1.83l0.89-0.86z"/>
</svg>
