<?xml version="1.0" encoding="UTF-8"?>
<!DOCTYPE svg PUBLIC "-//W3C//DTD SVG 1.1//EN" "http://www.w3.org/Graphics/SVG/1.1/DTD/svg11.dtd">
<!-- Creator: CorelDRAW 2021 (64-Bit) -->
<svg xmlns="http://www.w3.org/2000/svg" xml:space="preserve" width="39px" height="48px" version="1.1" shape-rendering="geometricPrecision" text-rendering="geometricPrecision" image-rendering="optimizeQuality" fill-rule="evenodd" clip-rule="evenodd"
viewBox="0 0 0.97 1.18"
 xmlns:xlink="http://www.w3.org/1999/xlink"
 xmlns:xodm="http://www.corel.com/coreldraw/odm/2003">
 <g id="Layer_x0020_1">
  <metadata id="CorelCorpID_0Corel-Layer"/>
  <path fill="#B3B3B3" d="M0.48 0c0.18,0 0.32,0.14 0.32,0.31l0 0.13 0.02 0c0.08,0 0.15,0.07 0.15,0.15l0 0.44c0,0.08 -0.07,0.15 -0.15,0.15l-0.67 0c-0.08,0 -0.15,-0.07 -0.15,-0.15l0 -0.44c0,-0.08 0.07,-0.15 0.15,-0.15l0.02 0 0 -0.13c0,-0.17 0.14,-0.31 0.31,-0.31zm0.21 0.44l0 -0.11c0,-0.11 -0.09,-0.21 -0.21,-0.21l0 0c-0.11,0 -0.2,0.1 -0.2,0.21l0 0.11 0.41 0z"/>
 </g>
</svg>
