<?xml version="1.0" encoding="UTF-8"?>
<!DOCTYPE svg PUBLIC "-//W3C//DTD SVG 1.1//EN" "http://www.w3.org/Graphics/SVG/1.1/DTD/svg11.dtd">
<!-- Creator: CorelDRAW 2021 (64-Bit) -->
<svg xmlns="http://www.w3.org/2000/svg" xml:space="preserve" width="60px" height="52px" version="1.1" style="shape-rendering:geometricPrecision; text-rendering:geometricPrecision; image-rendering:optimizeQuality; fill-rule:evenodd; clip-rule:evenodd"
viewBox="0 0 47.25 41.01"
 xmlns:xlink="http://www.w3.org/1999/xlink"
 xmlns:xodm="http://www.corel.com/coreldraw/odm/2003">
 <defs>
  <style type="text/css">
   <![CDATA[
    .fil0 {fill:white}
   ]]>
  </style>
 </defs>
 <g id="Layer_x0020_1">
  <metadata id="CorelCorpID_0Corel-Layer"/>
  <path class="fil0" d="M24.77 39.19c1.43,0.49 3.44,-1.58 3.04,-2.29 -0.35,-0.63 -1.76,0.3 -2.02,0.51 -0.51,0.42 -1.08,0.88 -1.02,1.78l0 0z"/>
  <path class="fil0" d="M22.39 39.25c0.03,-0.52 -0.02,-0.82 -0.3,-1.15 -0.58,-0.66 -1.75,-1.6 -2.69,-1.32 -0.27,0.85 0.54,1.49 0.94,1.83 0.64,0.55 1.1,0.75 2.05,0.64z"/>
  <path class="fil0" d="M33.37 18.55c-1.38,-0.13 -3.38,1.65 -4.36,2.4 -2.51,1.93 1.51,2.19 3.04,0.91 0.59,-0.51 1.51,-2.05 1.32,-3.31z"/>
  <path class="fil0" d="M13.83 18.55c-0.19,1.22 0.69,2.73 1.25,3.25 0.52,0.49 2.76,1.37 3.69,0.55 0.76,-0.66 -0.87,-1.62 -1.78,-2.34 -0.58,-0.46 -2.17,-1.55 -3.16,-1.46l0 0z"/>
  <path class="fil0" d="M40.33 15.66c0.11,0.66 0.69,0.69 1.32,1.01 0.57,0.28 1.03,0.58 1.7,0.81 1.39,0.47 3.35,0.25 3.8,-0.84 0.95,-2.28 -5.4,-2.2 -6.82,-0.98l0 0z"/>
  <path class="fil0" d="M6.88 15.79c-0.46,-1.07 -7.55,-1.87 -6.83,0.84 0.32,1.2 2.51,1.24 3.7,0.87 0.85,-0.25 1.65,-0.79 2.47,-1.16 0.5,-0.23 0.49,-0.11 0.66,-0.55z"/>
  <path class="fil0" d="M27.15 40.93c2.16,0.22 1.84,-1.43 2.99,-1.55 0.56,-0.06 2.15,1.27 3.16,-0.73 0.77,-1.53 -0.42,-2.66 0.1,-3.78 0.25,-0.54 0.84,-0.86 1.45,-0.5 0.56,0.33 0.67,0.8 1.59,0.41 1.83,-0.76 0.82,-2.89 0.77,-3.25 -0.24,-1.74 1.21,-1.6 1.81,-2.7 1.05,-1.91 -0.21,-2.26 -0.16,-3.77 0.05,-1.54 1.76,-1.27 1.73,-3.13 -0.04,-1.76 -1.53,-1.8 -1.62,-1.84 -0.6,-0.21 -0.59,-1.13 -2.73,-0.31 -0.78,0.29 -0.62,0.62 -0.85,1.53 -1.05,4.18 -3.02,9.88 -4.79,13.76l-2.29 4.73c-0.26,0.35 -1.09,0.92 -1.16,1.13l0 0z"/>
  <path class="fil0" d="M19.98 40.86c-0.02,-0.02 -0.05,-0.09 -0.06,-0.07 -0.01,0.02 -1.11,-0.81 -1.91,-2.62 -0.48,-1.11 -1.04,-2.08 -1.48,-3.15 -1.79,-4.3 -3.62,-9.23 -4.74,-13.81 -0.2,-0.78 -0.11,-1.2 -0.8,-1.47 -1.99,-0.77 -2.52,0.25 -2.76,0.36 -0.33,0.14 -0.58,0.05 -0.91,0.22 -0.34,0.18 -0.76,1 -0.78,1.61 -0.06,1.81 1.54,1.56 1.73,2.91 0.16,1.25 -1.04,1.97 -0.32,3.71 0.6,1.44 1.99,0.96 1.98,2.65 -0.01,0.7 -0.38,1.17 -0.35,1.88 0.01,0.67 0.38,1.28 0.79,1.58 1.3,0.94 2.47,-1.49 3.29,0.1 0.62,1.22 -0.64,2.36 0.17,3.96 0.94,1.85 2.57,0.55 3.21,0.68 0.79,0.15 1.61,2.16 2.94,1.46l0 0z"/>
  <path class="fil0" d="M23.14 0.09c-1.25,0.38 -0.94,1.14 -1.85,1.36 -1.12,0.28 -1.12,-0.8 -2,-1.05 -0.91,-0.27 -1.7,0.48 -1.89,1.17 -0.15,0.54 0.89,4.83 -2.06,2.41 -0.89,-0.73 -3.01,-0.95 -2.96,2.4 0.02,1.26 -0.77,1.28 -1.37,1.84 -1.34,1.24 -0.75,3.54 0.6,4.26 1.11,0.58 1.65,0.06 2.41,-0.37 0.89,-0.5 1.94,-0.11 2.4,0.45 0.23,0.29 1.48,3.78 3.37,1.8 0.46,-0.48 0.82,-1.51 1.92,-0.95 0.67,0.34 0.78,1.36 2.01,1.28 1.09,-0.08 1.17,-1.01 1.87,-1.31 1.74,-0.76 1.92,3 4.05,1.05 0.8,-0.72 0.67,-1.27 1.21,-1.92 1.57,-1.89 2.88,0.9 4.73,-0.03 1.52,-0.77 1.89,-3.05 0.52,-4.3 -0.66,-0.6 -1.35,-0.56 -1.29,-1.78 0.06,-1.3 -0.04,-1.52 -0.73,-2.23 -0.72,-0.73 -1.2,-0.92 -2.07,-0.29 -0.89,0.65 -1.82,0.55 -2.11,-0.42 -0.33,-1.05 0.33,-1.55 -0.53,-2.59 -0.69,-0.82 -1.44,-0.6 -2.12,0.01 -2.23,2.02 -1.79,-1.49 -4.1,-0.79l-0.01 0z"/>
 </g>
</svg>
