<?xml version="1.0" encoding="UTF-8"?>
<!DOCTYPE svg PUBLIC "-//W3C//DTD SVG 1.1//EN" "http://www.w3.org/Graphics/SVG/1.1/DTD/svg11.dtd">
<!-- Creator: CorelDRAW 2021 (64-Bit) -->
<svg xmlns="http://www.w3.org/2000/svg" xml:space="preserve" width="170px" height="51px" version="1.1" shape-rendering="geometricPrecision" text-rendering="geometricPrecision" image-rendering="optimizeQuality" fill-rule="evenodd" clip-rule="evenodd"
viewBox="0 0 89.66 26.89"
 xmlns:xlink="http://www.w3.org/1999/xlink"
 xmlns:xodm="http://www.corel.com/coreldraw/odm/2003">
 <g id="Layer_x0020_1">
  <metadata id="CorelCorpID_0Corel-Layer"/>
  <rect fill="#E6E6E6" width="89.66" height="26.89" rx="2.97" ry="2.97"/>
  <g id="_1651660735472">
   <path fill="black" d="M70.78 11.85l1.2 0.02 0 8.18 -1.23 -0.02 0.03 -8.18zm-15.98 0l1.22 -0.01 -0.01 8.22 -1.21 -0.01 0 -8.2zm-2.01 7.75c-0.44,0.22 -0.58,0.55 -1.32,0.61 -1.48,0.13 -2.86,-1.16 -2.87,-2.75 0,-1.17 0.64,-2 1.34,-2.42 0.83,-0.5 2.24,-0.51 2.79,0.21 0.07,-0.14 0.03,-0.11 0.07,-0.23 0.01,-0.02 0.04,-0.1 0.05,-0.14 0,-0.04 0.02,-0.05 0.03,-0.07l1.08 0c-0.01,1.82 0.33,5.59 -0.5,6.89 -1.07,1.69 -4.1,1.15 -4.61,-0.66l1.1 -0.4c0.22,0.67 0.91,1.19 1.87,0.9 0.79,-0.23 0.97,-0.99 0.97,-1.94zm-8.18 -4.87c3.71,-0.92 4.85,4.55 1.37,5.41 -3.62,0.89 -4.98,-4.52 -1.37,-5.41zm-6.13 0.03c1.7,-0.48 3.1,0.66 3.42,2.01 0.42,1.74 -0.69,3.02 -2.02,3.36 -3.5,0.92 -5.08,-4.33 -1.4,-5.37zm23.22 4.16c-0.84,2.12 -5.46,1.67 -5.06,-1.89 0.34,-3.05 4.55,-3.15 5.11,-0.28 -0.31,0.12 -3.42,1.33 -3.67,1.58 0.55,1.05 2.12,1.05 2.59,0.04 0.48,0.15 0.6,0.4 1.03,0.55zm11.12 -3.02c0.51,-1.71 4.66,-2.05 4.66,1.21l-0.01 2.92 -1.16 0.01 -0.02 -0.61c-0.1,0.07 -0.05,0.04 -0.15,0.14 -1.42,1.37 -3.3,0.35 -3.47,-0.92 -0.21,-1.54 1.51,-2.58 3.62,-1.79 -0.06,-0.65 -0.36,-0.98 -1.01,-1.09 -0.9,-0.16 -1,0.22 -1.43,0.55l-1.03 -0.42zm5.7 6.64c0.17,-0.56 0.62,-1.46 0.87,-1.99 0.49,-1.03 0.34,-0.82 -0.13,-1.89 -0.29,-0.65 -1.6,-3.4 -1.65,-3.86l1.24 0.01c0.5,0.83 1.06,2.95 1.53,3.52l1.44 -3.53 1.3 0.01c-0.14,0.56 -3.31,7.68 -3.44,7.72l-1.16 0.01zm-14.07 -10.69l2.7 0c1.83,0 3.36,1.32 2.84,3.22 -0.57,2.07 -2.78,1.92 -4.32,1.88l-0.01 3.1 -1.2 0 -0.01 -0.33 0 -7.87zm-46.13 4.41c-0.34,0.31 -2.13,1.23 -2.69,1.55l-5.33 3.02c-0.96,0.54 -2.23,1.52 -2.83,0.82 -0.17,-0.14 -0.18,-0.12 -0.28,-0.37 -0.18,-0.48 -0.09,-7.26 -0.08,-7.83 0,-1.42 0,-2.84 0,-4.26 0,-1.02 -0.23,-3.27 0.31,-3.83 0.47,-0.55 1.07,-0.24 1.6,0.07l6.68 3.77c0.79,0.44 2.03,1.08 2.63,1.53 0.37,0.15 0.76,0.4 1.14,0.62 1.04,0.6 4.3,1.91 2.05,3.12 -0.87,0.47 -2.5,1.52 -3.2,1.79zm17.54 -0.76c0.34,1.03 -0.16,2.54 -0.61,3.13 -0.51,0.66 -1.26,1.26 -2.34,1.49 -3.58,0.73 -6.22,-2.6 -5.17,-5.61 1.14,-3.28 5.42,-3.72 7.1,-1.74l-0.76 0.78c-0.46,-0.21 -0.83,-0.68 -1.84,-0.78 -0.77,-0.08 -1.52,0.14 -2.03,0.48 -2.56,1.71 -1.45,5.84 1.78,5.78 1.45,-0.03 2.62,-0.92 2.72,-2.34l-2.81 -0.01 0.04 -1.18 3.92 0zm19.9 -10.59l0.65 0.04 0 3.41 1.69 0 -0.02 0.63 -2.32 -0.01 0 -4.07zm-8 0l0.65 0.03 -0.02 4.04 -0.63 0 0 -4.07zm-16.22 0l0.64 0 -0.03 4.08 -0.61 0 0 -4.08zm33.68 -0.02c2.78,-0.66 3.61,3.55 0.98,4.13 -2.77,0.61 -3.62,-3.51 -0.98,-4.13zm-37.59 0.03c0.81,-0.03 1.81,-0.1 2.42,0.29 0.55,0.35 0.93,0.92 0.91,1.81 -0.04,2.16 -2.05,1.98 -3.33,1.96l0 -4.06zm13.04 -0.04c1.28,-0.3 2.35,0.62 2.54,1.62 0.24,1.3 -0.57,2.33 -1.62,2.53 -2.74,0.53 -3.53,-3.53 -0.92,-4.15zm-4.57 0.05c1.1,-0.11 2.49,-0.11 2.68,0.96 0.27,1.45 -1.21,1.52 -2.03,1.51l-0.02 1.58 -0.63 0 0 -4.05zm23.83 -0.02l0.43 0c0.7,0 1.39,2.19 2.1,2.81l0 -2.82 0.65 0.05 -0.01 4.03 -0.62 0c-0.27,-0.41 -1.52,-2.59 -1.9,-2.88l-0.01 2.87 -0.62 0.02 -0.02 -0.41 0 -3.67zm-16.1 0.01c0.67,-0.03 0.68,-0.08 0.98,0.41l1.55 2.41 0 -2.83 0.64 0 0 4.08c-0.87,0 -0.67,-0.07 -1.5,-1.39l-1.03 -1.61 -0.04 3 -0.61 0 0.01 -4.07zm8.83 0.05c0.4,-0.12 2,-0.1 2.45,-0.02l0 0.58 -1.8 0 0.03 1.11 1.6 0.04 -0.02 0.57 -1.61 0 0 1.1 1.79 0.02 -0.01 0.61 -2.43 -0.02 0 -3.99zm-19.14 3.21c0.37,0.44 1.3,0.32 1.33,-0.3 0.03,-0.72 -1.08,-0.7 -1.63,-1.14 -0.73,-0.57 -0.35,-1.55 0.33,-1.82 0.85,-0.33 1.66,0.16 1.83,0.82l-0.52 0.21c-0.84,-1.05 -1.4,-0.24 -1.38,0.02 0.19,0.55 0.97,0.57 1.46,0.88 0.46,0.29 0.79,0.95 0.42,1.62 -0.54,0.97 -2.4,0.76 -2.67,-0.58l0.52 -0.2 0.31 0.49zm16.83 0.81c-0.33,0 -0.42,-0.64 -0.52,-0.93l-1.09 -3.13 0.66 0c0.33,0.49 0.78,2.33 1.09,3.02l1.05 -3.05 0.72 0.03 -1.5 4.06 -0.41 0zm-49.21 14.82c0.16,0.92 0.83,1.68 1.53,2 0.89,0.4 2.15,0.26 3.21,0.26l77.55 0c0.93,0 2.62,0.11 3.39,-0.16 0.79,-0.27 1.46,-0.96 1.7,-1.79 0.29,-0.97 0.13,-5.57 0.13,-6.92 0,-1.14 0.09,-13.18 -0.05,-13.98 -0.44,-2.67 -3.17,-2.3 -4.74,-2.3 -25.85,0 -51.7,0 -77.55,0 -1.91,0 -4.39,-0.42 -5.09,1.96 -0.29,0.95 -0.13,5.57 -0.13,6.92 0,1.11 -0.09,13.23 0.05,14.01z"/>
   <path fill="#00D3FF" d="M7.47 21.65l8.07 -8.14c-0.24,-0.39 -7.07,-6.98 -8.12,-8.15 -0.54,0.56 -0.31,2.81 -0.31,3.83 0,1.42 0,2.84 0,4.26 -0.01,0.57 -0.1,7.35 0.08,7.83 0.1,0.25 0.11,0.23 0.28,0.37z"/>
   <path fill="white" d="M35.86 15.5l-3.92 0 -0.04 1.18 2.81 0.01c-0.1,1.42 -1.27,2.31 -2.72,2.34 -3.23,0.06 -4.34,-4.07 -1.78,-5.78 0.51,-0.34 1.26,-0.56 2.03,-0.48 1.01,0.1 1.38,0.57 1.84,0.78l0.76 -0.78c-1.68,-1.98 -5.96,-1.54 -7.1,1.74 -1.05,3.01 1.59,6.34 5.17,5.61 1.08,-0.23 1.83,-0.83 2.34,-1.49 0.45,-0.59 0.95,-2.1 0.61,-3.13z"/>
   <path fill="#00F076" d="M7.42 5.36c1.05,1.17 7.88,7.76 8.12,8.15l0.06 0.03c0.23,-0.45 2.21,-2.27 2.73,-2.81 -0.6,-0.45 -1.84,-1.09 -2.63,-1.53l-6.68 -3.77c-0.53,-0.31 -1.13,-0.62 -1.6,-0.07z"/>
   <path fill="#F2314B" d="M7.47 21.65c0.6,0.7 1.87,-0.28 2.83,-0.82l5.33 -3.02c0.56,-0.32 2.35,-1.24 2.69,-1.55l-2.72 -2.72 -0.06 -0.03 -8.07 8.14z"/>
   <path fill="white" d="M50.86 15.86c1,-0.36 1.78,0.29 1.96,1.14 0.21,0.96 -0.28,1.82 -0.98,2.04 -1.98,0.63 -2.82,-2.52 -0.98,-3.18zm1.93 3.74c0,0.95 -0.18,1.71 -0.97,1.94 -0.96,0.29 -1.65,-0.23 -1.87,-0.9l-1.1 0.4c0.51,1.81 3.54,2.35 4.61,0.66 0.83,-1.3 0.49,-5.07 0.5,-6.89l-1.08 0c-0.01,0.02 -0.03,0.03 -0.03,0.07 -0.01,0.04 -0.04,0.12 -0.05,0.14 -0.04,0.12 0,0.09 -0.07,0.23 -0.55,-0.72 -1.96,-0.71 -2.79,-0.21 -0.7,0.42 -1.34,1.25 -1.34,2.42 0.01,1.59 1.39,2.88 2.87,2.75 0.74,-0.06 0.88,-0.39 1.32,-0.61z"/>
   <path fill="white" d="M65.67 13l1.57 0c2.14,0 2.15,2.81 0,2.81l-1.57 0 0 -2.81zm-1.22 6.72l0.01 0.33 1.2 0 0.01 -3.1c1.54,0.04 3.75,0.19 4.32,-1.88 0.52,-1.9 -1.01,-3.22 -2.84,-3.22l-2.7 0 0 7.87z"/>
   <path fill="#FFCC00" d="M15.6 13.54l2.72 2.72c0.7,-0.27 2.33,-1.32 3.2,-1.79 2.25,-1.21 -1.01,-2.52 -2.05,-3.12 -0.38,-0.22 -0.77,-0.47 -1.14,-0.62 -0.52,0.54 -2.5,2.36 -2.73,2.81z"/>
   <path fill="white" d="M76.29 17.8c-0.37,1.69 -2.01,1.44 -2.32,0.92 -0.41,-0.7 0.46,-1.57 2.32,-0.92zm-3.47 -1.9l1.03 0.42c0.43,-0.33 0.53,-0.71 1.43,-0.55 0.65,0.11 0.95,0.44 1.01,1.09 -2.11,-0.79 -3.83,0.25 -3.62,1.79 0.17,1.27 2.05,2.29 3.47,0.92 0.1,-0.1 0.05,-0.07 0.15,-0.14l0.02 0.61 1.16 -0.01 0.01 -2.92c0,-3.26 -4.15,-2.92 -4.66,-1.21z"/>
   <path fill="white" d="M45.06 15.78c2.05,-0.35 2.4,2.91 0.56,3.3 -2.13,0.44 -2.66,-2.94 -0.56,-3.3zm-0.45 -1.05c-3.61,0.89 -2.25,6.3 1.37,5.41 3.48,-0.86 2.34,-6.33 -1.37,-5.41z"/>
   <path fill="white" d="M57.83 17.32c0.15,-1.86 1.94,-1.91 2.46,-1.08l-1.19 0.57c-0.45,0.19 -0.79,0.36 -1.27,0.51zm3.87 1.6c-0.43,-0.15 -0.55,-0.4 -1.03,-0.55 -0.47,1.01 -2.04,1.01 -2.59,-0.04 0.25,-0.25 3.36,-1.46 3.67,-1.58 -0.56,-2.87 -4.77,-2.77 -5.11,0.28 -0.4,3.56 4.22,4.01 5.06,1.89z"/>
   <path fill="white" d="M38.96 15.78c2.01,-0.35 2.5,2.95 0.49,3.31 -2.08,0.36 -2.62,-2.94 -0.49,-3.31zm-0.48 -1.02c-3.68,1.04 -2.1,6.29 1.4,5.37 1.33,-0.34 2.44,-1.62 2.02,-3.36 -0.32,-1.35 -1.72,-2.49 -3.42,-2.01z"/>
   <path fill="white" d="M78.52 22.54l1.16 -0.01c0.13,-0.04 3.3,-7.16 3.44,-7.72l-1.3 -0.01 -1.44 3.53c-0.47,-0.57 -1.03,-2.69 -1.53,-3.52l-1.24 -0.01c0.05,0.46 1.36,3.21 1.65,3.86 0.47,1.07 0.62,0.86 0.13,1.89 -0.25,0.53 -0.7,1.43 -0.87,1.99z"/>
   <polygon fill="white" points="54.8,20.05 56.01,20.06 56.02,11.84 54.8,11.85 "/>
   <polygon fill="white" points="70.75,20.03 71.98,20.05 71.98,11.87 70.78,11.85 "/>
   <path fill="black" d="M38.96 15.78c-2.13,0.37 -1.59,3.67 0.49,3.31 2.01,-0.36 1.52,-3.66 -0.49,-3.31z"/>
   <path fill="black" d="M45.06 15.78c-2.1,0.36 -1.57,3.74 0.56,3.3 1.84,-0.39 1.49,-3.65 -0.56,-3.3z"/>
   <path fill="black" d="M50.86 15.86c-1.84,0.66 -1,3.81 0.98,3.18 0.7,-0.22 1.19,-1.08 0.98,-2.04 -0.18,-0.85 -0.96,-1.5 -1.96,-1.14z"/>
   <path fill="black" d="M65.67 15.81l1.57 0c2.15,0 2.14,-2.81 0,-2.81l-1.57 0 0 2.81z"/>
   <path fill="white" d="M43.82 8.99l0.61 0 0.04 -3 1.03 1.61c0.83,1.32 0.63,1.39 1.5,1.39l0 -4.08 -0.64 0 0 2.83 -1.55 -2.41c-0.3,-0.49 -0.31,-0.44 -0.98,-0.41l-0.01 4.07z"/>
   <path fill="white" d="M59.93 8.58l0.02 0.41 0.62 -0.02 0.01 -2.87c0.38,0.29 1.63,2.47 1.9,2.88l0.62 0 0.01 -4.03 -0.65 -0.05 0 2.82c-0.71,-0.62 -1.4,-2.81 -2.1,-2.81l-0.43 0 0 3.67z"/>
   <path fill="white" d="M65.39 5.49c1.96,-0.45 2.4,2.55 0.7,2.91 -2.07,0.45 -2.44,-2.51 -0.7,-2.91zm-0.17 -0.6c-2.64,0.62 -1.79,4.74 0.98,4.13 2.63,-0.58 1.8,-4.79 -0.98,-4.13z"/>
   <path fill="white" d="M40.84 5.49c0.85,-0.22 1.59,0.39 1.72,1.13 0.15,0.91 -0.32,1.62 -1.01,1.78 -2.04,0.46 -2.52,-2.46 -0.71,-2.91zm-0.17 -0.61c-2.61,0.62 -1.82,4.68 0.92,4.15 1.05,-0.2 1.86,-1.23 1.62,-2.53 -0.19,-1 -1.26,-1.92 -2.54,-1.62z"/>
   <path fill="white" d="M28.27 5.56c1.2,-0.15 2.06,0.18 2.03,1.45 -0.03,1.21 -0.83,1.39 -2.02,1.34l-0.01 -2.79zm-0.64 3.42c1.28,0.02 3.29,0.2 3.33,-1.96 0.02,-0.89 -0.36,-1.46 -0.91,-1.81 -0.61,-0.39 -1.61,-0.32 -2.42,-0.29l0 4.06z"/>
   <path fill="black" d="M65.39 5.49c-1.74,0.4 -1.37,3.36 0.7,2.91 1.7,-0.36 1.26,-3.36 -0.7,-2.91z"/>
   <path fill="black" d="M40.84 5.49c-1.81,0.45 -1.33,3.37 0.71,2.91 0.69,-0.16 1.16,-0.87 1.01,-1.78 -0.13,-0.74 -0.87,-1.35 -1.72,-1.13z"/>
   <path fill="white" d="M52.66 8.96l2.43 0.02 0.01 -0.61 -1.79 -0.02 0 -1.1 1.61 0 0.02 -0.57 -1.6 -0.04 -0.03 -1.11 1.8 0 0 -0.58c-0.45,-0.08 -2.05,-0.1 -2.45,0.02l0 3.99z"/>
   <path fill="white" d="M33.21 7.69l-0.52 0.2c0.27,1.34 2.13,1.55 2.67,0.58 0.37,-0.67 0.04,-1.33 -0.42,-1.62 -0.49,-0.31 -1.27,-0.33 -1.46,-0.88 -0.02,-0.26 0.54,-1.07 1.38,-0.02l0.52 -0.21c-0.17,-0.66 -0.98,-1.15 -1.83,-0.82 -0.68,0.27 -1.06,1.25 -0.33,1.82 0.55,0.44 1.66,0.42 1.63,1.14 -0.03,0.62 -0.96,0.74 -1.33,0.3l-0.31 -0.49z"/>
   <path fill="white" d="M36.74 6.77l0 -1.24c0.66,0 1.39,-0.1 1.41,0.62 0.01,0.73 -0.74,0.62 -1.41,0.62zm-0.64 2.21l0.63 0 0.02 -1.58c0.82,0.01 2.3,-0.06 2.03,-1.51 -0.19,-1.07 -1.58,-1.07 -2.68,-0.96l0 4.05z"/>
   <path fill="white" d="M50.35 8.99l0.41 0 1.5 -4.06 -0.72 -0.03 -1.05 3.05c-0.31,-0.69 -0.76,-2.53 -1.09,-3.02l-0.66 0 1.09 3.13c0.1,0.29 0.19,0.93 0.52,0.93z"/>
   <path fill="black" d="M28.28 8.35c1.19,0.05 1.99,-0.13 2.02,-1.34 0.03,-1.27 -0.83,-1.6 -2.03,-1.45l0.01 2.79z"/>
   <polygon fill="white" points="55.76,8.98 58.08,8.99 58.1,8.36 56.41,8.36 56.41,4.95 55.76,4.91 "/>
   <path fill="black" d="M76.29 17.8c-1.86,-0.65 -2.73,0.22 -2.32,0.92 0.31,0.52 1.95,0.77 2.32,-0.92z"/>
   <polygon fill="white" points="47.76,8.98 48.39,8.98 48.41,4.94 47.76,4.91 "/>
   <polygon fill="white" points="31.54,8.99 32.15,8.99 32.18,4.91 31.54,4.91 "/>
   <path fill="black" d="M57.83 17.32c0.48,-0.15 0.82,-0.32 1.27,-0.51l1.19 -0.57c-0.52,-0.83 -2.31,-0.78 -2.46,1.08z"/>
   <path fill="black" d="M36.74 6.77c0.67,0 1.42,0.11 1.41,-0.62 -0.02,-0.72 -0.75,-0.62 -1.41,-0.62l0 1.24z"/>
  </g>
 </g>
</svg>
