<?xml version="1.0" encoding="UTF-8"?>
<!DOCTYPE svg PUBLIC "-//W3C//DTD SVG 1.1//EN" "http://www.w3.org/Graphics/SVG/1.1/DTD/svg11.dtd">
<!-- Creator: CorelDRAW 2021 (64-Bit) -->
<svg xmlns="http://www.w3.org/2000/svg" xml:space="preserve" width="60px" height="60px" version="1.1" style="shape-rendering:geometricPrecision; text-rendering:geometricPrecision; image-rendering:optimizeQuality; fill-rule:evenodd; clip-rule:evenodd"
viewBox="0 0 1386.42 1386.42"
 xmlns:xlink="http://www.w3.org/1999/xlink"
 xmlns:xodm="http://www.corel.com/coreldraw/odm/2003">
 <defs>
  <style type="text/css">
   <![CDATA[
    .fil0 {fill:white}
   ]]>
  </style>
 </defs>
 <g id="Layer_x0020_1">
  <metadata id="CorelCorpID_0Corel-Layer"/>
  <path class="fil0" d="M715.84 1098.45c30.81,10.7 74.22,-34.13 65.64,-49.4 -7.61,-13.58 -37.93,6.5 -43.55,11.12 -11.09,9.07 -23.39,18.82 -22.09,38.28l0 0z"/>
  <path class="fil0" d="M664.47 1099.8c0.54,-11.22 -0.49,-17.6 -6.63,-24.75 -12.34,-14.31 -37.79,-34.55 -58.09,-28.5 -5.76,18.26 11.74,32.01 20.33,39.37 13.91,11.93 23.74,16.35 44.39,13.88z"/>
  <path class="fil0" d="M901.53 652.76c-29.75,-2.83 -73,35.64 -94.08,51.84 -54.23,41.62 32.6,47.35 65.56,19.53 12.85,-10.84 32.73,-44.18 28.52,-71.37z"/>
  <path class="fil0" d="M479.43 652.7c-4.08,26.33 14.91,58.91 27.06,70.18 11.32,10.54 59.71,29.58 79.73,11.98 16.41,-14.43 -18.77,-35.07 -38.36,-50.61 -12.55,-9.97 -46.94,-33.45 -68.43,-31.54l0 -0.01z"/>
  <path class="fil0" d="M1051.91 590.33c2.39,14.13 14.94,14.97 28.47,21.7 12.41,6.17 22.33,12.55 36.73,17.47 30.07,10.33 72.32,5.49 82.15,-18.09 20.43,-49.09 -116.79,-47.38 -147.35,-21.08l0 0z"/>
  <path class="fil0" d="M329.49 593.02c-10.08,-23.12 -163.06,-40.21 -147.58,18.12 6.91,26.08 54.15,26.81 79.93,18.99 18.26,-5.52 35.51,-17.09 53.39,-25.21 10.78,-4.89 10.62,-2.4 14.26,-11.9z"/>
  <path class="fil0" d="M767.19 1136.13c46.59,4.62 39.69,-30.95 64.58,-33.53 12.11,-1.25 46.45,27.52 68.29,-15.73 16.69,-33.09 -9.1,-57.46 2.21,-81.69 5.4,-11.58 17.98,-18.64 31.18,-10.79 12.12,7.17 14.46,17.23 34.43,8.94 39.58,-16.41 17.63,-62.43 16.57,-70.26 -5.19,-37.54 26.08,-34.55 39.17,-58.35 22.69,-41.16 -4.48,-48.85 -3.45,-81.34 1.06,-33.26 38.07,-27.5 37.25,-67.68 -0.73,-38.06 -33.01,-38.93 -34.96,-39.63 -12.94,-4.65 -12.61,-24.4 -58.93,-6.88 -16.93,6.41 -13.45,13.5 -18.39,33.2 -22.63,90.31 -65.1,213.43 -103.43,297.13l-49.42 102.26c-5.54,7.5 -23.47,19.81 -25.1,24.35l0 0z"/>
  <path class="fil0" d="M612.39 1134.61c-0.41,-0.55 -1.09,-1.99 -1.31,-1.55 -0.19,0.46 -24.04,-17.5 -41.21,-56.65 -10.46,-23.88 -22.5,-44.93 -32.09,-67.94 -38.6,-92.84 -78.1,-199.44 -102.39,-298.33 -4.16,-16.9 -2.39,-25.81 -17.23,-31.63 -42.87,-16.78 -54.49,5.28 -59.66,7.64 -6.95,3.15 -12.41,1.14 -19.58,4.83 -7.37,3.81 -16.44,21.55 -16.85,34.75 -1.19,39.12 33.37,33.58 37.28,62.92 3.61,27.01 -22.34,42.58 -6.82,80.07 12.9,31.16 42.95,20.64 42.7,57.29 -0.08,15 -8.06,25.19 -7.6,40.51 0.4,14.53 8.28,27.66 17.11,34.07 28.12,20.37 53.5,-32.11 71.02,2.14 13.48,26.41 -13.72,51.05 3.86,85.56 20.29,39.93 55.42,11.92 69.19,14.67 17.2,3.42 34.89,46.75 63.58,31.65l0 0z"/>
  <path class="fil0" d="M680.71 254.1c-27,8.18 -20.43,24.5 -40.01,29.34 -24.21,5.95 -24.35,-17.3 -43.2,-22.79 -19.78,-5.74 -36.81,10.37 -40.86,25.26 -3.18,11.69 19.21,104.33 -44.5,52.19 -19.32,-15.78 -65.01,-20.59 -63.95,51.86 0.38,27.12 -16.52,27.53 -29.51,39.53 -29.04,26.9 -16.16,76.64 12.93,92.07 23.89,12.64 35.51,1.28 52.09,-8.04 19.12,-10.75 41.89,-2.36 51.7,9.89 4.97,6.23 31.94,81.51 72.89,38.83 9.94,-10.38 17.6,-32.61 41.37,-20.57 14.54,7.39 17.01,29.45 43.5,27.57 23.53,-1.65 25.35,-21.62 40.32,-28.19 37.73,-16.52 41.51,64.85 87.56,22.76 17.19,-15.67 14.37,-27.6 26.02,-41.62 33.99,-40.81 62.35,19.53 102.29,-0.65 32.68,-16.49 40.75,-65.75 11.09,-92.86 -14.16,-12.93 -29.1,-12.06 -27.8,-38.5 1.39,-27.93 -0.78,-32.82 -15.73,-47.98 -15.57,-15.75 -25.91,-19.94 -44.8,-6.24 -19.12,13.88 -39.23,11.68 -45.58,-9.1 -6.99,-22.77 7.17,-33.53 -11.47,-56 -14.7,-17.74 -31.02,-12.96 -45.67,0.27 -48.08,43.53 -38.58,-32.19 -88.67,-17.03l-0.01 0z"/>
  <path class="fil0" d="M693.21 31.38l0 0c363.99,0 661.83,297.84 661.83,661.83l0 0c0,364 -297.84,661.83 -661.83,661.83l0 0c-363.99,0 -661.83,-297.84 -661.83,-661.83l0 0c0,-363.99 297.84,-661.83 661.83,-661.83zm0 -31.38l0 0c381.27,0 693.21,311.94 693.21,693.21l0 0c0,381.27 -311.94,693.21 -693.21,693.21l0 0c-381.27,0 -693.21,-311.94 -693.21,-693.21l0 0c0,-381.27 311.94,-693.21 693.21,-693.21z"/>
  <path id="_1" class="fil0" d="M693.21 31.38l0 0c363.99,0 661.83,297.84 661.83,661.83l0 0c0,364 -297.84,661.83 -661.83,661.83l0 0c-363.99,0 -661.83,-297.84 -661.83,-661.83l0 0c0,-363.99 297.84,-661.83 661.83,-661.83zm0 -31.38l0 0c381.27,0 693.21,311.94 693.21,693.21l0 0c0,381.27 -311.94,693.21 -693.21,693.21l0 0c-381.27,0 -693.21,-311.94 -693.21,-693.21l0 0c0,-381.27 311.94,-693.21 693.21,-693.21z"/>
 </g>
</svg>
