<?xml version="1.0" encoding="UTF-8"?>
<!DOCTYPE svg PUBLIC "-//W3C//DTD SVG 1.1//EN" "http://www.w3.org/Graphics/SVG/1.1/DTD/svg11.dtd">
<!-- Creator: CorelDRAW 2021 (64-Bit) -->
<svg xmlns="http://www.w3.org/2000/svg" xml:space="preserve" width="250px" height="237px" version="1.1" style="shape-rendering:geometricPrecision; text-rendering:geometricPrecision; image-rendering:optimizeQuality; fill-rule:evenodd; clip-rule:evenodd"
viewBox="0 0 249.39 235.78"
 xmlns:xlink="http://www.w3.org/1999/xlink"
 xmlns:xodm="http://www.corel.com/coreldraw/odm/2003">
 <defs>
  <style type="text/css">
   <![CDATA[
    .str0 {stroke:#FEFEFE;stroke-width:0.85;stroke-linecap:round;stroke-linejoin:round;stroke-miterlimit:22.9256}
    .str2 {stroke:#BA9373;stroke-width:0.85;stroke-linecap:round;stroke-linejoin:round;stroke-miterlimit:22.9256}
    .str1 {stroke:#E8CDAA;stroke-width:0.85;stroke-linecap:round;stroke-linejoin:round;stroke-miterlimit:22.9256}
    .str3 {stroke:#F5E8D2;stroke-width:0.85;stroke-linecap:round;stroke-linejoin:round;stroke-miterlimit:22.9256}
    .fil5 {fill:none}
    .fil11 {fill:#FEFEFE}
    .fil2 {fill:#BA9373}
    .fil4 {fill:#D16704}
    .fil8 {fill:#E8CDAA}
    .fil1 {fill:#EEE0C6}
    .fil12 {fill:#F76700}
    .fil7 {fill:#FFFEFE}
    .fil0 {fill:white}
    .fil3 {fill:url(#id1)}
    .fil10 {fill:url(#id2)}
    .fil9 {fill:url(#id3)}
    .fil6 {fill:url(#id4)}
   ]]>
  </style>
    <clipPath id="id0">
     <path d="M89.42 4.7l70.06 0c19.27,0 35.03,15.76 35.03,35.03l0 70.06c0,19.27 -15.76,35.03 -35.03,35.03l-70.06 0c-19.27,0 -35.03,-15.76 -35.03,-35.03l0 -70.06c0,-19.27 15.76,-35.03 35.03,-35.03z"/>
    </clipPath>
  <linearGradient id="id1" gradientUnits="userSpaceOnUse" x1="71.87" y1="28.46" x2="177.03" y2="121.06">
   <stop offset="0" style="stop-opacity:1; stop-color:orange"/>
   <stop offset="1" style="stop-opacity:1; stop-color:#E77000"/>
  </linearGradient>
  <linearGradient id="id2" gradientUnits="userSpaceOnUse" x1="160.59" y1="85.26" x2="207.55" y2="160.01">
   <stop offset="0" style="stop-opacity:1; stop-color:#EEE0C6"/>
   <stop offset="1" style="stop-opacity:1; stop-color:#FEFEFE"/>
  </linearGradient>
  <linearGradient id="id3" gradientUnits="userSpaceOnUse" xlink:href="#id2" x1="41.23" y1="85.26" x2="88.2" y2="160.01">
  </linearGradient>
  <linearGradient id="id4" gradientUnits="userSpaceOnUse" xlink:href="#id1" x1="87.34" y1="37.74" x2="161.05" y2="112.23">
  </linearGradient>
 </defs>
 <g id="Layer_x0020_1">
  <metadata id="CorelCorpID_0Corel-Layer"/>
  <g id="_2968430254960">
   <path class="fil0 str0" d="M163.93 209.82c-6.86,15.06 -22.05,25.53 -39.68,25.53 -17.52,0 -32.62,-10.33 -39.55,-25.23 -14.99,-7.36 -29.97,-14.75 -45,-22.02 -0.03,-0.01 -0.05,-0.03 -0.08,-0.04 -3.73,-1.9 -6.79,-3.84 -9.31,-7.3 -3.8,-5.23 -4.62,-11.85 -4.29,-18.15l0.19 -37.55 -22.58 -12.4c-1.25,-0.68 -2.02,-1.82 -2.19,-3.23 -0.17,-1.42 0.31,-2.7 1.36,-3.66l16.58 -15.21 -14.57 0.37c-2,0.05 -3.73,-1.25 -4.24,-3.19 -0.51,-1.95 0.36,-3.92 2.14,-4.86l47.41 -25.01 0 -18.14c0,-21.63 17.68,-39.3 39.3,-39.3l70.06 0c21.63,0 39.31,17.67 39.31,39.3l0 17.79 47.88 25.17c1.79,0.94 2.67,2.93 2.14,4.88 -0.52,1.95 -2.27,3.25 -4.29,3.17l-15.57 -0.59 17.04 15.62c1.05,0.96 1.52,2.24 1.35,3.66 -0.17,1.41 -0.94,2.55 -2.18,3.23l-23.35 12.82 0.2 37.13c0.32,6.3 -0.5,12.92 -4.3,18.15 -2.52,3.46 -5.58,5.4 -9.31,7.3 -0.03,0.01 -0.05,0.03 -0.08,0.04 -14.82,7.17 -29.6,14.46 -44.39,21.72z"/>
  </g>
  <g id="_2968430257360">
   <polygon class="fil1 str1" points="244.69,86.47 218.1,85.46 191.15,72.6 191.15,58.34 "/>
   <polygon class="fil1 str1" points="56.88,59.14 4.71,86.66 30.69,86 57.38,72.31 "/>
   <polygon class="fil2" points="218.1,85.46 191.15,72.6 191.19,99.91 "/>
   <polygon class="fil2" points="30.69,86 56.24,72.89 56.24,98.86 "/>
   <path class="fil3" d="M89.42 4.7l70.06 0c19.27,0 35.03,15.76 35.03,35.03l0 70.06c0,19.27 -15.76,35.03 -35.03,35.03l-70.06 0c-19.27,0 -35.03,-15.76 -35.03,-35.03l0 -70.06c0,-19.27 15.76,-35.03 35.03,-35.03z"/>
   <g style="clip-path:url(#id0)">
    <g>
     <polygon id="_1" class="fil4" points="150.24,37.09 178.37,67.65 178.98,62.45 196.53,82.97 196.53,87.39 196.8,87.68 196.8,142.99 145.96,154.07 106.2,120.99 "/>
    </g>
   </g>
   <path class="fil5" d="M89.42 4.7l70.06 0c19.27,0 35.03,15.76 35.03,35.03l0 70.06c0,19.27 -15.76,35.03 -35.03,35.03l-70.06 0c-19.27,0 -35.03,-15.76 -35.03,-35.03l0 -70.06c0,-19.27 15.76,-35.03 35.03,-35.03z"/>
   <path class="fil6" d="M118.52 29.47c-1.11,-0.72 -1.57,-1.59 -3.31,-2.06 -4.25,-1.14 -7.74,2.64 -7.61,8.13 -3.42,-1.04 -4.7,-2.85 -8.17,0.19 -3.31,2.91 -2.81,5.47 -2.99,8.04 -1.81,1.57 -2.74,1.79 -3.81,4.28 -1.17,2.74 -0.39,4.57 -0.93,7.43 -2.91,1.77 -2.55,0.2 -4.39,3.41 -4.68,0.34 -7.23,-0.15 -11.92,1.04 -3.68,0.93 -7.35,1.53 -7.08,6.21 0.2,3.66 3.85,5.25 6.06,6.97 2.95,2.29 4.3,3.92 9.51,3.82 -0.03,1.81 0.15,3.46 0.82,4.98 0.82,1.88 1.32,2.12 2.75,3.12 -0.73,3.08 -1.75,4.15 -0.71,7.78 0.75,2.6 2.4,4.82 4.4,5.56 -0.54,3.83 -1.59,5.66 0.96,9 1.51,1.98 3.96,3.57 7.23,2.27 0.59,3.71 -0.78,5.95 2.11,8.62 4.28,3.95 4.39,2.65 7.92,2.05 1.41,1.46 3.59,3.88 7.12,3.29 3.94,-0.65 2.76,-3.55 7.43,-3.62 5.42,-0.07 3.35,2.71 7.52,3.57 4.13,0.85 6.07,-2.15 7.3,-3.31 1.83,0.43 2.05,1.2 4.26,0.54 5.08,-1.51 5.95,-6.01 5.76,-11.21 1.86,0.52 2.13,1.17 4.28,0.23 1.43,-0.63 2.42,-1.55 3.14,-2.52 2.38,-3.23 1.52,-4.92 0.9,-8.89 3.49,-1.52 5.06,-5.95 4.74,-9.56 -0.14,-1.6 -0.86,-2.5 -0.98,-3.83 2.75,-2.09 3.41,-3.49 3.56,-8.08 6.26,-0.53 3.34,0.78 9.35,-3.53 2.65,-1.9 5.98,-3.85 6.31,-6.98 0.53,-5.02 -3.88,-5.69 -6.84,-6.45 -5.09,-1.32 -7.09,-0.7 -12.11,-1.01 -0.14,-0.07 -0.95,-1.45 -1.74,-2.12 -0.89,-0.75 -1.69,-0.74 -2.81,-1.23 -0.61,-2.57 0.62,-4.22 -0.7,-7.39 -1.21,-2.91 -1.87,-2.7 -3.88,-4.44 -0.14,-1.94 0.16,-3.07 -0.61,-4.82 -1.03,-2.33 -3.43,-4.73 -6.17,-4.81 -2.24,-0.07 -2.75,0.84 -4.39,1.42 0.24,-5.69 -3.47,-9.13 -7.5,-8.24 -1.6,0.35 -2.29,1.47 -3.26,2.06 -1.16,-1.12 -2.78,-3.01 -5.59,-3.11 -3.24,-0.1 -4.51,1.82 -5.93,3.2z"/>
   <path class="fil7" d="M123.21 31.07c-2.69,0.81 -2.03,2.43 -3.98,2.91 -2.41,0.6 -2.43,-1.72 -4.3,-2.26 -1.97,-0.58 -3.66,1.03 -4.07,2.51 -0.31,1.16 1.91,10.38 -4.43,5.19 -1.92,-1.57 -6.47,-2.05 -6.36,5.16 0.04,2.7 -1.65,2.74 -2.94,3.94 -2.89,2.68 -1.61,7.63 1.29,9.16 2.38,1.26 3.53,0.13 5.18,-0.8 1.91,-1.07 4.17,-0.24 5.15,0.99 0.49,0.61 3.18,8.1 7.25,3.86 0.99,-1.03 1.75,-3.25 4.12,-2.05 1.45,0.74 1.69,2.93 4.33,2.75 2.34,-0.17 2.52,-2.16 4.01,-2.81 3.75,-1.65 4.13,6.45 8.71,2.27 1.71,-1.57 1.43,-2.75 2.59,-4.15 3.38,-4.06 6.21,1.95 10.18,-0.06 3.25,-1.64 4.06,-6.54 1.1,-9.24 -1.4,-1.29 -2.89,-1.2 -2.76,-3.83 0.14,-2.78 -0.08,-3.27 -1.57,-4.78 -1.55,-1.57 -2.58,-1.98 -4.45,-0.62 -1.91,1.38 -3.91,1.16 -4.54,-0.91 -0.7,-2.26 0.71,-3.33 -1.14,-5.57 -1.47,-1.76 -3.09,-1.29 -4.55,0.03 -4.78,4.33 -3.84,-3.2 -8.82,-1.69z"/>
   <path class="fil7" d="M116.41 118.68c-0.04,-0.05 -0.11,-0.19 -0.13,-0.15 -0.02,0.05 -2.39,-1.74 -4.1,-5.64 -1.04,-2.37 -2.24,-4.47 -3.19,-6.76 -3.85,-9.24 -7.78,-19.85 -10.19,-29.68 -0.42,-1.69 -0.24,-2.57 -1.72,-3.15 -4.26,-1.67 -5.42,0.52 -5.94,0.76 -0.69,0.31 -1.23,0.11 -1.94,0.48 -0.74,0.38 -1.64,2.14 -1.68,3.46 -0.12,3.89 3.32,3.34 3.71,6.26 0.36,2.69 -2.22,4.23 -0.68,7.97 1.29,3.1 4.28,2.05 4.25,5.7 -0.01,1.49 -0.8,2.5 -0.76,4.03 0.04,1.44 0.83,2.75 1.71,3.39 2.8,2.03 5.32,-3.2 7.06,0.21 1.35,2.63 -1.36,5.08 0.39,8.52 2.02,3.97 5.51,1.18 6.88,1.45 1.71,0.35 3.48,4.66 6.33,3.15z"/>
   <path class="fil7" d="M131.81 118.84c4.64,0.46 3.95,-3.08 6.43,-3.34 1.2,-0.12 4.62,2.74 6.8,-1.57 1.66,-3.29 -0.91,-5.71 0.22,-8.13 0.53,-1.15 1.78,-1.85 3.1,-1.07 1.2,0.72 1.44,1.72 3.43,0.89 3.93,-1.63 1.75,-6.21 1.64,-6.99 -0.51,-3.74 2.6,-3.44 3.9,-5.81 2.26,-4.09 -0.44,-4.86 -0.34,-8.09 0.11,-3.31 3.79,-2.74 3.71,-6.74 -0.08,-3.78 -3.29,-3.87 -3.48,-3.94 -1.29,-0.46 -1.26,-2.43 -5.87,-0.68 -1.68,0.63 -1.34,1.34 -1.83,3.3 -2.25,8.99 -6.48,21.24 -10.29,29.57l-4.92 10.17c-0.55,0.75 -2.33,1.97 -2.5,2.43z"/>
   <path class="fil7" d="M88.26 64.79c-1.01,-2.3 -16.23,-4 -14.69,1.8 0.69,2.6 5.39,2.67 7.96,1.89 1.81,-0.55 3.53,-1.7 5.31,-2.5 1.07,-0.49 1.05,-0.24 1.42,-1.19z"/>
   <path class="fil7" d="M160.15 64.52c0.24,1.41 1.48,1.49 2.83,2.16 1.23,0.62 2.22,1.25 3.65,1.74 3,1.03 7.2,0.55 8.18,-1.8 2.03,-4.88 -11.62,-4.72 -14.66,-2.1z"/>
   <path class="fil7" d="M103.18 70.73c-0.41,2.62 1.48,5.86 2.69,6.98 1.13,1.05 5.94,2.95 7.94,1.2 1.63,-1.44 -1.87,-3.49 -3.82,-5.04 -1.25,-0.99 -4.67,-3.33 -6.81,-3.14z"/>
   <path class="fil7" d="M145.18 70.73c-2.96,-0.28 -7.26,3.55 -9.36,5.16 -5.39,4.15 3.24,4.72 6.53,1.95 1.27,-1.08 3.25,-4.4 2.83,-7.11z"/>
   <path class="fil7" d="M121.59 115.22c0.06,-1.11 -0.05,-1.75 -0.66,-2.46 -1.22,-1.43 -3.76,-3.44 -5.78,-2.84 -0.57,1.82 1.17,3.19 2.03,3.92 1.38,1.19 2.36,1.63 4.41,1.38z"/>
   <path class="fil7" d="M126.7 115.09c3.07,1.06 7.39,-3.4 6.54,-4.92 -0.76,-1.35 -3.78,0.65 -4.34,1.11 -1.1,0.9 -2.33,1.87 -2.2,3.81z"/>
   <path class="fil8 str1" d="M123.75 134.59l0 74.59 -8.08 11.3c-24.71,-11.95 -49.41,-24.28 -74.11,-36.23 -4.92,-2.5 -12.09,-6.35 -11.27,-21.51l0.4 -76.39 93.06 48.24z"/>
   <path class="fil2 str2" d="M124.27 134.59l0 74.59 8.08 11.3c24.71,-11.95 49.41,-24.28 74.11,-36.23 4.92,-2.5 12.09,-6.35 11.27,-21.51l-0.4 -76.39 -93.06 48.24z"/>
   <polygon class="fil9 str1" points="30.69,86 123.75,134.96 97.36,159.26 5.68,108.92 "/>
   <polygon class="fil10 str1" points="218.1,86 125.04,134.96 151.43,159.26 243.1,108.92 "/>
   <circle class="fil11 str3" cx="124.25" cy="191.76" r="39.32"/>
   <circle class="fil11 str3" cx="124.25" cy="191.76" r="32.44"/>
   <path class="fil12" d="M103.19 192.35l13.56 0.03 0 -18.44c0,-0.96 0.78,-1.75 1.74,-1.75l12.24 0c0.96,0 1.74,0.79 1.74,1.75l0 18.47 14.21 0.03 -10.94 11.2 -10.94 11.19 -10.81 -11.24 -10.8 -11.24z"/>
  </g>
 </g>
</svg>
