<?xml version="1.0" encoding="UTF-8"?>
<!DOCTYPE svg PUBLIC "-//W3C//DTD SVG 1.1//EN" "http://www.w3.org/Graphics/SVG/1.1/DTD/svg11.dtd">
<!-- Creator: CorelDRAW 2021 (64-Bit) -->
<svg xmlns="http://www.w3.org/2000/svg" xml:space="preserve" width="512px" height="512px" version="1.1" style="shape-rendering:geometricPrecision; text-rendering:geometricPrecision; image-rendering:optimizeQuality; fill-rule:evenodd; clip-rule:evenodd"
viewBox="0 0 510.99 510.99"
 xmlns:xlink="http://www.w3.org/1999/xlink"
 xmlns:xodm="http://www.corel.com/coreldraw/odm/2003">
 <defs>
  <style type="text/css">
   <![CDATA[
    .str1 {stroke:#BA9373;stroke-width:1.42;stroke-linecap:round;stroke-linejoin:round;stroke-miterlimit:22.9256}
    .str0 {stroke:#E8CDAA;stroke-width:1.42;stroke-linecap:round;stroke-linejoin:round;stroke-miterlimit:22.9256}
    .str2 {stroke:#F5E8D2;stroke-width:1.42;stroke-linecap:round;stroke-linejoin:round;stroke-miterlimit:22.9256}
    .fil5 {fill:none}
    .fil11 {fill:#FEFEFE}
    .fil2 {fill:#BA9373}
    .fil4 {fill:#D16704}
    .fil8 {fill:#E8CDAA}
    .fil1 {fill:#EEE0C6}
    .fil0 {fill:#F76700}
    .fil7 {fill:#FFFEFE}
    .fil9 {fill:url(#id1)}
    .fil10 {fill:url(#id2)}
    .fil3 {fill:url(#id3)}
    .fil6 {fill:url(#id4)}
   ]]>
  </style>
   <clipPath id="id0">
    <path d="M187.81 37.34l134.44 0c36.97,0 67.22,30.25 67.22,67.22l0 134.44c0,36.97 -30.25,67.22 -67.22,67.22l-134.44 0c-36.97,0 -67.22,-30.25 -67.22,-67.22l0 -134.44c0,-36.97 30.25,-67.22 67.22,-67.22z"/>
   </clipPath>
  <linearGradient id="id1" gradientUnits="userSpaceOnUse" x1="95.34" y1="191.92" x2="185.46" y2="335.36">
   <stop offset="0" style="stop-opacity:1; stop-color:#EEE0C6"/>
   <stop offset="1" style="stop-opacity:1; stop-color:#FEFEFE"/>
  </linearGradient>
  <linearGradient id="id2" gradientUnits="userSpaceOnUse" xlink:href="#id1" x1="324.37" y1="191.92" x2="414.49" y2="335.36">
  </linearGradient>
  <linearGradient id="id3" gradientUnits="userSpaceOnUse" x1="154.14" y1="82.93" x2="355.92" y2="260.63">
   <stop offset="0" style="stop-opacity:1; stop-color:orange"/>
   <stop offset="1" style="stop-opacity:1; stop-color:#E77000"/>
  </linearGradient>
  <linearGradient id="id4" gradientUnits="userSpaceOnUse" xlink:href="#id3" x1="183.81" y1="100.75" x2="325.25" y2="243.67">
  </linearGradient>
 </defs>
 <g id="Layer_x0020_1">
  <metadata id="CorelCorpID_0Corel-Layer"/>
  <rect class="fil0" width="510.99" height="510.99"/>
  <polygon class="fil1 str0" points="485.74,194.25 434.73,192.3 383.01,167.63 383.01,140.26 "/>
  <polygon class="fil1 str0" points="125.36,141.8 25.25,194.61 75.1,193.34 126.33,167.07 "/>
  <polygon class="fil2" points="434.73,192.3 383.01,167.63 383.09,220.03 "/>
  <polygon class="fil2" points="75.1,193.34 124.14,168.19 124.14,218.02 "/>
  <path class="fil3" d="M187.81 37.34l134.44 0c36.97,0 67.22,30.25 67.22,67.22l0 134.44c0,36.97 -30.25,67.22 -67.22,67.22l-134.44 0c-36.97,0 -67.22,-30.25 -67.22,-67.22l0 -134.44c0,-36.97 30.25,-67.22 67.22,-67.22z"/>
  <g style="clip-path:url(#id0)">
   <g id="_1686636949584">
    <polygon id="_1" class="fil4" points="304.51,99.49 358.49,158.14 359.66,148.16 393.34,187.54 393.34,196.01 393.85,196.57 393.85,302.7 296.3,323.96 220.01,260.49 "/>
   </g>
  </g>
  <path class="fil5" d="M187.81 37.34l134.44 0c36.97,0 67.22,30.25 67.22,67.22l0 134.44c0,36.97 -30.25,67.22 -67.22,67.22l-134.44 0c-36.97,0 -67.22,-30.25 -67.22,-67.22l0 -134.44c0,-36.97 30.25,-67.22 67.22,-67.22z"/>
  <path class="fil6" d="M243.65 84.87c-2.13,-1.38 -3.02,-3.05 -6.35,-3.95 -8.17,-2.2 -14.86,5.07 -14.62,15.6 -6.55,-2 -9.02,-5.48 -15.67,0.36 -6.35,5.58 -5.39,10.5 -5.73,15.44 -3.48,3 -5.27,3.43 -7.32,8.21 -2.25,5.25 -0.75,8.76 -1.78,14.26 -5.58,3.39 -4.89,0.37 -8.43,6.53 -8.97,0.65 -13.86,-0.29 -22.88,2 -7.06,1.78 -14.08,2.94 -13.58,11.92 0.39,7.01 7.39,10.08 11.63,13.37 5.67,4.39 8.26,7.52 18.25,7.32 -0.05,3.49 0.29,6.65 1.57,9.57 1.59,3.6 2.54,4.06 5.28,5.99 -1.39,5.9 -3.35,7.96 -1.35,14.92 1.43,4.99 4.61,9.25 8.43,10.67 -1.03,7.35 -3.05,10.87 1.85,17.28 2.9,3.79 7.59,6.84 13.88,4.34 1.13,7.12 -1.5,11.43 4.04,16.54 8.22,7.59 8.42,5.09 15.2,3.94 2.7,2.8 6.9,7.44 13.65,6.32 7.56,-1.25 5.31,-6.82 14.27,-6.94 10.4,-0.15 6.43,5.18 14.43,6.84 7.92,1.63 11.64,-4.13 14.01,-6.34 3.5,0.82 3.94,2.29 8.18,1.03 9.74,-2.9 11.41,-11.54 11.05,-21.52 3.55,1 4.08,2.26 8.2,0.44 2.75,-1.21 4.66,-2.96 6.03,-4.82 4.57,-6.21 2.91,-9.45 1.74,-17.08 6.69,-2.9 9.7,-11.41 9.08,-18.33 -0.27,-3.07 -1.65,-4.8 -1.88,-7.35 5.28,-4.01 6.55,-6.71 6.84,-15.51 12.01,-1.02 6.41,1.49 17.94,-6.78 5.09,-3.64 11.47,-7.39 12.1,-13.38 1.02,-9.63 -7.44,-10.92 -13.13,-12.39 -9.76,-2.52 -13.59,-1.34 -23.23,-1.93 -0.27,-0.13 -1.83,-2.79 -3.34,-4.06 -1.7,-1.44 -3.24,-1.43 -5.39,-2.36 -1.17,-4.94 1.2,-8.1 -1.34,-14.19 -2.33,-5.58 -3.59,-5.19 -7.45,-8.51 -0.27,-3.74 0.31,-5.89 -1.18,-9.25 -1.97,-4.49 -6.58,-9.08 -11.83,-9.24 -4.3,-0.13 -5.27,1.62 -8.42,2.72 0.46,-10.9 -6.66,-17.52 -14.38,-15.81 -3.09,0.68 -4.41,2.82 -6.26,3.95 -2.24,-2.15 -5.35,-5.78 -10.74,-5.95 -6.21,-0.21 -8.65,3.48 -11.37,6.13z"/>
  <path class="fil7" d="M252.64 87.93c-5.15,1.56 -3.9,4.68 -7.64,5.6 -4.62,1.14 -4.65,-3.3 -8.25,-4.35 -3.78,-1.1 -7.03,1.98 -7.8,4.82 -0.61,2.24 3.67,19.93 -8.5,9.97 -3.69,-3.02 -12.41,-3.93 -12.21,9.9 0.07,5.18 -3.16,5.26 -5.63,7.55 -5.55,5.14 -3.09,14.64 2.47,17.58 4.55,2.42 6.78,0.24 9.94,-1.53 3.65,-2.06 8,-0.46 9.87,1.89 0.95,1.18 6.1,15.56 13.92,7.41 1.9,-1.98 3.36,-6.23 7.9,-3.93 2.78,1.41 3.25,5.62 8.31,5.27 4.49,-0.32 4.84,-4.13 7.7,-5.39 7.2,-3.16 7.92,12.39 16.72,4.35 3.28,-3 2.74,-5.27 4.97,-7.95 6.48,-7.79 11.9,3.73 19.53,-0.12 6.24,-3.15 7.78,-12.56 2.12,-17.73 -2.71,-2.48 -5.56,-2.31 -5.31,-7.35 0.26,-5.34 -0.15,-6.27 -3.01,-9.17 -2.97,-3.01 -4.94,-3.81 -8.55,-1.19 -3.65,2.65 -7.49,2.23 -8.71,-1.74 -1.33,-4.34 1.37,-6.4 -2.19,-10.69 -2.8,-3.39 -5.92,-2.48 -8.71,0.05 -9.19,8.31 -7.37,-6.14 -16.94,-3.25z"/>
  <path class="fil7" d="M239.59 256.06c-0.07,-0.1 -0.2,-0.38 -0.24,-0.29 -0.04,0.09 -4.6,-3.34 -7.87,-10.82 -2,-4.56 -4.3,-8.58 -6.13,-12.98 -7.37,-17.72 -14.91,-38.08 -19.55,-56.96 -0.8,-3.23 -0.46,-4.93 -3.29,-6.04 -8.19,-3.2 -10.41,1.01 -11.4,1.46 -1.32,0.6 -2.36,0.22 -3.73,0.92 -1.41,0.73 -3.15,4.12 -3.22,6.64 -0.23,7.47 6.37,6.41 7.12,12.01 0.69,5.16 -4.27,8.13 -1.3,15.29 2.46,5.95 8.2,3.94 8.15,10.94 -0.02,2.86 -1.54,4.81 -1.46,7.74 0.08,2.77 1.59,5.28 3.27,6.5 5.38,3.89 10.22,-6.13 13.56,0.41 2.58,5.04 -2.61,9.75 0.74,16.34 3.88,7.63 10.58,2.27 13.21,2.8 3.29,0.65 6.67,8.93 12.14,6.04z"/>
  <path class="fil7" d="M269.15 256.35c8.9,0.89 7.59,-5.9 12.34,-6.4 2.31,-0.24 8.87,5.26 13.04,-3 3.19,-6.32 -1.74,-10.98 0.42,-15.6 1.03,-2.21 3.43,-3.56 5.95,-2.06 2.32,1.37 2.76,3.29 6.58,1.71 7.55,-3.14 3.36,-11.93 3.16,-13.42 -0.99,-7.17 4.98,-6.6 7.48,-11.14 4.33,-7.86 -0.85,-9.33 -0.66,-15.53 0.21,-6.35 7.27,-5.25 7.12,-12.93 -0.15,-7.27 -6.31,-7.43 -6.68,-7.56 -2.47,-0.89 -2.41,-4.66 -11.25,-1.32 -3.24,1.23 -2.57,2.58 -3.52,6.34 -4.32,17.25 -12.43,40.76 -19.75,56.74l-9.43 19.52c-1.06,1.44 -4.49,3.79 -4.8,4.65z"/>
  <path class="fil7" d="M185.58 152.65c-1.93,-4.42 -31.14,-7.68 -28.19,3.46 1.32,4.98 10.34,5.12 15.27,3.62 3.48,-1.05 6.78,-3.26 10.19,-4.81 2.06,-0.94 2.03,-0.46 2.73,-2.27z"/>
  <path class="fil7" d="M323.52 152.13c0.46,2.7 2.86,2.86 5.44,4.14 2.37,1.19 4.26,2.4 7.01,3.34 5.75,1.97 13.81,1.05 15.69,-3.45 3.9,-9.38 -22.3,-9.05 -28.14,-4.03z"/>
  <path class="fil7" d="M214.2 164.05c-0.77,5.02 2.85,11.24 5.17,13.4 2.17,2.01 11.41,5.64 15.23,2.28 3.13,-2.75 -3.59,-6.69 -7.33,-9.67 -2.39,-1.9 -8.96,-6.38 -13.07,-6.01z"/>
  <path class="fil7" d="M294.81 164.05c-5.68,-0.54 -13.94,6.81 -17.97,9.9 -10.35,7.95 6.23,9.04 12.52,3.73 2.45,-2.07 6.25,-8.43 5.45,-13.63z"/>
  <path class="fil7" d="M249.54 249.42c0.1,-2.14 -0.09,-3.36 -1.27,-4.73 -2.35,-2.73 -7.21,-6.6 -11.09,-5.44 -1.1,3.49 2.24,6.11 3.88,7.52 2.66,2.27 4.53,3.12 8.48,2.65z"/>
  <path class="fil7" d="M259.35 249.16c5.88,2.04 14.17,-6.51 12.53,-9.43 -1.45,-2.59 -7.24,1.24 -8.31,2.12 -2.12,1.73 -4.47,3.59 -4.22,7.31z"/>
  <path class="fil8 str0" d="M253.67 286.58l0 143.14 -15.5 21.68c-47.4,-22.94 -94.81,-46.58 -142.21,-69.52 -9.44,-4.8 -23.19,-12.18 -21.62,-41.29l0.76 -146.56 178.57 92.55z"/>
  <path class="fil2 str1" d="M254.69 286.58l0 143.14 15.5 21.68c47.4,-22.94 94.8,-46.58 142.21,-69.52 9.44,-4.8 23.19,-12.18 21.62,-41.29l-0.76 -146.56 -178.57 92.55z"/>
  <polygon class="fil9 str0" points="75.1,193.34 253.67,287.29 203.03,333.93 27.13,237.32 "/>
  <polygon class="fil10 str0" points="434.73,193.34 256.15,287.29 306.79,333.93 482.7,237.32 "/>
  <circle class="fil11 str2" cx="254.63" cy="396.28" r="75.45"/>
  <circle class="fil11 str2" cx="254.63" cy="396.28" r="62.24"/>
  <path class="fil0" d="M214.22 397.42l26.02 0.06 0 -35.39c0,-1.84 1.51,-3.35 3.35,-3.35l23.48 0c1.84,0 3.35,1.51 3.35,3.35l0 35.45 27.25 0.06 -20.99 21.48 -20.99 21.48 -20.74 -21.57 -20.73 -21.57z"/>
 </g>
</svg>
