<?xml version="1.0" encoding="UTF-8"?>
<!DOCTYPE svg PUBLIC "-//W3C//DTD SVG 1.1//EN" "http://www.w3.org/Graphics/SVG/1.1/DTD/svg11.dtd">
<!-- Creator: CorelDRAW 2021 (64-Bit) -->
<svg xmlns="http://www.w3.org/2000/svg" xml:space="preserve" width="503px" height="512px" version="1.1" style="shape-rendering:geometricPrecision; text-rendering:geometricPrecision; image-rendering:optimizeQuality; fill-rule:evenodd; clip-rule:evenodd"
viewBox="0 0 3152.21 3208.22"
 xmlns:xlink="http://www.w3.org/1999/xlink"
 xmlns:xodm="http://www.corel.com/coreldraw/odm/2003">
 <defs>
  <style type="text/css">
   <![CDATA[
    .fil0 {fill:#EEEEEE;fill-rule:nonzero}
    .fil1 {fill:red;fill-rule:nonzero}
    .fil2 {fill:white;fill-rule:nonzero}
   ]]>
  </style>
 </defs>
 <g id="Layer_x0020_1">
  <metadata id="CorelCorpID_0Corel-Layer"/>
  <path id="Shape" class="fil0" d="M798.83 2842.1l0 -66.57 -499.27 0c-165.34,-0.23 -299.34,-134.22 -299.56,-299.56l0 -50.86c0,-0.45 0,-0.94 0,-1.4 0,-128.7 73.05,-246.34 188.41,-303.35 51.6,-25.78 86.18,-76.6 91.18,-134.08l59.38 -653.7c38.81,-426.91 396.9,-754.04 825.65,-754.04 15.49,0 30.96,0.44 46.41,1.31 -30.22,63.02 -54.11,129.65 -70.97,199.03 -315.07,10.92 -574.54,255.72 -601.49,572.07l-59.27 653.44c-11.18,126.46 -87.49,238.11 -201.19,294.52 -47.98,23.6 -78.4,72.49 -78.4,126 0,0.1 0,0.22 0,0.32l0 50.86c0.15,55.07 44.79,99.65 99.85,99.73l1730.79 0c55.12,-0.08 99.78,-44.74 99.86,-99.86l0 -50.85c0,-0.17 0,-0.4 0,-0.57 0,-53.29 -30.26,-102.01 -78.02,-125.64 -113.89,-56.34 -190.33,-167.99 -201.59,-294.52l-0.25 -2.68c68.26,19.54 139.46,32.09 212.76,36.97 15.5,34.7 42.6,63.64 77.47,81.28 115.61,57.15 188.8,175.01 188.8,303.97 0,0.29 0,0.62 0,0.91l0 50.86c-0.11,165.38 -134.19,299.46 -299.57,299.57l-498.72 0 0 66.84c0,202.17 -163.96,366.12 -366.13,366.12 -202.18,0 -366.13,-163.95 -366.13,-366.13l0 0.01z"/>
  <path id="Shape-2" class="fil1" d="M2131.7 2041.02c-563.52,0 -1020.51,-457 -1020.51,-1020.51 0,-563.52 456.99,-1020.51 1020.51,-1020.51 563.52,0 1020.51,456.99 1020.51,1020.51 0,563.51 -456.99,1020.51 -1020.51,1020.51z" data-name="Shape"/>
  <path class="fil2" d="M1664.1 1342.74l261.86 -31.83c8.2,66.94 30.51,118.13 66.94,153.57 36.42,35.44 80.39,53.15 131.91,53.15 55.45,0 102.05,-21.32 140.11,-63.65 37.74,-42.33 56.77,-99.43 56.77,-171.62 0,-67.92 -18.05,-122.07 -54.47,-161.77 -36.42,-39.71 -80.72,-59.72 -133.22,-59.72 -34.46,0 -75.48,6.89 -123.38,20.34l29.86 -219.19c72.84,1.97 128.3,-14.11 166.69,-47.91 38.39,-33.47 57.42,-78.42 57.42,-134.54 0,-47.58 -14.11,-85.31 -42.32,-113.86 -28.22,-28.22 -65.63,-42.33 -112.56,-42.33 -46.26,0 -85.64,16.08 -118.13,48.24 -32.81,32.15 -52.5,79.08 -59.72,140.77l-248.07 -42.33c17.39,-85.97 43.32,-154.55 78.43,-206.07 34.78,-51.19 83.67,-91.55 146.02,-121.08 62.34,-29.21 132.56,-43.97 210.01,-43.97 132.56,0 238.88,42.33 318.94,127.31 65.96,69.57 99.1,148.32 99.1,235.93 0,124.04 -67.6,223.46 -203.11,297.3 80.72,17.39 145.03,56.11 193.59,116.48 48.24,60.38 72.52,133.23 72.52,218.54 0,123.71 -45.28,229.37 -135.52,316.65 -90.23,87.29 -202.46,130.93 -336.99,130.93 -127.32,0 -232.98,-36.75 -316.66,-110.58 -84,-73.5 -132.56,-169.65 -146.02,-288.76z"/>
 </g>
</svg>
