<?xml version="1.0" encoding="UTF-8"?>
<!DOCTYPE svg PUBLIC "-//W3C//DTD SVG 1.1//EN" "http://www.w3.org/Graphics/SVG/1.1/DTD/svg11.dtd">
<!-- Creator: CorelDRAW 2021 (64-Bit) -->
<svg xmlns="http://www.w3.org/2000/svg" xml:space="preserve" width="192px" height="159px" version="1.1" style="shape-rendering:geometricPrecision; text-rendering:geometricPrecision; image-rendering:optimizeQuality; fill-rule:evenodd; clip-rule:evenodd"
viewBox="0 0 126.55 104.72"
 xmlns:xlink="http://www.w3.org/1999/xlink"
 xmlns:xodm="http://www.corel.com/coreldraw/odm/2003">
 <defs>
  <style type="text/css">
   <![CDATA[
    .fil0 {fill:#AAAAAA}
   ]]>
  </style>
 </defs>
 <g id="Layer_x0020_1">
  <metadata id="CorelCorpID_0Corel-Layer"/>
  <path class="fil0" d="M48.14 49.5c-5.49,2.38 -21.29,8.49 -25.02,15.2l11.34 10.92c2,-0.93 3.45,-2.68 6.09,-4.29 4.91,-3 17.8,-8.46 21.86,-7.14 2.11,0.68 36.32,37.68 41.19,40.33 2.54,-1.18 5.49,-4.41 7.22,-7.04l-97.73 -97.48 -7.19 7.38 17.21 17.1c-4.24,2.96 -8.08,4.32 -12.32,7.55 -4.2,3.2 -7.31,6.15 -10.79,8.95 1.27,2.39 9.33,10.48 11.66,11.65 5.25,-3.97 15.5,-13.78 24.45,-15.37l12.03 12.24zm12.06 -17.94c1.95,0.51 30.81,-2.05 50.37,17.16 1.54,1.51 2.89,2.97 4.8,3.9 2.38,-2.13 10.34,-9.56 11.18,-11.9 -9.92,-7.5 -12.26,-11.52 -25.75,-17.56 -12.53,-5.6 -23.27,-8.07 -38.39,-8.07 -3.02,0 -6.3,0.2 -9.09,0.56 -2.49,0.33 -5.79,0.41 -7.8,1.96l14.68 13.95zm-13.81 55.76c1,2.19 1.89,2.56 4.01,4.66l12.98 12.74 17.2 -17.36c-10.18,-10.35 -27.31,-8.6 -34.19,-0.04zm51.04 -17.57l6.1 -5c-2.74,-4.9 -16.92,-13.9 -25.44,-14.67l19.34 19.67z"/>
 </g>
</svg>
