<?xml version="1.0" encoding="UTF-8"?>
<!DOCTYPE svg PUBLIC "-//W3C//DTD SVG 1.1//EN" "http://www.w3.org/Graphics/SVG/1.1/DTD/svg11.dtd">
<!-- Creator: CorelDRAW 2021 (64-Bit) -->
<svg xmlns="http://www.w3.org/2000/svg" xml:space="preserve" width="512px" height="512px" version="1.1" style="shape-rendering:geometricPrecision; text-rendering:geometricPrecision; image-rendering:optimizeQuality; fill-rule:evenodd; clip-rule:evenodd"
viewBox="0 0 266.32 266.32"
 xmlns:xlink="http://www.w3.org/1999/xlink"
 xmlns:xodm="http://www.corel.com/coreldraw/odm/2003">
 <defs>
  <style type="text/css">
   <![CDATA[
    .fil0 {fill:#ffffff}
   ]]>
  </style>
 </defs>
 <g id="Layer_x0020_1">
  <metadata id="CorelCorpID_0Corel-Layer"/>
  <g id="_2428930295168">
   <path class="fil0" d="M9.17 158.88c6.76,7.94 21.76,22.09 29.97,30.47 3.82,3.89 5.52,2.62 12.32,2.62 5.04,0 9.69,0.29 14.41,-1.06 8.69,-2.46 13.16,-7.85 17.76,-12.45l30.31 -30.65c4.61,-4.78 10.46,-10.83 21,-8.93 8.33,1.5 13.57,8.37 17.72,12.53 6.6,6.59 32.48,33.73 38.36,37.18 8.07,4.72 17.65,3.48 27.2,3.52 7.85,0.03 6.27,-0.53 10.41,-4.66 5.25,-5.25 10.13,-10.12 15.37,-15.37 8.65,-8.68 22.23,-18.47 22.32,-38.79 0.08,-20.23 -13.26,-30.41 -21.73,-38.87 -5.16,-5.16 -9.94,-9.95 -15.11,-15.11 -3.1,-3.1 -3.28,-5.24 -9.68,-5.19 -15.57,0.13 -24.78,-1.99 -36.22,9.44 -5.25,5.25 -10.11,10.12 -15.36,15.37 -5.17,5.16 -9.95,9.94 -15.12,15.11 -4.13,4.13 -9.58,11.52 -17.4,13.31 -11.01,2.51 -16.83,-4.17 -21.25,-8.59l-30.49 -30.47c-14.83,-14.83 -17.2,-14.31 -39.31,-14.05 -3.62,0.04 -3.51,0.8 -5.31,2.65 -9.45,9.74 -21.63,20.97 -30.31,30.64 -2.01,2.24 -4.23,5.81 -5.77,9.34 -5.91,13.51 -3.7,30.74 5.91,42.01zm94.64 -20.97c1.68,-1.74 3.38,-3.36 5.1,-4.82 -1.5,-1.34 -2.94,-2.78 -4.47,-4.31l-30.49 -30.47c-2.43,-2.43 -7.9,-8.13 -11.29,-9.23 -3.11,-1.01 -9.94,-0.87 -14.69,-0.75 -9.42,9.57 -19.46,18.71 -28.41,28.67 -1.26,1.41 -2.55,3.79 -3.32,5.54 -3.73,8.54 -2.38,20 3.71,27.15 8.34,9.78 18.65,19.01 27.84,28.25 1.23,-0.06 2.47,-0.14 3.67,-0.14 3.04,0 7.59,0.32 10.54,-0.51 5.01,-1.43 8.03,-5.22 11.56,-8.79l30.25 -30.59zm50.28 -4.85c2.85,2.46 5.55,5.29 8.59,8.33 6.29,6.29 12.44,12.74 18.73,19.05 3.57,3.58 7.17,7.15 10.85,10.62 1.73,1.64 4.11,4.02 6.07,5.39 4.43,2.43 14.74,1.5 19.78,1.49 0.16,-0.17 0.33,-0.34 0.5,-0.51 5.12,-5.12 10.25,-10.23 15.36,-15.36 8.77,-8.8 18.12,-15.12 18.18,-28.84 0.05,-13.57 -8.86,-20.07 -17.58,-28.79 -5.03,-5.03 -10.06,-10.07 -15.1,-15.11 -0.35,-0.34 -0.67,-0.69 -0.98,-1.04 -5.14,-0.05 -11.34,-0.47 -16.1,0.3 -3.74,0.6 -6.13,2.32 -8.8,4.99 -5.12,5.12 -10.24,10.25 -15.36,15.37 -5.04,5.03 -10.07,10.07 -15.11,15.1 -3.23,3.24 -6.02,6.32 -9.03,9.01z"/>
   <path class="fil0" d="M115.79 3.82c-2.1,1 -3.44,1.85 -5.28,3.04 -5.87,3.83 -39.47,38.35 -47.98,46.85 -2.31,2.31 -6.92,6.36 -8.47,8.76 24.54,1.08 26.71,6.1 43.4,22.75l24.75 24.74c10.73,10.73 11.13,7.33 27.84,-9.4 5.68,-5.69 10.98,-10.99 16.67,-16.67 4.76,-4.76 11.08,-12.04 17.5,-15.84 9.52,-5.62 15.68,-5.62 27.84,-5.66 -1.13,-2.26 -13.87,-14.37 -16.71,-17.2 -5.86,-5.86 -11.34,-11.34 -17.19,-17.19 -8.08,-8.07 -17.15,-19.07 -27.55,-24.05 -10.82,-5.17 -23.98,-5.32 -34.82,-0.13zm2.57 14.84c-2.49,1.83 -5.43,4.83 -7.67,6.98 -4.68,4.47 -9.28,9.03 -13.85,13.6 -4.85,4.84 -9.66,9.72 -14.47,14.59 8.33,4.12 14.56,10.84 25.1,21.37l24.03 24.02c2.86,-2.87 5.66,-5.8 8.52,-8.67 5.56,-5.56 11.12,-11.12 16.68,-16.68 6.48,-6.48 12.29,-13.28 20.31,-18.02 2.05,-1.21 4,-2.22 5.89,-3.08 -4.92,-4.92 -9.84,-9.83 -14.76,-14.75 -6.32,-6.32 -15.64,-17.46 -23.64,-21.29 -6.96,-3.32 -15.62,-3.47 -22.6,-0.13 -1.28,0.61 -2.36,1.29 -3.54,2.06z"/>
   <path class="fil0" d="M54.05 203.7c0.64,1.4 46.32,47.59 52.82,52.87 15.94,12.94 36.48,12.92 52.17,0.39 1.4,-1.13 3.21,-3.17 4.45,-4.41 1.6,-1.6 2.82,-2.82 4.42,-4.43 7.14,-7.13 43.1,-42.43 43.95,-44.28 -24.99,0 -28.82,-4.97 -44.82,-20.96 -5.6,-5.6 -10.82,-10.81 -16.42,-16.41 -2.87,-2.87 -14.29,-15.39 -17.41,-16.04 -5.61,-1.17 -8.2,3.23 -10.55,5.58l-25.02 25c-11.23,11.21 -18.24,22.59 -43.59,22.69zm27.92 8.59c2.63,2.67 5.27,5.32 7.91,7.98 5.51,5.54 11.05,11.06 16.64,16.52 2.87,2.8 6.19,6.27 9.28,8.78 10.57,8.59 23.72,8.85 34.36,0.34 1.11,-0.94 2.25,-2.32 3.32,-3.39 1.48,-1.47 2.95,-2.94 4.42,-4.42 7.56,-7.55 15.2,-15.03 22.77,-22.57 0.69,-0.68 1.37,-1.36 2.05,-2.04 -8.54,-3.79 -15.37,-10.27 -25.7,-20.59 -5.47,-5.47 -10.94,-10.94 -16.41,-16.41 -2.52,-2.52 -5.83,-6.29 -8.99,-9.41l-23.96 23.95c-6.2,6.2 -11.22,12.28 -18.61,17.25 -2.31,1.55 -4.67,2.88 -7.08,4.01z"/>
  </g>
 </g>
</svg>
