<?xml version="1.0" encoding="UTF-8"?>
<!DOCTYPE svg PUBLIC "-//W3C//DTD SVG 1.1//EN" "http://www.w3.org/Graphics/SVG/1.1/DTD/svg11.dtd">
<!-- Creator: CorelDRAW 2021 (64-Bit) -->
<svg xmlns="http://www.w3.org/2000/svg" xml:space="preserve" width="68px" height="24px" version="1.1" style="shape-rendering:geometricPrecision; text-rendering:geometricPrecision; image-rendering:optimizeQuality; fill-rule:evenodd; clip-rule:evenodd"
viewBox="0 0 67.94 23.93"
 xmlns:xlink="http://www.w3.org/1999/xlink"
 xmlns:xodm="http://www.corel.com/coreldraw/odm/2003">
 <defs>
  <style type="text/css">
   <![CDATA[
    .fil0 {fill:white}
   ]]>
  </style>
 </defs>
 <g id="Layer_x0020_1">
  <metadata id="CorelCorpID_0Corel-Layer"/>
  <g id="_3126704250480">
   <path class="fil0" d="M0 11.97l0 1.44c0.21,0.37 0.04,0.51 0.66,1.32 0.31,0.41 1.94,2.02 2.46,2.54 0.39,0.38 0.35,0.39 0.62,0.39 1.75,-0.01 1.84,0.24 3.13,-0.83 0.53,-0.44 1.61,-1.47 2.05,-1.96l1.48 -1.48c0.22,-0.18 0.46,-0.21 0.81,-0.21 0.93,0.01 1.86,1.01 2.42,1.6l0.98 1.02c0.17,0.16 0.31,0.34 0.48,0.51 0.09,0.09 0.17,0.15 0.26,0.24 1.31,1.2 1.31,1.11 3.4,1.11 0.31,-0.38 0.68,-0.74 1.02,-1.08 0.18,-0.18 0.37,-0.34 0.53,-0.52 0.47,-0.54 1,-0.84 1.52,-1.64 0.65,-1 0.65,-2.37 0.03,-3.34 -0.43,-0.66 -0.96,-1.16 -1.51,-1.65l-1.33 -1.33c-0.05,-0.05 -0.08,-0.08 -0.13,-0.13l-0.16 -0.13c-1.7,0 -2.21,-0.14 -3.11,0.88 -0.15,0.17 -0.32,0.31 -0.48,0.49 -0.09,0.1 -0.16,0.18 -0.24,0.27l-1.24 1.28c-0.18,0.18 -0.35,0.3 -0.52,0.47 -0.37,0.36 -1.3,1.15 -1.85,1.16 -1,0.03 -3.27,-2.47 -4.09,-3.37 -0.08,-0.09 -0.18,-0.16 -0.26,-0.25 -1.04,-1.14 -1.11,-0.92 -3.02,-0.93 -0.56,0 -0.39,-0.01 -0.69,0.3 -0.17,0.18 -0.35,0.33 -0.54,0.49l-1.02 0.98c-0.33,0.33 -0.64,0.67 -0.95,1.06 -0.76,0.94 -0.47,0.86 -0.71,1.3z"/>
   <path class="fil0" d="M6.1 20.16c0.23,0.26 0.44,0.51 0.7,0.77 0.07,0.07 0.11,0.13 0.17,0.2l0.52 0.57c0.29,0.34 1.1,1.15 1.49,1.43 1.43,1.02 2.83,1.1 4.26,0 0.56,-0.42 1.7,-1.61 2.19,-2.19 0.12,-0.14 0.24,-0.25 0.36,-0.39l1.84 -1.8c-0.97,-0.01 -1.48,-0.16 -2.09,-0.65 -0.16,-0.12 -0.24,-0.19 -0.39,-0.33l-1.04 -0.99c-0.5,-0.5 -1.42,-1.43 -1.93,-1.88 -0.24,-0.21 -0.76,-0.72 -1.04,-0.61 -0.16,0.05 -0.7,0.52 -0.8,0.61l-0.69 0.67c-0.71,0.66 -2.14,2.24 -2.82,2.67 -0.87,0.55 -1.44,0.41 -2.23,0.5l1.5 1.42z"/>
   <path class="fil0" d="M4.61 6.72c0.01,0.01 0.02,0 0.03,0.01l0.1 0.02c0.32,0.01 0.53,-0.09 1.11,0.04 0.4,0.09 0.68,0.24 0.97,0.42 0.61,0.4 1.34,1.08 1.87,1.6l0.67 0.69c0.12,0.13 0.24,0.22 0.36,0.35 0.23,0.27 1.12,1.23 1.43,1.36 0.26,0.12 0.68,-0.33 0.83,-0.45 0.63,-0.51 1.56,-1.51 2.12,-2.07 0.49,-0.48 0.84,-0.92 1.41,-1.37 0.42,-0.34 0.89,-0.56 1.48,-0.6 0.25,-0.02 0.46,0.04 0.67,0.03 -0.2,-0.14 -1.35,-1.28 -1.46,-1.4l-1.72 -1.89c-0.27,-0.29 -0.81,-0.8 -1.13,-1.04 -1.34,-1.02 -2.95,-1.01 -4.36,-0.05 -0.3,0.21 -0.54,0.43 -0.78,0.68 -0.24,0.24 -0.5,0.47 -0.72,0.73l-1.2 1.32c-0.29,0.29 -1.36,1.45 -1.68,1.62z"/>
   <path class="fil0" d="M31.61 3.46c-1.76,0.25 -3.35,1.85 -3.96,3.09 -0.46,0.95 -0.32,2.02 -0.32,3.17l0 12.3c0,0.14 -0.01,0.3 -0.01,0.44 0.01,0.31 0.45,0.61 0.77,0.33 0.09,-0.07 0.14,-0.14 0.22,-0.22 0.1,-0.12 0.11,-0.14 0.11,-0.35 -0.03,-4.37 -0.01,-8.8 -0.01,-13.18 0,-1.49 -0.02,-1.77 0.74,-2.79 0.43,-0.58 1.12,-1.23 1.95,-1.55 0.74,-0.29 2.44,-0.17 3.35,-0.17 1.05,0 2.37,-0.12 3.29,0.2 0.87,0.3 1.63,0.94 2.06,1.48 0.72,0.91 0.74,1.36 0.74,2.76 0,0.8 0.1,2.82 -0.08,3.46 -0.4,1.43 -2.21,3.14 -3.9,3.14l-5.27 0c-0.61,0 -0.8,-0.13 -1.03,0.28 -0.23,0.4 0.2,0.79 0.39,0.81l6.18 0c1.8,0 3.39,-1.36 4.23,-2.82 0.62,-1.09 0.58,-1.5 0.58,-2.9 0,-0.63 0.05,-3.01 -0.06,-3.46 -0.19,-0.72 -0.84,-1.84 -1.22,-2.28 -0.48,-0.58 -1.15,-1.08 -2.08,-1.45 -1.05,-0.41 -1.97,-0.32 -3.18,-0.32 -0.6,0 -3.1,-0.03 -3.49,0.03z"/>
   <path class="fil0" d="M49.03 4.52c0.57,0.04 1.22,0.01 1.8,0.01 1.1,0 1.13,0.14 1.93,0.75l0.95 0.85c0.98,0.92 1.77,1.81 2.73,2.67 0.47,0.42 0.9,0.88 1.55,1.2 -0.07,0.07 -0.97,0.67 -1.33,1.02 -0.47,0.46 -0.74,0.69 -1.22,1.2 -0.98,1.03 -2.39,2.56 -3.62,3.14 -0.34,0.16 -0.4,0.13 -0.82,0.13 -0.29,0 -1.76,-0.03 -1.92,0.02 -0.25,0.06 -0.37,0.37 -0.33,0.67 0.06,0.56 0.84,0.49 1.37,0.48 1.41,-0.04 1.84,0.09 3.11,-0.77l0.82 -0.61c0.1,-0.08 0.2,-0.16 0.28,-0.23l1.46 -1.39c0.16,-0.17 0.35,-0.32 0.5,-0.49 0.54,-0.61 0.95,-0.96 1.43,-1.46 0.15,-0.17 0.33,-0.33 0.53,-0.45 0.48,-0.29 1.13,0.46 1.47,0.75 0.11,0.08 0.16,0.12 0.25,0.22 0.16,0.18 0.34,0.32 0.51,0.48 0.33,0.32 0.65,0.65 0.96,0.98 0.3,0.33 0.64,0.66 0.96,0.98l0.96 0.93c0.19,0.15 0.31,0.27 0.54,0.42 1.07,0.73 3.5,0.86 3.9,0.37 0.16,-0.18 0.15,-0.52 0,-0.71 -0.31,-0.42 -1.98,-0.02 -2.64,-0.24 -0.95,-0.32 -2.43,-1.95 -3.14,-2.67l-1.45 -1.44c-0.5,-0.44 -0.79,-0.82 -1.43,-1.22 -0.03,-0.02 -0.06,-0.03 -0.09,-0.05 0,-0.01 -0.01,-0.01 -0.01,-0.02l-0.06 -0.06c0.64,-0.23 1.64,-1.32 2.16,-1.85 0.07,-0.06 0.13,-0.11 0.19,-0.18l0.72 -0.78c0.1,-0.13 0.23,-0.24 0.35,-0.36 0.13,-0.14 0.23,-0.25 0.36,-0.38 0.31,-0.31 0.82,-0.8 1.16,-1.05 1.21,-0.89 1.46,-0.85 2.85,-0.85 0.59,0 0.91,0.13 1.11,-0.36 0.2,-0.46 -0.19,-0.74 -0.61,-0.76 -0.25,-0.02 -0.46,0.01 -0.71,0.02 -1.24,0.05 -1.8,-0.17 -2.95,0.75 -0.15,0.13 -0.23,0.21 -0.37,0.34l-4.13 3.99c-0.71,0.66 -0.76,0.43 -1.58,-0.23 -0.08,-0.06 -0.12,-0.11 -0.19,-0.18 -0.07,-0.06 -0.12,-0.09 -0.19,-0.15l-3.52 -3.48c-0.27,-0.27 -0.42,-0.46 -0.82,-0.67 -1.02,-0.55 -1.35,-0.35 -2.52,-0.37 -0.38,0 -1.68,-0.22 -1.54,0.61 0.04,0.21 0.2,0.35 0.28,0.48z"/>
   <path class="fil0" d="M41.98 4.52c0.46,0.02 1.99,-0.02 2.24,0.02 0.5,0.07 1.11,0.6 1.12,1.13l0 10.13c0,0.45 -0.09,0.65 0.26,0.85 0.34,0.19 0.7,-0.06 0.79,-0.19 0.09,-0.11 0.04,-0.91 0.04,-1.1 0,-3 0,-6 0,-9.01 0,-0.9 0.1,-1.22 -0.38,-1.84 -0.21,-0.28 -0.81,-0.86 -1.26,-0.98 -0.53,-0.15 -1.56,-0.12 -2.15,-0.11 -0.5,0.01 -0.63,-0.08 -0.85,0.28 -0.26,0.41 0.07,0.63 0.19,0.82z"/>
   <path class="fil0" d="M46.03 0l-0.42 0 -0.16 0.12c-0.29,0.24 -0.93,0.88 -0.75,1.26 0.15,0.31 0.83,1.23 1.22,1.12 0.21,-0.06 1.08,-0.98 1.18,-1.21 0.07,-0.19 -0.33,-0.58 -0.42,-0.7 -0.1,-0.13 -0.18,-0.22 -0.3,-0.32l-0.35 -0.27z"/>
   <path class="fil0" d="M48.13 22.09l0 -0.68c0.41,0 0.92,-0.11 0.92,0.34 0.01,0.2 -0.07,0.31 -0.26,0.34 -0.17,0.02 -0.47,0 -0.66,0zm0 -1.01l0 -0.67c0.36,0 0.8,-0.11 0.82,0.32 0.02,0.47 -0.42,0.35 -0.82,0.35zm-0.22 1.35c0.77,0 1.59,0.14 1.59,-0.65 0,-0.31 -0.09,-0.45 -0.32,-0.55 0.26,-0.24 0.42,-1.15 -0.45,-1.15l-0.85 0c-0.24,0 -0.18,0.03 -0.18,0.51l0 1.36c0,0.32 -0.1,0.48 0.21,0.48z"/>
   <path class="fil0" d="M58.99 21.71c-0.12,0.13 -0.08,0.2 -0.25,0.3 -0.12,0.08 -0.32,0.1 -0.49,0.06 -0.38,-0.09 -0.34,-0.41 -0.34,-0.8 0,-0.38 -0.04,-0.73 0.31,-0.83 0.16,-0.05 0.37,-0.04 0.51,0.04 0.18,0.1 0.13,0.18 0.26,0.31 0.13,0 0.24,-0.05 0.34,-0.09 0.02,-0.28 -0.22,-0.47 -0.42,-0.54 -0.24,-0.1 -0.6,-0.11 -0.86,-0.04 -0.63,0.17 -0.59,0.72 -0.58,1.39 0.02,0.68 0.35,0.94 1.04,0.91 0.73,-0.03 1.18,-0.7 0.48,-0.71z"/>
   <path class="fil0" d="M59.97 21.43c-0.02,-0.26 0.14,-0.35 0.41,-0.35 0.26,0.01 0.4,0.09 0.38,0.35l-0.79 0zm-0.01 0.32c0.72,0 1.12,0.11 1.14,-0.2 0.01,-0.13 0,-0.3 -0.05,-0.41 -0.08,-0.21 -0.24,-0.33 -0.51,-0.37 -1.29,-0.19 -0.94,1.34 -0.7,1.51 0.35,0.26 1.18,0.19 1.23,-0.27l-0.21 -0.11c-0.2,0.1 -0.19,0.21 -0.55,0.19 -0.26,-0.01 -0.34,-0.09 -0.35,-0.34z"/>
   <path class="fil0" d="M50.2 21.82c0.15,-0.1 0.34,-0.08 0.55,-0.06 0.02,0.1 0.03,0.21 -0.02,0.3 -0.11,0.04 -0.61,0.16 -0.53,-0.24zm-0.4 -0.67c0.28,0.29 0.37,0.01 0.53,-0.04 0.32,-0.1 0.43,0.05 0.43,0.33 -0.42,-0.01 -1.22,-0.02 -0.99,0.65 0.07,0.21 0.28,0.3 0.53,0.32 1.01,0.1 0.8,-0.33 0.8,-0.87 -0.01,-0.27 -0.01,-0.52 -0.19,-0.66 -0.33,-0.27 -1.04,-0.1 -1.11,0.27z"/>
   <path class="fil0" d="M66.12 21.81c0.15,-0.07 0.34,-0.07 0.54,-0.05 0.04,0.13 0.03,0.19 0,0.32 -0.31,0.04 -0.62,0.09 -0.54,-0.27zm-0.41 -0.63c0.11,0.06 0.19,0.09 0.35,0.09 0.16,-0.21 0.3,-0.23 0.58,-0.11l0.05 0.28c-0.27,0 -0.55,-0.03 -0.78,0.06 -0.33,0.15 -0.44,0.83 0.3,0.91 1.01,0.11 0.8,-0.35 0.8,-0.83 0,-0.29 0,-0.53 -0.17,-0.69 -0.32,-0.29 -1.07,-0.12 -1.13,0.29z"/>
   <path class="fil0" d="M55.49 21.12c0.24,-0.08 0.57,-0.03 0.61,0.22 0.17,1.06 -0.74,0.81 -0.79,0.51 -0.02,-0.08 -0.02,-0.36 -0.01,-0.45 0.01,-0.2 0.04,-0.22 0.19,-0.28zm0.92 0.9c0.04,-0.14 0.04,-0.58 0.02,-0.74 -0.08,-0.73 -1.27,-0.67 -1.43,-0.12 -0.04,0.14 -0.04,0.61 -0.02,0.76 0.08,0.66 1.25,0.68 1.43,0.1z"/>
   <path class="fil0" d="M61.89 21.12c0.08,-0.03 0.39,-0.04 0.49,-0.01 0.42,0.11 0.07,0.82 0.23,1.3 0.28,0.03 0.31,0.05 0.31,-0.15 0,-0.93 0.18,-1.91 -1.33,-1.37 -0.05,0.23 -0.02,0.9 -0.02,1.23 0,0.17 -0.05,0.31 0.1,0.31 0.24,0 0.23,0 0.23,-0.2l-0.01 -1.11z"/>
   <path class="fil0" d="M51.89 21.13c0.06,-0.05 0.42,-0.05 0.52,-0.01 0.17,0.06 0.17,0.2 0.17,0.39 0.01,0.88 -0.11,0.97 0.31,0.9 0.04,-0.31 0.02,-0.66 0.02,-0.97 0,-0.32 -0.08,-0.56 -0.34,-0.65 -0.22,-0.07 -0.64,-0.04 -0.85,0.04 -0.23,0.1 -0.16,0.3 -0.16,0.81 0,0.58 -0.08,0.79 0.16,0.79 0.21,0 0.17,-0.03 0.17,-0.27l0 -1.03z"/>
   <path class="fil0" d="M54.67 21.92c-0.11,-0.08 -0.19,-0.1 -0.32,-0.09 -0.12,0.18 -0.19,0.3 -0.49,0.26 -0.3,-0.05 -0.27,-0.24 -0.27,-0.51 0,-0.26 0,-0.45 0.27,-0.49 0.39,-0.06 0.35,0.15 0.52,0.27 0.22,-0.03 0.39,-0.06 0.25,-0.29 -0.1,-0.17 -0.27,-0.26 -0.44,-0.29 -0.42,-0.09 -0.88,0 -0.92,0.56 -0.04,0.52 -0.04,0.96 0.44,1.06 0.44,0.1 0.98,-0.09 0.96,-0.48z"/>
   <path class="fil0" d="M33.7 20.77l0.51 1.63 0.22 0 0.41 -1.29 0.42 1.29 0.22 -0.01 0.52 -1.64 -0.25 0.01 -0.39 1.39c-0.11,-0.36 -0.25,-0.97 -0.41,-1.27 -0.27,-0.02 -0.21,0 -0.31,0.27l-0.31 1c-0.08,-0.24 -0.13,-0.49 -0.2,-0.73 -0.2,-0.66 -0.11,-0.68 -0.43,-0.65z"/>
   <path class="fil0" d="M45.11 20.76c-0.06,0.21 -0.05,1.19 0.03,1.38 0.16,0.37 0.67,0.3 1.08,0.22 0.01,0.38 -0.06,0.53 -0.45,0.54 -0.48,0.01 -0.41,-0.34 -0.65,-0.17 0.07,0.47 1.11,0.54 1.27,0.01 0.11,-0.36 -0.01,-1.5 0.04,-1.98l-0.21 -0.01 -0.01 1.4c-0.35,0.08 -0.81,0.17 -0.91,-0.21 -0.03,-0.15 -0.02,-0.47 -0.02,-0.64 0,-0.52 0.07,-0.55 -0.17,-0.54z"/>
   <path class="fil0" d="M41.78 21.05c0.01,0.17 0.05,1.01 -0.03,1.1 -0.13,0.13 -0.77,0.1 -0.93,-0.08 -0.05,-0.07 -0.49,-1.53 0.96,-1.02zm0.01 -0.23c-0.24,-0.02 -1.14,-0.31 -1.24,0.4 -0.09,0.6 -0.05,1.14 0.53,1.21 0.21,0.02 0.62,0 0.8,-0.09 0.13,-0.07 0.11,-0.14 0.11,-0.32l0 -1.33c0,-0.62 0.07,-0.65 -0.18,-0.63 -0.06,0.2 -0.02,0.54 -0.02,0.76z"/>
   <path class="fil0" d="M30.51 21.03c0.81,-0.22 0.93,0 0.93,0.58 0,0.75 -0.34,0.66 -0.94,0.52l0.01 -1.1zm0.01 1.31c0.25,0.09 0.64,0.16 0.89,0 0.26,-0.18 0.24,-0.5 0.23,-0.87 -0.01,-1.2 -1.3,-0.6 -1.32,-0.56 -0.04,0.2 -0.04,2 0,2.18 0.24,0.04 0.19,-0.06 0.19,-0.29 -0.01,-0.15 -0.02,-0.31 0.01,-0.46z"/>
   <path class="fil0" d="M43.48 21.06c0.24,-0.14 0.74,-0.17 0.87,0.07 0.1,0.18 0.08,0.79 -0.03,0.94 -0.12,0.17 -0.75,0.26 -0.84,0.04 -0.04,-0.09 -0.02,-0.95 0,-1.05zm0.45 1.37c0.72,0 0.68,-0.51 0.68,-1.02 0,-0.95 -0.86,-0.61 -1.14,-0.59 0,-0.21 0.03,-0.56 -0.03,-0.76 -0.13,-0.01 -0.18,-0.05 -0.18,0.16l0 1.87c0,0.32 0.29,0.34 0.67,0.34z"/>
   <path class="fil0" d="M37.34 21.43l-1.04 0c-0.02,-0.33 0.18,-0.47 0.5,-0.48 0.35,-0.01 0.58,0.11 0.54,0.48zm-1.04 0.22c0.91,-0.12 1.39,0.28 1.24,-0.44 -0.11,-0.53 -0.83,-0.56 -1.19,-0.35 -0.28,0.16 -0.26,0.51 -0.25,0.92 0.03,0.93 1.18,0.71 1.38,0.37 0.11,-0.18 -0.01,-0.29 -0.21,-0.1 -0.11,0.11 -0.19,0.16 -0.4,0.18 -0.46,0.02 -0.57,-0.17 -0.57,-0.58z"/>
   <path class="fil0" d="M39.04 21.43c-0.04,-0.34 0.15,-0.47 0.48,-0.48 0.33,-0.01 0.54,0.09 0.56,0.42l-0.02 0.06 -1.02 0zm1.23 0.13c0.07,-0.21 0.02,-0.84 -0.75,-0.82 -0.74,0.02 -0.69,0.52 -0.69,1.01 0,1.06 1.5,0.71 1.41,0.23 -0.33,-0.11 -0.11,0.24 -0.69,0.25 -0.49,0 -0.52,-0.27 -0.52,-0.59l1.2 -0.02 0.04 -0.06z"/>
   <path class="fil0" d="M64.28 20.76l-0.44 -0.01c-0.03,-0.23 0.07,-0.39 -0.16,-0.4 -0.26,-0.01 -0.17,0.16 -0.19,0.4 -0.17,0.01 -0.32,-0.05 -0.32,0.11 0,0.31 0.07,0.2 0.33,0.24 0,0.83 -0.14,1.43 0.77,1.31 0.06,-0.13 0.04,-0.09 0.03,-0.3 -0.53,-0.09 -0.47,0.01 -0.47,-1.03l0.46 -0.01 -0.01 -0.31z"/>
   <path class="fil0" d="M32.49 20.99c0.32,-0.1 0.74,-0.01 0.77,0.32 0.03,0.36 0.06,0.77 -0.26,0.88 -0.33,0.11 -0.75,0.02 -0.79,-0.31 -0.01,-0.11 -0.01,-0.47 0,-0.58 0.02,-0.19 0.11,-0.25 0.28,-0.31zm0.95 1.03c0.03,-0.13 0.03,-0.59 0.02,-0.74 -0.06,-0.74 -1.29,-0.69 -1.43,-0.13 -0.03,0.13 -0.03,0.62 -0.02,0.77 0.06,0.7 1.28,0.67 1.43,0.1z"/>
   <path class="fil0" d="M67.5 20.04c-0.03,0.1 -0.05,2.3 0.01,2.36 0.04,0.04 0.22,0.05 0.27,-0.01 0.05,-0.06 0.02,-1.73 0.02,-2.04 0.01,-0.27 0.05,-0.43 -0.3,-0.31z"/>
   <path class="fil0" d="M64.65 20.88c-0.02,0.17 -0.06,1.47 0.03,1.53 0.03,0.02 0.11,0.03 0.15,0.02 0.15,-0.01 0.14,0.06 0.14,-0.48 0,-0.27 0,-0.55 0,-0.82l0.55 -0.06 0 -0.31c-0.34,-0.03 -0.62,0.02 -0.87,0.12z"/>
   <path class="fil0" d="M38.14 21.05c0.2,-0.11 0.41,-0.05 0.63,-0.12l0.02 -0.18c-0.26,-0.01 -0.7,-0.02 -0.85,0.18 -0.04,0.13 -0.03,1.3 -0.01,1.49l0.19 -0.01 0.02 -1.36z"/>
  </g>
 </g>
</svg>
