<?xml version="1.0" encoding="UTF-8"?>
<!DOCTYPE svg PUBLIC "-//W3C//DTD SVG 1.1//EN" "http://www.w3.org/Graphics/SVG/1.1/DTD/svg11.dtd">
<!-- Creator: CorelDRAW 2021 (64-Bit) -->
<svg xmlns="http://www.w3.org/2000/svg" xml:space="preserve" width="32px" height="32px" version="1.1" style="shape-rendering:geometricPrecision; text-rendering:geometricPrecision; image-rendering:optimizeQuality; fill-rule:evenodd; clip-rule:evenodd"
viewBox="0 0 9.89 9.89"
 xmlns:xlink="http://www.w3.org/1999/xlink"
 xmlns:xodm="http://www.corel.com/coreldraw/odm/2003">
 <defs>
  <style type="text/css">
   <![CDATA[
    .fil0 {fill:#fc6800}
   ]]>
  </style>
 </defs>
 <g id="Layer_x0020_1">
  <metadata id="CorelCorpID_0Corel-Layer"/>
  <path class="fil0" d="M0 4.79l0 0.33c0.07,0.16 0.05,0.44 0.35,0.78 0.25,0.3 0.8,0.82 1.11,1.14 0.14,0.14 0.2,0.09 0.46,0.09 0.18,0 0.36,0.01 0.53,-0.04 0.32,-0.09 0.49,-0.29 0.66,-0.46l1.13 -1.14c0.17,-0.18 0.38,-0.4 0.77,-0.33 0.31,0.06 0.51,0.31 0.66,0.47 0.25,0.24 1.21,1.25 1.43,1.38 0.3,0.17 0.65,0.13 1.01,0.13 0.29,0 0.23,-0.02 0.38,-0.18 0.2,-0.19 0.38,-0.37 0.57,-0.57 0.32,-0.32 0.83,-0.68 0.83,-1.44 0.01,-0.75 -0.49,-1.13 -0.8,-1.44 -0.2,-0.19 -0.37,-0.37 -0.57,-0.56 -0.11,-0.12 -0.12,-0.2 -0.35,-0.19 -0.58,0 -0.92,-0.08 -1.35,0.35 -0.19,0.19 -0.37,0.37 -0.57,0.57 -0.19,0.19 -0.37,0.37 -0.56,0.56 -0.15,0.15 -0.36,0.43 -0.65,0.49 -0.41,0.1 -0.62,-0.15 -0.79,-0.32l-1.13 -1.13c-0.55,-0.55 -0.64,-0.53 -1.46,-0.52 -0.13,0 -0.13,0.03 -0.19,0.1 -0.36,0.36 -0.81,0.78 -1.13,1.14 -0.07,0.08 -0.16,0.21 -0.21,0.34 -0.07,0.15 -0.09,0.36 -0.13,0.45z"/>
  <path class="fil0" d="M5.11 0l-0.32 0c-0.09,0.04 -0.23,0.02 -0.49,0.14 -0.07,0.04 -0.12,0.07 -0.19,0.12 -0.22,0.14 -1.47,1.42 -1.78,1.74 -0.09,0.08 -0.26,0.23 -0.32,0.32 0.91,0.04 0.99,0.23 1.61,0.85l0.92 0.92c0.4,0.4 0.42,0.27 1.04,-0.35 0.21,-0.21 0.4,-0.41 0.61,-0.62 0.18,-0.18 0.42,-0.45 0.65,-0.59 0.36,-0.21 0.59,-0.21 1.04,-0.21 -0.04,-0.08 -0.52,-0.53 -0.62,-0.64 -0.22,-0.22 -0.42,-0.42 -0.64,-0.64 -0.3,-0.3 -0.64,-0.71 -1.02,-0.89 -0.27,-0.13 -0.39,-0.11 -0.49,-0.15z"/>
  <path class="fil0" d="M2.01 7.57c0.03,0.05 1.72,1.77 1.96,1.96 0.59,0.48 1.36,0.48 1.94,0.02 0.05,-0.05 0.12,-0.12 0.16,-0.17 0.06,-0.06 0.11,-0.1 0.17,-0.16 0.26,-0.27 1.6,-1.58 1.63,-1.65 -0.93,0 -1.07,-0.18 -1.66,-0.78 -0.21,-0.2 -0.41,-0.4 -0.61,-0.6 -0.11,-0.11 -0.53,-0.58 -0.65,-0.6 -0.21,-0.04 -0.3,0.12 -0.39,0.21l-0.93 0.93c-0.42,0.41 -0.68,0.83 -1.62,0.84z"/>
 </g>
</svg>
