<?xml version="1.0" encoding="UTF-8"?>
<!DOCTYPE svg PUBLIC "-//W3C//DTD SVG 1.1//EN" "http://www.w3.org/Graphics/SVG/1.1/DTD/svg11.dtd">
<!-- Creator: CorelDRAW 2021 (64 Bit) -->
<svg xmlns="http://www.w3.org/2000/svg" xml:space="preserve" width="102px" height="30px" version="1.1" style="shape-rendering:geometricPrecision; text-rendering:geometricPrecision; image-rendering:optimizeQuality; fill-rule:evenodd; clip-rule:evenodd"
viewBox="0 0 2841.61 840.35"
 xmlns:xlink="http://www.w3.org/1999/xlink"
 xmlns:xodm="http://www.corel.com/coreldraw/odm/2003">
 <defs>
  <style type="text/css">
   <![CDATA[
    .fil0 {fill:#999999}
    .fil1 {fill:#999999;fill-rule:nonzero}
   ]]>
  </style>
 </defs>
 <g id="Layer_x0020_1">
  <metadata id="CorelCorpID_0Corel-Layer"/>
  <path class="fil0" d="M487.05 403.19c-8.15,-4.49 -243.59,-229.36 -250.66,-252.65 31.21,0.51 137.18,67.75 168.29,85.55 32.5,18.58 136.27,74.33 158.23,91.93l-75.86 75.17z"/>
  <path class="fil0" d="M1043.8 533.63l-89.26 0 -0.52 -38.05 128.21 0.34c18.2,172.47 -189.59,196.36 -252.87,76.35 -51.08,-96.87 25.02,-206.05 129.75,-202.85 45.89,1.4 60.45,18.59 88.61,32.74 -6.52,17.53 -13.03,22.57 -26.08,30.26 -103.58,-70.15 -183.5,22.2 -163.52,101.68 23.45,93.25 171.45,106.74 185.68,-0.47z"/>
  <path class="fil0" d="M217.08 669.47c-7.17,-39.96 -8.03,-415.26 -2.63,-497.65 12.91,-1.58 0.66,-6.46 15.8,6.95 6.11,5.42 10.73,11.29 16.83,17.46l223.59 223.5 -239.09 240.16c-10.51,10.18 -4.48,11.22 -14.5,9.58z"/>
  <path class="fil0" d="M583.37 339.67c19.65,6.01 48.76,25.46 67.26,35.83 19.2,10.75 48.27,20.9 45.99,46.92 -2.23,25.41 -88.36,69.44 -113.25,78.42 -16.23,-12.96 -73.1,-67.56 -81.3,-83.17l81.3 -78z"/>
  <path class="fil0" d="M2418.97 473.53l36.75 0c19.39,29.28 29.41,81.24 49.29,108.81l45.54 -108.37 40.4 -0.44c-1.06,19.95 -89.93,215.44 -104.18,247.74l-39.6 -0.01c4.73,-19.06 16.8,-41.79 25.5,-60.67 16.32,-35.39 13.65,-26.66 -2.63,-62.62 -10.79,-23.84 -49.92,-106.78 -51.07,-124.44z"/>
  <path class="fil0" d="M235.43 689.85c11.93,-24.71 41.29,-46.49 61.19,-66.72 33.17,-33.72 172.09,-176 190.43,-186.18l78.5 76.43c-71.43,34.53 -284.72,174.49 -330.12,176.47z"/>
  <polygon class="fil0" points="1686.85,490.87 1686.9,379.57 1726.73,378.44 1726.46,641.82 1686.81,641.44 "/>
  <polygon class="fil0" points="2197.37,379.64 2237.14,378.5 2237.08,641.67 2197.77,641.45 "/>
  <path class="fil0" d="M85.66 20.9c40.11,-10.05 2102.69,-3.32 2255.6,-3.32 496.02,0 480.96,-42.72 480.97,193.95l0 452.72c0,41.39 12.39,139.18 -64.26,156.26 -37.5,8.37 -2239.32,2.13 -2482.83,2.13 -54.13,0 -174.84,9.77 -209.48,-10.96 -59.73,-35.72 -45.35,-101.39 -45.35,-181.14l0 -452.72c0,-61.13 -9.47,-138.17 65.35,-156.92zm-77.88 744.49c24.34,81.25 98.8,74.86 151.77,74.83l2528.48 0c59.27,0.02 128.83,0.82 148.63,-80.55 6.89,-28.32 6.45,-653.53 -0.54,-681.93 -20.38,-82.68 -101.32,-77.7 -152.91,-77.67l-2528.48 -0.01c-49.92,-0.04 -133.32,-0.95 -149.45,81.63 -8.85,45.34 -2.41,172.47 -2.41,226.16 0,75.31 -9.01,411.09 4.91,457.54z"/>
  <path class="fil0" d="M217.09 669.48c10.01,1.63 3.98,0.59 14.49,-9.59l239.09 -240.16 -223.59 -223.5c-6.1,-6.17 -10.72,-12.04 -16.83,-17.46 -15.14,-13.41 -2.89,-8.53 -15.8,-6.95 -5.4,82.39 -4.54,457.69 2.64,497.66z"/>
  <path class="fil0" d="M1043.8 533.63c-14.23,107.21 -162.23,93.72 -185.68,0.47 -19.98,-79.48 59.94,-171.83 163.52,-101.68 13.06,-7.69 19.56,-12.73 26.08,-30.25 -28.16,-14.16 -42.72,-31.35 -88.61,-32.75 -104.73,-3.19 -180.83,105.98 -129.75,202.85 63.28,120.01 271.07,96.12 252.87,-76.35l-128.21 -0.34 0.52 38.05 89.26 0z"/>
  <path class="fil0" d="M1529.62 572.74c-17.08,-73.86 82.32,-95.89 94.33,-28.34 13.43,75.58 -79.7,91.59 -94.33,28.34zm129.63 -98.07c-11.38,-1.34 -17.81,-2.76 -28.7,0.77l-10.15 5.6c-10.26,2.83 7.18,4.22 -6.33,-0.32 -18.15,-6.1 -19.79,-15.94 -50.96,-11.74 -36.73,4.95 -62.15,31.65 -71.04,63.54 -28.86,103.56 100.78,138.38 128.47,96.22 5.44,33.01 -5.95,56.35 -33.09,61.77 -37.35,7.45 -44.72,-15.4 -60.03,-28.75l-30.69 10.15c17.01,64.38 118.38,74.96 149.49,19.77 19.87,-35.26 17.54,-167.92 13.03,-217.01z"/>
  <path class="fil0" d="M235.44 689.84c45.39,-1.97 258.68,-141.93 330.11,-176.46l-78.5 -76.43c-18.34,10.18 -157.26,152.46 -190.43,186.18 -19.9,20.23 -49.26,42.01 -61.18,66.71z"/>
  <path class="fil0" d="M487.05 403.19l75.86 -75.17c-21.96,-17.6 -125.73,-73.35 -158.23,-91.93 -31.11,-17.8 -137.08,-85.04 -168.29,-85.55 7.07,23.29 242.51,248.15 250.66,252.65z"/>
  <path class="fil0" d="M2035.66 416.46c47,-6.61 101.82,-4.92 100.58,45.49 -1.22,49.89 -58.97,48.35 -101.61,41.91l1.03 -87.4zm-40.23 35.88l0.01 188.26 39.83 -0.42 0.02 -97.94c66.9,0.67 126.02,-2.24 138.88,-63.9 23.45,-112.4 -111.66,-100.44 -178.71,-98.89l-0.03 72.89z"/>
  <path class="fil0" d="M502.07 417.67c8.19,15.61 65.07,70.22 81.3,83.17 24.89,-8.98 111.02,-53.01 113.25,-78.42 2.28,-26.02 -26.79,-36.17 -45.99,-46.92 -18.5,-10.37 -47.61,-29.82 -67.26,-35.83l-81.3 78z"/>
  <path class="fil0" d="M2299.13 596.82c-1.85,-43.59 40.31,-39.32 75.03,-28.07 -5.01,38 -44.98,59.16 -75.03,28.07zm-6.03 -76.16c15.49,-7.25 25.18,-20.91 52.23,-15.63 20.16,3.93 26.37,12.1 28.69,32.72 -49.11,-13.35 -117.04,-7.04 -115.34,54.2 1.45,52.18 81.23,76.36 110.03,32l6.81 10.52c9.57,9.3 12.57,7.72 37.39,6.21l0.09 -87.2c0.01,-112.23 -122.6,-101.25 -147.98,-48.16 9.25,10.11 12.98,9.38 28.08,15.34z"/>
  <path class="fil0" d="M1235.47 572.74c-16.81,65.07 -115.6,43.35 -97,-32.39 14.8,-60.3 116.5,-43.13 97,32.39zm-67.19 -101.74c-124.29,30.91 -72.13,204.89 44.47,172.75 105.28,-29.02 71.36,-201.57 -44.47,-172.75z"/>
  <path class="fil0" d="M1783.93 552.58c4.54,-42.52 50.79,-71.7 78.07,-32.82 -13.72,11.54 -61.79,29.94 -78.07,32.82zm9.11 34.61c25.37,-24.64 82.79,-30.43 115.1,-52.98 -17.92,-92.58 -151.96,-84.28 -162.31,10.67 -12.46,114.28 133.27,129.16 161.49,61.26l-28.41 -17.04c-6.3,4.19 -52.88,52.15 -85.87,-1.91z"/>
  <path class="fil0" d="M1335.11 577.56c-24.56,-76.71 78.5,-100.2 95.28,-37.31 19.84,74.33 -76.54,95.84 -95.28,37.31zm26.91 -105.72c-121.15,33.62 -70.73,199.33 43.93,172.28 107.17,-25.29 73.39,-204.84 -43.93,-172.28z"/>
  <path class="fil0" d="M2455.72 473.53l-36.75 0c1.15,17.66 40.28,100.6 51.07,124.44 16.28,35.96 18.95,27.23 2.63,62.63 -8.69,18.87 -20.77,41.6 -25.5,60.66l39.6 0.01c14.25,-32.3 103.12,-227.79 104.18,-247.74l-40.4 0.44 -45.54 108.37c-19.88,-27.57 -29.9,-79.53 -49.29,-108.81z"/>
  <polygon class="fil0" points="1686.81,641.44 1726.46,641.82 1726.73,378.44 1686.9,379.57 1686.85,490.87 "/>
  <polygon class="fil0" points="2197.77,641.45 2237.08,641.67 2237.14,378.5 2197.37,379.64 "/>
  <path class="fil1" d="M876.89 288.62l0 -139.53 48.07 0c10.85,0 19.13,0.65 24.85,1.98 7.99,1.85 14.81,5.2 20.46,10.01 7.37,6.23 12.86,14.16 16.5,23.83 3.67,9.68 5.48,20.76 5.48,33.2 0,10.58 -1.23,19.97 -3.7,28.16 -2.47,8.18 -5.65,14.97 -9.51,20.33 -3.9,5.35 -8.12,9.57 -12.73,12.63 -4.58,3.09 -10.14,5.42 -16.63,7.01 -6.53,1.6 -14,2.38 -22.44,2.38l-50.35 0zm18.52 -16.37l29.75 0c9.19,0 16.4,-0.85 21.63,-2.57 5.23,-1.72 9.38,-4.12 12.5,-7.24 4.35,-4.39 7.76,-10.3 10.2,-17.7 2.43,-7.41 3.67,-16.37 3.67,-26.93 0,-14.61 -2.4,-25.85 -7.18,-33.71 -4.77,-7.86 -10.59,-13.12 -17.44,-15.78 -4.93,-1.92 -12.89,-2.86 -23.87,-2.86l-29.26 0 0 106.79z"/>
  <path id="_1" class="fil1" d="M1009.04 238.05c0,-18.68 5.2,-32.51 15.63,-41.51 8.67,-7.47 19.29,-11.2 31.79,-11.2 13.87,0 25.24,4.54 34.07,13.64 8.8,9.06 13.22,21.63 13.22,37.64 0,12.99 -1.95,23.19 -5.85,30.63 -3.89,7.43 -9.58,13.21 -17.05,17.34 -7.43,4.12 -15.58,6.17 -24.39,6.17 -14.16,0 -25.59,-4.52 -34.33,-13.58 -8.73,-9.06 -13.09,-22.11 -13.09,-39.13zm17.54 0.03c0,12.93 2.83,22.6 8.48,29 5.69,6.43 12.8,9.65 21.4,9.65 8.51,0 15.59,-3.22 21.28,-9.68 5.65,-6.46 8.47,-16.3 8.47,-29.52 0,-12.47 -2.86,-21.93 -8.54,-28.32 -5.68,-6.43 -12.76,-9.65 -21.21,-9.65 -8.6,0 -15.71,3.18 -21.4,9.58 -5.65,6.4 -8.48,16.05 -8.48,28.94z"/>
  <path id="_2" class="fil1" d="M1142.04 288.62l-30.56 -101.14 17.93 0 16.14 58.36 5.72 21.73c0.22,-1.07 1.98,-8.02 5.23,-20.85l16.01 -59.24 17.57 0 15.23 58.72 4.97 19.26 5.81 -19.52 17.47 -58.46 16.66 0 -31.73 101.14 -17.73 0 -16.04 -60.51 -4.06 -17.31 -20.46 77.82 -18.16 0z"/>
  <path id="_3" class="fil1" d="M1264.58 288.62l0 -101.14 15.39 0 0 14.36c7.41,-11.01 18.13,-16.5 32.12,-16.5 6.11,0 11.69,1.1 16.8,3.28 5.09,2.17 8.93,5.06 11.46,8.6 2.53,3.54 4.32,7.77 5.33,12.64 0.61,3.18 0.94,8.73 0.94,16.66l0 62.1 -17.15 0 0 -61.45c0,-6.98 -0.65,-12.21 -1.98,-15.66 -1.33,-3.44 -3.71,-6.2 -7.08,-8.28 -3.38,-2.04 -7.37,-3.08 -11.92,-3.08 -7.27,0 -13.54,2.3 -18.84,6.95 -5.29,4.61 -7.92,13.41 -7.92,26.33l0 55.19 -17.15 0z"/>
  <polygon id="_4" class="fil1" points="1372.57,288.62 1372.57,149.09 1389.72,149.09 1389.72,288.62 "/>
  <path id="_5" class="fil1" d="M1409.82 238.05c0,-18.68 5.2,-32.51 15.62,-41.51 8.67,-7.47 19.29,-11.2 31.8,-11.2 13.86,0 25.23,4.54 34.07,13.64 8.8,9.06 13.21,21.63 13.21,37.64 0,12.99 -1.94,23.19 -5.84,30.63 -3.9,7.43 -9.58,13.21 -17.05,17.34 -7.44,4.12 -15.59,6.17 -24.39,6.17 -14.16,0 -25.59,-4.52 -34.33,-13.58 -8.74,-9.06 -13.09,-22.11 -13.09,-39.13zm17.54 0.03c0,12.93 2.83,22.6 8.48,29 5.68,6.43 12.79,9.65 21.4,9.65 8.51,0 15.59,-3.22 21.27,-9.68 5.65,-6.46 8.48,-16.3 8.48,-29.52 0,-12.47 -2.86,-21.93 -8.54,-28.32 -5.69,-6.43 -12.77,-9.65 -21.21,-9.65 -8.61,0 -15.72,3.18 -21.4,9.58 -5.65,6.4 -8.48,16.05 -8.48,28.94z"/>
  <path id="_6" class="fil1" d="M1590.69 275.95c-6.37,5.42 -12.51,9.22 -18.39,11.46 -5.87,2.25 -12.17,3.35 -18.93,3.35 -11.11,0 -19.65,-2.7 -25.62,-8.12 -5.98,-5.39 -8.97,-12.31 -8.97,-20.72 0,-4.94 1.14,-9.45 3.38,-13.54 2.27,-4.1 5.23,-7.34 8.87,-9.81 3.67,-2.47 7.76,-4.35 12.34,-5.62 3.38,-0.88 8.48,-1.72 15.26,-2.57 13.84,-1.62 24.07,-3.6 30.6,-5.88 0.06,-2.33 0.1,-3.83 0.1,-4.44 0,-6.96 -1.63,-11.86 -4.88,-14.72 -4.38,-3.86 -10.91,-5.78 -19.55,-5.78 -8.09,0 -14.06,1.43 -17.89,4.26 -3.87,2.82 -6.69,7.82 -8.55,15.03l-16.76 -2.33c1.53,-7.18 4.03,-12.99 7.54,-17.41 3.51,-4.42 8.57,-7.8 15.2,-10.2 6.59,-2.37 14.29,-3.57 23,-3.57 8.63,0 15.68,1 21.1,3.05 5.4,2.05 9.39,4.58 11.92,7.66 2.54,3.09 4.32,6.99 5.36,11.7 0.55,2.92 0.85,8.18 0.85,15.75l0 22.73c0,15.88 0.36,25.92 1.07,30.17 0.68,4.26 2.11,8.32 4.19,12.22l-17.93 0c-1.72,-3.61 -2.83,-7.83 -3.31,-12.67zm-1.36 -38c-6.24,2.53 -15.59,4.68 -28.07,6.43 -7.08,1.01 -12.08,2.14 -15,3.41 -2.92,1.27 -5.17,3.12 -6.76,5.52 -1.59,2.44 -2.4,5.13 -2.4,8.12 0,4.52 1.72,8.32 5.2,11.34 3.47,3.02 8.54,4.54 15.2,4.54 6.59,0 12.47,-1.43 17.63,-4.32 5.13,-2.85 8.93,-6.78 11.34,-11.75 1.85,-3.87 2.76,-9.55 2.76,-17.05l0.1 -6.24z"/>
  <path id="_7" class="fil1" d="M1698.29 288.62l0 -12.83c-6.4,9.97 -15.82,14.97 -28.26,14.97 -8.05,0 -15.46,-2.21 -22.18,-6.66 -6.75,-4.42 -11.98,-10.62 -15.72,-18.54 -3.7,-7.96 -5.56,-17.09 -5.56,-27.42 0,-10.06 1.69,-19.19 5.04,-27.41 3.38,-8.18 8.41,-14.48 15.14,-18.83 6.69,-4.39 14.22,-6.56 22.5,-6.56 6.11,0 11.53,1.3 16.27,3.86 4.74,2.57 8.61,5.95 11.6,10.07l0 -50.18 17.14 0 0 139.53 -15.97 0zm-54.18 -50.44c0,12.92 2.73,22.57 8.22,28.97 5.46,6.39 11.92,9.58 19.36,9.58 7.5,0 13.86,-3.06 19.13,-9.16 5.22,-6.1 7.86,-15.43 7.86,-27.96 0,-13.77 -2.67,-23.91 -8.02,-30.37 -5.33,-6.46 -11.93,-9.68 -19.75,-9.68 -7.63,0 -14,3.09 -19.13,9.29 -5.1,6.2 -7.67,15.98 -7.67,29.33z"/>
 </g>
</svg>
