<?xml version="1.0" encoding="UTF-8"?>
<!DOCTYPE svg PUBLIC "-//W3C//DTD SVG 1.1//EN" "http://www.w3.org/Graphics/SVG/1.1/DTD/svg11.dtd">
<!-- Creator: CorelDRAW 2021 (64-Bit) -->
<svg xmlns="http://www.w3.org/2000/svg" xml:space="preserve" width="103px" height="31px" version="1.1" shape-rendering="geometricPrecision" text-rendering="geometricPrecision" image-rendering="optimizeQuality" fill-rule="evenodd" clip-rule="evenodd"
viewBox="0 0 38.57 11.57"
 xmlns:xlink="http://www.w3.org/1999/xlink"
 xmlns:xodm="http://www.corel.com/coreldraw/odm/2003">
 <g id="Layer_x0020_1">
  <metadata id="CorelCorpID_0Corel-Layer"/>
  <path fill="#FCFBFC" d="M6.66 5.61c-0.11,-0.06 -3.29,-3.09 -3.39,-3.41 0.42,0.01 1.86,0.92 2.28,1.16 0.44,0.25 1.84,1 2.13,1.24l-1.02 1.01z"/>
  <path fill="#FCFBFC" d="M14.18 7.38l-1.2 0 -0.01 -0.52 1.73 0.01c0.25,2.33 -2.56,2.65 -3.41,1.03 -0.7,-1.31 0.33,-2.79 1.75,-2.74 0.62,0.02 0.82,0.25 1.2,0.44 -0.09,0.24 -0.18,0.31 -0.36,0.41 -1.4,-0.95 -2.48,0.3 -2.21,1.37 0.32,1.26 2.32,1.45 2.51,0z"/>
  <path fill="#FCFBFC" d="M3.01 9.21c-0.09,-0.54 -0.11,-5.61 -0.03,-6.72 0.17,-0.02 0.01,-0.09 0.21,0.09 0.08,0.08 0.14,0.15 0.23,0.24l3.02 3.02 -3.23 3.24c-0.14,0.14 -0.06,0.15 -0.2,0.13z"/>
  <path fill="#FCFBFC" d="M7.96 4.76c0.27,0.08 0.66,0.34 0.91,0.48 0.26,0.15 0.65,0.28 0.62,0.63 -0.03,0.35 -1.19,0.94 -1.53,1.06 -0.22,-0.17 -0.99,-0.91 -1.1,-1.12l1.1 -1.05z"/>
  <path fill="#FCFBFC" d="M32.76 6.56l0.5 0c0.26,0.4 0.4,1.1 0.67,1.47l0.61 -1.46 0.55 -0.01c-0.02,0.27 -1.22,2.92 -1.41,3.35l-0.53 0c0.06,-0.26 0.22,-0.56 0.34,-0.82 0.22,-0.48 0.18,-0.36 -0.04,-0.84 -0.14,-0.33 -0.67,-1.45 -0.69,-1.69z"/>
  <path fill="#FCFBFC" d="M3.26 9.49c0.16,-0.34 0.56,-0.63 0.83,-0.9 0.44,-0.46 2.32,-2.38 2.57,-2.52l1.06 1.03c-0.96,0.47 -3.85,2.36 -4.46,2.39z"/>
  <polygon fill="#FCFBFC" points="22.87,6.8 22.87,5.3 23.41,5.28 23.41,8.84 22.87,8.83 "/>
  <polygon fill="#FCFBFC" points="29.77,5.3 30.31,5.28 30.31,8.84 29.78,8.83 "/>
  <path fill="#E77000" d="M3.01 9.21c0.14,0.02 0.06,0.01 0.2,-0.13l3.23 -3.24 -3.02 -3.02c-0.09,-0.09 -0.15,-0.16 -0.23,-0.24 -0.2,-0.18 -0.04,-0.11 -0.21,-0.09 -0.08,1.11 -0.06,6.18 0.03,6.72z"/>
  <path fill="#E77000" d="M14.18 7.38c-0.19,1.45 -2.19,1.26 -2.51,0 -0.27,-1.07 0.81,-2.32 2.21,-1.37 0.18,-0.1 0.27,-0.17 0.36,-0.41 -0.38,-0.19 -0.58,-0.42 -1.2,-0.44 -1.42,-0.05 -2.45,1.43 -1.75,2.74 0.85,1.62 3.66,1.3 3.41,-1.03l-1.73 -0.01 0.01 0.52 1.2 0z"/>
  <path fill="#E77000" d="M20.75 7.91c-0.23,-1 1.11,-1.3 1.27,-0.39 0.18,1.02 -1.08,1.24 -1.27,0.39zm1.75 -1.33c-0.16,-0.02 -0.24,-0.04 -0.39,0.01l-0.14 0.08c-0.14,0.03 0.1,0.05 -0.08,-0.01 -0.25,-0.08 -0.27,-0.21 -0.69,-0.16 -0.5,0.07 -0.84,0.43 -0.96,0.86 -0.39,1.4 1.36,1.87 1.74,1.3 0.07,0.45 -0.08,0.76 -0.45,0.84 -0.51,0.1 -0.61,-0.21 -0.81,-0.39l-0.42 0.14c0.23,0.87 1.6,1.01 2.02,0.26 0.27,-0.47 0.24,-2.27 0.18,-2.93z"/>
  <path fill="#E77000" d="M3.26 9.49c0.61,-0.03 3.5,-1.92 4.46,-2.39l-1.06 -1.03c-0.25,0.14 -2.13,2.06 -2.57,2.52 -0.27,0.27 -0.67,0.56 -0.83,0.9z"/>
  <path fill="#E77000" d="M6.66 5.61l1.02 -1.01c-0.29,-0.24 -1.69,-0.99 -2.13,-1.24 -0.42,-0.24 -1.86,-1.15 -2.28,-1.16 0.1,0.32 3.28,3.35 3.39,3.41z"/>
  <path fill="#E77000" d="M27.58 5.79c0.64,-0.09 1.38,-0.06 1.36,0.62 -0.01,0.67 -0.79,0.65 -1.37,0.56l0.01 -1.18zm-0.54 0.49l0 2.54 0.54 0 0 -1.33c0.9,0.01 1.7,-0.03 1.88,-0.86 0.31,-1.52 -1.51,-1.36 -2.42,-1.34l0 0.99z"/>
  <path fill="#E77000" d="M6.86 5.81c0.11,0.21 0.88,0.95 1.1,1.12 0.34,-0.12 1.5,-0.71 1.53,-1.06 0.03,-0.35 -0.36,-0.48 -0.62,-0.63 -0.25,-0.14 -0.64,-0.4 -0.91,-0.48l-1.1 1.05z"/>
  <path fill="#E77000" d="M31.14 8.23c-0.02,-0.59 0.55,-0.53 1.02,-0.38 -0.07,0.51 -0.61,0.8 -1.02,0.38zm-0.08 -1.03c0.21,-0.1 0.34,-0.28 0.71,-0.21 0.27,0.05 0.36,0.16 0.39,0.44 -0.67,-0.18 -1.58,-0.09 -1.56,0.73 0.02,0.71 1.1,1.04 1.48,0.44l0.1 0.14c0.13,0.13 0.17,0.1 0.5,0.08l0 -1.18c0,-1.51 -1.65,-1.36 -2,-0.65 0.13,0.14 0.18,0.13 0.38,0.21z"/>
  <path fill="#E77000" d="M16.77 7.91c-0.22,0.87 -1.56,0.58 -1.31,-0.44 0.2,-0.82 1.58,-0.59 1.31,0.44zm-0.91 -1.38c-1.67,0.42 -0.97,2.77 0.61,2.33 1.42,-0.39 0.96,-2.72 -0.61,-2.33z"/>
  <path fill="#E77000" d="M24.18 7.63c0.06,-0.57 0.69,-0.97 1.06,-0.44 -0.19,0.16 -0.84,0.4 -1.06,0.44zm0.13 0.47c0.34,-0.33 1.12,-0.41 1.55,-0.72 -0.24,-1.25 -2.05,-1.13 -2.19,0.15 -0.17,1.54 1.8,1.74 2.18,0.83l-0.38 -0.23c-0.09,0.05 -0.72,0.7 -1.16,-0.03z"/>
  <path fill="#E77000" d="M18.12 7.97c-0.33,-1.04 1.06,-1.35 1.29,-0.5 0.26,1 -1.04,1.29 -1.29,0.5zm0.36 -1.43c-1.63,0.46 -0.95,2.7 0.6,2.33 1.44,-0.34 0.99,-2.77 -0.6,-2.33z"/>
  <path fill="#E77000" d="M33.26 6.56l-0.5 0c0.02,0.24 0.55,1.36 0.69,1.69 0.22,0.48 0.26,0.36 0.04,0.84 -0.12,0.26 -0.28,0.56 -0.34,0.82l0.53 0c0.19,-0.43 1.39,-3.08 1.41,-3.35l-0.55 0.01 -0.61 1.46c-0.27,-0.37 -0.41,-1.07 -0.67,-1.47z"/>
  <polygon fill="#E77000" points="22.87,8.83 23.41,8.84 23.41,5.28 22.87,5.3 22.87,6.8 "/>
  <polygon fill="#E77000" points="29.78,8.83 30.31,8.84 30.31,5.28 29.77,5.3 "/>
  <path fill="#E77000" fill-rule="nonzero" d="M11.93 4.07l0 -1.89 0.65 0c0.14,0 0.26,0.01 0.33,0.03 0.11,0.02 0.2,0.07 0.28,0.13 0.1,0.09 0.17,0.19 0.22,0.32 0.05,0.14 0.08,0.29 0.08,0.45 0,0.15 -0.02,0.27 -0.05,0.38 -0.04,0.11 -0.08,0.21 -0.13,0.28 -0.06,0.07 -0.11,0.13 -0.17,0.17 -0.07,0.04 -0.14,0.07 -0.23,0.09 -0.09,0.03 -0.19,0.04 -0.3,0.04l-0.68 0zm0.25 -0.23l0.4 0c0.12,0 0.22,-0.01 0.29,-0.03 0.07,-0.02 0.13,-0.06 0.17,-0.1 0.06,-0.06 0.11,-0.14 0.14,-0.24 0.03,-0.1 0.05,-0.22 0.05,-0.36 0,-0.2 -0.03,-0.35 -0.1,-0.46 -0.06,-0.1 -0.14,-0.17 -0.23,-0.21 -0.07,-0.03 -0.18,-0.04 -0.33,-0.04l-0.39 0 0 1.44z"/>
  <path id="_1" fill="#E77000" fill-rule="nonzero" d="M13.71 3.38c0,-0.25 0.07,-0.44 0.21,-0.56 0.12,-0.1 0.26,-0.15 0.43,-0.15 0.19,0 0.34,0.06 0.46,0.18 0.12,0.13 0.18,0.3 0.18,0.51 0,0.18 -0.02,0.32 -0.08,0.42 -0.05,0.1 -0.13,0.18 -0.23,0.23 -0.1,0.06 -0.21,0.09 -0.33,0.09 -0.19,0 -0.34,-0.07 -0.46,-0.19 -0.12,-0.12 -0.18,-0.3 -0.18,-0.53zm0.24 0c0,0.18 0.04,0.31 0.11,0.4 0.08,0.08 0.18,0.13 0.29,0.13 0.12,0 0.21,-0.05 0.29,-0.14 0.08,-0.08 0.12,-0.22 0.12,-0.39 0,-0.17 -0.04,-0.3 -0.12,-0.39 -0.08,-0.08 -0.17,-0.13 -0.29,-0.13 -0.11,0 -0.21,0.05 -0.29,0.13 -0.07,0.09 -0.11,0.22 -0.11,0.39z"/>
  <path id="_2" fill="#E77000" fill-rule="nonzero" d="M15.51 4.07l-0.41 -1.37 0.24 0 0.22 0.79 0.07 0.29c0.01,-0.01 0.03,-0.11 0.08,-0.28l0.21 -0.8 0.24 0 0.2 0.79 0.07 0.26 0.08 -0.26 0.24 -0.79 0.22 0 -0.43 1.37 -0.24 0 -0.21 -0.82 -0.06 -0.24 -0.27 1.06 -0.25 0z"/>
  <path id="_3" fill="#E77000" fill-rule="nonzero" d="M17.17 4.07l0 -1.37 0.2 0 0 0.19c0.1,-0.15 0.25,-0.22 0.44,-0.22 0.08,0 0.16,0.02 0.22,0.04 0.07,0.03 0.13,0.07 0.16,0.12 0.03,0.05 0.06,0.11 0.07,0.17 0.01,0.04 0.01,0.12 0.01,0.23l0 0.84 -0.23 0 0 -0.83c0,-0.1 -0.01,-0.17 -0.02,-0.22 -0.02,-0.04 -0.05,-0.08 -0.1,-0.11 -0.05,-0.03 -0.1,-0.04 -0.16,-0.04 -0.1,0 -0.18,0.03 -0.26,0.09 -0.07,0.07 -0.1,0.19 -0.1,0.36l0 0.75 -0.23 0z"/>
  <polygon id="_4" fill="#E77000" fill-rule="nonzero" points="18.62,4.07 18.62,2.18 18.86,2.18 18.86,4.07 "/>
  <path id="_5" fill="#E77000" fill-rule="nonzero" d="M19.13 3.38c0,-0.25 0.07,-0.44 0.21,-0.56 0.12,-0.1 0.26,-0.15 0.43,-0.15 0.19,0 0.34,0.06 0.46,0.18 0.12,0.13 0.18,0.3 0.18,0.51 0,0.18 -0.03,0.32 -0.08,0.42 -0.05,0.1 -0.13,0.18 -0.23,0.23 -0.1,0.06 -0.21,0.09 -0.33,0.09 -0.19,0 -0.35,-0.07 -0.47,-0.19 -0.11,-0.12 -0.17,-0.3 -0.17,-0.53zm0.23 0c0,0.18 0.04,0.31 0.12,0.4 0.08,0.08 0.17,0.13 0.29,0.13 0.11,0 0.21,-0.05 0.29,-0.14 0.07,-0.08 0.11,-0.22 0.11,-0.39 0,-0.17 -0.04,-0.3 -0.11,-0.39 -0.08,-0.08 -0.18,-0.13 -0.29,-0.13 -0.12,0 -0.21,0.05 -0.29,0.13 -0.08,0.09 -0.12,0.22 -0.12,0.39z"/>
  <path id="_6" fill="#E77000" fill-rule="nonzero" d="M21.57 3.89c-0.08,0.08 -0.17,0.13 -0.25,0.16 -0.08,0.03 -0.16,0.05 -0.25,0.05 -0.15,0 -0.27,-0.04 -0.35,-0.11 -0.08,-0.08 -0.12,-0.17 -0.12,-0.28 0,-0.07 0.02,-0.13 0.05,-0.19 0.03,-0.05 0.07,-0.1 0.12,-0.13 0.05,-0.03 0.1,-0.06 0.16,-0.08 0.05,-0.01 0.12,-0.02 0.21,-0.03 0.19,-0.02 0.32,-0.05 0.41,-0.08 0,-0.03 0,-0.05 0,-0.06 0,-0.09 -0.02,-0.16 -0.06,-0.2 -0.06,-0.05 -0.15,-0.08 -0.27,-0.08 -0.11,0 -0.19,0.02 -0.24,0.06 -0.05,0.04 -0.09,0.11 -0.11,0.2l-0.23 -0.03c0.02,-0.1 0.05,-0.17 0.1,-0.23 0.05,-0.06 0.12,-0.11 0.21,-0.14 0.09,-0.03 0.19,-0.05 0.31,-0.05 0.11,0 0.21,0.01 0.28,0.04 0.08,0.03 0.13,0.06 0.16,0.11 0.04,0.04 0.06,0.09 0.08,0.15 0,0.04 0.01,0.11 0.01,0.22l0 0.3c0,0.22 0,0.35 0.01,0.41 0.01,0.06 0.03,0.11 0.06,0.17l-0.24 0c-0.03,-0.05 -0.04,-0.11 -0.05,-0.18zm-0.02 -0.51c-0.08,0.04 -0.21,0.06 -0.38,0.09 -0.09,0.01 -0.16,0.03 -0.2,0.04 -0.04,0.02 -0.07,0.05 -0.09,0.08 -0.02,0.03 -0.03,0.07 -0.03,0.11 0,0.06 0.02,0.11 0.07,0.15 0.04,0.04 0.11,0.06 0.2,0.06 0.09,0 0.17,-0.02 0.24,-0.06 0.07,-0.03 0.12,-0.09 0.15,-0.15 0.03,-0.06 0.04,-0.13 0.04,-0.23l0 -0.09z"/>
  <path id="_7" fill="#E77000" fill-rule="nonzero" d="M23.03 4.07l0 -0.18c-0.09,0.14 -0.22,0.21 -0.39,0.21 -0.1,0 -0.21,-0.03 -0.3,-0.09 -0.09,-0.06 -0.16,-0.15 -0.21,-0.26 -0.05,-0.1 -0.07,-0.23 -0.07,-0.37 0,-0.13 0.02,-0.26 0.06,-0.37 0.05,-0.11 0.12,-0.19 0.21,-0.25 0.09,-0.06 0.19,-0.09 0.3,-0.09 0.09,0 0.16,0.02 0.22,0.05 0.07,0.04 0.12,0.08 0.16,0.14l0 -0.68 0.23 0 0 1.89 -0.21 0zm-0.74 -0.69c0,0.18 0.04,0.31 0.11,0.4 0.08,0.08 0.17,0.13 0.27,0.13 0.1,0 0.18,-0.05 0.25,-0.13 0.08,-0.08 0.11,-0.21 0.11,-0.38 0,-0.18 -0.04,-0.32 -0.11,-0.41 -0.07,-0.08 -0.16,-0.13 -0.26,-0.13 -0.11,0 -0.19,0.04 -0.26,0.13 -0.07,0.08 -0.11,0.21 -0.11,0.39z"/>
  <rect fill="none" stroke="#E77000" stroke-width="0.33" stroke-linecap="round" stroke-linejoin="round" stroke-miterlimit="22.9256" x="0.17" y="0.17" width="38.23" height="11.24" rx="2.25" ry="2.25"/>
 </g>
</svg>
