<?xml version="1.0" encoding="UTF-8"?>
<!DOCTYPE svg PUBLIC "-//W3C//DTD SVG 1.1//EN" "http://www.w3.org/Graphics/SVG/1.1/DTD/svg11.dtd">
<!-- Creator: CorelDRAW 2021 (64-Bit) -->
<svg xmlns="http://www.w3.org/2000/svg" xml:space="preserve" width="480px" height="148px" version="1.1" shape-rendering="geometricPrecision" text-rendering="geometricPrecision" image-rendering="optimizeQuality" fill-rule="evenodd" clip-rule="evenodd"
viewBox="0 0 110.92 34.1"
 xmlns:xlink="http://www.w3.org/1999/xlink"
 xmlns:xodm="http://www.corel.com/coreldraw/odm/2003">
 <g id="Layer_x0020_1">
  <metadata id="CorelCorpID_0Corel-Layer"/>
  <g id="_1803776389264">
   <g>
    <g>
     <path fill="#e77000" d="M20.67 16.39c-0.32,-0.18 -9.47,-8.92 -9.75,-9.82 1.22,0.02 5.34,2.63 6.55,3.32 1.26,0.73 5.29,2.89 6.14,3.58l-2.94 2.92z"/>
     <path fill="#e77000" d="M10.17 26.74c-0.27,-1.56 -0.31,-16.14 -0.1,-19.34 0.5,-0.07 0.03,-0.26 0.62,0.27 0.23,0.21 0.41,0.43 0.65,0.67l8.69 8.69 -9.29 9.33c-0.41,0.4 -0.18,0.44 -0.57,0.38z"/>
     <path fill="#e77000" d="M24.41 13.92c0.76,0.23 1.89,0.99 2.61,1.39 0.75,0.42 1.88,0.81 1.79,1.83 -0.09,0.98 -3.43,2.69 -4.4,3.04 -0.63,-0.5 -2.84,-2.62 -3.16,-3.23l3.16 -3.03z"/>
     <path fill="#e77000" d="M10.89 27.53c0.46,-0.96 1.6,-1.81 2.38,-2.59 1.28,-1.32 6.68,-6.84 7.4,-7.24l3.05 2.97c-2.78,1.34 -11.07,6.78 -12.83,6.86z"/>
     <path fill="#e77000" d="M10.17 26.74c0.39,0.06 0.16,0.02 0.57,-0.38l9.29 -9.33 -8.69 -8.69c-0.24,-0.24 -0.42,-0.46 -0.65,-0.67 -0.59,-0.53 -0.12,-0.34 -0.62,-0.27 -0.21,3.2 -0.17,17.78 0.1,19.34z"/>
     <path fill="#e77000" d="M10.89 27.53c1.76,-0.08 10.05,-5.52 12.83,-6.86l-3.05 -2.97c-0.72,0.4 -6.12,5.92 -7.4,7.24 -0.78,0.78 -1.92,1.63 -2.38,2.59z"/>
     <path fill="#e77000" d="M20.67 16.39l2.94 -2.92c-0.85,-0.69 -4.88,-2.85 -6.14,-3.58 -1.21,-0.69 -5.33,-3.3 -6.55,-3.32 0.28,0.9 9.43,9.64 9.75,9.82z"/>
     <path fill="#e77000" d="M21.25 16.95c0.32,0.61 2.53,2.73 3.16,3.23 0.97,-0.35 4.31,-2.06 4.4,-3.04 0.09,-1.02 -1.04,-1.41 -1.79,-1.83 -0.72,-0.4 -1.85,-1.16 -2.61,-1.39l-3.16 3.03z"/>
    </g>
    <g>
     <path fill="#e77000" d="M42.3 16.9l-3.47 0 -0.02 -1.47 4.99 0.01c0.7,6.7 -7.37,7.63 -9.83,2.97 -1.99,-3.77 0.97,-8.01 5.04,-7.89 1.79,0.06 2.35,0.72 3.45,1.28 -0.26,0.68 -0.51,0.87 -1.02,1.17 -4.02,-2.73 -7.13,0.86 -6.35,3.95 0.91,3.63 6.66,4.15 7.21,-0.02z"/>
     <path fill="#e77000" d="M95.75 14.57l1.42 0c0.76,1.14 1.15,3.16 1.92,4.23l1.77 -4.21 1.57 -0.02c-0.04,0.77 -3.5,8.37 -4.05,9.63l-1.54 0c0.19,-0.74 0.66,-1.63 0.99,-2.36 0.64,-1.38 0.53,-1.04 -0.1,-2.44 -0.42,-0.92 -1.94,-4.15 -1.98,-4.83z"/>
     <polygon fill="#e77000" points="67.29,15.24 67.3,10.92 68.84,10.87 68.83,21.11 67.29,21.09 "/>
     <polygon fill="#e77000" points="87.13,10.92 88.68,10.88 88.68,21.1 87.15,21.09 "/>
     <path fill="#e77000" d="M42.3 16.9c-0.55,4.17 -6.3,3.65 -7.21,0.02 -0.78,-3.09 2.33,-6.68 6.35,-3.95 0.51,-0.3 0.76,-0.49 1.02,-1.17 -1.1,-0.55 -1.66,-1.22 -3.45,-1.28 -4.07,-0.12 -7.03,4.12 -5.04,7.89 2.46,4.66 10.53,3.73 9.83,-2.97l-4.99 -0.01 0.02 1.47 3.47 0z"/>
     <path fill="#e77000" d="M61.18 18.42c-0.66,-2.87 3.2,-3.72 3.67,-1.1 0.52,2.94 -3.1,3.56 -3.67,1.1zm5.04 -3.81c-0.44,-0.05 -0.69,-0.1 -1.11,0.03l-0.4 0.22c-0.4,0.11 0.28,0.16 -0.24,-0.01 -0.71,-0.24 -0.77,-0.62 -1.99,-0.46 -1.42,0.19 -2.41,1.23 -2.76,2.47 -1.12,4.03 3.92,5.38 5,3.74 0.21,1.28 -0.23,2.19 -1.29,2.4 -1.45,0.29 -1.74,-0.6 -2.33,-1.12l-1.19 0.4c0.66,2.5 4.6,2.91 5.8,0.77 0.78,-1.37 0.69,-6.53 0.51,-8.44z"/>
     <path fill="#e77000" d="M80.85 12.35c1.83,-0.26 3.96,-0.19 3.91,1.77 -0.05,1.94 -2.29,1.88 -3.95,1.63l0.04 -3.4zm-1.56 1.39l0 7.32 1.54 -0.02 0.01 -3.8c2.6,0.02 4.89,-0.09 5.39,-2.48 0.91,-4.37 -4.34,-3.91 -6.94,-3.85l0 2.83z"/>
     <path fill="#e77000" d="M91.09 19.36c-0.07,-1.69 1.57,-1.53 2.92,-1.09 -0.2,1.48 -1.75,2.3 -2.92,1.09zm-0.24 -2.96c0.61,-0.28 0.98,-0.81 2.03,-0.61 0.79,0.16 1.03,0.47 1.12,1.27 -1.91,-0.51 -4.55,-0.27 -4.48,2.11 0.05,2.03 3.15,2.97 4.27,1.24l0.27 0.41c0.37,0.36 0.49,0.3 1.45,0.24l0 -3.38c0,-4.37 -4.76,-3.94 -5.75,-1.88 0.36,0.4 0.51,0.37 1.09,0.6z"/>
     <path fill="#e77000" d="M49.75 18.42c-0.65,2.53 -4.49,1.69 -3.77,-1.25 0.58,-2.35 4.53,-1.68 3.77,1.25zm-2.61 -3.95c-4.83,1.2 -2.8,7.96 1.73,6.71 4.09,-1.12 2.77,-7.83 -1.73,-6.71z"/>
     <path fill="#e77000" d="M71.07 17.64c0.17,-1.65 1.97,-2.79 3.03,-1.27 -0.53,0.44 -2.4,1.16 -3.03,1.27zm0.35 1.35c0.99,-0.96 3.22,-1.19 4.47,-2.06 -0.69,-3.6 -5.9,-3.28 -6.3,0.41 -0.49,4.44 5.18,5.02 6.27,2.38l-1.1 -0.66c-0.25,0.16 -2.06,2.03 -3.34,-0.07z"/>
     <path fill="#e77000" d="M53.62 18.61c-0.95,-2.98 3.05,-3.89 3.71,-1.45 0.77,2.89 -2.98,3.73 -3.71,1.45zm1.05 -4.11c-4.71,1.31 -2.75,7.75 1.71,6.7 4.16,-0.98 2.85,-7.96 -1.71,-6.7z"/>
     <path fill="#e77000" d="M97.17 14.57l-1.42 0c0.04,0.68 1.56,3.91 1.98,4.83 0.63,1.4 0.74,1.06 0.1,2.44 -0.33,0.73 -0.8,1.62 -0.99,2.36l1.54 0c0.55,-1.26 4.01,-8.86 4.05,-9.63l-1.57 0.02 -1.77 4.21c-0.77,-1.07 -1.16,-3.09 -1.92,-4.23z"/>
     <polygon fill="#e77000" points="67.29,21.09 68.83,21.11 68.84,10.87 67.3,10.92 67.29,15.24 "/>
     <polygon fill="#e77000" points="87.15,21.09 88.68,21.1 88.68,10.88 87.13,10.92 "/>
    </g>
   </g>
   <path fill="#e77000" fill-rule="nonzero" d="M6.73 0l97.47 0c1.84,0 3.53,0.77 4.74,2.02l0.01 0c1.22,1.24 1.97,2.96 1.97,4.85l0 20.36c0,1.89 -0.75,3.61 -1.97,4.85l-0.06 0.05c-1.21,1.22 -2.87,1.97 -4.69,1.97l-97.47 0c-1.86,0 -3.54,-0.78 -4.76,-2.02 -1.21,-1.24 -1.97,-2.96 -1.97,-4.85l0 -20.36c0,-1.89 0.76,-3.61 1.97,-4.85 1.22,-1.25 2.9,-2.02 4.76,-2.02zm97.47 1.92l-97.47 0c-1.33,0 -2.55,0.56 -3.42,1.46 -0.88,0.89 -1.43,2.13 -1.43,3.49l0 20.36c0,1.36 0.55,2.6 1.43,3.49 0.87,0.9 2.09,1.45 3.42,1.45l97.47 0c1.31,0 2.5,-0.53 3.37,-1.4l0.05 -0.05c0.87,-0.89 1.42,-2.13 1.42,-3.49l0 -20.36c0,-1.36 -0.55,-2.6 -1.42,-3.49 -0.88,-0.9 -2.09,-1.46 -3.42,-1.46z"/>
  </g>
 </g>
</svg>
