<?xml version="1.0" encoding="UTF-8"?>
<!DOCTYPE svg PUBLIC "-//W3C//DTD SVG 1.1//EN" "http://www.w3.org/Graphics/SVG/1.1/DTD/svg11.dtd">
<!-- Creator: CorelDRAW 2021 (64-Bit) -->
<svg xmlns="http://www.w3.org/2000/svg" xml:space="preserve" width="484px" height="152px" version="1.1" shape-rendering="geometricPrecision" text-rendering="geometricPrecision" image-rendering="optimizeQuality" fill-rule="evenodd" clip-rule="evenodd"
viewBox="0 0 74.25 23.34"
 xmlns:xlink="http://www.w3.org/1999/xlink"
 xmlns:xodm="http://www.corel.com/coreldraw/odm/2003">
 <g id="Layer_x0020_1">
  <metadata id="CorelCorpID_0Corel-Layer"/>
  <path fill="#0E2332" fill-rule="nonzero" d="M4.15 0l65.95 0c1.14,0 2.18,0.47 2.93,1.22 0.75,0.75 1.22,1.79 1.22,2.93l0 15.03c0,1.14 -0.47,2.18 -1.22,2.94 -0.75,0.75 -1.79,1.22 -2.93,1.22l-65.95 0c-1.14,0 -2.18,-0.47 -2.93,-1.22 -0.75,-0.76 -1.22,-1.8 -1.22,-2.94l0 -15.03c0,-1.14 0.47,-2.18 1.22,-2.93 0.75,-0.75 1.79,-1.22 2.93,-1.22zm65.95 0.64l-65.95 0c-0.96,0 -1.84,0.39 -2.48,1.03 -0.64,0.64 -1.03,1.52 -1.03,2.48l0 15.03c0,0.97 0.39,1.85 1.03,2.48 0.64,0.64 1.52,1.04 2.48,1.04l65.95 0c0.96,0 1.84,-0.4 2.48,-1.04 0.64,-0.63 1.03,-1.51 1.03,-2.48l0 -15.03c0,-0.96 -0.39,-1.84 -1.03,-2.48 -0.64,-0.64 -1.52,-1.03 -2.48,-1.03z"/>
  <g id="_1830897315744">
   <path fill="#0E2332" d="M27.9 11.99l-2.3 0 -0.01 -0.98 3.31 0.01c0.47,4.45 -4.9,5.06 -6.53,1.97 -1.32,-2.5 0.64,-5.32 3.35,-5.24 1.18,0.04 1.56,0.48 2.29,0.84 -0.17,0.46 -0.34,0.59 -0.68,0.79 -2.67,-1.82 -4.73,0.57 -4.22,2.62 0.61,2.41 4.43,2.76 4.79,-0.01z"/>
   <path fill="#0E2332" d="M63.41 10.44l0.95 0c0.5,0.75 0.76,2.09 1.27,2.81l1.18 -2.8 1.04 -0.01c-0.03,0.51 -2.32,5.56 -2.69,6.39l-1.02 0c0.12,-0.49 0.43,-1.08 0.65,-1.56 0.43,-0.92 0.36,-0.69 -0.06,-1.62 -0.28,-0.62 -1.29,-2.76 -1.32,-3.21z"/>
   <polygon fill="#0E2332" points="44.51,10.88 44.51,8.01 45.54,7.98 45.53,14.78 44.51,14.77 "/>
   <polygon fill="#0E2332" points="57.69,8.01 58.71,7.98 58.71,14.78 57.7,14.77 "/>
   <path fill="#0E2332" d="M27.9 11.99c-0.36,2.77 -4.18,2.42 -4.79,0.01 -0.51,-2.05 1.55,-4.44 4.22,-2.62 0.34,-0.2 0.51,-0.33 0.68,-0.79 -0.73,-0.36 -1.11,-0.8 -2.29,-0.84 -2.71,-0.08 -4.67,2.74 -3.35,5.24 1.63,3.09 7,2.48 6.53,-1.97l-3.31 -0.01 0.01 0.98 2.3 0z"/>
   <path fill="#0E2332" d="M40.45 13c-0.44,-1.91 2.12,-2.48 2.43,-0.73 0.35,1.95 -2.05,2.36 -2.43,0.73zm3.34 -2.53c-0.29,-0.04 -0.46,-0.07 -0.74,0.02l-0.26 0.14c-0.26,0.07 0.19,0.11 -0.16,-0.01 -0.47,-0.16 -0.51,-0.41 -1.32,-0.3 -0.95,0.13 -1.6,0.82 -1.83,1.64 -0.75,2.67 2.6,3.57 3.31,2.48 0.15,0.86 -0.15,1.46 -0.85,1.6 -0.96,0.19 -1.15,-0.4 -1.55,-0.74l-0.79 0.26c0.44,1.66 3.05,1.93 3.86,0.51 0.51,-0.91 0.45,-4.34 0.33,-5.6z"/>
   <path fill="#0E2332" d="M53.51 8.96c1.22,-0.17 2.63,-0.12 2.6,1.18 -0.03,1.29 -1.52,1.25 -2.62,1.08l0.02 -2.26zm-1.04 0.93l0 4.86 1.03 -0.01 0 -2.53c1.73,0.02 3.26,-0.06 3.59,-1.65 0.6,-2.9 -2.88,-2.59 -4.62,-2.55l0 1.88z"/>
   <g>
    <path fill="#0E2332" d="M13.53 11.23c-0.21,-0.12 -6.29,-5.92 -6.47,-6.52 0.81,0.01 3.54,1.75 4.34,2.2 0.84,0.48 3.52,1.92 4.09,2.38l-1.96 1.94z"/>
    <path fill="#0E2332" d="M6.56 18.1c-0.18,-1.03 -0.21,-10.72 -0.07,-12.84 0.34,-0.05 0.02,-0.17 0.41,0.18 0.16,0.14 0.28,0.29 0.44,0.45l5.77 5.77 -6.17 6.2c-0.28,0.26 -0.12,0.29 -0.38,0.24z"/>
    <path fill="#0E2332" d="M16.02 9.59c0.51,0.15 1.26,0.66 1.73,0.92 0.5,0.28 1.25,0.54 1.19,1.22 -0.06,0.65 -2.28,1.79 -2.92,2.02 -0.42,-0.33 -1.89,-1.74 -2.1,-2.15l2.1 -2.01z"/>
    <path fill="#0E2332" d="M7.03 18.63c0.31,-0.64 1.07,-1.2 1.58,-1.72 0.86,-0.87 4.45,-4.55 4.92,-4.81l2.03 1.97c-1.85,0.9 -7.35,4.51 -8.53,4.56z"/>
    <path fill="#0E2332" d="M6.56 18.1c0.26,0.05 0.1,0.02 0.38,-0.24l6.17 -6.2 -5.77 -5.77c-0.16,-0.16 -0.28,-0.31 -0.44,-0.45 -0.39,-0.35 -0.07,-0.23 -0.41,-0.18 -0.14,2.12 -0.11,11.81 0.07,12.84z"/>
    <path fill="#0E2332" d="M7.03 18.63c1.18,-0.05 6.68,-3.66 8.53,-4.56l-2.03 -1.97c-0.47,0.26 -4.06,3.94 -4.92,4.81 -0.51,0.52 -1.27,1.08 -1.58,1.72z"/>
    <path fill="#0E2332" d="M13.53 11.23l1.96 -1.94c-0.57,-0.46 -3.25,-1.9 -4.09,-2.38 -0.8,-0.45 -3.53,-2.19 -4.34,-2.2 0.18,0.6 6.26,6.4 6.47,6.52z"/>
    <path fill="#0E2332" d="M13.92 11.6c0.21,0.41 1.68,1.82 2.1,2.15 0.64,-0.23 2.86,-1.37 2.92,-2.02 0.06,-0.68 -0.69,-0.94 -1.19,-1.22 -0.47,-0.26 -1.22,-0.77 -1.73,-0.92l-2.1 2.01z"/>
   </g>
   <path fill="#0E2332" d="M60.31 13.62c-0.04,-1.13 1.04,-1.02 1.94,-0.72 -0.13,0.98 -1.16,1.52 -1.94,0.72zm-0.15 -1.97c0.4,-0.18 0.65,-0.54 1.35,-0.4 0.52,0.1 0.68,0.31 0.74,0.84 -1.27,-0.34 -3.02,-0.18 -2.98,1.4 0.04,1.35 2.1,1.98 2.84,0.83l0.18 0.27c0.24,0.24 0.32,0.2 0.96,0.16l0 -2.25c0,-2.9 -3.16,-2.61 -3.82,-1.24 0.24,0.26 0.34,0.24 0.73,0.39z"/>
   <path fill="#0E2332" d="M32.85 13c-0.43,1.68 -2.98,1.12 -2.5,-0.84 0.38,-1.55 3.01,-1.11 2.5,0.84zm-1.73 -2.63c-3.21,0.8 -1.86,5.29 1.15,4.46 2.71,-0.75 1.84,-5.2 -1.15,-4.46z"/>
   <path fill="#0E2332" d="M47.01 12.48c0.12,-1.1 1.31,-1.85 2.02,-0.85 -0.36,0.3 -1.6,0.77 -2.02,0.85zm0.24 0.89c0.65,-0.64 2.14,-0.78 2.97,-1.37 -0.46,-2.39 -3.92,-2.17 -4.19,0.28 -0.32,2.95 3.44,3.33 4.17,1.58l-0.73 -0.44c-0.17,0.11 -1.37,1.35 -2.22,-0.05z"/>
   <path fill="#0E2332" d="M35.43 13.12c-0.64,-1.98 2.02,-2.58 2.46,-0.96 0.51,1.92 -1.98,2.47 -2.46,0.96zm0.69 -2.73c-3.13,0.87 -1.83,5.15 1.13,4.45 2.77,-0.65 1.9,-5.29 -1.13,-4.45z"/>
   <path fill="#0E2332" d="M64.36 10.44l-0.95 0c0.03,0.45 1.04,2.59 1.32,3.21 0.42,0.93 0.49,0.7 0.06,1.62 -0.22,0.48 -0.53,1.07 -0.65,1.56l1.02 0c0.37,-0.83 2.66,-5.88 2.69,-6.39l-1.04 0.01 -1.18 2.8c-0.51,-0.72 -0.77,-2.06 -1.27,-2.81z"/>
   <polygon fill="#0E2332" points="44.51,14.77 45.53,14.78 45.54,7.98 44.51,8.01 44.51,10.88 "/>
   <polygon fill="#0E2332" points="57.7,14.77 58.71,14.78 58.71,7.98 57.69,8.01 "/>
  </g>
 </g>
</svg>
